<?xml version="1.0" standalone="no"?>
<!DOCTYPE svg PUBLIC "-//W3C//DTD SVG 1.1//EN" "http://www.w3.org/Graphics/SVG/1.1/DTD/svg11.dtd" >
<svg xmlns="http://www.w3.org/2000/svg" xmlns:xlink="http://www.w3.org/1999/xlink" version="1.1">
<metadata></metadata>
<defs>
<font id="psl_kanda_proitalic" horiz-adv-x="0" >
<font-face units-per-em="2048" ascent="1638" descent="-410" />
<missing-glyph horiz-adv-x="720" />
<glyph unicode="&#xe37;&#xe48;" d="M-880 1411l16 75h634l30 159h81l-28 -159h93l30 159h81l-45 -234h-892zM-96 1740l30 188h81l-30 -188h-81z" />
<glyph unicode="&#xd;" horiz-adv-x="720" />
<glyph unicode=" "  horiz-adv-x="720" />
<glyph unicode="&#x09;" horiz-adv-x="720" />
<glyph unicode="&#xa0;" horiz-adv-x="720" />
<glyph unicode="!" horiz-adv-x="535" d="M90 0l39 213h104l-39 -213h-104zM185 379l75 560l93 537h101l-93 -537l-125 -560h-51z" />
<glyph unicode="&#x22;" horiz-adv-x="651" d="M216 1002l85 474h78l-84 -474h-79zM457 1002l85 474h79l-85 -474h-79z" />
<glyph unicode="#" horiz-adv-x="1150" d="M21 476l14 69h253q32 99 56 179q11 33 21 65.5t17.5 57.5t11.5 41l4 15h-245l14 69h255l143 454h68l-145 -454h349l144 454h69l-144 -454h228l-13 -69h-237l-113 -358h231l-12 -69h-242l-150 -476h-69l150 476h-347l-150 -476h-69q43 132 77 237q13 45 27 87.5t24 76.5 t16 55l6 20h-242zM353 545h349l112 358h-347z" />
<glyph unicode="$" horiz-adv-x="1127" d="M-21.5 261.5q-21.5 94.5 6.5 223.5h75q-20 -113 -2 -194t66.5 -134t120.5 -80.5t159 -32.5l122 686q-91 21 -169.5 46.5t-132.5 68t-78 108.5t-5 168q18 98 64 169.5t115 119.5t157 72.5t187 27.5l29 167h63l-29 -167q125 -4 207 -39.5t127 -96t58 -141.5t-1 -177h-81 q13 62 9.5 127t-37 119.5t-104 91.5t-190.5 41l-114 -639q98 -23 185.5 -51.5t148.5 -74.5t89.5 -115.5t9.5 -175.5q-20 -113 -76.5 -191t-136 -126t-174.5 -71t-193 -26l-32 -181h-61l31 181q-104 4 -191.5 38.5t-144 99t-78 159zM219 1121q-12 -76 1 -127.5t52.5 -85.5 t105.5 -57t161 -43l113 627q-75 -3 -146 -21.5t-130 -55t-100.5 -94.5t-56.5 -143zM467 44q81 2 161 19t147.5 56t116.5 104.5t67 168.5q16 82 -11.5 137t-82 91t-128 57.5t-151.5 40.5z" />
<glyph unicode="%" horiz-adv-x="1608" d="M147 1079q14 73 50 140.5t89.5 118.5t123.5 81.5t152 30.5t141 -27.5t93.5 -75.5t45 -111.5t-1.5 -135.5q-14 -78 -52 -148.5t-93 -124t-124 -85t-144 -31.5q-74 0 -131 30t-94.5 80.5t-52 117t-2.5 140.5zM150 -50l1229 1526h81l-1224 -1526h-86zM222 967 q11 -54 39 -94.5t72.5 -65t102.5 -24.5q60 0 113.5 25.5t96 68.5t72.5 99.5t41 117.5q11 57 1 109.5t-37.5 91.5t-72 63t-102.5 24q-61 0 -115.5 -24.5t-97.5 -66t-72.5 -96.5t-40.5 -116q-11 -58 0 -112zM771 338q12 74 48 142t90.5 119t124 81.5t150.5 30.5q84 0 143 -28 t93.5 -75.5t45 -112t-2.5 -134.5q-13 -78 -51 -148.5t-93 -124t-124.5 -85t-144.5 -31.5q-74 0 -131.5 30t-95 80.5t-52 116.5t-0.5 139zM846 227q11 -53 39 -93.5t72 -65t102 -24.5q59 0 113.5 25.5t97.5 68.5t72 98.5t40 116.5q10 59 0 111t-37.5 91.5t-71.5 63.5t-101 24 q-61 0 -116 -24.5t-98 -67t-72 -97.5t-40 -116q-11 -58 0 -111z" />
<glyph unicode="&#x26;" horiz-adv-x="1225" d="M24 335q14 74 42.5 134t82.5 115.5t137.5 109.5t206.5 117q-14 26 -41.5 67.5t-52 92.5t-39 110t-4.5 122q10 52 44.5 97t83 78.5t109 52.5t122.5 19q65 0 118.5 -16t89.5 -49.5t50 -85.5t2 -124q-13 -64 -49.5 -118.5t-88.5 -100.5t-113.5 -85.5t-122.5 -77.5l276 -437 q33 59 56 119.5t35 128.5h82q-22 -84 -55.5 -162t-76.5 -144l188 -298h-107l-141 219q-91 -113 -210 -178t-247 -65q-100 0 -176.5 25t-125.5 72.5t-68.5 113t-6.5 148.5zM101 335q-12 -67 9.5 -120.5t65 -92t104 -58.5t127.5 -20q110 0 221 62t197 172l-302 478 q-82 -49 -153.5 -88t-125.5 -83.5t-91 -103.5t-52 -146zM436 1193q-11 -55 9 -115.5t48 -109.5q32 -58 75 -113q84 43 154 94q29 21 59 47t53.5 56t41.5 63t24 69q7 45 -6 81.5t-40.5 63.5t-67 41.5t-84.5 14.5q-44 0 -87.5 -14t-80.5 -38.5t-63.5 -60.5t-34.5 -79z" />
<glyph unicode="'" horiz-adv-x="422" d="M222 1002l86 474h78l-85 -474h-79z" />
<glyph unicode="(" horiz-adv-x="558" d="M114.5 95q-38.5 231 10.5 519q30 165 75.5 301t105.5 251.5t131.5 214.5t151.5 189h78q-105 -127 -181 -236.5t-129.5 -219.5t-89.5 -232.5t-64 -274.5q-44 -257 -12.5 -485.5t144.5 -441.5l-81 6q-101 178 -139.5 409z" />
<glyph unicode=")" horiz-adv-x="558" d="M-141 -320q188 211 300.5 441.5t157.5 485.5q27 152 33 274.5t-8.5 232.5t-52 219.5t-98.5 236.5h78q49 -90 87.5 -189t57.5 -214.5t17.5 -251.5t-30.5 -301q-25 -143 -68.5 -273t-103 -245.5t-133 -218t-156.5 -191.5z" />
<glyph unicode="*" horiz-adv-x="745" d="M153 1235l35 62l234 -81l48 264h72l-46 -264l263 81l12 -62l-257 -87l107 -209l-56 -45l-123 209l-203 -209l-45 45l198 209z" />
<glyph unicode="+" horiz-adv-x="1144" d="M54 482l15 80h439l75 434h78l-75 -434h439l-17 -80h-437l-78 -441h-80l80 441h-439z" />
<glyph unicode="," horiz-adv-x="442" d="M-21 -185q27 17 54 40t49 48t37.5 50.5t21.5 43.5q-26 -12 -35.5 -12h-24.5q-35 0 -59 26t-16 64t42.5 69.5t76.5 31.5q57 0 81.5 -38.5t12.5 -96.5q-5 -30 -19.5 -64t-39.5 -68t-60.5 -66.5t-81.5 -58.5z" />
<glyph unicode="-" horiz-adv-x="726" d="M110 523l15 78h443l-17 -78h-441z" />
<glyph unicode="." horiz-adv-x="442" d="M12 78q8 40 41 69t72 29q40 0 63 -29t15 -69q-7 -40 -40 -66.5t-73 -26.5t-62.5 26.5t-15.5 66.5z" />
<glyph unicode="/" horiz-adv-x="690" d="M-159 -35l930 1545h84l-930 -1545h-84z" />
<glyph unicode="0" horiz-adv-x="1144" d="M34.5 552q6.5 91 22.5 181q24 138 74.5 267t129.5 229.5t188 160.5t253 60q100 0 172 -29.5t120 -80t74.5 -117t37.5 -142.5t8 -155.5t-17 -154.5q-29 -167 -79.5 -312t-128.5 -252.5t-188 -169t-259 -61.5q-104 0 -176.5 31t-121 85.5t-74.5 127t-34 157t-1.5 175.5z M113.5 459q1.5 -125 36.5 -217t108.5 -145t192.5 -53q92 0 165.5 31t131.5 83.5t102.5 123t76.5 151t54.5 166.5t37.5 169q18 110 13.5 220.5t-40.5 198t-109.5 143t-192.5 55.5q-127 0 -221 -59t-161.5 -153t-108.5 -211t-61 -232q-26 -146 -24.5 -271z" />
<glyph unicode="1" horiz-adv-x="1144" d="M329 1160l12 59q106 0 176.5 8.5t114.5 30t66.5 58.5t34.5 95l3 15h69l-251 -1426h-78l203 1160h-350z" />
<glyph unicode="2" horiz-adv-x="1144" d="M-31 0q14 109 73 193t147 155t196.5 135.5t221.5 133.5q80 49 148 97.5t119.5 103t85.5 118t48 143.5q13 65 -6.5 121t-60 97.5t-99.5 64.5t-127 23q-97 0 -169.5 -27.5t-124.5 -70.5t-86.5 -95t-54.5 -101t-27 -89t-5 -56h-78q-2 36 9 87.5t37 107t68.5 111.5 t104.5 99.5t145 71t190 27.5q98 0 172 -27.5t120.5 -77t65 -120t3.5 -154.5q-16 -90 -51.5 -159.5t-88.5 -127t-119.5 -106.5t-143.5 -98q-96 -61 -197 -121.5t-187.5 -122.5t-146 -125.5t-73.5 -132.5h852l-12 -78h-949z" />
<glyph unicode="3" horiz-adv-x="1144" d="M22.5 227.5q-24.5 95.5 1.5 242.5h80q-20 -114 -2.5 -195t66 -132t123.5 -75t170 -24q78 0 154.5 25.5t140 71.5t107.5 109.5t58 141.5q29 163 -73.5 252t-351.5 80l12 69q214 -13 343.5 70t156.5 240q13 66 -8 118t-63.5 88.5t-102.5 56t-126 19.5q-101 0 -185 -32.5 t-146.5 -87.5t-102.5 -129t-52 -158h-72q15 98 60.5 184t118 150.5t171 101t221.5 36.5q88 0 161.5 -25t124 -71.5t73 -112.5t8.5 -147q-12 -64 -43 -120t-76 -99.5t-101 -72.5t-120 -40q66 -8 118 -37.5t85 -78.5t46 -113.5t-1 -140.5q-17 -92 -65 -168.5t-120 -131.5 t-164.5 -85.5t-195.5 -30.5q-104 0 -193.5 22t-150 78t-85 151.5z" />
<glyph unicode="4" horiz-adv-x="1144" d="M-6 364l15 78l868 984h79l-176 -993h242l-14 -69h-240l-63 -364h-78l63 364h-696zM84 433h618l156 886z" />
<glyph unicode="5" horiz-adv-x="1144" d="M21 240.5q-23 85.5 7 195.5h76q-18 -95 1 -168.5t65.5 -123t117 -75t154.5 -25.5q86 0 166 34t145.5 91t110.5 133t60 162q15 88 -1.5 165.5t-59.5 135.5t-108 91.5t-145 33.5q-74 0 -131.5 -13.5t-106 -39.5t-91 -63.5t-90.5 -83.5h-78l276 736h720l-12 -75h-661 l-217 -565q47 48 93 81t95.5 53.5t103.5 29.5t116 9q97 0 175 -36.5t128.5 -102.5t70.5 -156t1 -197q-18 -109 -71 -198.5t-129.5 -155.5t-170.5 -101.5t-195 -35.5q-99 0 -185.5 30.5t-146.5 89.5t-83 144.5z" />
<glyph unicode="6" horiz-adv-x="1144" d="M54 454q0 37 5 95t19 133t39 163t65 183q87 205 232.5 313.5t324.5 108.5q106 0 178.5 -30.5t117 -81.5t62 -120t12.5 -144h-75q-1 58 -17 114t-51.5 99.5t-94.5 70.5t-144 27q-95 0 -171.5 -34.5t-136 -92.5t-105 -134t-77.5 -159.5t-52.5 -168.5t-31.5 -160 q81 149 209.5 227.5t286.5 78.5q98 0 176 -36.5t128.5 -102.5t70 -157.5t1.5 -200.5q-18 -99 -68.5 -185t-125.5 -148.5t-171.5 -99t-205.5 -36.5q-214 0 -309.5 122t-90.5 356zM144 454q-14 -78 1.5 -152t57.5 -131.5t109 -92t158 -34.5q84 0 163.5 32.5t144.5 87.5 t109.5 127.5t58.5 153.5q15 86 -2 163t-60.5 136t-111.5 94.5t-155 35.5q-83 0 -161 -32.5t-142.5 -88t-109.5 -133t-60 -166.5z" />
<glyph unicode="7" horiz-adv-x="1144" d="M203 0q28 124 79 260q42 116 113.5 262.5t181.5 299.5q70 98 156 192.5t159 169.5q86 87 173 167h-840l14 75h921l-12 -81q-82 -67 -167 -153q-74 -74 -164 -177t-177 -229q-46 -65 -85 -133.5t-72 -135.5t-60 -132t-47 -122q-50 -134 -81 -263h-92z" />
<glyph unicode="8" horiz-adv-x="1144" d="M21 389q17 91 54.5 161t89.5 118t115 75t130 34q-58 14 -102.5 40t-72.5 65t-37.5 93.5t2.5 124.5q14 83 58.5 148t111 111t151.5 70.5t181 24.5q92 0 168 -21.5t128.5 -63.5t76.5 -104t10 -144q-14 -78 -43 -135t-70.5 -97.5t-94 -66.5t-115.5 -42q67 -9 120 -39 t86.5 -78.5t46 -114.5t-1.5 -147q-19 -95 -67 -173t-121.5 -134t-169 -87t-207.5 -31q-99 0 -185.5 24t-146 74.5t-86.5 129t-9 185.5zM101 398q-14 -74 1.5 -138t59 -112.5t116 -76t173.5 -27.5t184 27.5t144 76t100 112t51 135.5q14 73 3.5 136t-51 110t-115.5 74t-190 27 q-110 0 -193.5 -27t-141.5 -73.5t-93.5 -109t-47.5 -134.5zM275 1103q-10 -61 5 -114.5t54 -92.5t102.5 -62t149.5 -23q92 0 165.5 23t126 62t84.5 92.5t43 114.5q11 60 -3.5 111t-54.5 89.5t-104 60t-153 21.5q-90 0 -162 -21.5t-125 -60t-85 -89.5t-43 -111z" />
<glyph unicode="9" horiz-adv-x="1144" d="M47 350h82q-5 -65 15 -121t59 -97.5t93 -64.5t120 -23q93 0 169 31t136.5 83.5t107 123.5t81 152.5t57.5 169.5t38 173q-79 -139 -200 -217t-273 -78q-110 0 -192.5 39t-133.5 106.5t-69 157t1 190.5q18 98 68 185t124 151t169.5 101.5t205.5 37.5q114 0 188.5 -31 t121.5 -86t67 -128.5t22 -158t-9.5 -174.5t-29.5 -179q-17 -87 -44.5 -173.5t-66.5 -166t-90.5 -148.5t-116.5 -120t-144.5 -80t-175.5 -29q-92 0 -166 26.5t-124.5 75.5t-74.5 118t-15 154zM216 972q-16 -88 2.5 -164.5t63.5 -133.5t112.5 -90t150.5 -33q84 0 164 33 t145.5 90t110.5 133.5t60 164.5q15 87 -3 162.5t-63.5 131.5t-113.5 89t-152 33t-163 -33t-144 -89t-110 -131.5t-60 -162.5z" />
<glyph unicode=":" horiz-adv-x="442" d="M12 78q8 40 41 69t72 29q40 0 63 -29t15 -69q-7 -40 -40 -66.5t-73 -26.5t-62.5 26.5t-15.5 66.5zM159 915q8 40 41 69t72 29q40 0 63 -29t15 -69q-7 -40 -39.5 -66.5t-71.5 -26.5q-40 0 -64 26.5t-16 66.5z" />
<glyph unicode=";" horiz-adv-x="442" d="M-21 -185q27 17 54 40t49 48t37.5 50.5t21.5 43.5q-26 -12 -35.5 -12h-24.5q-35 0 -59 26t-16 64t42.5 69.5t76.5 31.5q57 0 81.5 -38.5t12.5 -96.5q-5 -30 -19.5 -64t-39.5 -68t-60.5 -66.5t-81.5 -58.5zM159 915q8 40 41 69t72 29q40 0 63 -29t15 -69 q-7 -40 -39.5 -66.5t-71.5 -26.5q-40 0 -64 26.5t-16 66.5z" />
<glyph unicode="&#x3c;" horiz-adv-x="1240" d="M50 470l22 110l1138 482l-17 -84l-1061 -452l902 -457l-15 -84z" />
<glyph unicode="=" horiz-adv-x="1144" d="M18 282l13 79h956l-12 -79h-957zM87 682l17 80h955l-16 -80h-956z" />
<glyph unicode="&#x3e;" horiz-adv-x="1240" d="M-35 -15l17 84l1061 451l-902 458l15 84l965 -488l-18 -107z" />
<glyph unicode="?" horiz-adv-x="1049" d="M141 1019q6 112 48 202t111.5 154.5t163.5 99.5t206 35q89 0 162.5 -25t121.5 -72.5t68.5 -115.5t5.5 -153q-15 -91 -55 -154.5t-91 -112.5t-107.5 -88t-107 -80.5t-88 -92t-50.5 -120.5q-4 -26 -9 -49q-3 -20 -6 -40.5t-6 -33.5h-78q3 14 6 34.5t6 42.5q5 23 9 49 q14 76 52.5 132t89 100.5t107.5 84t107.5 85.5t89.5 104t53 139q11 66 -4.5 119.5t-54.5 92.5t-98.5 60.5t-137.5 21.5q-110 0 -191.5 -36t-135 -95t-81 -134.5t-28.5 -153.5h-78zM320 84q7 43 41.5 73.5t77.5 30.5t66 -29t15 -72q-3 -21 -14.5 -40t-28 -33t-37.5 -22.5 t-42 -6.5q-40 3 -63 31t-15 68z" />
<glyph unicode="@" horiz-adv-x="1673" d="M97 461q-28 146 7 307q34 156 122.5 291.5t211 235.5t268 157.5t293.5 57.5q144 0 255.5 -37.5t189.5 -102.5t122 -152t53 -186t-16.5 -203.5t-86.5 -204.5q-46 -76 -104.5 -141t-123 -112t-130.5 -73t-127 -26q-33 0 -55.5 12.5t-35.5 32.5t-16.5 46.5t0.5 55.5 q-34 -33 -65 -60t-68 -45.5t-82 -28.5t-108 -10q-58 0 -105.5 34t-72 97.5t-18 153.5t58.5 205q39 89 96.5 167.5t128 138.5t153 94.5t174.5 34.5q53 0 88.5 -20t56 -48.5t30 -62t12.5 -61.5l76 152h84l-332 -672q-29 -58 -22 -90t33 -43.5t62.5 -5.5t67.5 24 q148 88 243 223t124 298q22 123 -18.5 225t-122 174.5t-190.5 111.5t-224 39q-84 0 -171.5 -24.5t-170 -68.5t-158 -106t-137 -137t-105 -162.5t-63.5 -180.5q-31 -145 -2.5 -277.5t103.5 -232.5t189.5 -160t257.5 -60q102 0 198 26t178.5 69.5t149.5 99.5t116 117h91 q-54 -78 -129.5 -146.5t-171.5 -121.5t-209 -83.5t-239 -30.5q-168 0 -296.5 65t-209 175t-108.5 256zM491 465q14 -58 49 -89.5t81 -31.5q58 0 110 17t102.5 56.5t101 104t108.5 160.5q51 83 70 163.5t12 144t-38 102.5t-82 39q-27 0 -77 -7t-110.5 -40t-127.5 -102 t-132 -193q-53 -102 -67 -184t0 -140z" />
<glyph unicode="A" horiz-adv-x="1213" d="M-150 0l840 1476h99l314 -1476h-95l-96 473h-699l-270 -473h-93zM254 551h643l-170 840z" />
<glyph unicode="B" horiz-adv-x="1279" d="M3 0l260 1476h545q107 0 189 -18t136 -60q54 -40 80 -108q23 -58 23 -140q0 -12 -1 -25q-3 -56 -28.5 -112.5t-70 -105.5t-107 -84t-139.5 -46q74 -9 130.5 -40.5t92 -79.5t47.5 -111q6 -32 6 -65t-6 -68q-19 -109 -75.5 -187t-132 -128.5t-160.5 -74t-162 -23.5h-627z M107 78h488q92 0 172.5 20.5t143 62.5t104 105t56.5 147q6 33 6 63q1 106 -73 170q-94 80 -293 81h-489zM236 805h497q69 0 136 17.5t124 54t97.5 94t53.5 138.5q6 32 6 60q0 40 -12 73q-20 55 -63.5 89.5t-104 50t-127.5 15.5h-502z" />
<glyph unicode="C" horiz-adv-x="1429" d="M72 452q-9 61 -9 124q0 82 15 169q28 164 103 304t185 242.5t247 160.5t287 58q117 0 200 -29t138.5 -73.5t88 -99.5t49 -107.5t22 -96.5t7.5 -67h-89q-3 86 -30.5 158t-82 124.5t-134 82.5t-185.5 30q-136 0 -255.5 -55t-213.5 -148.5t-157.5 -217.5t-87.5 -263 q-14 -82 -14 -162q0 -50 6 -99q14 -127 71.5 -225t158.5 -158t251 -60q81 0 154.5 24.5t137 66t117 96t94 113t68 118.5t39.5 112h92q-14 -54 -42.5 -119.5t-72.5 -133t-104 -132t-137 -114t-170.5 -80t-204.5 -30.5q-163 0 -276 65t-179.5 173.5t-86.5 248.5z" />
<glyph unicode="D" horiz-adv-x="1350" d="M3 -3l260 1479h485q139 0 249.5 -40.5t182.5 -123.5q73 -84 102 -212q16 -72 16 -158q0 -69 -10 -146q-26 -187 -94 -334.5t-174.5 -251t-250 -158.5t-321.5 -55h-445zM107 78h392q148 0 269.5 54.5t211 150.5t145 228.5t71.5 287.5q8 71 8 132q0 85 -15 151 q-26 114 -91 184t-166 100.5t-230 30.5h-361z" />
<glyph unicode="E" horiz-adv-x="1136" d="M3 0l260 1476h972l-13 -79h-881l-105 -592h826l-12 -78h-828l-115 -649h892l-12 -78h-984z" />
<glyph unicode="F" horiz-adv-x="1040" d="M3 0l260 1476h906l-12 -79h-816l-105 -592h736l-13 -78h-737l-129 -727h-90z" />
<glyph unicode="G" horiz-adv-x="1500" d="M72 424q-10 61 -10 127q0 82 16 170q17 99 53.5 197t90 186t125 162t156.5 128.5t185 85t212 30.5q101 0 177.5 -21.5t131.5 -56t91.5 -78.5t59.5 -90q54 -107 54 -245h-86q-5 101 -40.5 178t-96 129.5t-145 79t-185.5 26.5q-91 0 -174.5 -28.5t-156.5 -78t-133 -117 t-107.5 -146t-80 -166t-47.5 -175.5q-14 -80 -14 -154q0 -61 10 -117q21 -124 83.5 -214.5t163.5 -141t238 -50.5q120 0 226.5 37t191.5 111t145.5 187.5t87.5 266.5h-532l15 78h611l-129 -724h-78l54 311q-106 -173 -260.5 -259.5t-350.5 -86.5q-159 0 -274.5 58t-185 160 t-92.5 241z" />
<glyph unicode="H" horiz-adv-x="1357" d="M3 0l260 1476h90l-117 -671h924l119 671h87l-260 -1476h-87l129 727h-926l-129 -727h-90z" />
<glyph unicode="I" horiz-adv-x="344" d="M3 0l260 1476h90l-260 -1476h-90z" />
<glyph unicode="J" horiz-adv-x="974" d="M-26 268v15q0 87 26 187h84q-17 -95 -22 -174v-25q0 -63 19 -109q23 -56 80.5 -87t164.5 -31q86 0 149.5 21.5t107.5 65t73 110.5t46 157l192 1078h87l-192 -1078q-18 -104 -54.5 -184.5t-95 -137t-140 -85.5t-188.5 -29q-115 0 -188.5 38t-109.5 106t-39 162z" />
<glyph unicode="K" horiz-adv-x="1243" d="M3 0l260 1476h90l-150 -849l1062 849h117l-775 -618l556 -858h-116l-511 799l-351 -282l-92 -520z" />
<glyph unicode="L" horiz-adv-x="1012" d="M3 0l260 1476h90l-246 -1398h817l-12 -78h-909z" />
<glyph unicode="M" horiz-adv-x="1638" d="M3 0l260 1476h126l326 -1380l804 1380h126l-260 -1476h-88l242 1369l-800 -1369h-87l-317 1366l-242 -1366h-90z" />
<glyph unicode="N" horiz-adv-x="1372" d="M3 0l260 1476h110l680 -1354l238 1354h91l-261 -1476h-102l-684 1366l-242 -1366h-90z" />
<glyph unicode="O" horiz-adv-x="1500" d="M61 450q-8 59 -8 120q0 85 16 175q27 161 99 300t180 242.5t246.5 163t299.5 59.5q148 0 264 -56t190 -154q75 -96 104 -232q15 -70 16 -147q0 -71 -14 -147q-28 -160 -95.5 -307t-173 -259.5t-247.5 -179t-321 -66.5q-167 0 -283.5 65t-184.5 173t-88 250zM152 475 q16 -128 74.5 -224t158.5 -153t242 -57q150 0 277 63t223.5 165.5t157 234t78.5 270.5q8 57 8 112q-1 70 -13 136q-22 119 -81 210t-158.5 145.5t-238.5 54.5q-147 0 -269.5 -57.5t-215 -152t-153 -218.5t-83.5 -259q-14 -84 -14 -163q0 -55 7 -107z" />
<glyph unicode="P" horiz-adv-x="1196" d="M3 0l260 1476h621q110 0 183 -31t112.5 -86t50.5 -129q5 -32 4 -65q0 -45 -8 -94q-17 -96 -60 -172.5t-110.5 -130t-157.5 -82t-202 -28.5h-486l-117 -658h-90zM222 736h493q90 0 162.5 24.5t126 68t87.5 104t46 132.5q8 42 8 80q1 27 -3 51q-10 60 -44.5 105t-98 70.5 t-159.5 25.5h-499z" />
<glyph unicode="Q" horiz-adv-x="1500" d="M61 450q-8 59 -8 120q0 86 16 175q27 161 99 300t180 242.5t246.5 163t299.5 59.5q148 0 264 -56t191 -153.5t103 -232.5q15 -70 15 -146q0 -71 -13 -148q-31 -182 -113.5 -343.5t-212.5 -277.5l191 -165l-60 -60l-209 162q-91 -61 -199.5 -94.5t-233.5 -33.5 q-167 0 -283.5 65t-184.5 173.5t-88 249.5zM152 475q16 -128 74.5 -224t158.5 -153t242 -57q101 0 191.5 28.5t168.5 80.5l-188 161l59 62l204 -166q125 105 202.5 255t98.5 312q9 61 9 119q0 66 -12 129q-21 119 -81 210t-160 145.5t-239 54.5q-147 0 -269.5 -57.5 t-215 -152t-153 -218.5t-83.5 -259q-14 -84 -14 -163q0 -55 7 -107z" />
<glyph unicode="R" horiz-adv-x="1279" d="M3 0l260 1476h627q98 0 174 -23.5t124 -69.5t67 -114q11 -38 11 -83q0 -35 -7 -74q-30 -165 -129 -266.5t-256 -130.5q88 -10 139.5 -43.5t73.5 -89.5q20 -52 21 -123q0 -5 -1 -13q-2 -80 -19 -180l-14 -72q-9 -53 -9 -90q0 -39 6 -63q6 -27 17 -41h-98q-9 15 -14 41 q-4 22 -4 58t9 86l35 185q8 42 8 78t-8 64q-15 58 -54 93t-99.5 50t-138.5 15h-511l-120 -670h-90zM225 753h496q73 0 145.5 16.5t134 54t105 100.5t60.5 155q7 39 7 72q0 43 -11 77q-19 62 -65.5 99.5t-119.5 53.5t-166 16h-470z" />
<glyph unicode="S" horiz-adv-x="1279" d="M34 302q-4 36 -4 72q0 57 11 114h91q-15 -63 -15 -118q-1 -34 5 -66q16 -82 68 -139.5t138.5 -89t203.5 -31.5q85 0 170.5 16t158 56t124.5 106.5t71 166.5q5 27 5 51q0 52 -22 91q-32 57 -98 94t-157.5 61t-194.5 44q-113 23 -194 52.5t-131 77.5q-50 50 -66 120 q-8 33 -8 73q0 45 10 98q16 87 71.5 154t133.5 113t171 69t183 23q124 0 207.5 -26.5t136 -69.5t79.5 -95q27 -53 37 -103q8 -40 8 -76q-1 -10 -1 -18q-2 -44 -7 -66h-85q3 27 3 53q0 49 -11 93q-17 68 -63.5 120t-124.5 81t-193 29q-72 0 -147 -17t-139 -52t-109.5 -88 t-58.5 -124q-7 -42 -8 -77q0 -45 13 -79q22 -59 69.5 -94t114 -54t141.5 -36q139 -31 245 -60.5t172.5 -77t91.5 -120.5q14 -40 14 -92q0 -44 -10 -97q-17 -96 -70.5 -170.5t-135.5 -125.5t-187 -77t-221 -26q-165 0 -267 46.5t-154.5 121.5t-64.5 169z" />
<glyph unicode="T" horiz-adv-x="1052" d="M93 1397l14 79h1109l-13 -79h-513l-248 -1397h-89l248 1397h-508z" />
<glyph unicode="U" horiz-adv-x="1363" d="M94 328q-3 35 -4 72q0 85 17 183l156 893h90l-156 -893q-16 -91 -16 -167q0 -146 59 -237q90 -138 314 -138q128 0 225.5 40t167 112t113 171.5t65.5 218.5l157 893h87l-156 -893q-24 -144 -77.5 -258.5t-138 -195t-198.5 -124t-257 -43.5q-146 0 -240.5 44t-146 126 t-61.5 196z" />
<glyph unicode="V" horiz-adv-x="1127" d="M107 1476h93l251 -1401l745 1401h89l-797 -1476h-102z" />
<glyph unicode="W" horiz-adv-x="1802" d="M122 1476h94l131 -1383l631 1383h113l147 -1380l616 1380h95l-678 -1476h-99l-153 1408l-637 -1408h-104z" />
<glyph unicode="X" horiz-adv-x="1127" d="M-159 0l679 762l-382 714h104l341 -642l580 642h105l-635 -714l404 -762h-110l-369 693l-612 -693h-105z" />
<glyph unicode="Y" horiz-adv-x="1162" d="M90 1476h104l383 -777l664 777h101l-735 -859l-108 -617h-89l110 617z" />
<glyph unicode="Z" horiz-adv-x="1087" d="M-129 0l13 75l1213 1322h-918l12 79h1015l-13 -79l-1217 -1319h1002l-13 -78h-1094z" />
<glyph unicode="[" horiz-adv-x="498" d="M12 -317l332 1887h283l-10 -66h-204l-309 -1755h204l-13 -66h-283z" />
<glyph unicode="\" horiz-adv-x="690" d="M113 1510h84l386 -1545h-84z" />
<glyph unicode="]" horiz-adv-x="498" d="M-159 -317l12 66h204l310 1755h-205l11 66h281l-332 -1887h-281z" />
<glyph unicode="^" horiz-adv-x="1240" d="M44 488l649 938h109l319 -938h-84l-298 872l-610 -872h-85z" />
<glyph unicode="_" horiz-adv-x="1144" d="M-167 -233l14 80h1143l-12 -80h-1145z" />
<glyph unicode="`" horiz-adv-x="344" d="M78 1510h107l197 -288h-74z" />
<glyph unicode="a" horiz-adv-x="1012" d="M-12 282q12 73 49.5 127.5t91 92t121.5 58t142 26.5q82 6 155.5 12t128.5 20.5t89.5 42t42.5 78.5l11 66q3 20 3 38q0 39 -14 67q-20 42 -58.5 65.5t-89.5 32t-106 8.5q-77 0 -135 -20.5t-101 -57.5t-71 -88t-47 -111h-78q19 89 60 154t98.5 108.5t127 65t146.5 21.5 q69 0 137 -14.5t118.5 -45t76.5 -80.5q18 -34 18 -78q0 -20 -4 -42l-117 -655q-4 -23 -4 -46t11 -39q10 -16 34 -20q6 -1 13 -1q21 0 53 11l-10 -66q-28 -12 -63 -14h-7q-31 0 -57 12q-29 14 -46 42q-11 19 -11 44q0 14 3 29l16 88q-37 -60 -86 -104.5t-105 -72.5 t-117 -42.5t-122 -14.5q-68 0 -128.5 12t-104 45t-62.5 92q-10 31 -10 72q0 37 8 82zM63 282q-4 -25 -4 -48q0 -76 48 -126q63 -64 201 -64q85 0 160 31t134 83t98 120.5t53 143.5l30 185q-23 -26 -70 -41t-104 -24.5t-113.5 -14t-94.5 -7.5q-69 -7 -126.5 -22.5t-101 -44 t-72 -70.5t-38.5 -101z" />
<glyph unicode="b" horiz-adv-x="1127" d="M6 0l260 1476h78l-111 -639q73 115 184 183t253 68q119 0 198 -43.5t122 -115.5t53 -166q3 -32 3 -66q0 -63 -12 -129q-24 -143 -74.5 -253t-124 -185.5t-166 -114.5t-202.5 -39q-130 0 -218 68.5t-124 194.5l-41 -239h-78zM177 362q7 -94 41 -165.5t98.5 -112 t159.5 -40.5q112 0 195 48.5t142 122.5t94 163t49 170q10 57 10 114q0 30 -2 59q-8 85 -44 151.5t-102.5 106.5t-168.5 40q-98 0 -176 -38.5t-136.5 -101t-96 -143.5t-52.5 -168q-13 -80 -13 -151q0 -29 2 -55z" />
<glyph unicode="c" horiz-adv-x="1052" d="M30 308q-5 40 -5 85q0 68 13 143q19 105 64.5 205.5t118.5 176.5t170 123t216 47q109 0 183 -29t118.5 -79t60.5 -114q11 -45 12 -91q0 -21 -3 -42h-75q1 10 1 19q0 45 -12 87q-14 51 -50 92t-97 64.5t-150 23.5q-92 0 -172 -39t-143.5 -105.5t-106.5 -154t-60 -184.5 q-12 -71 -12 -134q0 -35 4 -67q10 -90 49 -155t106 -100.5t162 -35.5q77 0 145.5 25.5t124 70t96 104.5t61.5 129h78q-24 -81 -71.5 -153.5t-114 -127.5t-150 -87.5t-181.5 -32.5q-112 0 -191.5 42.5t-127 116t-61.5 177.5z" />
<glyph unicode="d" horiz-adv-x="1127" d="M26 338q-2 24 -2 51q0 75 17 169q20 111 64.5 207t112.5 168t160.5 113.5t207.5 41.5q64 0 123 -16t105.5 -47.5t79 -79t42.5 -108.5h3l114 639h78l-260 -1476h-78l41 239h-3q-9 -22 -41.5 -65.5t-86.5 -88t-131.5 -77t-179.5 -32.5q-36 0 -82.5 7.5t-92.5 30.5t-88 62.5 t-68.5 104.5t-34.5 157zM103 375q4 -92 36 -165.5t95.5 -119.5t166.5 -46q105 0 188 44t144 115t99.5 163.5t54.5 191.5q11 65 11 124q0 31 -3 61q-9 85 -46.5 146t-105.5 95.5t-169 34.5q-94 0 -171 -39t-136 -103.5t-97 -147.5t-54 -171q-14 -74 -14 -148q0 -17 1 -35z " />
<glyph unicode="e" horiz-adv-x="1052" d="M26 315q-3 31 -3 64q0 69 12 141q20 112 66 214.5t117 181t166.5 125.5t213.5 47q95 0 162.5 -28.5t111 -74.5t67 -105.5t30.5 -123.5q4 -36 4 -70q-1 -27 -3 -54q-6 -61 -17 -112h-843q-11 -68 -11 -127q-1 -35 3 -67q10 -87 49 -150t104.5 -97.5t157.5 -34.5 q84 0 153.5 27.5t123.5 73t90.5 102t56.5 114.5h78q-31 -87 -77.5 -158t-110 -121.5t-144.5 -78t-179 -27.5q-124 0 -204.5 45t-123 120.5t-50.5 173.5zM122 589h765q6 36 6 76q1 31 -3 63q-8 75 -43 139.5t-99 108t-162 43.5q-101 0 -182 -46t-140 -112.5t-95 -140.5 t-47 -131z" />
<glyph unicode="f" horiz-adv-x="488" d="M50 993l13 69h188l37 226q15 84 75.5 141t165.5 66q20 3 40 0.5t37 -5.5q18 -4 37 -7l-13 -72q-30 9 -72 15q-10 2 -21 2q-33 0 -70 -14q-54 -20 -74.5 -54.5t-28.5 -71.5l-38 -226h216l-13 -69h-215l-176 -993h-75l176 993h-189z" />
<glyph unicode="g" horiz-adv-x="1087" d="M-21 -75h81q-4 -20 -4 -40q0 -25 6 -51q10 -47 42 -85t87 -62.5t138 -24.5q190 0 304.5 95.5t149.5 305.5l39 222q-161 -244 -427 -244q-124 0 -200.5 45.5t-115.5 120.5t-46 171q-2 27 -2 54q0 71 13 145q19 107 67 200.5t118.5 162t160 108.5t190.5 40q133 0 222.5 -63 t115.5 -182l41 219h78l-176 -999q-23 -127 -68 -216t-114 -144.5t-160 -81t-202 -25.5q-115 0 -184.5 29t-105.5 76t-45 105q-5 37 -5 75q0 22 2 44zM110 397q6 -85 40.5 -149t98 -102.5t158.5 -38.5q89 0 165.5 32t137 93.5t101.5 148t60 196.5q9 51 9 100q0 33 -4 65 q-10 80 -46.5 142t-102 98.5t-159.5 36.5q-89 0 -164 -38.5t-134 -100t-97 -141.5t-54 -162q-11 -68 -11 -130q0 -25 2 -50z" />
<glyph unicode="h" horiz-adv-x="1052" d="M-12 0l260 1476h78l-113 -639q36 66 87.5 113.5t109.5 78t121.5 45t126.5 14.5q158 0 234 -101q52 -69 52 -188q0 -55 -11 -120l-119 -679h-81l116 658q12 68 12 123q0 89 -31 146q-50 92 -194 92q-102 0 -181.5 -35t-138.5 -95t-95 -138t-51 -162l-104 -589h-78z" />
<glyph unicode="i" horiz-adv-x="341" d="M6 0l188 1062h78l-188 -1062h-78zM230 1262l36 214h78l-36 -214h-78z" />
<glyph unicode="j" horiz-adv-x="341" d="M-260 -379l9 65q24 -2 46 -2q19 0 37 2q38 2 68 22t52 62.5t36 119.5l206 1172h78l-206 -1172q-16 -83 -43.5 -138t-67 -85.5t-93.5 -41.5q-32 -7 -71 -7q-24 0 -51 3zM230 1262l36 214h78l-36 -214h-78z" />
<glyph unicode="k" horiz-adv-x="939" d="M-9 0l260 1476h78l-173 -977l747 563h105l-520 -395l367 -667h-102l-337 604l-278 -206l-69 -398h-78z" />
<glyph unicode="l" horiz-adv-x="341" d="M6 0l260 1476h78l-260 -1476h-78z" />
<glyph unicode="m" horiz-adv-x="1611" d="M-9 0l188 1062h78l-38 -216q27 57 68.5 101t90.5 75.5t102.5 48.5t105.5 17q130 0 199 -58t83 -169q56 104 150 165.5t223 61.5q89 0 146 -30t87 -80.5t36 -115.5q2 -18 1 -37q0 -48 -10 -98l-129 -727h-75l129 727q7 39 7 76q1 19 -1 37q-6 54 -29.5 93.5t-66.5 62.5 t-107 23q-69 0 -133.5 -24.5t-118 -72.5t-92.5 -118.5t-54 -163.5l-113 -640h-75l125 711q9 46 9 92q-1 10 -1 21q-2 56 -22.5 98.5t-63.5 69.5t-116 27q-75 0 -141 -33t-117 -84t-84 -113t-44 -122l-119 -667h-78z" />
<glyph unicode="n" horiz-adv-x="1052" d="M-12 0l188 1062h78l-41 -225q35 63 84.5 110t106.5 78.5t117 47t115 15.5q103 0 168 -30.5t100 -83.5q34 -54 41 -126q2 -22 2 -45q0 -53 -11 -110l-122 -693h-81l122 693q9 46 9 89q0 17 -1 33q-5 59 -31 104t-76.5 72.5t-131.5 27.5q-96 0 -174 -37.5t-136 -96.5 t-94 -131.5t-47 -143.5l-107 -610h-78z" />
<glyph unicode="o" horiz-adv-x="1087" d="M32 319q-6 44 -6 90q0 65 12 136q19 105 67 204t121.5 174t170 120t210.5 45q111 0 192 -41.5t130.5 -115t66.5 -173.5q8 -46 7 -94q0 -57 -10 -119q-23 -124 -73.5 -229t-125.5 -181.5t-172 -119.5t-212 -43q-109 0 -187.5 44.5t-127 121t-63.5 181.5zM104 361 q8 -90 44 -160.5t103 -113.5t171 -43q101 0 185.5 43t148 113.5t104.5 160.5t58 184q8 51 8 100q0 37 -4 75q-12 86 -52.5 152.5t-108.5 106.5t-166 40q-90 0 -171 -39t-144.5 -105t-107 -151.5t-59.5 -178.5q-12 -64 -11 -126q-1 -29 2 -58z" />
<glyph unicode="p" horiz-adv-x="1127" d="M-60 -379l254 1441h78l-42 -237q79 124 190 193.5t241 69.5q104 0 183.5 -36t128 -108.5t63.5 -179.5q5 -40 5 -84q0 -76 -16 -166q-18 -101 -62.5 -198t-115 -173t-166 -121.5t-214.5 -45.5q-65 0 -123 13.5t-104 43.5t-76.5 77.5t-38.5 114.5l-107 -604h-78zM164 320 q7 -81 42.5 -142.5t102 -97.5t167.5 -36q102 0 183.5 40t141 106t97 150t52.5 174q11 63 11 131q0 19 -1 39q-4 89 -36 164t-98 123t-177 48q-192 0 -312.5 -137.5t-163.5 -385.5q-12 -65 -12 -124q0 -27 3 -52z" />
<glyph unicode="q" horiz-adv-x="1127" d="M28 316q-4 36 -4 72q0 62 11 126q26 144 78 252t125 179.5t164.5 107t195.5 35.5q130 0 218 -69.5t120 -193.5l45 237h78l-254 -1441h-78l107 604q-51 -67 -100 -114.5t-101 -77.5t-108.5 -43.5t-120.5 -13.5q-119 0 -199 45.5t-123.5 121.5t-53.5 173zM102 340 q7 -84 42 -150t101 -106t168 -40q101 0 182 43t141 113.5t99 160t55 181.5q10 55 10 109q0 34 -4 67q-10 87 -47.5 153.5t-102.5 107t-160 40.5q-112 0 -194.5 -46t-140 -118.5t-92 -163t-49.5 -177.5q-10 -61 -10 -120q0 -27 2 -54z" />
<glyph unicode="r" horiz-adv-x="561" d="M-12 0l188 1062h78l-41 -234q39 67 101 119q26 23 60.5 44.5t77 38.5t94 27.5t112.5 10.5l-12 -78q-15 1 -31 1q-77 1 -143 -25q-80 -30 -142 -87t-103.5 -134.5t-56.5 -164.5l-104 -580h-78z" />
<glyph unicode="s" horiz-adv-x="974" d="M12 353h75q-4 -23 -4 -47q1 -30 7 -61q12 -55 46 -99.5t91.5 -73t139.5 -28.5q61 0 124 11t116.5 37t91 69.5t49.5 110.5q4 21 4 40q0 70 -58 112q-74 54 -261 90q-63 11 -123.5 30t-106 52t-68.5 82q-15 31 -15 72q0 23 5 49q26 142 136.5 215.5t289.5 73.5 q116 0 185.5 -30.5t104 -79t40.5 -109.5q2 -23 2 -46q0 -38 -6 -75h-75q5 30 5 56q0 86 -52 142q-68 72 -216 73q-54 0 -109 -10t-101 -35t-79.5 -68t-46.5 -107q-2 -13 -2 -25q0 -33 14 -58q19 -34 54 -57t82 -37.5t94 -26.5q89 -23 165.5 -40.5t129.5 -48.5q52 -32 76 -86 q14 -33 15 -81q0 -31 -6 -67q-14 -75 -54 -130.5t-101 -92.5t-140.5 -55t-173.5 -18q-104 0 -175.5 32t-112.5 84q-42 54 -55 122q-7 36 -7 71q0 34 6 68z" />
<glyph unicode="t" horiz-adv-x="526" d="M50 993l13 69h194l57 332h75l-57 -332h230l-14 -69h-228l-135 -757q-4 -28 -4.5 -50t4.5 -40q9 -34 36 -52t67 -24q21 -3 46 -3q22 0 48 2l-12 -72q-19 -1 -37 -1q-43 0 -81 5q-54 7 -90 31q-34 26 -50 72q-8 24 -9 56q0 29 7 65l135 768h-195z" />
<glyph unicode="u" horiz-adv-x="1052" d="M57 386l119 676h78l-119 -676q-11 -61 -11 -111q0 -26 3 -48q9 -65 40.5 -105.5t80.5 -59t113 -18.5q98 0 177 37.5t136 97.5t92.5 134t47.5 148l107 601h81l-188 -1062h-81l41 233q-66 -129 -177.5 -193t-246.5 -64q-185 0 -257 103q-48 69 -48 182q0 57 12 125z" />
<glyph unicode="v" horiz-adv-x="899" d="M60 1062h87l206 -975l531 975h81l-579 -1062h-98z" />
<glyph unicode="w" horiz-adv-x="1429" d="M60 1062h81l125 -978l458 978h104l114 -978l466 978h87l-523 -1062h-98l-112 972l-464 -972h-98z" />
<glyph unicode="x" horiz-adv-x="899" d="M-138 0l505 558l-289 504h107l251 -445l404 445h99l-466 -504l313 -558h-104l-269 499l-454 -499h-97z" />
<glyph unicode="y" horiz-adv-x="899" d="M-93 -379l9 65q63 0 108 8t81 28.5t65 57t60 95.5l68 131l-248 1056h91l215 -966l531 966h85l-700 -1250q-35 -63 -66.5 -101t-71 -58t-94 -26t-133.5 -6z" />
<glyph unicode="z" horiz-adv-x="861" d="M-107 0l14 75l861 918h-643l13 69h739l-13 -75l-867 -918h733l-12 -69h-825z" />
<glyph unicode="{" horiz-adv-x="627" d="M119 627q78 31 136.5 130.5t85.5 261.5l51 281q6 33 22 80t46 91t74 74.5t106 30.5h87l-12 -66h-57q-81 0 -125.5 -60.5t-65.5 -173.5l-51 -269q-12 -66 -26.5 -118t-38.5 -96.5t-58 -85t-86 -83.5q58 -49 81.5 -138.5t2.5 -199.5l-52 -292q-26 -139 1.5 -195t109.5 -56 h51l-9 -66h-60q-61 0 -101 20.5t-60.5 60t-23.5 94.5t9 124l54 293q24 130 -0.5 227.5t-90.5 130.5z" />
<glyph unicode="|" horiz-adv-x="460" d="M191 -35v1545h78v-1545h-78z" />
<glyph unicode="}" horiz-adv-x="627" d="M-132 -323l10 66h50q81 0 128 56t73 195l53 292q21 110 73.5 199.5t130.5 138.5q-39 43 -60.5 83.5t-29 85t-4.5 96.5t16 118l48 269q22 113 -3.5 173.5t-104.5 60.5h-57l12 66h88q61 0 94 -30.5t46.5 -74.5t13.5 -91t-6 -80l-50 -281q-29 -162 -7 -261.5t91 -130.5 q-37 -17 -71.5 -50.5t-62.5 -80t-49.5 -104.5t-32.5 -123l-54 -293q-12 -69 -33.5 -124t-55 -94.5t-79.5 -60t-107 -20.5h-60z" />
<glyph unicode="~" horiz-adv-x="1240" d="M107 461q70 96 143 132.5t151 36.5q63 0 112.5 -22t97.5 -49t98 -49t113 -22q23 0 51 16t55.5 40.5t52 51.5t41.5 50l46 -63q-23 -25 -52 -54.5t-63.5 -56.5t-73.5 -44.5t-80 -17.5q-62 0 -122 22t-114 48t-99 48.5t-75 22.5q-48 0 -85.5 -16t-65.5 -40t-49.5 -50.5 t-35.5 -46.5z" />
<glyph unicode="&#xa4;" horiz-adv-x="1285" d="M12 251l227 222q-95 127 -95 295q0 174 95 288l-227 229l117 109l221 -222q123 90 296 90q84 0 161 -24.5t126 -65.5l230 222l108 -109l-221 -229q90 -123 90 -288q0 -173 -90 -295l221 -222l-108 -116l-230 226q-23 -20 -55 -36t-72 -31q-81 -28 -160 -28 q-169 0 -296 95l-221 -226zM301 768q0 -144 97 -251q99 -104 248 -104q140 0 241 104q97 97 97 251q0 70 -25.5 133t-69.5 110.5t-107 75.5t-136 28q-147 0 -245 -102q-100 -113 -100 -245z" />
<glyph unicode="&#xa9;" horiz-adv-x="1736" d="M101 739q18 107 63.5 206.5t110.5 186t147.5 157.5t176.5 121.5t196.5 78t209.5 27.5q161 0 291 -61t215.5 -166.5t121.5 -247t9 -302.5q-29 -161 -115 -303t-209 -247.5t-273.5 -167.5t-311.5 -62q-159 0 -289 62t-216.5 167.5t-122 247.5t-4.5 303zM173 739 q-26 -147 6 -276t110 -225t195 -151.5t261 -55.5q145 0 283 55.5t250.5 151.5t190.5 225t104 276t-7 276t-112 225t-197.5 151.5t-263.5 55.5t-281.5 -55.5t-247.5 -151.5t-188 -225t-103 -276zM427 547q-17 88 0 186q17 99 61 188.5t114 157t162.5 107.5t207.5 40 q82 0 148.5 -24.5t112 -68.5t66 -102t14.5 -125h-75q-6 56 -24 103t-51.5 80.5t-82.5 52t-118 18.5q-94 0 -171.5 -34t-135.5 -91t-95.5 -133t-51.5 -160q-15 -83 -3 -159.5t50.5 -135t102.5 -93t153 -34.5q135 0 226.5 70.5t140.5 189.5h75q-23 -74 -65 -135t-100 -104.5 t-131.5 -68t-160.5 -24.5q-104 0 -180.5 39t-124 105.5t-64.5 154.5z" />
<glyph unicode="&#xab;" horiz-adv-x="786" d="M60 558l550 557l7 -62l-420 -495l248 -492l-32 -63zM373 558l320 438l12 -54l-212 -384l78 -382l-32 -57z" />
<glyph unicode="&#xac;" horiz-adv-x="1144" d="M93 454v138h943v-410h-126v272h-817z" />
<glyph unicode="&#xad;" horiz-adv-x="1144" d="M54 482l15 80h956l-17 -80h-954z" />
<glyph unicode="&#xae;" horiz-adv-x="1736" d="M101 739q18 107 63.5 206.5t110.5 186t147.5 157.5t176.5 121.5t196.5 78t209.5 27.5q161 0 291 -61t215.5 -166.5t121.5 -247t9 -302.5q-29 -161 -115 -303t-209 -247.5t-273.5 -167.5t-311.5 -62q-159 0 -289 62t-216.5 167.5t-122 247.5t-4.5 303zM173 739 q-26 -147 6 -276t110 -225t195 -151.5t261 -55.5q145 0 283 55.5t250.5 151.5t190.5 225t104 276t-7 276t-112 225t-197.5 151.5t-263.5 55.5t-281.5 -55.5t-247.5 -151.5t-188 -225t-103 -276zM511 282l159 911h349q61 0 113 -14.5t86.5 -43.5t49 -73.5t3.5 -102.5 q-10 -59 -36 -106t-63 -79t-83 -49.5t-96 -19.5l197 -423h-87l-203 420h-239l-72 -420h-78zM673 771h164q52 0 110 3t108.5 19t87.5 50t47 96q11 60 -4.5 97t-46.5 57.5t-74.5 27.5t-89.5 7h-239z" />
<glyph unicode="&#xb0;" horiz-adv-x="827" d="M101 1091q0 61 23.5 117.5t65 98.5t97.5 67.5t120 25.5q66 0 123.5 -24.5t99.5 -66t66.5 -98t24.5 -120.5t-24.5 -121t-66.5 -99t-99.5 -66.5t-123.5 -24.5q-63 0 -118 24t-97 66t-66.5 98.5t-24.5 122.5zM185 1091q0 -46 17.5 -87.5t47.5 -72t70.5 -49t86.5 -18.5 q95 0 161 66q68 71 68 161q0 46 -18 86.5t-49.5 70.5t-73 47.5t-88.5 17.5t-88 -17t-70.5 -47t-46.5 -70.5t-17 -87.5z" />
<glyph unicode="&#xb6;" horiz-adv-x="1112" d="M0 1313q0 234 144 350q138 101 379 101h595v-63h-156v-2074h-94v2074h-222v-2074h-84v1231q-258 0 -403 95q-159 113 -159 360z" />
<glyph unicode="&#xb7;" horiz-adv-x="517" d="M147 687q0 46 31.5 77.5t81.5 31.5q48 0 79 -33t31 -76q0 -47 -33 -80t-77 -33q-50 0 -81.5 31t-31.5 82z" />
<glyph unicode="&#xbb;" horiz-adv-x="786" d="M31 176l211 382l-75 384l30 54l164 -438l-317 -439zM119 66l417 492l-245 495l32 62l350 -557l-548 -555z" />
<glyph unicode="&#xd7;" horiz-adv-x="1144" d="M12 122l467 401l-323 395l63 57l326 -398l471 401l46 -57l-470 -398l332 -401l-66 -56l-332 401l-466 -398z" />
<glyph unicode="&#xf7;" horiz-adv-x="1144" d="M54 482l15 80h956l-17 -80h-954zM379 156q8 38 40 66.5t69 28.5q38 0 62.5 -28.5t17.5 -66.5q-8 -35 -40 -64t-71 -29q-18 0 -33 8.5t-26.5 21.5t-16.5 29.5t-2 33.5zM514 918q8 38 40 66.5t70 28.5q37 0 61.5 -28.5t16.5 -66.5q-3 -18 -13.5 -35t-26.5 -30t-35.5 -20.5 t-37.5 -7.5q-35 0 -57.5 29t-17.5 64z" />
<glyph unicode="&#xe00;" horiz-adv-x="313" />
<glyph unicode="&#xe01;" horiz-adv-x="1159" d="M-15 0l122 705q6 32 23 55t36 41.5t34.5 34t18.5 32.5q3 12 -11.5 29.5t-31.5 32.5q-20 17 -47 35q21 71 73 128.5t124.5 98t160.5 62.5t180 22q93 0 176 -21.5t141.5 -68t86.5 -120t11 -176.5l-158 -890h-81l150 868q15 88 -3 151t-64 102.5t-116.5 59t-157.5 19.5 q-90 0 -165 -20t-132 -51.5t-93 -69.5t-46 -75q26 -17 44 -37q17 -17 29 -39t9 -44q-4 -16 -20 -34t-34.5 -37t-34.5 -40.5t-21 -47.5l-122 -705h-81z" />
<glyph unicode="&#xe02;" horiz-adv-x="1002" d="M44 332l85 479q7 47 30 78.5t53 54.5t63 40t61 34.5t48.5 37.5t25.5 50q5 26 -4.5 41.5t-27.5 24t-42 10.5t-48 2h-112l12 69h113q45 0 83 -5.5t65 -21.5t39 -44t5 -73q-8 -43 -29.5 -71t-51.5 -49t-62.5 -37.5t-61.5 -35t-50.5 -43t-27.5 -59.5l-81 -461 q-16 -87 -1.5 -145t51.5 -92.5t90.5 -48t116.5 -13.5q61 0 120 13.5t107.5 48t84 92.5t50.5 145l161 900h81l-162 -921q-19 -104 -67 -172t-111.5 -108t-136 -56.5t-140.5 -16.5q-67 0 -133.5 16.5t-116.5 56.5t-73.5 108t-5.5 172z" />
<glyph unicode="&#xe03;" horiz-adv-x="1002" d="M44 332l85 479q7 47 30 79.5t53 55t63 39.5t61 34.5t48.5 37.5t25.5 49q2 11 3.5 24t-1 24.5t-8 19t-15.5 7.5l-123 -110l-113 164l86 27l52 -84l88 75q141 9 114 -144q-8 -43 -29.5 -71t-51.5 -49t-62.5 -37.5t-61.5 -35t-50.5 -43t-27.5 -59.5l-81 -461 q-16 -87 -1.5 -145t51.5 -92.5t90.5 -48t116.5 -13.5q61 0 120 13.5t107.5 48t84 92.5t50.5 145l161 900h81l-162 -921q-19 -104 -67 -172t-111.5 -108t-136 -56.5t-140.5 -16.5q-67 0 -133.5 16.5t-116.5 56.5t-73.5 108t-5.5 172z" />
<glyph unicode="&#xe04;" horiz-adv-x="1159" d="M-15 0l156 890q18 103 74 176.5t131.5 120t163 68t169.5 21.5q84 0 164.5 -21.5t139.5 -68t88 -120t11 -176.5l-158 -890h-81l153 868q15 88 -5.5 151t-66.5 102.5t-112.5 59t-144.5 19.5t-151.5 -19.5t-134 -59t-103 -102.5t-59.5 -151l-28 -150h383l-12 -75h-383 l-113 -643h-81z" />
<glyph unicode="&#xe05;" horiz-adv-x="1159" d="M-15 0l165 933q12 69 43.5 128t79 104t106.5 74t126 37l147 -151l203 151q65 -8 114.5 -37t80 -74t41.5 -104t0 -128l-167 -933h-81l162 918q20 110 -19 185t-125 97l-225 -175l-163 175q-95 -22 -158.5 -97t-84.5 -185l-39 -200h386l-12 -75h-386l-113 -643h-81z" />
<glyph unicode="&#xe06;" horiz-adv-x="1159" d="M-15 0l137 780q8 49 33.5 83t59 58.5t71 44t70.5 39.5t56.5 44t29.5 57q5 34 -5 54.5t-30 20.5l-132 -110l-122 164l86 27l62 -84l97 75q73 5 105.5 -35t19.5 -109q-9 -44 -34 -76t-58 -56t-70.5 -44t-70.5 -41t-56.5 -47t-30.5 -62l-50 -284q-11 -64 14.5 -140.5 t78 -144t129 -112.5t170.5 -45q67 0 126.5 16t107 53.5t81.5 97t49 146.5l156 883h83l-161 -900q-19 -99 -59.5 -169.5t-97.5 -115t-130 -65.5t-152 -21q-92 0 -163 29.5t-124 75t-89 99t-56 102.5l-50 -288h-81z" />
<glyph unicode="&#xe07;" horiz-adv-x="996" d="M60 1050l81 47l116 -1031q133 14 241 84t186 174t124.5 231t59.5 256q9 92 -13.5 167t-71.5 125.5t-122 73.5t-168 10l12 75q110 12 196.5 -13t145.5 -84t85.5 -148.5t17.5 -205.5q-9 -96 -38 -195.5t-76.5 -191.5t-113.5 -171.5t-148.5 -137.5t-180.5 -91t-211 -30z" />
<glyph unicode="&#xe08;" horiz-adv-x="1040" d="M41 939q17 69 64.5 130.5t118 107t160 72.5t190.5 27q111 0 197.5 -36.5t140 -107t72 -175.5t-5.5 -239q-32 -187 -102.5 -325.5t-166 -229.5t-212 -133t-240.5 -36l-57 768l-33 52h111l54 -745q101 6 192 52t165 128.5t128 200.5t80 268q19 114 4.5 203.5t-58.5 151.5 t-116 94.5t-165 32.5q-75 0 -145.5 -18.5t-128.5 -52.5t-101 -82t-65 -108h-81z" />
<glyph unicode="&#xe09;" horiz-adv-x="1144" d="M28 715l13 74h178l-72 -419q-17 -93 -4.5 -154t46.5 -97t87.5 -50.5t121.5 -14.5q93 0 178.5 32.5t154 84.5t112.5 117t57 128l81 452q17 88 -4.5 151t-70 102.5t-118 59t-152.5 19.5q-74 0 -144 -15.5t-129 -47t-103 -80.5t-69 -118h-84q26 89 82.5 153.5t131.5 105 t160 59.5t168 19q90 0 173.5 -21.5t144 -68t88.5 -120t10 -176.5l-156 -890h-81l36 207q-36 -49 -86.5 -90.5t-112 -72t-131.5 -48t-148 -17.5t-145.5 16.5t-113.5 59.5t-64.5 115t0.5 180l62 365h-97z" />
<glyph unicode="&#xe0a;" horiz-adv-x="1084" d="M-15 0l222 1253h81l-210 -1178h295q88 0 174 22t158 70.5t124 125.5t71 186q15 87 -0.5 158t-56 121.5t-102.5 78t-140 27.5h-182l14 75h181q64 0 129.5 20t120 60t91 98t44.5 136h83q-3 -61 -30.5 -121.5t-73.5 -109.5t-106 -81t-127 -35q64 -14 115.5 -48.5t83 -88.5 t42 -126t-4.5 -161q-23 -129 -80.5 -220t-138.5 -149t-182 -85.5t-210 -27.5h-385z" />
<glyph unicode="&#xe0b;" horiz-adv-x="1100" d="M0 0l144 811q12 69 45 107t69 64t66.5 52t39.5 72q2 11 3.5 24t-1 24.5t-8.5 19t-17 7.5l-122 -110l-112 164l84 27l54 -84l87 75q73 5 100 -31t13 -113q-6 -38 -23.5 -64t-39.5 -46.5t-46.5 -38.5t-47 -38.5t-40 -45.5t-23.5 -62l-132 -739h296q88 0 174 22t158 70.5 t124 125.5t70 186q15 87 0.5 158t-55 121.5t-102.5 78t-141 27.5h-150l12 75h151q65 0 130.5 20t120 60t91 98t44.5 136h81q-3 -61 -30.5 -121.5t-72.5 -109.5t-105.5 -81t-126.5 -35q64 -14 114.5 -48.5t82 -88.5t42 -126t-4.5 -161q-23 -129 -80.5 -220t-138.5 -149 t-182 -85.5t-209 -27.5h-386z" />
<glyph unicode="&#xe0c;" horiz-adv-x="1892" d="M-15 0l125 705q6 32 23 55t35.5 41.5t34.5 34t19 32.5q3 12 -11.5 29.5t-33.5 32.5q-21 17 -48 35q21 71 74 128.5t126 98t161 62.5t180 22q93 0 176 -21.5t141 -68t85.5 -120t9.5 -176.5l-86 -474q-12 -63 8 -128t62.5 -117t105.5 -84.5t138 -32.5q55 0 107.5 14.5 t97 50.5t77.5 96t50 152l157 886h81l-160 -903q-19 -108 -63 -179.5t-103 -113.5t-126.5 -58.5t-130.5 -16.5q-128 0 -213.5 64t-121.5 161l-38 -207h-81l153 868q15 88 -3 151t-64 102.5t-116.5 59t-157.5 19.5q-90 0 -165 -20t-132 -51.5t-93.5 -69.5t-48.5 -75 q26 -17 46 -37q16 -17 29 -39t10 -44q-4 -16 -20 -34t-34.5 -37t-34.5 -40.5t-21 -47.5l-113 -630h226l-13 -75h-306z" />
<glyph unicode="&#xe0d;" horiz-adv-x="1892" d="M-15 0l125 705q6 32 23 55t35.5 41.5t34.5 34t19 32.5q3 12 -11.5 29.5t-33.5 32.5q-21 17 -48 35q21 71 74 128.5t126 98t161 62.5t180 22q93 0 175 -21.5t141 -68t86 -120t10 -176.5l-95 -543q-15 -87 -2 -143t46.5 -88.5t84.5 -45.5t113 -13q65 0 133.5 21t127 64 t101 107.5t57.5 151.5l151 852h81l-206 -1160q-19 -96 -66 -163.5t-113 -110t-144 -62.5t-158 -20h-397l12 75h398q70 0 134.5 16.5t115.5 50.5t85.5 83t46.5 113l14 72q-26 -29 -65 -59t-89.5 -53.5t-114 -38t-140.5 -14.5q-62 0 -122 16t-104 54t-65 103t-2 165l96 548 q15 88 -3 151t-64 102.5t-116.5 59t-157.5 19.5q-90 0 -165 -20t-132 -51.5t-93.5 -69.5t-48.5 -75q26 -17 46 -37q16 -17 29 -39t10 -44q-4 -16 -20 -34t-34.5 -37t-34.5 -40.5t-21 -47.5l-113 -630h226l-13 -75h-306z" />
<glyph unicode="&#xe0e;" horiz-adv-x="1175" d="M-110 0l14 75h108l113 630q7 32 23.5 55t35.5 41.5t35.5 34t19.5 32.5q3 12 -12.5 29.5t-33.5 32.5q-22 17 -49 35q21 71 74 128.5t126.5 98t162 62.5t180.5 22t174.5 -21.5t140.5 -68t85.5 -120t9.5 -176.5l-239 -1360h-81l-191 231l-272 -231h-311l12 75h283l303 257 l192 -229l220 1235q15 88 -4 151t-65 102.5t-116.5 59t-157.5 19.5q-89 0 -164 -20t-132 -51.5t-94 -69.5t-47 -75q26 -17 45 -37q17 -17 29.5 -39t9.5 -44q-3 -16 -19 -34t-34.5 -37t-35.5 -40.5t-21 -47.5l-126 -705h-191z" />
<glyph unicode="&#xe0f;" horiz-adv-x="1175" d="M-110 0l14 75h108l113 630q7 32 23.5 55t35.5 41.5t35.5 34t19.5 32.5q3 12 -12.5 29.5t-33.5 32.5q-22 17 -49 35q21 71 74 128.5t126.5 98t162 62.5t180.5 22t174.5 -21.5t140.5 -68t85.5 -120t9.5 -176.5l-239 -1360h-81l-125 213l-201 -213l-125 213l-201 -213h-215 l12 75h174l248 257l126 -209l200 209l126 -212l217 1218q15 88 -4 151t-65 102.5t-116.5 59t-157.5 19.5q-89 0 -164 -20t-132 -51.5t-94 -69.5t-47 -75q26 -17 45 -37q17 -17 29.5 -39t9.5 -44q-3 -16 -19 -34t-34.5 -37t-35.5 -40.5t-21 -47.5l-126 -705h-191z" />
<glyph unicode="&#xe10;" horiz-adv-x="1040" d="M-207 -470l13 75h176l240 225l131 -180l195 180l131 -177l39 209h-57l12 75h138l-69 -407h-81l-132 182l-194 -182l-132 182l-194 -182h-216zM41 939q17 69 64.5 130.5t118 107t160 72.5t190.5 27q131 0 222 -50q26 16 52.5 49t38.5 73h91q-6 -26 -20 -50.5t-31.5 -46 t-36 -39t-32.5 -28.5q86 -69 118 -185t2 -281q-32 -187 -102.5 -325.5t-166 -229.5t-212 -133t-240.5 -36l-57 768l-33 52h111l54 -745q101 6 192 52t165 128.5t128 200.5t80 268q19 114 4.5 203.5t-58.5 151.5t-116 94.5t-165 32.5q-75 0 -145.5 -18.5t-128.5 -52.5 t-101 -82t-65 -108h-81z" />
<glyph unicode="&#xe11;" horiz-adv-x="1159" d="M-15 0l137 780q10 49 32 83t52.5 58.5t63.5 43.5t62 39t50.5 43.5t27.5 58.5q8 34 -3.5 54.5t-30.5 20.5l-131 -110l-123 164l85 27l62 -84l98 75q74 5 106 -35t20 -109q-8 -43 -31 -73.5t-53 -54t-63.5 -44.5t-62.5 -43t-51 -48.5t-29 -62.5l-81 -466q17 46 55.5 119 t90.5 160.5t114.5 181t128.5 178.5q52 66 104 123.5t102.5 100t98.5 67t93 24.5q72 0 113 -29.5t59.5 -76.5t19.5 -105.5t-10 -117.5l-167 -942h-81l162 927q9 49 10 97.5t-11.5 86.5t-39 61.5t-74.5 23.5q-29 0 -66.5 -21t-81 -59.5t-89.5 -90.5t-91 -113 q-57 -75 -113.5 -159t-109.5 -170t-99 -169.5t-82 -157.5t-59.5 -135t-29.5 -103l-3 -18h-81z" />
<glyph unicode="&#xe12;" horiz-adv-x="1955" d="M-15 0l165 933q12 69 46.5 128t83.5 104t111 74t129 37l162 -151l221 151q64 -8 116 -37t86.5 -74t47.5 -104t1 -128l-95 -517q-12 -63 7.5 -128t62.5 -117t105.5 -84.5t137.5 -32.5q55 0 108 14.5t97.5 50.5t77.5 96t49 152l158 886h81l-161 -903q-18 -108 -62.5 -179.5 t-103 -113.5t-126 -58.5t-130.5 -16.5q-128 0 -214 64t-121 161l-38 -207h-81l162 918q9 55 1.5 101.5t-29 83.5t-55 61.5t-76.5 35.5l-242 -175l-179 175q-46 -11 -89 -35.5t-77 -61.5t-58.5 -83.5t-33.5 -101.5l-140 -783l571 684h-191l12 75h277l-14 -75l-679 -819h-81z " />
<glyph unicode="&#xe13;" horiz-adv-x="1892" d="M-15 0l125 705q6 32 23 55t35.5 41.5t34.5 34t19 32.5q3 12 -11.5 29.5t-33.5 32.5q-21 17 -48 35q21 71 74 128.5t126 98t161 62.5t180 22q93 0 175 -21.5t141 -68t86 -120t10 -176.5l-92 -523q-17 -92 -5.5 -152t43 -96t79.5 -50.5t103 -14.5q75 0 148.5 32.5t134 84.5 t102 117t53.5 128l151 837h81l-223 -1253h-81l38 207q-37 -49 -82.5 -90t-99 -71.5t-112.5 -47t-124 -16.5q-62 0 -122.5 16.5t-104 58.5t-63 113.5t-0.5 179.5l90 518q15 88 -3 151t-64 102.5t-116.5 59t-157.5 19.5q-90 0 -165 -20t-132 -51.5t-93.5 -69.5t-48.5 -75 q26 -17 46 -37q16 -17 29 -39t10 -44q-4 -16 -20 -34t-34.5 -37t-34.5 -40.5t-21 -47.5l-113 -630h226l-13 -75h-306z" />
<glyph unicode="&#xe14;" horiz-adv-x="1190" d="M-15 0l156 890q18 103 74.5 176.5t134 120t167.5 68t179 21.5t172.5 -21.5t144 -68t89.5 -120t10 -176.5l-156 -890h-82l154 868q15 88 -5.5 151t-68 102.5t-117.5 59t-155 19.5q-84 0 -161 -19.5t-139 -59t-105 -102.5t-58 -151l-129 -733l556 684h-192l13 75h275 l-12 -75l-664 -819h-81z" />
<glyph unicode="&#xe15;" horiz-adv-x="1222" d="M-15 0l165 933q12 69 46.5 128t83.5 104t111 74t129 37l162 -151l221 151q64 -8 115 -37t85.5 -74t47.5 -104t3 -128l-167 -933h-81l162 918q9 55 1.5 101.5t-29 83.5t-55 61.5t-76.5 35.5l-242 -175l-179 175q-46 -11 -89 -35.5t-77 -61.5t-58.5 -83.5t-33.5 -101.5 l-140 -783l571 684h-191l12 75h277l-14 -75l-679 -819h-81z" />
<glyph unicode="&#xe16;" horiz-adv-x="1162" d="M-15 0l125 705q6 32 23 55t35.5 41.5t34.5 34t19 32.5q3 12 -11.5 29.5t-33.5 32.5q-21 17 -48 35q21 71 74 128.5t126 98t161 62.5t180 22q93 0 176 -21.5t141 -68t85.5 -120t9.5 -176.5l-158 -890h-81l153 868q15 88 -3 151t-64 102.5t-116.5 59t-157.5 19.5 q-90 0 -165 -20t-132 -51.5t-93.5 -69.5t-48.5 -75q26 -17 46 -37q16 -17 29 -39t10 -44q-4 -16 -20 -34t-34.5 -37t-34.5 -40.5t-21 -47.5l-113 -630h164l-12 -75h-245z" />
<glyph unicode="&#xe17;" horiz-adv-x="1159" d="M-15 0l222 1253h81l-52 -288q36 48 91 102t125 99.5t151.5 75t173.5 29.5q80 0 144 -21t106 -65.5t58.5 -115.5t-0.5 -169l-161 -900h-81l156 884q15 88 3 147.5t-47 96t-89 52.5t-121 16q-93 0 -186.5 -45t-170.5 -111.5t-128.5 -143.5t-62.5 -140l-131 -756h-81z" />
<glyph unicode="&#xe18;" horiz-adv-x="1071" d="M-31 0l118 673h83l-107 -598h373q72 0 142.5 11.5t130 46.5t103 100t62.5 174q15 86 -2.5 142.5t-58 92.5t-99.5 56t-125 32q-55 11 -114 18.5t-115.5 17.5t-106.5 25t-84 39.5t-50 63t-6 93.5q11 67 59 120.5t117 91t153 57.5t168 20q83 0 165 -17t144.5 -56t95 -104 t16.5 -160h-81q14 77 -14.5 127.5t-81 80.5t-121.5 41.5t-135 11.5q-69 0 -137 -15t-125.5 -42.5t-96.5 -68.5t-48 -93q-7 -51 29 -79t97 -44t139 -26t154 -24q75 -12 145.5 -35t121 -67.5t74.5 -115.5t5 -180q-23 -132 -77 -212t-125.5 -124.5t-152.5 -59t-159 -14.5h-473z " />
<glyph unicode="&#xe19;" horiz-adv-x="1159" d="M45 183.5q-16 70.5 2 169.5l160 900h81l-156 -883q-16 -87 -3.5 -146.5t46 -97t87 -53.5t120.5 -16q101 0 195.5 45t168.5 112.5t123 144t61 140.5l135 754h83l-224 -1253h-81l51 288q-36 -52 -88.5 -106.5t-120 -99t-151 -72.5t-181.5 -28q-79 0 -143.5 21t-106.5 65.5 t-58 115z" />
<glyph unicode="&#xe1a;" horiz-adv-x="1159" d="M47 364l160 889h81l-153 -864q-16 -89 5 -152t66.5 -103.5t112.5 -58.5t145 -18t151 18t134.5 58.5t104.5 103.5t58 152l153 864h83l-161 -889q-19 -104 -74 -176.5t-130 -118.5t-162 -66.5t-170 -20.5q-82 0 -162.5 20.5t-140 66.5t-89.5 118.5t-12 176.5z" />
<glyph unicode="&#xe1b;" horiz-adv-x="1159" d="M47 364l160 889h81l-153 -864q-16 -89 5 -152t66.5 -103.5t112.5 -58.5t145 -18t151 18t134.5 58.5t104.5 103.5t58 152l209 1193h82l-216 -1218q-19 -104 -74 -176.5t-130 -118.5t-162 -66.5t-170 -20.5q-82 0 -162.5 20.5t-140 66.5t-89.5 118.5t-12 176.5z" />
<glyph unicode="&#xe1c;" horiz-adv-x="1347" d="M35.5 177q-7.5 68 8.5 164l132 747q12 70 70 117.5t140 47.5h50l-17 -75h-33q-62 0 -93 -35t-39 -78l-122 -698q-29 -159 8 -234.5t138 -75.5q60 0 109 26.5t88 77t67.5 121.5t43.5 160l144 811h81l-144 -811q-15 -89 -12 -160t23.5 -121.5t59.5 -77t99 -26.5 q101 0 166 75.5t94 234.5l156 886h81l-162 -912q-17 -95 -48.5 -162t-74 -111.5t-95.5 -65t-114 -20.5q-113 0 -177.5 52.5t-82.5 147.5q-52 -95 -134 -147.5t-195 -52.5q-60 0 -106.5 19.5t-74 63.5t-35 112z" />
<glyph unicode="&#xe1d;" horiz-adv-x="1347" d="M35.5 177q-7.5 68 8.5 164l132 747q12 70 70 117.5t140 47.5h50l-17 -75h-33q-62 0 -93 -35t-39 -78l-122 -698q-29 -159 8 -234.5t138 -75.5q60 0 109 26.5t88 77t67.5 121.5t43.5 160l144 811h81l-144 -811q-15 -89 -12 -160t23.5 -121.5t59.5 -77t99 -26.5 q101 0 166 75.5t94 234.5l213 1215h81l-219 -1241q-17 -95 -48.5 -162t-74 -111.5t-95.5 -65t-114 -20.5q-113 0 -177.5 52.5t-82.5 147.5q-52 -95 -134 -147.5t-195 -52.5q-60 0 -106.5 19.5t-74 63.5t-35 112z" />
<glyph unicode="&#xe1e;" horiz-adv-x="1347" d="M33.5 177q-7.5 68 10.5 164l163 912h81l-156 -886q-29 -159 8 -234.5t138 -75.5q60 0 109 26.5t88 77t67.5 121.5t43.5 160l144 811h81l-144 -811q-15 -89 -12 -160t23.5 -121.5t59.5 -77t99 -26.5q101 0 166 75.5t94 234.5l156 886h81l-162 -912q-17 -95 -48.5 -162 t-74 -111.5t-95.5 -65t-114 -20.5q-113 0 -177.5 52.5t-82.5 147.5q-52 -95 -134 -147.5t-195 -52.5q-60 0 -106.5 19.5t-75 63.5t-36 112z" />
<glyph unicode="&#xe1f;" horiz-adv-x="1347" d="M33.5 177q-7.5 68 10.5 164l163 912h81l-156 -886q-29 -159 8 -234.5t138 -75.5q60 0 109 26.5t88 77t67.5 121.5t43.5 160l144 811h81l-144 -811q-15 -89 -12 -160t23.5 -121.5t59.5 -77t99 -26.5q101 0 166 75.5t94 234.5l213 1215h81l-219 -1241q-17 -95 -48.5 -162 t-74 -111.5t-95.5 -65t-114 -20.5q-113 0 -177.5 52.5t-82.5 147.5q-52 -95 -134 -147.5t-195 -52.5q-60 0 -106.5 19.5t-75 63.5t-36 112z" />
<glyph unicode="&#xe20;" horiz-adv-x="1175" d="M-110 0l14 75h108l113 630q7 32 23.5 55t35.5 41.5t35.5 34t19.5 32.5q3 12 -12.5 29.5t-33.5 32.5q-22 17 -49 35q21 71 74 128.5t126.5 98t162 62.5t180.5 22t174.5 -21.5t141.5 -68t85.5 -120t8.5 -176.5l-158 -890h-81l155 868q15 88 -4 151t-65 102.5t-116.5 59 t-157.5 19.5q-89 0 -164 -20t-132 -51.5t-94 -69.5t-47 -75q26 -17 45 -37q17 -17 29.5 -39t9.5 -44q-3 -16 -19 -34t-34.5 -37t-35.5 -40.5t-21 -47.5l-126 -705h-191z" />
<glyph unicode="&#xe21;" horiz-adv-x="1159" d="M-15 0l222 1253h81l-135 -754q-12 -64 10 -140.5t73.5 -144t129.5 -112.5t179 -45q67 0 126.5 16t107 53.5t81.5 97t49 146.5l156 883h83l-161 -900q-19 -99 -59.5 -169.5t-97.5 -115t-130 -65.5t-152 -21q-98 0 -171.5 28t-126.5 72.5t-85.5 99t-48.5 106.5l-50 -288 h-81z" />
<glyph unicode="&#xe22;" horiz-adv-x="1165" d="M-1.5 220.5q-10.5 67.5 7.5 168.5q15 87 52.5 151t85 107t98 66t93.5 29q-38 5 -79.5 17t-73.5 39t-48 72.5t-2 116.5q13 79 60 137.5t115.5 93t154.5 44t181 -8.5l-16 -75q-78 14 -148 9.5t-126 -27.5t-93 -66t-47 -104q-14 -78 13.5 -118.5t77 -59t114 -21t124.5 -2.5 h98l-13 -74h-98q-78 0 -151.5 -19.5t-133 -59t-100.5 -101.5t-57 -149q-15 -82 -6 -137t36 -89.5t69 -52t93 -25t108.5 -7.5h117.5h356l210 1178h83l-224 -1253h-434q-68 0 -134.5 1t-127 10.5t-111 32t-82.5 66t-42.5 111z" />
<glyph unicode="&#xe23;" horiz-adv-x="1055" d="M-6 200q-26 85 0 216h81q-23 -112 -1 -182t71 -110.5t117 -55t139 -14.5q78 0 152 14.5t135.5 51t104 99.5t59.5 157q16 86 -2 138t-59 82t-101 44.5t-125 26.5q-86 15 -171.5 29t-151.5 42.5t-101 82t-19 147.5q13 74 60.5 130.5t114.5 96.5t149 60.5t164 20.5 q80 0 159.5 -17.5t140 -56.5t91 -104t15.5 -159h-83q14 74 -12 124.5t-75.5 80.5t-115.5 43t-132 13q-67 0 -133.5 -15.5t-121 -45.5t-92.5 -73.5t-48 -100.5q-12 -64 18 -100.5t85 -59t127.5 -34.5t149.5 -26q75 -12 147 -30.5t124 -56.5t75.5 -104.5t3.5 -174.5 q-21 -120 -75.5 -198t-129.5 -122.5t-163 -62t-176 -17.5t-170.5 19t-140.5 68t-84 134z" />
<glyph unicode="&#xe24;" horiz-adv-x="1162" d="M-15 0l125 705q6 32 23 55t35.5 41.5t34.5 34t19 32.5q3 12 -11.5 29.5t-33.5 32.5q-21 17 -48 35q21 71 74 128.5t126 98t161 62.5t180 22q93 0 175 -21.5t141 -68t86 -120t10 -176.5l-224 -1266h-81l219 1244q15 88 -3 151t-64 102.5t-116.5 59t-157.5 19.5 q-90 0 -165 -20t-132 -51.5t-93.5 -69.5t-48.5 -75q26 -17 46 -37q16 -17 29 -39t10 -44q-4 -16 -20 -34t-34.5 -37t-34.5 -40.5t-21 -47.5l-113 -630h164l-12 -75h-245z" />
<glyph unicode="&#xe25;" horiz-adv-x="1168" d="M-4 179.5q-16 63.5 1 158.5q29 162 137.5 253t275.5 117q51 8 112.5 14t125 15.5t125.5 24.5t112 39.5t84.5 61.5t43.5 90q9 57 -9.5 103t-59.5 78t-104 49t-141 17q-72 0 -142 -15.5t-130.5 -47t-107.5 -80.5t-71 -118h-86q28 89 84.5 152.5t130.5 105t158.5 60.5 t166.5 19q80 0 158.5 -16t137.5 -56.5t88 -108.5t11 -171l-164 -924h-81l141 802q-32 -42 -91 -68.5t-131 -43.5t-152 -27t-158 -17q-72 -8 -135.5 -28.5t-114 -57.5t-85 -92t-48.5 -130q-14 -76 1.5 -129t50 -86t83.5 -49t104 -19t110 3t102 17l-12 -75 q-60 -9 -126.5 -13.5t-129 1.5t-118.5 26.5t-93.5 61t-53.5 104z" />
<glyph unicode="&#xe26;" horiz-adv-x="1175" d="M-110 0l14 75h108l113 630q7 32 23.5 55t35.5 41.5t35.5 34t19.5 32.5q3 12 -12.5 29.5t-33.5 32.5q-22 17 -49 35q21 71 74 128.5t126.5 98t162 62.5t180.5 22t174.5 -21.5t140.5 -68t85.5 -120t9.5 -176.5l-223 -1266h-81l220 1244q15 88 -4 151t-65 102.5t-116.5 59 t-157.5 19.5q-89 0 -164 -20t-132 -51.5t-94 -69.5t-47 -75q26 -17 45 -37q17 -17 29.5 -39t9.5 -44q-3 -16 -19 -34t-34.5 -37t-35.5 -40.5t-21 -47.5l-126 -705h-191z" />
<glyph unicode="&#xe27;" horiz-adv-x="1153" d="M3 376h87q9 -87 39 -148t76.5 -100t108.5 -56.5t134 -17.5q94 0 181 30.5t159 98.5t124.5 177.5t80.5 266.5q28 158 13 266.5t-62 176.5t-123 99t-169 31q-72 0 -140 -18t-129.5 -57t-113.5 -100t-90 -148h-89q45 107 107.5 182.5t137.5 124t158.5 70.5t170.5 22 q110 0 199.5 -35t147 -112.5t76.5 -200.5t-13 -301q-31 -177 -93.5 -301t-147.5 -201.5t-186.5 -111.5t-210.5 -34q-87 0 -163 22t-134 69.5t-94 123t-42 182.5z" />
<glyph unicode="&#xe28;" horiz-adv-x="1159" d="M-15 0l156 890q18 103 74 176.5t131.5 120t163 68t169.5 21.5q60 0 116 -10.5t105 -33.5q18 13 35 30q14 16 29 37t23 49h92q-11 -35 -29.5 -62.5t-36.5 -47.5q-22 -23 -48 -42q66 -47 100.5 -121t16.5 -185l-158 -890h-81l153 868q15 88 -5.5 151t-66.5 102.5t-112.5 59 t-144.5 19.5t-151.5 -19.5t-134 -59t-103 -102.5t-59.5 -151l-28 -150h383l-12 -75h-383l-113 -643h-81z" />
<glyph unicode="&#xe29;" horiz-adv-x="1175" d="M47 364l160 889h81l-153 -864q-16 -89 5 -152t66.5 -103.5t112.5 -58.5t145 -18t151 18t134.5 58.5t104.5 103.5t58 152l53 307h-388l27 162h83l-17 -87h308l87 482h83l-89 -482h95l-14 -75h-93l-60 -332q-19 -104 -74 -176.5t-130 -118.5t-162 -66.5t-170 -20.5 q-82 0 -162.5 20.5t-140 66.5t-89.5 118.5t-12 176.5z" />
<glyph unicode="&#xe2a;" horiz-adv-x="1168" d="M-4 179.5q-16 63.5 1 158.5q29 162 137.5 253t275.5 117q51 8 112.5 14t125 15.5t125.5 24.5t112 39.5t84.5 61.5t43.5 90q9 57 -9.5 103t-59.5 78t-104 49t-141 17q-72 0 -142 -15.5t-130.5 -47t-107.5 -80.5t-71 -118h-86q28 89 84.5 152.5t130.5 105t158.5 60.5 t166.5 19q65 0 127.5 -10.5t116.5 -33.5q19 16 43 48.5t36 67.5h90q-7 -25 -19.5 -48.5t-27 -44t-29.5 -36.5t-26 -26q52 -39 76.5 -105.5t7.5 -163.5l-164 -924h-81l141 802q-32 -42 -91 -68.5t-131 -43.5t-152 -27t-158 -17q-72 -8 -135.5 -28.5t-114 -57.5t-85 -92 t-48.5 -130q-14 -76 1.5 -129t50 -86t83.5 -49t104 -19t110 3t102 17l-12 -75q-60 -9 -126.5 -13.5t-129 1.5t-118.5 26.5t-93.5 61t-53.5 104z" />
<glyph unicode="&#xe2b;" horiz-adv-x="1159" d="M-15 0l222 1253h81l-78 -428q38 47 93 101.5t124.5 99.5t151.5 75t174 30q79 0 143.5 -21.5t106.5 -66t58 -115.5t-2 -169l-135 -759h-81l132 742q15 87 2.5 147t-47.5 97.5t-88.5 53.5t-120.5 16q-63 0 -126 -21t-121 -56t-108.5 -81t-90 -95t-65.5 -98t-34 -91 l-110 -614h-81zM568 1178l15 75h502l-17 -75h-500z" />
<glyph unicode="&#xe2c;" horiz-adv-x="1347" d="M33.5 177q-7.5 68 10.5 164l163 912h81l-156 -886q-29 -159 8 -234.5t138 -75.5q60 0 109 26.5t88 77t67.5 121.5t43.5 160l116 655h81l-116 -655q-15 -89 -12 -160t23.5 -121.5t59.5 -77t99 -26.5q101 0 166 75.5t94 234.5l113 649q8 46 -0.5 89t-31.5 75.5t-59 52.5 t-82 20h-307l12 72h305q48 0 95.5 13t86.5 40.5t66.5 72t35.5 107.5h80q-5 -60 -30 -106.5t-64 -81t-89 -56t-103 -29.5q53 -12 89 -39t55 -65t23.5 -86t-4.5 -102l-116 -652q-17 -95 -48.5 -162t-74 -111.5t-95.5 -65t-114 -20.5q-113 0 -177.5 52.5t-82.5 147.5 q-52 -95 -134 -147.5t-195 -52.5q-60 0 -106.5 19.5t-75 63.5t-36 112z" />
<glyph unicode="&#xe2d;" horiz-adv-x="1291" d="M42.5 335q-24.5 122 4.5 292q8 42 17 81.5t23 74.5h346l-14 -75h-272q-8 -20 -11 -39.5t-7 -41.5q-26 -150 -7 -257.5t74 -178t140.5 -104t192.5 -33.5t204.5 33.5t177 104t137 178t83.5 257.5q27 149 8 257.5t-73.5 178t-140 103.5t-192.5 34q-147 0 -272.5 -63 t-212.5 -198h-92q51 88 116.5 151.5t141.5 104.5t160 61t171 20q121 0 220.5 -38t165 -117t89.5 -201.5t-7 -292.5q-30 -170 -96.5 -292t-160 -201t-206 -117t-233.5 -38t-220.5 38t-164.5 117t-89.5 201z" />
<glyph unicode="&#xe2e;" horiz-adv-x="1291" d="M42.5 335q-24.5 122 4.5 292q8 42 17 81.5t23 74.5h346l-14 -75h-272q-8 -20 -11 -39.5t-7 -41.5q-26 -150 -7 -257.5t74 -178t140.5 -104t192.5 -33.5t204.5 33.5t177 104t137 178t83.5 257.5q27 149 8 257.5t-73.5 178t-140 103.5t-192.5 34q-147 0 -272.5 -63 t-212.5 -198h-92q51 88 116.5 151.5t141.5 104.5t160 61t171 20q124 0 223 -41q17 12 43 43.5t39 69.5h90q-8 -25 -21 -47.5t-27.5 -42.5t-28 -34.5t-23.5 -23.5q111 -71 160.5 -212.5t12.5 -360.5q-30 -170 -97.5 -292t-160 -201t-205 -117t-233.5 -38t-220.5 38 t-164.5 117t-89.5 201z" />
<glyph unicode="&#xe2f;" horiz-adv-x="1043" d="M119 1025q16 83 71.5 135.5t127 78t144 26t121.5 -20.5l-12 -78q-37 24 -96.5 28t-118.5 -13.5t-105 -57.5t-57 -101q-7 -46 6 -82t41 -59.5t68.5 -36.5t88.5 -13q111 0 199 35t155.5 94t114 134.5t75.5 158.5h89l-223 -1253h-78l194 1097q-20 -57 -66 -116.5 t-114.5 -109t-158 -81t-196.5 -31.5q-54 0 -107.5 15t-93.5 48t-60.5 83.5t-8.5 119.5z" />
<glyph unicode="&#xe30;" horiz-adv-x="376" d="M-31 266q5 29 20.5 55t38 45.5t50.5 30t57 10.5q58 0 91.5 -41.5t24.5 -99.5q-5 -29 -20 -55t-38 -45t-51.5 -30t-57.5 -11t-52.5 11t-39 30t-21.5 45t-2 55zM38 266q-6 -27 12.5 -49.5t45.5 -22.5q29 0 55 22.5t31 49.5q5 29 -13.5 50.5t-46.5 21.5q-29 0 -54 -21.5 t-30 -50.5zM96 987q5 29 20.5 55t37.5 45t49.5 30t56.5 11q58 0 93.5 -41.5t25.5 -99.5q-6 -29 -21 -55t-38 -45t-50.5 -30t-56.5 -11t-53 11t-40 30t-23 45t-1 55zM167 987q-8 -31 8 -51.5t47 -20.5q30 0 55.5 20.5t33.5 51.5q4 30 -12.5 51t-47.5 21t-55.5 -21t-28.5 -51z " />
<glyph unicode="&#xe31;" d="M-389 1411l33 165h84l-16 -90h655l-17 -75h-739z" />
<glyph unicode="&#xe32;" horiz-adv-x="579" d="M113 1178l16 75q68 12 144 6t136.5 -36t93.5 -85.5t17 -144.5l-176 -993h-81l170 962q12 72 -7 118t-62.5 71.5t-108 30.5t-142.5 -4z" />
<glyph unicode="&#xe33;" horiz-adv-x="579" d="M-138 1542q9 57 53 94.5t100 37.5q57 0 88.5 -37.5t21.5 -94.5q-9 -58 -54 -94.5t-102 -36.5q-58 0 -87 36.5t-20 94.5zM-81 1542q-8 -30 12 -53t51 -23q30 0 54.5 23t32.5 53q4 31 -14 53t-49 22q-30 0 -56 -22t-31 -53zM113 1178l16 75q68 12 144 6t136.5 -36 t93.5 -85.5t17 -144.5l-176 -993h-81l170 962q12 72 -7 118t-62.5 71.5t-108 30.5t-142.5 -4z" />
<glyph unicode="&#xe34;" d="M-880 1411l16 75h892l-16 -75h-892z" />
<glyph unicode="&#xe35;" d="M-880 1411l16 75h810l30 159h81l-45 -234h-892z" />
<glyph unicode="&#xe36;" d="M-880 1411l16 75h729q-1 6 -3 13q-3 14 0 37q5 26 19.5 48t35 39t46 27t52.5 10q54 0 85.5 -36t21.5 -88q-3 -26 -17.5 -49t-35 -39.5t-46 -26.5t-51.5 -10h-852zM-75 1536q-5 -30 11.5 -50t45.5 -20q30 0 51.5 20t26.5 50q7 28 -9.5 47t-47.5 19q-29 0 -49.5 -19 t-28.5 -47z" />
<glyph unicode="&#xe37;" d="M-880 1411l16 75h634l30 159h81l-28 -159h93l30 159h81l-45 -234h-892z" />
<glyph unicode="&#xe38;" d="M-445 -200l12 75h176l-60 -329h-81l48 254h-95z" />
<glyph unicode="&#xe39;" d="M-796 -200l13 75h143l-27 -160q-6 -32 1.5 -53.5t25 -35t44.5 -19t60 -5.5q66 0 111.5 24.5t57.5 88.5l29 160h81l-31 -170q-16 -87 -83.5 -131t-176.5 -44q-111 0 -166.5 44t-38.5 131l20 95h-63z" />
<glyph unicode="&#xe3a;" d="M-395 -207q8 34 36.5 58t60.5 24q33 0 53 -24t12 -58q-4 -33 -31.5 -57t-61.5 -24t-53.5 24t-15.5 57z" />
<glyph unicode="&#xe3f;" horiz-adv-x="1279" d="M3 0l260 1476h455l35 201h66l-36 -201h57q130 0 212 -32.5t125.5 -86t54 -122.5t0.5 -141q-11 -60 -41 -114t-73.5 -96t-100 -70.5t-120.5 -36.5v-3q10 2 37 -3.5t60.5 -21t69 -42t61.5 -67t37.5 -96.5t-2.5 -131q-19 -101 -68.5 -178t-125.5 -129t-173.5 -79t-212.5 -27 h-57l-38 -216h-66l38 216h-454zM107 78h363l116 649h-364zM236 805h362l107 592h-364zM536 78h56q194 0 321 85t158 250q17 95 -10.5 156t-82 96.5t-126.5 48.5t-144 13h-56zM664 805h57q91 0 164.5 22t127 62.5t86.5 96.5t45 123q14 80 -6.5 135t-65 88.5t-108 49 t-136.5 15.5h-57z" />
<glyph unicode="&#xe40;" horiz-adv-x="394" d="M31 0l223 1253h81l-222 -1253h-82z" />
<glyph unicode="&#xe41;" horiz-adv-x="696" d="M31 0l223 1253h81l-222 -1253h-82zM332 0l222 1253h82l-223 -1253h-81z" />
<glyph unicode="&#xe42;" horiz-adv-x="439" d="M63 0l269 1528q8 43 2.5 70t-18.5 45.5t-29 33t-29 31t-20 40.5t1 60q9 59 68 97t169 38h370l-12 -75h-338q-34 0 -64.5 -1.5t-54.5 -7.5t-40 -20t-20 -37q-6 -33 13 -52.5t42 -42t39 -57t5 -96.5l-272 -1554h-81z" />
<glyph unicode="&#xe43;" horiz-adv-x="439" d="M15 1674q3 56 30.5 105t72 86t105 57.5t130.5 20.5q135 0 198.5 -53.5t46.5 -152.5q-9 -54 -37.5 -84.5t-61 -58t-61.5 -60.5t-40 -90l-254 -1444h-81l257 1450q7 45 23.5 76.5t36 54t42 39.5t41.5 34t32.5 36t18.5 47q9 58 -32 94.5t-141 36.5q-58 0 -103 -17 t-75.5 -44.5t-47.5 -61.5t-19 -71h-81z" />
<glyph unicode="&#xe44;" horiz-adv-x="439" d="M-15 1827l65 50l132 -85l138 76h59q33 0 65 -5.5t55.5 -18.5t36 -35t6.5 -57q-5 -35 -22.5 -57.5t-38 -43t-40 -43.5t-25.5 -60l-272 -1548h-81l275 1561q6 38 25 64t40 46t37.5 35t20.5 34q3 27 -24.5 41.5t-72.5 14.5h-53l-144 -82z" />
<glyph unicode="&#xe45;" horiz-adv-x="579" d="M113 1178l16 75q68 12 144 6t136.5 -36t93.5 -85.5t17 -144.5l-242 -1369h-81l236 1338q12 72 -7 118t-62.5 71.5t-108 30.5t-142.5 -4z" />
<glyph unicode="&#xe46;" horiz-adv-x="1049" d="M107 962q11 62 47 114.5t91 91.5t124.5 62t147.5 23l176 -225l257 225h87l-289 -1629h-81l269 1533l-266 -242l-197 257q-49 -2 -96 -17t-86 -42.5t-65.5 -66t-34.5 -84.5q-10 -59 6.5 -99t48 -63t71 -30.5t75.5 -4.5l-13 -78q-64 0 -120 16t-94 49t-55 85t-3 125z" />
<glyph unicode="&#xe47;" d="M-811 1561q6 36 30 69t62 59t91 41.5t120 15.5h583l-12 -75h-565q-99 0 -157.5 -30.5t-67.5 -79.5q-3 -19 0 -32.5t8 -22.5q6 -11 14 -20h157l282 108l248 -108l-17 -75l-243 111l-276 -111h-202q-26 18 -46 54.5t-9 95.5z" />
<glyph unicode="&#xe48;" d="M-9 1740l30 188h83l-32 -188h-81z" />
<glyph unicode="&#xe49;" d="M-263 1868l12 69h57q56 0 83.5 -23t20.5 -66l-6 -36h362l-12 -72h-439l12 68q5 28 -3.5 44t-39.5 16h-47z" />
<glyph unicode="&#xe4a;" d="M-329 1740l15 90q14 78 73 121t134 43h11l114 -95l144 95h14q75 0 121 -43t32 -121l-3 -18h131l-12 -72h-206l12 78q8 49 -11.5 77t-66.5 28h-14l-156 -105l-122 105h-10q-47 0 -77 -28t-39 -77v-6h113l-12 -72h-185z" />
<glyph unicode="&#xe4b;" d="M-107 1857l11 60h117l23 119h81l-21 -119h118l-9 -60h-120l-21 -117h-81l21 117h-119z" />
<glyph unicode="&#xe4c;" d="M-170 1642l8 35q14 79 63.5 114.5t113.5 35.5h161l-14 -75h-121q-49 0 -79.5 -22.5t-39.5 -61.5l-6 -26h-86z" />
<glyph unicode="&#xe4d;" d="M-138 1542q9 57 53 94.5t100 37.5q57 0 88.5 -37.5t21.5 -94.5q-9 -58 -54 -94.5t-102 -36.5q-58 0 -87 36.5t-20 94.5zM-81 1542q-8 -30 12 -53t51 -23q30 0 54.5 23t32.5 53q4 31 -14 53t-49 22q-30 0 -56 -22t-31 -53z" />
<glyph unicode="&#xe4e;" d="M-586 1545q3 28 17 53t33.5 46.5t44 39t49.5 30.5q44 21 95.5 35.5t89.5 17.5l3 9q-86 36 -72 132q5 26 23 53.5t45.5 52.5t63 47.5t75.5 37.5q47 19 104.5 29.5t111 16t98.5 6t68 -0.5l-12 -72q-69 6 -151 -1.5t-153.5 -29t-124 -57.5t-61.5 -85q-6 -32 9.5 -53.5 t41.5 -33t57.5 -16t58.5 -3.5l-12 -70q-60 1 -132 -9.5t-135.5 -34t-106 -59.5t-44.5 -84q-1 -17 8 -29t24.5 -20.5t34.5 -12.5t37 -4q49 0 98 14t75 26l25 -59q-17 -8 -43 -18t-59 -17.5t-71.5 -11.5t-77.5 1q-71 9 -107 47t-28 87z" />
<glyph unicode="&#xe4f;" horiz-adv-x="1473" d="M78 627q23 133 94 249.5t173.5 203.5t229 137.5t259.5 50.5t241 -50.5t180 -137.5t101.5 -203.5t6.5 -249.5t-94 -250t-173.5 -204t-228.5 -137.5t-260 -50.5q-133 0 -240.5 50.5t-179.5 137.5t-102 204t-7 250zM173 627q-20 -113 5 -213t87 -174.5t154 -118t205 -43.5 q112 0 220 43.5t196 118t148 174.5t80 213q20 112 -5 212t-86.5 174.5t-154 118t-203.5 43.5q-114 0 -221.5 -43.5t-195.5 -118t-148.5 -174.5t-80.5 -212zM329 627q14 81 57.5 152.5t106 125t139 84t157.5 30.5q82 0 147.5 -30.5t109 -84t62 -125t4.5 -152.5 q-13 -81 -57 -153t-106.5 -124.5t-139 -83t-157.5 -30.5t-147 30.5t-109.5 83t-62 124.5t-4.5 153z" />
<glyph unicode="&#xe50;" horiz-adv-x="1090" d="M18 470q19 101 73 189.5t131.5 155t172.5 105.5t194 39t180.5 -39t135.5 -105.5t75.5 -155t3.5 -189.5q-19 -101 -72.5 -190t-130 -155.5t-171 -104.5t-194.5 -38q-99 0 -180 38t-135.5 104.5t-76.5 155.5t-6 190zM90 470q-14 -86 5.5 -161t64.5 -131.5t113 -88.5 t154 -32q84 0 164.5 32t145.5 88.5t110 131.5t59 161q15 85 -3.5 161t-63.5 132t-113 88.5t-152 32.5q-86 0 -166.5 -32.5t-145.5 -88.5t-110.5 -132t-61.5 -161z" />
<glyph unicode="&#xe51;" horiz-adv-x="1165" d="M24 505q19 104 78 188t140 143t178 91t194 32q110 0 201 -32.5t153 -94.5t88 -151.5t6 -201.5q-23 -124 -95 -229t-170 -183.5t-211 -129t-216 -66.5l-26 72q98 14 203 58.5t195 115t155 162t84 200.5q17 90 -5.5 165t-74.5 128.5t-128.5 82.5t-168.5 29 q-84 0 -167.5 -28t-152 -78.5t-116 -120t-61.5 -152.5q-11 -58 0 -111t39 -93.5t74 -64t106 -23.5q14 0 40.5 2t69.5 15q-72 26 -100 75.5t-16 113.5q6 42 28 78.5t53.5 64t69.5 43.5t80 16q41 0 74.5 -16t55 -43.5t31 -64t3.5 -78.5q-13 -63 -50.5 -115.5t-91.5 -91.5 t-121.5 -61t-140.5 -22q-78 0 -138 29.5t-96.5 81t-50.5 119.5t-2 146zM392 419q-10 -52 21 -88t83 -36t94.5 36t52.5 88q9 52 -21.5 89t-82.5 37t-95 -37t-52 -89z" />
<glyph unicode="&#xe52;" horiz-adv-x="1611" d="M63 158.5q-9 48.5 0 104.5l137 793q14 78 -22.5 114.5t-102.5 42.5l47 69q40 -4 74.5 -19t57.5 -39t33 -58.5t1 -80.5l-141 -803q-8 -40 -3.5 -77.5t21.5 -66t47 -46t73 -17.5h846q43 0 79.5 17.5t64 46t45 66t25.5 77.5l69 385q18 101 -27 155.5t-146 54.5 q-37 0 -74.5 -13t-69.5 -37t-55 -56t-29 -69l-83 -463h-81l84 466q8 42 -6.5 73t-43 53.5t-67.5 34t-80 11.5q-49 0 -96.5 -13t-85.5 -40t-65 -66.5t-35 -93.5l-18 -119q18 15 44 23.5t52 8.5q39 0 69.5 -14t50.5 -38.5t27.5 -56.5t-0.5 -70q-6 -37 -24.5 -69t-46.5 -56 t-62.5 -37.5t-72.5 -13.5q-37 0 -67 13.5t-49.5 37.5t-29 56t-1.5 69l47 266q13 72 49.5 126.5t88.5 90t114.5 54t127.5 18.5q99 0 154 -33.5t92 -91.5q48 56 113 90.5t153 34.5q126 0 188.5 -70.5t41.5 -200.5l-72 -419q-9 -56 -36 -104.5t-66 -83.5t-88.5 -55t-104.5 -20 h-865q-55 0 -96.5 20t-68 55t-35.5 83.5zM398 398q-9 -45 17 -76t67 -31q44 0 80 31t45 76q8 43 -17 75t-70 32q-43 0 -79 -32t-43 -75z" />
<glyph unicode="&#xe53;" horiz-adv-x="1399" d="M15 182l81 458q14 78 54 136.5t95 97.5t120.5 59t130.5 20q104 0 169.5 -45t87.5 -109q20 30 51 57.5t69.5 49t80.5 34.5t86 13q62 0 112.5 -20t82.5 -57.5t45 -91.5t2 -123l-116 -661h-81l111 646q11 58 2 101.5t-33.5 72t-60.5 43t-79 14.5q-44 0 -87.5 -14.5 t-79 -40.5t-60 -63t-30.5 -80l-119 -679h-81l122 687q8 49 -8 85t-47.5 59t-73 34.5t-82.5 11.5q-57 0 -107.5 -17t-90 -47.5t-66.5 -74t-36 -95.5l-50 -296q22 16 55 24t64 8q41 0 74 -15t55 -42t31.5 -63t1.5 -77q-8 -43 -29 -79t-52.5 -62.5t-70 -41t-79.5 -14.5 t-75 14.5t-55 41t-31 62.5t-3 79zM87 182q-9 -53 21.5 -90.5t82.5 -37.5q26 0 50.5 9.5t44.5 27.5t34 41t18 50q9 52 -20.5 89t-81.5 37t-95 -37t-54 -89z" />
<glyph unicode="&#xe54;" horiz-adv-x="1259" d="M18 457q17 109 70.5 200t131.5 157t174.5 102.5t197.5 36.5q67 0 111.5 -2t81.5 -4.5t73 -5t88 -2.5q59 0 115 37.5t102.5 94.5t78.5 122.5t43 122.5h81q-13 -78 -53 -160t-99 -148t-132.5 -108t-151.5 -42q-49 0 -87 1.5t-76.5 4t-83.5 5t-106 2.5q-86 0 -165.5 -30 t-144 -84.5t-108.5 -130t-58 -169.5q-15 -96 6.5 -170t67 -124.5t110.5 -76.5t137 -26q57 0 102 7.5t83.5 16.5t72 17t65.5 6l3 3q-32 9 -72 33.5t-72 62t-49.5 88t-6.5 113.5q9 44 32 82.5t55 66.5t71 44.5t80 16.5q42 0 75 -15.5t54 -42.5t29.5 -63.5t1.5 -79.5 q-8 -38 -28 -73t-50 -62t-67.5 -44t-76.5 -18q12 -17 40.5 -33t62 -30t65.5 -24t54 -13q42 -9 95 -22t84 -43l-63 -66q-29 18 -63.5 29.5t-67.5 17.5t-62 7.5t-47 1.5q-48 0 -91.5 -9t-92.5 -20.5t-107 -20.5t-133 -9q-87 0 -163.5 29.5t-131 88.5t-79 148t-6.5 206z M624 416q-7 -52 22 -88.5t81 -36.5q26 0 50.5 10t45 26.5t34.5 39.5t17 49q10 52 -19 90.5t-81 38.5q-26 0 -50.5 -11t-45 -28.5t-35 -40.5t-19.5 -49z" />
<glyph unicode="&#xe55;" horiz-adv-x="1259" d="M18 457q17 103 65.5 190t119.5 152t159 104t183 47q-14 17 -25 47.5t-3 70.5q6 43 28.5 79.5t55 63.5t75 42t89.5 15q95 0 144.5 -56.5t32.5 -143.5q-7 -44 -29.5 -75t-48.5 -51q20 -3 39.5 -3h42.5q59 0 115 37.5t102.5 94.5t78.5 122.5t43 122.5h81q-13 -78 -53 -160 t-99 -148t-132.5 -108t-151.5 -42q-49 0 -87 1.5t-76.5 4t-83.5 5t-106 2.5q-86 0 -165.5 -30t-144 -84.5t-108.5 -130t-58 -169.5q-15 -96 6.5 -170t67 -124.5t110.5 -76.5t137 -26q57 0 102 7.5t83.5 16.5t72 17t65.5 6l3 3q-32 9 -72 33.5t-72 62t-49.5 88t-6.5 113.5 q9 44 32 82.5t55 66.5t71 44.5t80 16.5q42 0 75 -15.5t54 -42.5t29.5 -63.5t1.5 -79.5q-8 -38 -28 -73t-50 -62t-67.5 -44t-76.5 -18q12 -17 40.5 -33t62 -30t65.5 -24t54 -13q42 -9 95 -22t84 -43l-63 -66q-29 18 -63.5 29.5t-67.5 17.5t-62 7.5t-47 1.5q-48 0 -91.5 -9 t-92.5 -20.5t-107 -20.5t-133 -9q-87 0 -163.5 29.5t-130.5 88.5t-78 148t-8 206zM598 1068q-9 -52 24 -87t86 -35q28 0 53 9t46 26t35.5 39t18.5 48q10 52 -22.5 88.5t-85.5 36.5q-28 0 -54 -9.5t-46.5 -26.5t-35 -40t-19.5 -49zM624 416q-7 -52 22 -88.5t81 -36.5 q26 0 50.5 10t45 26.5t34.5 39.5t17 49q10 52 -19 90.5t-81 38.5q-26 0 -50.5 -11t-45 -28.5t-35 -40.5t-19.5 -49z" />
<glyph unicode="&#xe56;" horiz-adv-x="1178" d="M-38 1238l76 50q52 -52 90.5 -113t63 -125.5t34.5 -128t7 -119.5q35 33 82.5 61.5t101.5 49t114 32t118 11.5q105 0 191.5 -35t144.5 -98t82.5 -151.5t6.5 -195.5q-20 -109 -78 -200.5t-141.5 -157.5t-187.5 -102.5t-216 -36.5q-105 0 -187 31t-135.5 82.5t-76.5 117 t-11 134.5q8 45 31 82.5t55 64t71 42t80 15.5q42 0 75.5 -15.5t55 -42t30.5 -63.5t3 -80q-15 -78 -78.5 -132t-153.5 -62q47 -49 113 -71t141 -22q93 0 181 30.5t160 85.5t121.5 131.5t66.5 168.5q15 87 -7 159.5t-72 124.5t-122.5 81.5t-158.5 29.5q-71 0 -134.5 -16.5 t-115 -42.5t-90.5 -57t-60 -62h-80q2 83 -11 161t-39.5 146.5t-62 128.5t-78.5 109zM119 347q-9 -52 21 -88.5t82 -36.5t95 36.5t53 88.5q9 54 -21.5 91.5t-82.5 37.5q-26 0 -50.5 -10t-44.5 -27.5t-33.5 -40.5t-18.5 -51z" />
<glyph unicode="&#xe57;" horiz-adv-x="1716" d="M15 182l81 458q14 78 54 136.5t95 97.5t120.5 59t130.5 20q104 0 169.5 -45t87.5 -109q20 30 51 57.5t69.5 49t80.5 34.5t86 13q62 0 112.5 -20t82.5 -57.5t45 -91.5t2 -123l-101 -580q45 9 97 43t100.5 89.5t91 134.5t66.5 178q18 74 23.5 134.5t8.5 117t11.5 115.5 t31.5 129q17 51 43 93.5t54.5 76.5t56 59t50.5 40l53 -50q-23 -15 -47.5 -38t-49 -53t-45 -66t-34.5 -76q-23 -67 -31.5 -124.5t-12 -114t-9 -114.5t-22.5 -126q-29 -110 -76.5 -200t-107 -157.5t-128.5 -111t-142 -60.5h-78l111 646q11 58 2 101.5t-33.5 72t-60.5 43 t-79 14.5q-44 0 -87.5 -14.5t-79 -40.5t-60 -63t-30.5 -80l-119 -679h-81l122 687q8 49 -8 85t-47.5 59t-73 34.5t-82.5 11.5q-57 0 -107.5 -17t-90 -47.5t-66.5 -74t-36 -95.5l-50 -296q22 16 55 24t64 8q41 0 74 -15t55 -42t31.5 -63t1.5 -77q-8 -43 -29 -79t-52.5 -62.5 t-70 -41t-79.5 -14.5t-75 14.5t-55 41t-31 62.5t-3 79zM87 182q-9 -53 21.5 -90.5t82.5 -37.5q26 0 50.5 9.5t44.5 27.5t34 41t18 50q9 52 -20.5 89t-81.5 37t-95 -37t-54 -89z" />
<glyph unicode="&#xe58;" horiz-adv-x="1285" d="M20 304.5q-14 85.5 4 191.5q19 107 70 192.5t127.5 143.5t174 89.5t208.5 31.5q43 0 90.5 -7.5t98 -17.5t100 -17.5t97.5 -7.5q60 0 111 38t91 95.5t69 126.5t46 128h81q-19 -69 -55 -151.5t-87 -153t-117 -117.5t-145 -47q-58 0 -103.5 7.5t-90.5 16.5t-93 17t-111 8 q-92 0 -173 -26t-143.5 -74.5t-105 -118t-57.5 -156.5q-15 -84 -3 -154.5t42 -124t71.5 -88t83.5 -48.5l222 251q35 -75 77 -133q35 -51 81 -92t96 -41q26 0 57.5 16.5t60 39.5t51 46t32.5 35q-37 -6 -73 3.5t-62 32.5t-39 59t-5 84q7 37 27 69t47.5 56.5t61 39.5t70.5 15 t67.5 -13t52 -37.5t30 -57.5t2.5 -75q-14 -70 -60 -141t-106.5 -127.5t-126 -92.5t-119.5 -36q-49 0 -95 33.5t-81 73.5q-41 47 -76 108l-182 -215q-77 23 -138 65.5t-100 107t-53 150zM871 382q-10 -42 16 -73t69 -31t77.5 31t45.5 73q7 43 -19.5 73t-69.5 30t-77.5 -30 t-41.5 -73z" />
<glyph unicode="&#xe59;" horiz-adv-x="1429" d="M14.5 294.5q-9.5 89.5 6.5 184.5q19 102 71 190t126 152.5t166 101t190 36.5q114 0 200 -48t144 -131q31 75 91 125.5t142 53.5q45 2 78 -9.5t56 -28.5t37 -38.5t20 -39.5q27 37 54 89.5t47.5 112.5t34.5 125t17 127h81q-3 -85 -26 -171.5t-57.5 -164.5t-76 -142.5 t-79.5 -107.5l-55 25q2 20 -4.5 44.5t-23 46t-43.5 36t-63 14.5q-40 0 -71.5 -17.5t-53.5 -45.5t-36 -61.5t-19 -65.5q33 -72 54 -155.5t32 -172t12.5 -179t-4.5 -174.5l-81 -12q4 95 2 198t-17.5 201t-44.5 186t-77 154t-118.5 105t-167.5 39q-81 0 -157.5 -31t-137.5 -86 t-104 -129t-58 -161q-15 -92 0 -168t52 -131t91 -84.5t117 -29.5q-87 56 -66 173q6 41 28.5 77t53 62.5t69.5 42t80 15.5q42 0 75.5 -15.5t55 -42t30.5 -62.5t3 -77q-11 -59 -44.5 -104.5t-80 -78t-101 -49t-108.5 -16.5q-108 0 -179 42t-112 111.5t-50.5 159zM367 230 q-11 -54 20 -91.5t83 -37.5t94.5 37.5t52.5 91.5q10 52 -20.5 87.5t-82.5 35.5t-95 -35.5t-52 -87.5z" />
<glyph unicode="&#xe5a;" horiz-adv-x="1246" d="M119 1025q16 83 71.5 135.5t127 78t144 26t121.5 -20.5l-12 -78q-37 24 -96.5 28t-118.5 -13.5t-105 -57.5t-57 -101q-7 -46 6 -82t41 -59.5t68.5 -36.5t88.5 -13q111 0 199 35t155.5 94t114 134.5t75.5 158.5h89l-223 -1253h-78l194 1097q-20 -57 -66 -116.5 t-114.5 -109t-158 -81t-196.5 -31.5q-54 0 -107.5 15t-93.5 48t-60.5 83.5t-8.5 119.5zM933 0l224 1253h78l-222 -1253h-80z" />
<glyph unicode="&#xe5b;" horiz-adv-x="2131" d="M72.5 424.5q-11.5 94.5 8.5 208.5q18 108 61 202.5t102.5 164t131.5 110.5t150 41q63 0 112 -28.5t79.5 -78.5t41.5 -116.5t-3 -144.5q-11 -58 -31.5 -107.5t-49.5 -85.5t-65 -56t-78 -20q-32 0 -57 14t-41 37.5t-22.5 55.5t1.5 69q6 35 23.5 67t42 56.5t54 39.5t59.5 15 q26 0 45 -5.5t33 -19.5q3 54 -7 97.5t-30.5 74t-50.5 47.5t-65 17q-55 0 -111 -32.5t-105.5 -92t-88 -144.5t-56.5 -189q-17 -102 -5.5 -182.5t46 -135.5t89.5 -83.5t124 -28.5q80 0 161 41.5t153.5 119.5t134 189t103.5 252q17 53 27 77t39 24q23 0 38.5 -33t26 -85 t15 -117t4.5 -130l13 -3q24 54 40 113t30 108.5t29 81.5t38 32q19 0 35 -26.5t29 -70t21.5 -99.5t9.5 -114h12q11 30 22.5 74t23.5 83t26 66.5t29 27.5q20 0 34.5 -18.5t27 -52t24 -81t23.5 -105.5q18 32 30.5 68.5t25.5 69t26.5 53t33.5 20.5q17 0 28.5 -16t20 -41.5 t15.5 -54.5t14 -55q25 52 40 83.5t49 26.5l165 -23q14 -3 31 -3t14 -9q0 -9 -17 -10.5t-34 -4.5l-188 -16q-8 -13 -16.5 -30t-16.5 -31.5t-18 -23.5t-21 -9q-14 0 -23 20.5t-16 49.5t-14 60.5t-16 51.5q-9 -20 -22 -57t-29 -73t-34.5 -62.5t-36.5 -26.5q-17 0 -27.5 26.5 t-20 64t-19.5 78t-23 68.5q-14 -32 -29.5 -78t-31.5 -89.5t-33.5 -74t-37.5 -30.5q-21 0 -31 34.5t-17 83t-14.5 101.5t-26.5 88q-14 -49 -33.5 -109.5t-42.5 -113t-48.5 -88.5t-49.5 -36q-17 0 -20 13t-3 36q-2 29 -2.5 70.5t-4.5 87t-11 90t-19 81.5l-6 -28 q-15 -69 -46 -138.5t-70 -133.5t-81.5 -120t-82.5 -94q-87 -80 -178 -124.5t-182 -44.5q-85 0 -150 37t-105 104t-51.5 161.5zM476 693q-3 -23 0.5 -42t13.5 -33.5t23 -23t29 -8.5q35 0 67 31.5t40 75.5q7 44 -13.5 75t-55.5 31q-15 0 -32 -8.5t-32.5 -22.5t-26 -33 t-13.5 -42z" />
<glyph unicode="&#x2000;" horiz-adv-x="1223" />
<glyph unicode="&#x2001;" horiz-adv-x="2446" />
<glyph unicode="&#x2002;" horiz-adv-x="1223" />
<glyph unicode="&#x2003;" horiz-adv-x="2446" />
<glyph unicode="&#x2004;" horiz-adv-x="815" />
<glyph unicode="&#x2005;" horiz-adv-x="611" />
<glyph unicode="&#x2006;" horiz-adv-x="407" />
<glyph unicode="&#x2007;" horiz-adv-x="407" />
<glyph unicode="&#x2008;" horiz-adv-x="305" />
<glyph unicode="&#x2009;" horiz-adv-x="489" />
<glyph unicode="&#x200a;" horiz-adv-x="135" />
<glyph unicode="&#x200c;" />
<glyph unicode="&#x200d;" />
<glyph unicode="&#x2010;" horiz-adv-x="726" d="M110 523l15 78h443l-17 -78h-441z" />
<glyph unicode="&#x2011;" horiz-adv-x="726" d="M110 523l15 78h443l-17 -78h-441z" />
<glyph unicode="&#x2012;" horiz-adv-x="726" d="M110 523l15 78h443l-17 -78h-441z" />
<glyph unicode="&#x2013;" horiz-adv-x="1144" d="M54 482l15 80h956l-17 -80h-954z" />
<glyph unicode="&#x2014;" horiz-adv-x="2287" d="M54 482l15 80h2099l-15 -80h-2099z" />
<glyph unicode="&#x2018;" horiz-adv-x="492" d="M230 1294q6 33 22 70t42.5 75.5t65.5 73.5t91 63l45 -34q-32 -18 -62 -43.5t-54.5 -53t-40.5 -54t-22 -46.5q27 12 36.5 12h25.5q39 0 65 -29t20 -72q-10 -44 -47.5 -76t-81.5 -32q-64 0 -91 41t-14 105z" />
<glyph unicode="&#x2019;" horiz-adv-x="492" d="M225 1181q32 19 62.5 44t55 52.5t41.5 54.5t23 47q-28 -13 -38.5 -13h-27.5q-38 0 -63.5 29t-17.5 71q9 44 46.5 77t82.5 33q64 0 90 -41.5t14 -105.5q-6 -32 -22.5 -69.5t-44 -76t-65.5 -73.5t-89 -62z" />
<glyph unicode="&#x201c;" horiz-adv-x="839" d="M230 1294q6 33 22 70t42.5 75.5t65.5 73.5t91 63l45 -34q-32 -18 -62 -43.5t-54.5 -53t-40.5 -54t-22 -46.5q27 12 36.5 12h25.5q39 0 65 -29t20 -72q-10 -44 -47.5 -76t-81.5 -32q-64 0 -91 41t-14 105zM577 1294q6 33 22 70t43 75.5t66 73.5t91 63l44 -34 q-32 -18 -62 -43.5t-53.5 -53t-40.5 -54t-23 -46.5q14 6 23 8.5t15 3t11.5 0.5h13.5q38 0 65 -29t19 -72q-9 -44 -46.5 -76t-82.5 -32q-64 0 -90.5 41t-14.5 105z" />
<glyph unicode="&#x201d;" horiz-adv-x="839" d="M225 1181q32 19 62.5 44t55 52.5t41.5 54.5t23 47q-28 -13 -38.5 -13h-27.5q-38 0 -63.5 29t-17.5 71q9 44 46.5 77t82.5 33q64 0 90 -41.5t14 -105.5q-6 -32 -22.5 -69.5t-44 -76t-65.5 -73.5t-89 -62zM574 1181q32 19 62 44t54.5 52.5t42 54.5t23.5 47q-29 -13 -39 -13 h-27q-18 0 -35 8t-28.5 21.5t-17 31t-2.5 39.5q11 44 48 77t81 33q64 0 90 -41.5t14 -105.5q-6 -32 -22 -69.5t-43 -76t-65 -73.5t-89 -62z" />
<glyph unicode="&#x2022;" horiz-adv-x="1127" d="M78 627q18 98 70 184t128 149.5t168 100t189 36.5q98 0 177 -36.5t131 -100t73.5 -149.5t4.5 -184t-69 -183.5t-127 -149.5t-166.5 -101t-189.5 -37t-177 37t-131.5 101t-75 149.5t-5.5 183.5z" />
<glyph unicode="&#x2026;" horiz-adv-x="1324" d="M12 78q8 40 41 69t72 29q40 0 63 -29t15 -69q-7 -40 -40 -66.5t-73 -26.5t-62.5 26.5t-15.5 66.5zM454 78q8 40 41 69t73 29q39 0 62 -29t16 -69q-8 -40 -41 -66.5t-73 -26.5q-39 0 -62 26.5t-16 66.5zM897 78q7 40 39 69t72 29t63.5 -29t16.5 -69q-8 -40 -41 -66.5 t-72 -26.5q-40 0 -63 26.5t-15 66.5z" />
<glyph unicode="&#x202f;" horiz-adv-x="489" />
<glyph unicode="&#x205f;" horiz-adv-x="611" />
<glyph unicode="&#x25fc;" horiz-adv-x="1063" d="M0 0v1063h1063v-1063h-1063z" />
<glyph unicode="&#xf700;" horiz-adv-x="1040" d="M41 939q17 69 64.5 130.5t118 107t160 72.5t190.5 27q131 0 222 -50q26 16 52.5 49t38.5 73h91q-6 -26 -20 -50.5t-31.5 -46t-36 -39t-32.5 -28.5q86 -69 118 -185t2 -281q-32 -187 -102.5 -325.5t-166 -229.5t-212 -133t-240.5 -36l-57 768l-33 52h111l54 -745 q101 6 192 52t165 128.5t128 200.5t80 268q19 114 4.5 203.5t-58.5 151.5t-116 94.5t-165 32.5q-75 0 -145.5 -18.5t-128.5 -52.5t-101 -82t-65 -108h-81z" />
<glyph unicode="&#xf701;" d="M-1088 1411l17 75h861l-15 -75h-863z" />
<glyph unicode="&#xf702;" d="M-1088 1411l17 75h780l28 159h81l-43 -234h-863z" />
<glyph unicode="&#xf703;" d="M-1088 1411l17 75h701q-2 6 -3 13q-3 14 0 37q4 26 18.5 48t36 39t47 27t52.5 10q54 0 84.5 -36t21.5 -88q-3 -26 -17.5 -49t-35.5 -39.5t-46 -26.5t-51 -10h-825zM-311 1536q-4 -30 12.5 -50t44.5 -20q31 0 52 20t26 50q8 28 -9 47t-48 19q-27 0 -48.5 -19t-29.5 -47z " />
<glyph unicode="&#xf704;" d="M-1088 1411l17 75h604l28 159h83l-30 -159h95l28 159h81l-43 -234h-863z" />
<glyph unicode="&#xf705;" d="M-376 1411l44 234h81l-44 -234h-81z" />
<glyph unicode="&#xf706;" d="M-505 1548l17 78h49q142 0 119 -110l-3 -30h461l-16 -75h-541l12 72q5 30 -3.5 47.5t-43.5 17.5h-51z" />
<glyph unicode="&#xf707;" d="M-927 1411l18 99q17 87 82 133t151 46h9l128 -107l163 107h12q43 0 76.5 -11.5t56.5 -34.5t33 -56.5t4 -76.5l-3 -24h335l-16 -75h-417l17 87q9 53 -13.5 84.5t-75.5 31.5h-12l-175 -116l-136 116h-9q-106 0 -132 -116v-12h126l-16 -75h-206z" />
<glyph unicode="&#xf708;" d="M-577 1561l12 68h152l24 150h81l-24 -150h150l-12 -68h-150l-29 -150h-81l27 150h-150z" />
<glyph unicode="&#xf709;" d="M-476 1411l9 39q19 82 65.5 117t110.5 35h162l-12 -77h-122q-49 0 -80.5 -22t-38.5 -62l-7 -30h-87z" />
<glyph unicode="&#xf70a;" d="M-69 1411l45 234h81l-45 -234h-81z" />
<glyph unicode="&#xf70b;" d="M-376 1548l15 78h50q143 0 120 -110l-3 -30h404l-16 -75h-485l13 72q4 30 -4.5 47.5t-43.5 17.5h-50z" />
<glyph unicode="&#xf70c;" d="M-786 1411l18 99q9 43 30.5 76.5t52 56.5t69 34.5t80.5 11.5h10l128 -107l162 107h14q84 0 131.5 -46t36.5 -133l-3 -24h179l-15 -75h-260l15 87q9 53 -12 84.5t-75 31.5h-14l-174 -116l-135 116h-10q-106 0 -132 -116v-12h125l-15 -75h-206z" />
<glyph unicode="&#xf70d;" d="M-341 1561l12 68h150l26 150h81l-24 -150h150l-13 -68h-151l-28 -150h-81l28 150h-150z" />
<glyph unicode="&#xf70e;" d="M-191 1411l9 39q20 82 66 117t110 35h162l-12 -77h-123q-49 0 -79.5 -22t-37.5 -62l-8 -30h-87z" />
<glyph unicode="&#xf70f;" horiz-adv-x="1892" d="M-15 0l125 705q6 32 23 55t35.5 41.5t34.5 34t19 32.5q3 12 -11.5 29.5t-33.5 32.5q-21 17 -48 35q21 71 74 128.5t126 98t161 62.5t180 22q93 0 176 -21.5t141 -68t85.5 -120t9.5 -176.5l-95 -534q-15 -87 2.5 -145t56.5 -92.5t94.5 -48t118.5 -13.5t124 13.5t112.5 48 t89.5 92.5t54 145l160 897h81l-163 -921q-19 -104 -69.5 -171.5t-117 -107t-141.5 -55.5t-142 -16q-66 0 -135 16t-121.5 55.5t-79.5 107t-8 171.5l93 536q15 88 -3 151t-64 102.5t-116.5 59t-157.5 19.5q-90 0 -165 -20t-132 -51.5t-93.5 -69.5t-48.5 -75q26 -17 46 -37 q16 -17 29 -39t10 -44q-4 -16 -20 -34t-34.5 -37t-34.5 -40.5t-21 -47.5l-113 -630h226l-13 -75h-306z" />
<glyph unicode="&#xf710;" d="M-649 1411l32 165h85l-16 -90h718l-17 -75h-802z" />
<glyph unicode="&#xf711;" d="M-370 1542q10 57 54 94.5t100 37.5q57 0 88.5 -37.5t20.5 -94.5q-9 -58 -54.5 -94.5t-101.5 -36.5q-57 0 -86.5 36.5t-20.5 94.5zM-314 1542q-3 -15 1 -29t12.5 -24.5t21.5 -16.5t28 -6q31 0 56 23t33 53q4 31 -14 53t-49 22t-57.5 -22t-31.5 -53z" />
<glyph unicode="&#xf712;" d="M-968 1561q6 36 29.5 69t62 59t92 41.5t120.5 15.5h583l-12 -75h-565q-99 0 -157.5 -30.5t-68.5 -79.5q-6 -34 7 -55q6 -11 16 -20h156l283 108l246 -108l-15 -75l-245 111l-275 -111h-201q-26 18 -46 54.5t-10 95.5z" />
<glyph unicode="&#xf713;" d="M-248 1740l32 188h81l-32 -188h-81z" />
<glyph unicode="&#xf714;" d="M-493 1868l14 69h57q116 0 102 -89l-6 -36h364l-14 -72h-437l12 68q5 28 -4.5 44t-39.5 16h-48z" />
<glyph unicode="&#xf715;" d="M-589 1740l15 90q16 78 74 121t133 43h11l114 -95l146 95h12q75 0 121 -43t32 -121l-3 -18h131l-12 -72h-206l12 78q7 49 -12 77t-66 28h-14l-156 -105l-122 105h-10q-47 0 -77 -28t-39 -77v-6h113l-12 -72h-185z" />
<glyph unicode="&#xf716;" d="M-344 1857l9 60h119l22 119h81l-22 -119h120l-9 -60h-120l-23 -117h-81l23 117h-119z" />
<glyph unicode="&#xf717;" d="M-401 1642l6 35q14 79 64.5 114.5t114.5 35.5h159l-12 -75h-122q-49 0 -79.5 -22.5t-40.5 -61.5l-6 -26h-84z" />
<glyph unicode="&#xf718;" d="M-517 -607l12 75h176l-57 -329h-81l45 254h-95z" />
<glyph unicode="&#xf719;" d="M-868 -607l13 75h144l-28 -161q-12 -63 26 -87.5t106 -24.5q65 0 110.5 24t57.5 88l29 161h81l-27 -170q-16 -87 -85.5 -131t-179.5 -44t-162 44t-39 131l17 95h-63z" />
<glyph unicode="&#xf71a;" d="M-508 -614q8 33 36 57.5t62 24.5q32 0 52.5 -24.5t13.5 -57.5q-5 -33 -33 -57.5t-62 -24.5q-32 0 -53 24.5t-16 57.5z" />
<glyph unicode="&#xf71b;" />
<glyph unicode="&#xf71c;" />
<glyph unicode="&#xf71d;" />
<glyph unicode="&#xf880;" />
<glyph horiz-adv-x="579" d="M-370 1542q10 57 54 94.5t100 37.5q57 0 88.5 -37.5t20.5 -94.5q-9 -58 -54.5 -94.5t-101.5 -36.5q-57 0 -86.5 36.5t-20.5 94.5zM-314 1542q-3 -15 1 -29t12.5 -24.5t21.5 -16.5t28 -6q31 0 56 23t33 53q4 31 -14 53t-49 22t-57.5 -22t-31.5 -53zM113 1178l16 75 q68 12 144 6t136.5 -36t93.5 -85.5t17 -144.5l-176 -993h-81l170 962q12 72 -7 118t-62.5 71.5t-108 30.5t-142.5 -4z" />
<glyph d="M-649 1545q3 28 17 53t34 46.5t44.5 39t48.5 30.5q44 21 95.5 35.5t89.5 17.5l3 9q-85 36 -72 132q5 26 23.5 53.5t46 52.5t62.5 47.5t75 37.5q47 19 104.5 29.5t111 16t98.5 6t68 -0.5l-12 -72q-69 6 -150.5 -1.5t-153.5 -29t-124 -57.5t-61 -85q-7 -32 8.5 -53.5 t41.5 -33t57.5 -16t58.5 -3.5l-12 -70q-60 1 -131.5 -9.5t-135 -34t-106.5 -59.5t-45 -84q-1 -17 8 -29t24.5 -20.5t34.5 -12.5t37 -4q49 0 98 14t75 26l25 -59q-17 -8 -43 -18t-59 -17.5t-71 -11.5t-78 1q-70 9 -106 47t-29 87z" />
<glyph />
<glyph />
<glyph d="M-1088 1411l17 75h604l28 159h83l-30 -159h95l28 159h81l-43 -234h-863zM-335 1740l31 188h82l-32 -188h-81z" />
<glyph d="M-1016 1450l14 75h829l-12 -75h-831z" />
<glyph d="M-1016 1450l14 75h748l29 161h81l-41 -236h-831z" />
</font>
</defs>
</svg>
