<?xml version="1.0" standalone="no"?>
<!DOCTYPE svg PUBLIC "-//W3C//DTD SVG 1.1//EN" "http://www.w3.org/Graphics/SVG/1.1/DTD/svg11.dtd" >
<svg xmlns="http://www.w3.org/2000/svg" xmlns:xlink="http://www.w3.org/1999/xlink" version="1.1">
<metadata></metadata>
<defs>
<font id="psl_kanda_probold_italic" horiz-adv-x="0" >
<font-face units-per-em="2048" ascent="1638" descent="-410" />
<missing-glyph horiz-adv-x="747" />
<glyph unicode="&#xe37;&#xe48;" d="M-891 1401l26 137h476l27 158h175l-27 -158h92l29 158h174l-54 -295h-918zM-214 1791l42 232h175l-44 -232h-173z" />
<glyph unicode="&#xd;" horiz-adv-x="747" />
<glyph unicode=" "  horiz-adv-x="747" />
<glyph unicode="&#x09;" horiz-adv-x="747" />
<glyph unicode="&#xa0;" horiz-adv-x="747" />
<glyph unicode="!" horiz-adv-x="522" d="M24 0l41 228h224l-40 -228h-225zM161 377l56 632l82 458h193l-82 -458l-164 -632h-85z" />
<glyph unicode="&#x22;" horiz-adv-x="855" d="M261 936l93 531h138l-94 -531h-137zM541 936l94 531h137l-94 -531h-137z" />
<glyph unicode="#" horiz-adv-x="1120" d="M18 424l26 140h214l96 307h-205l26 141h223l131 420h140l-134 -420h249l134 420h140l-134 -420h181l-24 -141h-199l-95 -307h181l-24 -140h-204l-134 -424h-136l133 424h-252l-131 -424h-139l130 424h-193zM398 564h250l92 307h-248z" />
<glyph unicode="$" horiz-adv-x="1304" d="M35 482h179q-16 -76 0 -136t54 -104t94 -71.5t123 -36.5l97 552q-100 25 -181.5 52t-134.5 71t-74.5 114t-1.5 182q15 90 64.5 160.5t122.5 120t162.5 77.5t185.5 34q0 2 4.5 33t12.5 69l18 100h137l-35 -202q114 -10 188.5 -49.5t116 -100.5t54.5 -141t6 -169h-178 q3 57 -8.5 107.5t-37.5 89t-68.5 65t-100.5 37.5l-91 -502q61 -16 121 -32t113.5 -37.5t96 -52t69.5 -74.5t36.5 -105.5t-6.5 -146.5q-18 -97 -72.5 -171.5t-133.5 -127t-176.5 -82t-199.5 -35.5l-33 -204h-138l34 204q-101 9 -188 44.5t-146 99.5t-83.5 156t-1.5 212z M379.5 1007q8.5 -37 37 -60.5t77.5 -40.5t119 -35l85 468q-61 -6 -114.5 -23.5t-95 -47t-69 -70.5t-36.5 -93q-12 -61 -3.5 -98zM623 134q70 4 131 21.5t108.5 49.5t79 77.5t41.5 106.5q13 64 -1.5 105t-50.5 70t-91.5 48.5t-126.5 38.5z" />
<glyph unicode="%" horiz-adv-x="2014" d="M236 888.5q-3 76.5 13 166.5q12 76 42 148t77.5 128.5t114.5 90.5t155 34q96 0 153 -33.5t84.5 -89t30.5 -126t-9 -143.5q-14 -78 -44.5 -155.5t-79 -139t-116 -99.5t-155.5 -38q-92 0 -149 33t-85.5 90t-31.5 133.5zM246 -47l1352 1532h170l-1352 -1532h-170zM386 946 q-3 -54 7.5 -98t39.5 -72t84 -28q51 0 91.5 29t68.5 74.5t45.5 101t25.5 108.5q6 49 7.5 99t-10 90t-41 66t-84.5 26q-48 0 -86 -27.5t-65.5 -69t-45 -93.5t-25.5 -100q-9 -52 -12 -106zM1116.5 234.5q-3.5 77.5 12.5 166.5q14 76 43 148.5t76 128.5t114 90.5t153 34.5 q96 0 154 -33.5t86 -89t32 -126.5t-10 -144q-14 -77 -44.5 -154.5t-78 -139t-116 -99.5t-156.5 -38q-92 0 -148 32t-85 89t-32.5 134.5zM1267 293q-4 -54 6.5 -99t40.5 -73t84 -28q52 0 92.5 29.5t68.5 75t44.5 101t24.5 108.5q6 49 7.5 99t-10 90.5t-41 66.5t-84.5 26 q-48 0 -86 -27.5t-65 -69.5t-44.5 -93.5t-24.5 -100.5q-9 -51 -13 -105z" />
<glyph unicode="&#x26;" horiz-adv-x="1270" d="M12 380q14 82 49.5 145t89 115t123.5 95t153 87q-27 41 -50 82t-37.5 82.5t-19 84.5t3.5 90q10 66 43.5 122t84 97t115.5 64t140 23q76 0 135 -22t97 -62.5t53.5 -96.5t3.5 -125q-13 -67 -44 -121t-76.5 -98t-101 -81t-114.5 -71l208 -317q29 51 49.5 106.5t35.5 112.5 h161q-50 -198 -155 -356l217 -336h-226l-116 181q-95 -96 -206 -152t-230 -56q-89 0 -168.5 22t-134 71.5t-79 127t-4.5 186.5zM193 380q-9 -55 6 -100.5t48.5 -79t81.5 -51.5t104 -18q94 0 175 47t149 128l-255 401q-55 -28 -105 -56.5t-91.5 -65t-70 -86t-42.5 -119.5z M496 1161q-13 -62 7.5 -111.5t54.5 -105.5l27 -38q47 26 86.5 51.5t70 55.5t51 65.5t29.5 79.5q6 34 -1.5 62.5t-26.5 49t-47 32t-61 11.5q-73 0 -125.5 -43t-64.5 -109z" />
<glyph unicode="'" horiz-adv-x="557" d="M252 936l93 531h137l-93 -531h-137z" />
<glyph unicode="(" horiz-adv-x="522" d="M43.5 275q-2.5 132 24.5 283q28 146 77.5 281t113 254.5t139 222t152.5 184.5h136q-90 -114 -160 -222t-122.5 -220.5t-89.5 -234.5t-65 -265q-27 -148 -33 -274t7 -241.5t43 -226.5t79 -226h-128q-47 100 -86.5 208t-62 226.5t-25 250.5z" />
<glyph unicode=")" horiz-adv-x="522" d="M-217 -410q86 115 157 226t125 226.5t92.5 241.5t62.5 274q25 143 30 265t-7.5 234.5t-44.5 220.5t-82 222h133q50 -82 89.5 -184.5t62 -222t24 -254.5t-23.5 -281q-26 -151 -75 -283t-114.5 -250.5t-142.5 -226.5t-159 -208h-127z" />
<glyph unicode="*" horiz-adv-x="722" d="M140 1218l56 98l202 -80l41 231h108l-39 -231l232 80l23 -98l-234 -78l100 -187l-97 -62l-105 196l-169 -196l-80 62l167 187z" />
<glyph unicode="+" horiz-adv-x="1136" d="M47 448l24 140h405l71 402h142l-72 -402h404l-25 -140h-405l-71 -407h-140l71 407h-404z" />
<glyph unicode="," horiz-adv-x="501" d="M-21 -172q64 35 104 75.5t66 87.5q-8 -2 -14 -3q-15 -3 -29 -3q-47 0 -78 35t-22 86q5 25 18.5 48.5t34 41.5t46.5 29.5t53 11.5q72 0 104.5 -46.5t17.5 -119.5q-12 -65 -69 -145.5t-170 -145.5z" />
<glyph unicode="-" horiz-adv-x="784" d="M62 489l28 165h585l-27 -165h-586z" />
<glyph unicode="." horiz-adv-x="501" d="M18 109q9 52 51.5 90t96.5 38q51 0 82.5 -38t22.5 -90q-5 -25 -19.5 -48t-35 -39.5t-45 -26.5t-49.5 -10q-52 0 -82.5 35.5t-21.5 88.5z" />
<glyph unicode="/" horiz-adv-x="671" d="M-169 -35l867 1535h149l-868 -1535h-148z" />
<glyph unicode="0" horiz-adv-x="1136" d="M52.5 439q5.5 143 34.5 312q24 137 67.5 264t114.5 225t177 157t255 59q103 0 174.5 -28t116.5 -77.5t66 -115.5t26.5 -142t-2 -159t-21.5 -165q-30 -169 -70.5 -314.5t-110.5 -253t-178.5 -168t-274.5 -60.5q-146 0 -228 57.5t-117 161.5t-29.5 247zM238 451.5 q-2 -68.5 7 -128t34 -102.5t69 -68t113 -25q101 0 171 51.5t116.5 139t75.5 203.5t50 244q17 90 25 185.5t-8.5 174.5t-66.5 130t-149 51q-69 0 -122.5 -24t-95 -66t-71 -97.5t-50.5 -118t-36.5 -127.5t-25.5 -126q-14 -76 -24 -152t-12 -144.5z" />
<glyph unicode="1" horiz-adv-x="1136" d="M234 1043l24 140q75 0 147 11t133.5 42.5t111 84.5t78.5 135h134l-259 -1456h-176l183 1043h-376z" />
<glyph unicode="2" horiz-adv-x="1136" d="M-78 0q28 129 85 225t137.5 171t183 137.5t219.5 126.5q78 42 136.5 83t100 87.5t67.5 101t40 123.5q7 45 -6 89.5t-44.5 79.5t-79.5 56t-110 21q-69 0 -129 -29.5t-106.5 -79.5t-75 -115.5t-34.5 -137.5h-178q16 125 66.5 221.5t126.5 162.5t174 99.5t209 33.5 q89 0 163.5 -28t125 -79.5t72.5 -124t7 -160.5q-23 -128 -79.5 -218.5t-131.5 -156.5t-163 -114.5t-175 -95.5q-58 -32 -118.5 -68.5t-112.5 -77.5t-90.5 -86.5t-52.5 -94.5h754l-29 -152h-952z" />
<glyph unicode="3" horiz-adv-x="1136" d="M12 252q-17 88 3 199h172q-15 -80 -1.5 -140t49.5 -100.5t90.5 -60t122.5 -19.5q61 0 120.5 20.5t108 57t82 86.5t44.5 109q15 90 -9.5 149.5t-75.5 92.5t-123 41.5t-153 -1.5l25 148q54 -4 117.5 1.5t120.5 32t100 78t60 141.5q9 47 -3 85.5t-40.5 67.5t-71 45t-93.5 16 q-81 0 -140 -26.5t-101 -70.5t-66.5 -101t-34.5 -117h-175q17 93 58 177.5t107.5 150t159.5 104t213 38.5q97 0 173 -26.5t125.5 -76t68.5 -118t4 -151.5q-18 -111 -85 -185.5t-177 -123.5q69 -17 114.5 -51t70 -82.5t29 -108.5t-7.5 -129q-19 -103 -74.5 -183 t-133.5 -134.5t-171.5 -82.5t-189.5 -28q-118 0 -205 32.5t-138.5 94t-68.5 149.5z" />
<glyph unicode="4" horiz-adv-x="1136" d="M-12 342l30 169l835 945h153l-172 -960h184l-28 -154h-184l-58 -342h-178l59 342h-641zM172 496h485l121 690z" />
<glyph unicode="5" horiz-adv-x="1136" d="M12 392h175q-11 -58 6 -106.5t52.5 -82.5t86.5 -53t110 -19q73 0 135.5 25t111 70.5t82 111t48.5 147.5q11 67 -0.5 125.5t-46.5 101.5t-92.5 68.5t-138.5 25.5q-62 0 -114.5 -22t-92.5 -48q-45 -31 -82 -70l-149 9l268 757h719l-29 -152h-585l-155 -424 q71 58 138.5 80.5t153.5 22.5q118 0 200 -39.5t130 -104t63 -148t0 -171.5q-21 -119 -75 -215t-131.5 -163.5t-173.5 -104.5t-202 -37q-109 0 -193.5 31t-138.5 85.5t-75.5 131.5t-4.5 168z" />
<glyph unicode="6" horiz-adv-x="1136" d="M46.5 402q-2.5 138 27.5 311q25 138 76 271t130.5 238t190 169.5t254.5 64.5q109 0 183 -29.5t116 -79.5t55.5 -118t4.5 -145h-169q-1 36 -9 74t-29 70t-61.5 52.5t-105.5 20.5q-108 0 -184 -51t-129 -130.5t-87.5 -177.5t-57.5 -194q44 48 89 83t93.5 58t103.5 33.5 t119 10.5q109 0 186 -35.5t122.5 -98.5t59 -149t-3.5 -186q-18 -102 -64.5 -191t-119 -155t-172.5 -104t-223 -38q-136 0 -222 50t-128.5 144t-45 232zM239 341q9 -60 37 -107t75 -75t113 -28q80 0 143 26.5t109 72t74.5 105.5t40.5 126q11 66 2.5 124.5t-38.5 102 t-82.5 68.5t-130.5 25q-64 0 -121 -25.5t-102.5 -70t-76.5 -101.5t-42 -120q-10 -63 -1 -123z" />
<glyph unicode="7" horiz-adv-x="1136" d="M166 0q19 116 64 236.5t107.5 240t137.5 233.5t157 216t166.5 189t163.5 153h-763l29 164h942l-24 -149q-143 -125 -270.5 -271t-231 -308.5t-177 -339.5t-105.5 -364h-196z" />
<glyph unicode="8" horiz-adv-x="1136" d="M21 398q25 139 109 238.5t203 150.5q-79 49 -115 129t-19 174q14 76 59.5 143t113 116t152 78t174.5 29q88 0 161 -29t122.5 -78t71.5 -116t8 -143q-17 -94 -80.5 -172.5t-155.5 -127.5q105 -51 156 -147t28 -233q-15 -88 -67.5 -167.5t-130 -140.5t-174 -96.5 t-198.5 -35.5q-105 0 -190 33t-140.5 92t-79.5 136.5t-8 166.5zM214 413q-10 -60 1 -111t43 -88.5t86 -58.5t129 -21q64 0 122.5 21t106 58.5t80.5 88.5t43 111q11 60 -4 111t-50 88t-87 58.5t-114 21.5q-64 0 -123 -21.5t-107 -58.5t-81.5 -88t-44.5 -111zM380 1072 q-9 -49 3 -91.5t40 -74.5t71 -50t94 -18q52 0 100.5 18t89 50t69.5 74.5t38 91.5q7 47 -6 89.5t-41.5 74.5t-70.5 50t-92 18q-53 0 -102.5 -18t-90 -50t-67.5 -74.5t-35 -89.5z" />
<glyph unicode="9" horiz-adv-x="1136" d="M47 348h167q2 -36 9.5 -74t29.5 -70t61.5 -52.5t105.5 -20.5q107 0 183 51t130 130.5t88.5 178.5t57.5 195q-45 -49 -89.5 -85t-94 -58.5t-104 -33t-118.5 -10.5q-108 0 -185 35.5t-122.5 98.5t-60 149t3.5 186q17 102 64 191t121 155t174 104t224 38q136 0 221.5 -50 t127 -144.5t43 -232t-28.5 -310.5q-24 -138 -74.5 -271t-130 -238t-190 -169.5t-253.5 -64.5q-109 0 -183 29.5t-116.5 79.5t-56 118t-4.5 145zM295.5 845.5q8.5 -58.5 39 -101.5t83 -68t129.5 -25q64 0 121 25.5t102.5 69.5t77 101t43.5 121q10 64 1 123.5t-38 106.5 t-76 75t-112 28q-81 0 -144 -26.5t-108.5 -72t-74.5 -105.5t-40 -126q-12 -67 -3.5 -125.5z" />
<glyph unicode=":" horiz-adv-x="501" d="M18 109q9 52 51.5 90t96.5 38q51 0 82.5 -38t22.5 -90q-5 -25 -19.5 -48t-35 -39.5t-45 -26.5t-49.5 -10q-52 0 -82.5 35.5t-21.5 88.5zM155 879q11 51 53.5 89t93.5 38q52 0 83 -38t22 -89q-9 -54 -53 -89.5t-96 -35.5q-51 0 -81.5 35t-21.5 90z" />
<glyph unicode=";" horiz-adv-x="501" d="M-21 -172q64 35 104 75.5t66 87.5q-8 -2 -14 -3q-15 -3 -29 -3q-47 0 -78 35t-22 86q5 25 18.5 48.5t34 41.5t46.5 29.5t53 11.5q72 0 104.5 -46.5t17.5 -119.5q-12 -65 -69 -145.5t-170 -145.5zM155 879q11 51 53.5 89t93.5 38q52 0 83 -38t22 -89q-9 -54 -53 -89.5 t-96 -35.5q-51 0 -81.5 35t-21.5 90z" />
<glyph unicode="&#x3c;" horiz-adv-x="1208" d="M47 458l21 124l1112 473l-25 -140l-932 -395l792 -395l-25 -140z" />
<glyph unicode="=" horiz-adv-x="1136" d="M12 249l26 140h948l-24 -140h-950zM84 648l25 139h949l-24 -139h-950z" />
<glyph unicode="&#x3e;" horiz-adv-x="1208" d="M-38 -15l26 140l927 395l-787 395l24 140l944 -473l-21 -124z" />
<glyph unicode="?" horiz-adv-x="1136" d="M158 1009q18 105 64.5 195t117 156t162 103t196.5 37q92 0 166 -27t122 -79.5t66 -129.5t0 -174q-12 -64 -35 -114t-54 -92t-68.5 -77t-75.5 -67q-39 -32 -77 -64t-69.5 -67.5t-53.5 -76.5t-31 -93l-12 -68h-172l16 83q12 64 37.5 113.5t59 90.5t71.5 74.5t75 63.5 q33 31 68 62t64.5 67.5t50 80.5t28.5 102q12 113 -42 176.5t-163 63.5q-72 0 -129 -26.5t-99.5 -72t-69.5 -108t-41 -132.5h-172zM317 65.5q-5 24.5 1 53.5q9 56 52 93t100 37q56 0 87 -37t22 -93q-12 -58 -55.5 -96t-99.5 -38q-29 0 -51 10t-36.5 28t-19.5 42.5z" />
<glyph unicode="@" horiz-adv-x="1643" d="M93.5 417.5q-31.5 146.5 2.5 336.5q30 173 116.5 311.5t209 235t269.5 148t299 51.5q159 0 278.5 -51t194.5 -139.5t103 -210.5t3 -261q-16 -89 -69 -187.5t-133.5 -182t-181.5 -139t-211 -55.5q-26 0 -43 11t-28.5 30t-16 43.5t-4.5 51.5q-76 -68 -150 -105t-156 -37 q-76 0 -130 42.5t-77.5 115.5t-10.5 168.5t72 201.5q47 86 103.5 155.5t122.5 120t144.5 77.5t167.5 27q58 0 93 -26.5t55 -56.5q21 -38 30 -84l72 131h130l-302 -644q-18 -38 -15 -62t18 -35t38 -9.5t45 14.5q37 23 83.5 66.5t90.5 102t79 127t47 141.5q20 114 -4.5 213.5 t-86 173t-157.5 115.5t-219 42q-118 0 -239 -41t-224.5 -122.5t-179.5 -200t-105 -273.5q-27 -152 -1 -276t94 -211.5t174.5 -135t243.5 -47.5q88 0 162.5 13.5t142 44t134.5 77.5t140 114h122q-53 -78 -132 -144.5t-174 -114.5t-202.5 -75.5t-216.5 -27.5q-160 0 -287 52.5 t-209.5 153t-114 247zM516.5 533.5q4.5 -54.5 35 -90.5t96.5 -36q45 0 90.5 20t89 54t83 81.5t72.5 103.5q46 77 61 145t5.5 118t-42.5 79t-83 29q-58 0 -108 -23t-93.5 -60t-78 -84.5t-62.5 -94.5q-32 -58 -51 -122.5t-14.5 -119z" />
<glyph unicode="A" horiz-adv-x="1304" d="M-140 0l822 1467h209l304 -1467h-212l-77 442h-607l-240 -442h-199zM389 606h482l-117 686z" />
<glyph unicode="B" horiz-adv-x="1378" d="M30 0l259 1467h638q123 0 201.5 -32t119.5 -82q42 -49 53 -111q6 -31 6 -61.5t-6 -60.5q-21 -118 -87 -207t-183 -138q59 -21 104 -50.5t72 -73t35 -103.5q3 -22 2 -46q0 -42 -8 -92q-17 -94 -65 -169t-118 -129t-157 -83t-183 -29h-683zM252 166h396q68 0 133.5 8 t120 35.5t94 81.5t56.5 145q5 28 5 52q0 40 -15 70q-24 46 -72.5 71.5t-118.5 34t-150 8.5h-359zM371 838h357q67 0 128.5 8t111 31.5t83.5 68t48 115.5q7 38 7 69q0 40 -12 68q-20 48 -61.5 71t-98.5 27.5t-115 4.5h-365z" />
<glyph unicode="C" horiz-adv-x="1453" d="M79 428q-6 53 -6 111q0 102 20 218q27 150 97 285.5t175 236.5t239.5 161t289.5 60q126 0 225.5 -34t168 -96.5t100.5 -150.5q27 -72 27 -158q0 -18 -1 -37h-190q-2 67 -23 125t-65.5 99.5t-111 66t-159.5 24.5q-120 0 -219 -51t-173.5 -133.5t-123 -188.5t-66.5 -215 q-16 -86 -16 -168q0 -30 2 -60q8 -111 49 -197.5t120.5 -139t202.5 -52.5q90 0 169 23.5t144.5 73.5t115.5 130t82 194h190q-39 -137 -106 -246.5t-160.5 -187t-210 -118.5t-252.5 -41q-159 0 -272 56t-178.5 159t-83.5 251z" />
<glyph unicode="D" horiz-adv-x="1419" d="M30 0l259 1467h514q177 0 295 -54t184 -146q66 -93 83 -215q7 -50 7 -101q0 -76 -15 -158q-36 -206 -106.5 -356t-174 -247t-239 -143.5t-299.5 -46.5h-508zM252 166h292q164 0 273 54t178 142t107 200.5t59 230.5q15 83 15 150q0 53 -10 96q-20 98 -78.5 156.5t-151 82 t-211.5 23.5h-271z" />
<glyph unicode="E" horiz-adv-x="1229" d="M30 0l259 1467h994l-29 -166h-800l-83 -463h746l-27 -166h-748l-90 -506h806l-27 -166h-1001z" />
<glyph unicode="F" horiz-adv-x="1155" d="M30 0l259 1467h947l-28 -166h-754l-83 -463h660l-29 -166h-660l-119 -672h-193z" />
<glyph unicode="G" horiz-adv-x="1529" d="M84 440q-10 63 -10 130q0 87 16 181q27 147 97.5 283t177 239.5t245 165t299.5 61.5q147 0 248.5 -35t165 -98.5t91.5 -152.5t30 -196h-187q-12 73 -32.5 132.5t-60 101.5t-106.5 64.5t-173 22.5q-123 0 -225 -51t-180.5 -135t-129.5 -191.5t-70 -221.5q-14 -77 -14 -148 q0 -46 6 -90q15 -110 64.5 -192t132.5 -129t197 -47q105 0 196 32t162.5 92.5t121 148t68.5 199.5h-460l30 166h633l-137 -772h-122l-15 184q-62 -59 -123 -100t-124 -68t-132 -39t-147 -12q-149 0 -260.5 60t-181 165.5t-91.5 249.5z" />
<glyph unicode="H" horiz-adv-x="1453" d="M30 0l259 1467h193l-111 -629h755l113 629h190l-259 -1467h-190l119 672h-757l-119 -672h-193z" />
<glyph unicode="I" horiz-adv-x="522" d="M41 0l258 1467h193l-258 -1467h-193z" />
<glyph unicode="J" horiz-adv-x="1045" d="M6 482h187q-21 -89 -21 -156q0 -69 23 -112q45 -86 170 -86q64 0 108.5 19.5t75 50t49 69.5t29 76t15 70.5t9.5 53.5l177 1000h193l-190 -1075q-21 -118 -67.5 -199.5t-111 -131.5t-145.5 -73t-171 -23q-230 0 -308 125q-45 74 -45 194q0 87 23 198z" />
<glyph unicode="K" horiz-adv-x="1342" d="M30 0l259 1467h193l-128 -733l860 733h242l-705 -593l473 -874h-241l-389 740l-279 -226l-92 -514h-193z" />
<glyph unicode="L" horiz-adv-x="1120" d="M30 0l259 1467h193l-230 -1301h763l-29 -166h-956z" />
<glyph unicode="M" horiz-adv-x="1752" d="M38 0l258 1467h262l232 -1233l674 1233h264l-258 -1467h-181l217 1233l-672 -1233h-162l-233 1245l-222 -1245h-179z" />
<glyph unicode="N" horiz-adv-x="1453" d="M30 0l259 1467h200l557 -1190l208 1190h178l-259 -1467h-202l-551 1183l-209 -1183h-181z" />
<glyph unicode="O" horiz-adv-x="1532" d="M76 437q-10 64 -10 131q0 82 15 169q27 160 101.5 300.5t183 244.5t247 164t296.5 60q152 0 268.5 -60t189 -164t98.5 -244q13 -69 13 -143q0 -76 -14 -158q-29 -159 -103.5 -300t-183 -245.5t-246.5 -165.5t-293 -61q-161 0 -278.5 61t-189 165.5t-94.5 245.5zM266 498 q15 -110 64.5 -192.5t134 -130t201.5 -47.5t218.5 47.5t181.5 130t134 192.5t77 236q13 72 13 140q0 50 -7 97q-17 111 -68 193t-135 130t-198 48q-119 0 -220 -48t-180 -130t-132.5 -193t-75.5 -237q-14 -76 -14 -147q0 -46 6 -89z" />
<glyph unicode="P" horiz-adv-x="1304" d="M30 0l259 1467h573q242 0 354 -104q83 -78 82 -216q0 -47 -9 -101q-23 -132 -79 -219t-129 -137t-155 -70t-157 -20h-439l-107 -600h-193zM359 766h345q65 0 128 8.5t116.5 36.5t92 82t55.5 144q5 31 5 58q0 90 -58 142q-76 67 -224 67h-365z" />
<glyph unicode="Q" horiz-adv-x="1532" d="M76 437q-10 64 -10 131q0 82 15 169q27 160 101.5 300.5t183 244.5t247 164t296.5 60q152 0 268.5 -60t189 -164t98.5 -244q13 -69 13 -143q0 -76 -14 -158q-31 -175 -116 -324t-208 -258l164 -155l-121 -128l-193 184q-80 -44 -168 -67.5t-184 -23.5q-161 0 -278.5 61 t-189 165.5t-94.5 245.5zM266 498q15 -110 64.5 -192.5t134 -130t201.5 -47.5q53 0 104.5 10.5t100.5 30.5l-137 130l122 121l165 -156q96 86 163 206.5t93 263.5q13 72 13 140q0 50 -7 97q-17 111 -68 193t-135 130t-198 48q-119 0 -220 -48t-180 -130t-132.5 -193 t-75.5 -237q-14 -76 -14 -147q0 -46 6 -89z" />
<glyph unicode="R" horiz-adv-x="1378" d="M30 0l259 1467h676q82 0 156.5 -20.5t128.5 -64.5t80 -114q16 -42 16 -94q0 -34 -7 -72q-14 -73 -36.5 -134.5t-60 -111t-92 -87.5t-132.5 -62q61 -14 97 -40t53.5 -61.5t19.5 -79.5q1 -15 1 -30q0 -30 -3 -63q-6 -67 -13 -131t-9 -120q0 -9 1 -18q-1 -46 5 -85 q8 -47 32 -79h-216q-16 20 -18 54q-1 13 -1 28q0 24 2 53q4 47 11.5 104t12.5 123q1 21 1 40q0 48 -7 84q-10 51 -37 82t-71.5 44.5t-106.5 13.5h-439l-110 -626h-193zM365 790h389q77 0 142 12.5t115 43t84 80.5t48 126q6 36 6 65q1 33 -7 59q-14 48 -52 76t-98 38.5 t-139 10.5h-399z" />
<glyph unicode="S" horiz-adv-x="1304" d="M35 482h179q-8 -40 -8 -75q0 -41 12 -77q22 -66 70 -110t118 -66.5t149 -22.5q82 0 155 15t130 46t94 80t49 117q5 28 5 53q0 38 -13 66q-22 46 -72 75.5t-126 50t-174 44.5q-104 27 -190 53.5t-142.5 71.5t-78.5 116q-12 37 -12 85q0 45 10 101q17 96 72.5 169.5 t136 124t178.5 76t201 25.5q140 0 232 -35.5t143 -98t67 -147.5q10 -53 11 -111q0 -35 -4 -71h-178q1 11 1 23q0 54 -12 100q-14 56 -50 96.5t-92.5 63t-135.5 22.5q-71 0 -135 -15t-114 -45t-83.5 -74t-44.5 -103q-7 -35 -7 -63q0 -26 6 -44q13 -39 51 -63.5t102 -41.5 t154 -43q65 -19 130.5 -35.5t124.5 -37t108.5 -50t81.5 -75.5t44 -110q5 -27 4 -59q0 -44 -9 -97q-18 -103 -79.5 -182t-149.5 -132.5t-196 -80t-219 -26.5q-114 0 -215 32t-171 96t-101 161q-17 55 -17 120q0 51 10 108z" />
<glyph unicode="T" horiz-adv-x="1155" d="M109 1301l28 166h1149l-29 -166h-476l-231 -1301h-191l229 1301h-479z" />
<glyph unicode="U" horiz-adv-x="1453" d="M116 508l167 959h193l-167 -950q-8 -47 -8 -90q1 -32 5 -62q10 -70 48 -122.5t101 -82t155 -29.5q83 0 160.5 20.5t140 66.5t107 120t63.5 182l167 947h190l-164 -941q-25 -143 -85 -248.5t-149.5 -175.5t-205 -105t-249.5 -35q-124 0 -222.5 35t-160.5 103t-86 170 q-12 51 -11 112q0 59 11 126z" />
<glyph unicode="V" horiz-adv-x="1229" d="M131 1467h208l187 -1271l641 1271h203l-770 -1467h-217z" />
<glyph unicode="W" horiz-adv-x="1865" d="M158 1467h196l70 -1227l538 1227h205l107 -1233l510 1233h189l-640 -1467h-201l-114 1233l-551 -1233h-199z" />
<glyph unicode="X" horiz-adv-x="1229" d="M-125 0l636 754l-350 713h228l259 -573l478 573h213l-605 -713l374 -754h-234l-277 606l-504 -606h-218z" />
<glyph unicode="Y" horiz-adv-x="1304" d="M137 1467h228l310 -698l546 698h214l-704 -870l-105 -597h-193l105 597z" />
<glyph unicode="Z" horiz-adv-x="1229" d="M-78 0l28 166l1099 1135h-832l29 166h1049l-27 -166l-1096 -1135h918l-29 -166h-1139z" />
<glyph unicode="[" horiz-adv-x="522" d="M-50 -407l336 1907h377l-25 -137h-218l-286 -1631h217l-24 -139h-377z" />
<glyph unicode="\" horiz-adv-x="671" d="M103 1500h146l327 -1535h-149z" />
<glyph unicode="]" horiz-adv-x="522" d="M-196 -407l24 139h219l286 1631h-217l24 137h377l-336 -1907h-377z" />
<glyph unicode="^" horiz-adv-x="1208" d="M71 541l595 891h130l285 -891h-142l-235 742l-490 -742h-143z" />
<glyph unicode="_" horiz-adv-x="1136" d="M-178 -293l26 141h1135l-24 -141h-1137z" />
<glyph unicode="`" horiz-adv-x="448" d="M93 1500h222l121 -292h-130z" />
<glyph unicode="a" horiz-adv-x="1080" d="M2 155q-5 26 -5 54q0 32 6 68q17 94 60 152.5t103 94t133 53t149 29.5q75 14 134 21.5t102.5 23t69.5 42t33 76.5q3 17 3 33q0 54 -38 88q-48 43 -170 43q-73 0 -124 -14.5t-85 -41t-54 -63.5t-30 -83h-173q15 75 53 139.5t98.5 111.5t146 74.5t192.5 27.5 q89 0 162.5 -14t121.5 -46q48 -33 70 -86q13 -32 13 -74q0 -27 -5 -58l-106 -598q-3 -19 -3 -34q0 -29 12 -38q8 -6 25 -6q21 0 57 10l-26 -140q-35 -18 -85 -24q-17 -2 -34 -2q-30 0 -56 8q-40 12 -62 49q-11 19 -10 48q0 27 9 61q-55 -46 -102 -77t-93.5 -51t-96 -28 t-108.5 -8q-88 0 -148 22t-94.5 62t-44.5 95zM178 286q-1 -12 -1 -23q0 -63 40 -95q47 -36 160 -37q52 0 108 18t104.5 51t83 78.5t43.5 101.5l27 164q-41 -20 -79 -30.5t-76 -16.5t-76 -10.5t-79 -10.5q-45 -8 -89.5 -22.5t-79 -38t-58.5 -55.5t-28 -74z" />
<glyph unicode="b" horiz-adv-x="1191" d="M9 0l259 1467h171l-100 -558q41 55 86 90t92.5 54t97 26.5t98.5 7.5q111 0 192 -42.5t131 -114.5q49 -74 65 -170q8 -45 8 -92q0 -53 -10 -110q-21 -123 -60.5 -214.5t-90 -156.5t-107.5 -106t-114 -65.5t-111 -33.5t-96 -9q-90 0 -150 26.5t-96 59.5q-43 38 -69 87 l-24 -146h-172zM260 384q4 -72 34 -128.5t87 -90.5t151 -34q85 0 150.5 37t112.5 97t76.5 137t43.5 156q7 41 7 80q0 29 -4 58q-9 67 -38.5 119.5t-80.5 83.5t-124 31q-91 0 -160.5 -31t-119.5 -86t-82 -127t-45 -154q-10 -56 -10 -111q1 -18 2 -37z" />
<glyph unicode="c" horiz-adv-x="1080" d="M35 304q-5 39 -5 82q0 70 14 149q21 117 70.5 218t125 175t175 116.5t217.5 42.5q110 0 186.5 -29t121.5 -79q46 -51 64 -117q12 -44 11 -91q0 -24 -3 -49h-171q-3 96 -58.5 153.5t-176.5 57.5q-82 0 -147 -32.5t-112.5 -87.5t-78.5 -126t-45 -149q-10 -61 -10 -122 q1 -13 1 -25q2 -73 27 -131t76.5 -93.5t136.5 -35.5q127 0 212.5 72t120.5 186h175q-64 -194 -198.5 -303.5t-327.5 -109.5q-120 0 -205 39.5t-133.5 112.5t-62.5 176z" />
<glyph unicode="d" horiz-adv-x="1191" d="M30 350q-2 21 -2 44q0 73 16 164q18 106 68.5 202.5t125.5 169t171.5 115t207.5 42.5q49 0 96 -10t87.5 -31.5t71.5 -55.5t49 -81l100 558h171l-259 -1467h-170l24 146q-36 -49 -89 -87q-46 -33 -116.5 -59.5t-171.5 -26.5q-42 0 -91.5 10.5t-97.5 36.5t-89.5 69 t-68.5 107.5t-33 153.5zM215 402q1 -77 25 -137t76 -97t138 -37q93 0 164 34t121 90.5t80.5 128.5t42.5 148q10 59 10 113q0 21 -2 41q-6 72 -35 127t-87 86t-148 31q-73 0 -135 -31t-111.5 -83.5t-82 -119.5t-43.5 -138q-13 -74 -13 -146v-10z" />
<glyph unicode="e" horiz-adv-x="1080" d="M35 301q-8 45 -8 94q0 57 11 119q20 115 69.5 219.5t124.5 182.5t177 124.5t229 46.5q122 0 202 -53.5t122 -139.5q44 -85 50 -194q1 -22 1 -45q0 -87 -20 -176h-782q-10 -41 -10 -82q1 -21 3 -41q8 -62 38 -111.5t86.5 -81.5t138.5 -32q50 0 97 10.5t88 35t73.5 63 t55.5 96.5h169q-33 -82 -79.5 -149t-109 -114t-143 -72t-182.5 -25q-114 0 -197.5 41t-135 113t-68.5 171zM243 632h595q4 27 4 53q0 35 -8 67q-14 56 -46.5 96.5t-82.5 64t-114 23.5q-62 0 -120 -24t-105 -66t-79.5 -97.5t-43.5 -116.5z" />
<glyph unicode="f" horiz-adv-x="594" d="M59 909l25 152h177l28 160q13 77 47.5 127t78.5 80.5t93.5 43.5t94.5 16h24q31 0 55 -4q35 -7 49 -14l-24 -154q-32 11 -71 15q-12 1 -24 1q-27 0 -52 -6q-37 -10 -64.5 -34t-34.5 -71l-28 -160h199l-29 -152h-199l-158 -909h-172l160 909h-175z" />
<glyph unicode="g" horiz-adv-x="1155" d="M-35 -119h172q-2 -11 -2 -21q0 -29 13 -54q18 -32 52 -54.5t82 -33.5t104 -11q82 0 144.5 31t107 87t75 131.5t50.5 165.5l15 68q-35 -53 -78 -91t-90.5 -62.5t-96 -36.5t-93.5 -12q-130 0 -211 46.5t-123.5 124t-49.5 177.5q-2 27 -2 56q0 73 13 149q17 105 64 203 t119 174t165.5 122.5t204.5 46.5q69 0 119 -15.5t86.5 -40.5t59.5 -57t35 -65l27 152h163l-175 -990q-15 -89 -53 -179t-104 -162t-163.5 -117.5t-232.5 -45.5q-98 0 -176 20.5t-132 60.5t-78 98q-15 39 -15 86q0 23 4 49zM214 399q3 -72 28.5 -129t76 -92t132.5 -35 q79 0 143 35.5t112 92.5t78.5 130t43.5 146q12 63 12 118q0 19 -2 37q-5 72 -34 123t-83.5 79.5t-138.5 28.5q-70 0 -130 -32t-106.5 -85.5t-77.5 -124.5t-45 -147q-10 -58 -10 -116q0 -15 1 -29z" />
<glyph unicode="h" horiz-adv-x="1120" d="M3 0l258 1467h172l-100 -570q53 86 146.5 138t245.5 52q68 0 125 -22t94.5 -65.5t51.5 -107.5q7 -32 8 -69q0 -38 -8 -83l-131 -740h-167l127 731q5 27 1 63t-23 66.5t-55.5 51.5t-96.5 21q-69 0 -129.5 -21t-110 -62t-84 -102.5t-47.5 -141.5l-105 -606h-172z" />
<glyph unicode="i" horiz-adv-x="448" d="M15 0l187 1061h172l-187 -1061h-172zM237 1254l37 213h171l-38 -213h-170z" />
<glyph unicode="j" horiz-adv-x="448" d="M-220 -395l24 152q35 -8 65.5 -10t55.5 10t42.5 41.5t26.5 85.5l208 1177h172l-213 -1204q-18 -105 -67.5 -162.5t-108.5 -82.5q-56 -23 -109 -23q-4 0 -7 1q-57 1 -89 15zM237 1254l37 213h171l-38 -213h-170z" />
<glyph unicode="k" horiz-adv-x="1045" d="M15 0l259 1467h171l-152 -870l554 464h231l-484 -386l327 -675h-217l-262 555l-184 -154l-71 -401h-172z" />
<glyph unicode="l" horiz-adv-x="448" d="M15 0l259 1467h171l-258 -1467h-172z" />
<glyph unicode="m" horiz-adv-x="1717" d="M3 0l187 1061h161l-27 -155q76 85 170 133t210 48q97 0 165.5 -44t80.5 -137q74 91 172.5 136t213.5 45q158 1 224 -83q50 -63 49 -157q0 -31 -5 -66l-137 -781h-172l119 672q9 57 9 101q0 63 -18 99q-31 62 -134 61q-64 0 -119.5 -19t-99 -51.5t-71.5 -79t-37 -101.5 l-122 -682h-174l121 686q8 44 10 88v11q1 37 -11 69q-14 36 -46 57.5t-93 21.5q-83 0 -144.5 -32.5t-103.5 -78t-65 -93t-27 -75.5l-114 -654h-172z" />
<glyph unicode="n" horiz-adv-x="1120" d="M3 0l187 1061h161l-30 -170q77 109 182 152.5t228 43.5q79 0 135.5 -27.5t90 -74.5t43.5 -111q4 -27 4 -56q0 -39 -8 -81l-131 -737h-167l121 689q7 40 7 77v14q-2 44 -19.5 78t-52.5 54.5t-94 20.5q-67 0 -128.5 -19t-112 -58.5t-86 -99.5t-50.5 -143l-108 -613h-172z " />
<glyph unicode="o" horiz-adv-x="1155" d="M38 314q-6 42 -6 87q0 63 12 131q21 116 71.5 217t128 176t179 118.5t225.5 43.5q121 0 207 -43.5t137 -118.5t66 -176q6 -42 6 -87q0 -63 -12 -130q-20 -116 -71 -217.5t-128.5 -177t-178.5 -118.5t-223 -43q-126 0 -212.5 43t-136.5 118t-64 177zM214 375 q8 -73 40 -127.5t87.5 -85.5t137.5 -31q73 0 138 31t116 85.5t87 127.5t51 157q9 52 9 101q0 29 -3 57q-9 74 -41 127.5t-86.5 84.5t-132.5 31q-74 0 -139.5 -31t-117 -85t-88 -127.5t-52.5 -157.5q-10 -54 -10 -103q1 -28 4 -54z" />
<glyph unicode="p" horiz-adv-x="1191" d="M-62 -404l258 1465h172l-26 -146q32 47 85 87q44 33 116.5 60.5t175.5 27.5q38 0 86.5 -9t96.5 -33.5t91.5 -66.5t71.5 -106.5t35 -155.5q2 -24 2 -50q0 -73 -15 -164q-18 -108 -66 -204t-121 -168t-169.5 -114.5t-213.5 -42.5q-49 0 -95.5 9t-86 29.5t-72 54.5t-55.5 83 l-99 -556h-171zM259 374q5 -72 35 -125.5t87.5 -85.5t147.5 -32q73 0 136 32t112.5 84t83 119t45.5 139q12 65 12 131v23q-3 77 -28 137.5t-77.5 98.5t-137.5 38q-93 0 -163.5 -35t-120 -92t-80 -129t-43.5 -148q-10 -60 -10 -116q0 -19 1 -39z" />
<glyph unicode="q" horiz-adv-x="1191" d="M38 316q-5 40 -5 81q0 61 11 126q21 118 60 205.5t88.5 150.5t106.5 104t112.5 65t107 33t91.5 9q95 0 156 -27.5t96 -60.5q41 -40 62 -87l26 146h170l-258 -1465h-170l98 556q-38 -55 -82 -89t-92 -54t-98 -26.5t-98 -6.5q-118 0 -197.5 45.5t-126 120.5t-58.5 174z M214 366q9 -67 38 -119t79.5 -84t122.5 -32q92 0 162 32t120 85.5t81 126t45 154.5q10 56 10 110q0 19 -1 38q-5 72 -34.5 129t-88 92t-151.5 35q-85 0 -149.5 -38t-111 -98.5t-76 -137.5t-43.5 -154q-7 -41 -7 -81q0 -29 4 -58z" />
<glyph unicode="r" horiz-adv-x="671" d="M-3 0l187 1061h161l-39 -230q25 48 67.5 95.5t98 85.5t123.5 58q51 15 105 15q18 0 37 -1l-30 -184q-17 1 -34 1l-112 -15q-73 -20 -134.5 -67.5t-105.5 -122t-63 -176.5l-89 -520h-172z" />
<glyph unicode="s" horiz-adv-x="1006" d="M-3 336h172q-4 -23 -5 -43q0 -31 11 -55q17 -40 51 -64t81 -33.5t97 -9.5q57 0 105.5 8t86.5 26.5t62 49t34 74.5q2 11 2 22q0 28 -12 50q-16 30 -50.5 49.5t-84.5 34t-111 28.5q-68 15 -135 34.5t-117 54t-76 86.5q-17 34 -17 80q0 25 5 53q13 79 59 137t109 95 t136.5 55.5t146.5 18.5q110 0 184.5 -24.5t117.5 -68.5t56 -106q7 -32 7 -67q0 -32 -6 -67h-169q3 17 3 33q0 31 -12 54q-18 35 -51 55.5t-74.5 28.5t-79.5 8q-94 0 -159.5 -32.5t-80.5 -110.5q-2 -11 -2 -20q0 -23 13 -41q19 -25 51.5 -42.5t74.5 -29t82 -22.5 q54 -15 106.5 -28t98 -29t81.5 -38t58 -56q23 -32 30 -80q3 -18 3 -38q0 -35 -8 -77q-14 -81 -61.5 -139.5t-116 -97t-149 -57.5t-158.5 -19q-114 0 -194.5 27t-128.5 76t-64 114q-9 35 -9 73q0 34 7 70z" />
<glyph unicode="t" horiz-adv-x="635" d="M53 909l28 152h177l57 321h170l-55 -321h205l-29 -152h-205l-115 -654q-5 -25 -5 -44q-1 -25 9 -37q16 -22 75 -22h111l-28 -152h-127q-69 0 -115 9t-71.5 35t-30.5 72q-1 13 -1 28q0 39 9 93l119 672h-178z" />
<glyph unicode="u" horiz-adv-x="1120" d="M60 178q-6 31 -5 68q0 49 10 108l125 707h172l-128 -719q-5 -24 -5 -47q0 -19 3 -35q7 -38 28 -67t57 -45.5t87 -16.5q143 0 244 84t130 249l107 597h167l-187 -1061h-158l30 172q-79 -104 -175.5 -150t-216.5 -46q-73 0 -132 20.5t-99 65t-54 116.5z" />
<glyph unicode="v" horiz-adv-x="1006" d="M90 1061h193l141 -886l438 886h181l-570 -1061h-180z" />
<glyph unicode="w" horiz-adv-x="1526" d="M96 1061h190l79 -877l369 877h187l69 -868l386 868h177l-516 -1061h-181l-66 850l-360 -850h-184z" />
<glyph unicode="x" horiz-adv-x="1042" d="M-106 0l489 561l-274 500h218l187 -366l327 366h202l-446 -488l306 -573h-217l-216 439l-367 -439h-209z" />
<glyph unicode="y" horiz-adv-x="1006" d="M-81 -407l28 164q23 -15 50 -21q23 -7 52.5 -7.5t59.5 13.5q26 9 52.5 34t52.5 69l95 161l-231 1055h196l153 -874l444 874h181l-666 -1207q-23 -42 -48 -82.5t-54 -74.5t-64.5 -62.5t-79.5 -44.5q-38 -17 -77 -18h-13q-31 0 -58 4q-38 6 -73 17z" />
<glyph unicode="z" horiz-adv-x="968" d="M-78 0l25 134l760 775h-588l27 152h810l-20 -114l-781 -795h670l-29 -152h-874z" />
<glyph unicode="{" horiz-adv-x="671" d="M56 476l25 141q48 3 89 32q35 24 71 77.5t52 152.5l19 114q7 50 17.5 110.5t21.5 120.5q12 60 38.5 111t64.5 87.5t86 57t101 20.5h122l-23 -121h-86q-64 0 -95.5 -49t-47.5 -135q-11 -57 -21.5 -120t-21.5 -116q-12 -62 -23 -125q-16 -92 -53.5 -147.5t-76.5 -86.5 q-46 -36 -98 -50q49 -10 82 -48q29 -32 46.5 -93.5t-0.5 -168.5l-62 -346q-11 -49 -8 -89q3 -33 17.5 -60.5t55.5 -27.5h100l-21 -124h-128q-63 0 -104 25.5t-62 66.5t-24 93.5t7 105.5l65 371q14 78 -4.5 123t-44.5 66q-32 26 -76 32z" />
<glyph unicode="|" horiz-adv-x="448" d="M155 -35v1535h138v-1535h-138z" />
<glyph unicode="}" horiz-adv-x="671" d="M-146 -407l21 124h101q39 0 65 27.5t40 60.5q16 40 22 89l63 346q18 107 56 168.5t77 93.5q46 38 99 48q-48 14 -80 50q-14 16 -26 37t-20 49t-8.5 65.5t7.5 82.5q10 63 22 125q11 53 22.5 116t20.5 120q17 86 0 135t-81 49h-86l21 121h122q53 0 94 -20.5t66 -57 t32.5 -87.5t-2.5 -111q-13 -60 -23.5 -120.5t-17.5 -110.5l-19 -114q-16 -99 0.5 -152.5t42.5 -77.5q30 -29 76 -32l-26 -141q-47 -6 -88 -32q-35 -21 -69 -66t-48 -123l-66 -371q-9 -53 -30 -105.5t-55.5 -93.5t-83 -66.5t-110.5 -25.5h-131z" />
<glyph unicode="~" horiz-adv-x="1208" d="M100 470q22 33 50 65t62 57t76 40.5t92 15.5q52 0 105 -20t106 -46q26 -14 51 -28t50 -26.5t48 -20.5t44 -8q29 0 56.5 14t52.5 37t48.5 51t44.5 56l54 -102q-28 -34 -57.5 -65.5t-63.5 -57t-73 -40.5t-86 -15q-56 0 -102.5 19.5t-90.5 48.5q-23 13 -46.5 26.5t-50 25 t-57 19t-65.5 7.5q-32 0 -61 -14.5t-53 -36.5t-44.5 -49.5t-37.5 -54.5z" />
<glyph unicode="&#xa4;" horiz-adv-x="1276" d="M12 249l225 221q-94 126 -94 293q0 173 94 286l-225 228l116 108l220 -221q120 90 293 90q84 0 161 -24.5t125 -65.5l228 221l108 -108l-220 -228q89 -120 89 -286q0 -173 -89 -293l220 -221l-108 -115l-228 225q-23 -20 -54.5 -36t-71.5 -31q-81 -28 -160 -28 q-167 0 -293 95l-220 -225zM299 763q0 -143 96 -249q99 -104 246 -104q140 0 241 104q95 96 95 249q0 70 -25 132.5t-69 109.5t-106.5 75t-135.5 28q-145 0 -243 -102q-99 -111 -99 -243z" />
<glyph unicode="&#xa9;" horiz-adv-x="1725" d="M100 734q28 160 113 299t206.5 243t272 164t310.5 60q159 0 289 -60t216 -164t121.5 -243t8.5 -299q-29 -159 -114 -299t-207.5 -245t-273.5 -165t-311 -60q-159 0 -289 60t-215.5 165t-121 245t-5.5 299zM199 734q-24 -141 5.5 -264t103.5 -215t187 -145.5t256 -53.5 q141 0 272.5 53.5t238 146t179.5 215.5t97 263q26 143 -3 267t-102.5 216t-187 144.5t-255.5 52.5q-145 0 -277 -52.5t-238 -144t-178 -216t-98 -267.5zM395 734q18 107 68.5 195.5t125 152.5t168.5 100t202 36q81 0 151 -22.5t120.5 -66.5t78 -111.5t24.5 -158.5h-138 q-8 118 -77 177.5t-179 59.5q-82 0 -150.5 -27.5t-120 -75.5t-85.5 -113t-48 -143q-12 -76 0 -143t48.5 -117t96.5 -79.5t142 -29.5q57 0 110 18t96.5 51t75 77.5t48.5 98.5h137q-23 -86 -70 -153.5t-112.5 -115.5t-143 -73t-160.5 -25q-113 0 -198 37.5t-137.5 102.5 t-71.5 155t-1 193z" />
<glyph unicode="&#xab;" horiz-adv-x="968" d="M59 555l547 553l101 -62l-418 -491l246 -490l-125 -62zM464 555l317 435l107 -54l-213 -381l79 -380l-125 -56z" />
<glyph unicode="&#xac;" horiz-adv-x="1136" d="M93 451v137h936v-407h-125v270h-811z" />
<glyph unicode="&#xad;" horiz-adv-x="1136" d="M47 448l24 140h950l-25 -140h-949z" />
<glyph unicode="&#xae;" horiz-adv-x="1725" d="M100 734q28 160 113 299t206.5 243t272 164t310.5 60q159 0 289 -60t216 -164t121.5 -243t8.5 -299q-29 -159 -114 -299t-207.5 -245t-273.5 -165t-311 -60q-159 0 -289 60t-215.5 165t-121 245t-5.5 299zM199 734q-24 -141 5.5 -264t103.5 -215t187 -145.5t256 -53.5 q141 0 272.5 53.5t238 146t179.5 215.5t97 263q26 143 -3 267t-102.5 216t-187 144.5t-255.5 52.5q-145 0 -277 -52.5t-238 -144t-178 -216t-98 -267.5zM461 280l159 906h373q171 0 237.5 -66.5t43.5 -195.5q-20 -105 -91.5 -163.5t-167.5 -82.5l209 -398h-160l-205 389 h-190l-69 -389h-139zM686 766h161q45 0 92 2.5t87.5 17.5t70 48.5t40.5 95.5q9 52 -4 83t-38.5 48t-60 23t-69.5 6h-222z" />
<glyph unicode="&#xb0;" horiz-adv-x="822" d="M100 1084q0 61 23.5 117t65 98t96.5 67t119 25q66 0 123 -24.5t98.5 -65.5t66 -97t24.5 -120t-24.5 -120.5t-66 -98t-98.5 -66t-123 -24.5q-62 0 -116.5 23.5t-96.5 65.5t-66.5 98t-24.5 122zM184 1084q0 -46 17.5 -87t47 -71.5t70 -48.5t85.5 -18q93 0 160 65 q68 70 68 160q0 45 -18 85.5t-49 70t-72.5 47t-88.5 17.5t-87 -16.5t-70 -46.5t-46.5 -70t-16.5 -87z" />
<glyph unicode="&#xb6;" horiz-adv-x="1105" d="M0 1304q0 233 143 348q137 101 377 101h591v-63h-155v-2061h-94v2061h-221v-2061h-83v1224q-256 0 -400 94q-158 112 -158 357z" />
<glyph unicode="&#xb7;" horiz-adv-x="513" d="M146 682q0 46 31 77t81 31q48 0 79 -32.5t31 -75.5q0 -47 -33 -79.5t-77 -32.5q-50 0 -81 31t-31 81z" />
<glyph unicode="&#xbb;" horiz-adv-x="968" d="M30 175l210 380l-74 381l123 54l162 -435l-314 -436zM211 65l415 490l-243 491l125 62l348 -553l-544 -552z" />
<glyph unicode="&#xd7;" horiz-adv-x="1136" d="M-6 143l439 377l-305 371l115 99l307 -370l440 373l85 -99l-443 -374l312 -377l-119 -99l-308 376l-439 -373z" />
<glyph unicode="&#xf7;" horiz-adv-x="1136" d="M47 448l24 140h950l-25 -140h-949zM342 137q5 24 19 47t34.5 39.5t45 27t48.5 10.5q25 0 45.5 -10.5t35 -27t20.5 -39.5t1 -47q-3 -23 -17.5 -46t-35 -40.5t-44.5 -28t-49 -10.5q-22 0 -42.5 10.5t-35 28t-21.5 40.5t-4 46zM476 900q4 24 18.5 47t35 39.5t45 27 t48.5 10.5q25 0 45.5 -10.5t34.5 -27t20.5 -39.5t1.5 -47q-5 -23 -19 -46t-34 -40.5t-44.5 -28t-48.5 -10.5q-23 0 -44 10.5t-35.5 28t-21.5 40.5t-2 46z" />
<glyph unicode="&#xe00;" horiz-adv-x="311" />
<glyph unicode="&#xe01;" horiz-adv-x="1182" d="M-30 0l111 641q4 29 23 50.5t40.5 39t39.5 34t21 38.5q3 16 -13.5 35t-37.5 36q-26 18 -58 38q20 82 76 147.5t136 112t177 71.5t197 25q101 0 188.5 -23t149 -72.5t88.5 -125.5t9 -182l-152 -865h-175l149 847q14 70 -1 120t-54 82t-98 47t-135 15q-69 0 -129 -14.5 t-108.5 -38.5t-81.5 -54.5t-46 -64.5q13 -10 28.5 -23t28.5 -29t20.5 -35t4.5 -39q-5 -27 -21.5 -47.5t-35 -40.5t-34.5 -42t-22 -54l-112 -629h-173z" />
<glyph unicode="&#xe02;" horiz-adv-x="1057" d="M30 348l79 439q8 43 30 72.5t51.5 51.5t62.5 38t61 30t47 28t22 33q9 56 -87 56h-153l29 149h158q138 0 193.5 -45t37.5 -145q-8 -46 -30.5 -77t-52.5 -52.5t-62.5 -38t-62 -33t-50 -38t-26.5 -53.5l-69 -392q-12 -69 1.5 -114.5t45 -72.5t77 -38.5t98.5 -11.5 q52 0 101.5 11.5t90.5 38.5t69 72.5t40 114.5l157 874h173l-158 -897q-18 -108 -70.5 -178.5t-123.5 -113t-151.5 -60t-156.5 -17.5q-74 0 -148.5 17.5t-130 60t-83 113t-9.5 178.5z" />
<glyph unicode="&#xe03;" horiz-adv-x="1074" d="M47 348l72 406q7 44 30 75t53.5 54.5t63.5 41t63 35t50.5 36.5t24.5 47q3 16 1 29t-5 22q-5 11 -11 20l-146 -102l-153 143l133 99l79 -71l102 71q55 3 91.5 -9t57 -38.5t26 -64t-2.5 -84.5q-9 -49 -32 -84.5t-53 -62t-64.5 -48t-63.5 -42.5t-50 -45t-27 -54l-63 -351 q-12 -69 2 -114.5t45.5 -72.5t76.5 -38.5t98 -11.5q52 0 101.5 11.5t90.5 38.5t70 72.5t41 114.5l155 874h175l-160 -897q-18 -108 -70.5 -178.5t-122.5 -113t-151.5 -60t-157.5 -17.5q-74 0 -148.5 17.5t-129 60t-82 113t-9.5 178.5z" />
<glyph unicode="&#xe04;" horiz-adv-x="1214" d="M-30 0l152 865q18 108 78 184t142 124.5t178 71.5t187 23q93 0 180 -23t152 -71.5t96.5 -124.5t13.5 -184l-153 -865h-174l149 847q14 70 -5 120t-60 82t-100.5 47t-127.5 15q-67 0 -131.5 -15t-117 -47t-89 -82t-47.5 -120l-22 -128h380l-28 -155h-380l-100 -564h-173z " />
<glyph unicode="&#xe05;" horiz-adv-x="1214" d="M-30 0l158 906q12 71 48.5 133.5t91 110.5t126 78.5t153.5 39.5l139 -128l182 128q79 -9 139 -39.5t97.5 -78.5t50 -110.5t0.5 -133.5l-159 -906h-174l155 891q14 79 -10.5 136t-84.5 75l-231 -169l-181 169q-66 -18 -111.5 -75t-59.5 -136l-28 -172h383l-28 -158h-383 l-100 -561h-173z" />
<glyph unicode="&#xe06;" horiz-adv-x="1229" d="M-15 0l134 754q7 44 30 75t53.5 54.5t63.5 41t63 35t50.5 36.5t24.5 47q3 16 1 29t-5 22q-5 11 -11 20l-146 -102l-153 143l133 99l79 -71l102 71q55 3 91.5 -9t57 -38.5t26 -64t-2.5 -84.5q-9 -49 -32 -84.5t-53 -62t-64.5 -48t-63.5 -42.5t-50 -45t-27 -54l-37 -217 q-9 -54 11 -117.5t65.5 -119t116 -93.5t161.5 -38q57 0 107 13.5t89.5 43t67 76t39.5 113.5l152 862h175l-155 -874q-19 -105 -64.5 -178.5t-109 -120t-144.5 -68.5t-169 -22q-71 0 -132 16t-111 42.5t-89.5 61.5t-68.5 73l-32 -175h-173z" />
<glyph unicode="&#xe07;" horiz-adv-x="1083" d="M53 1012l167 117l134 -974h38q97 0 178 51.5t140 136t95.5 191.5t47.5 220q19 199 -85 290t-326 58l28 155q149 21 259 -4t180.5 -86.5t102 -155t22.5 -211.5q-6 -86 -26 -178t-56.5 -180.5t-90.5 -168.5t-129 -141t-174 -96.5t-222 -35.5h-143z" />
<glyph unicode="&#xe08;" horiz-adv-x="1117" d="M15 900q20 74 72.5 141t130 117t174.5 80t208 30q122 0 216 -36.5t154.5 -108t81.5 -176.5t-3 -243q-32 -186 -109 -323.5t-184 -226.5t-239 -129t-277 -31l-56 688l-47 96h222l45 -620q82 9 158 50t138.5 111t107.5 166.5t66 218.5q17 97 3 172.5t-53.5 127.5t-103 79.5 t-147.5 27.5q-132 0 -235.5 -54t-150.5 -157h-172z" />
<glyph unicode="&#xe09;" horiz-adv-x="1197" d="M48.5 179.5q-18.5 74.5 1.5 188.5l50 292l-19 94h212l-65 -368q-14 -73 -5.5 -121.5t35 -77.5t69 -41t97.5 -12q90 0 169 26.5t139.5 68.5t100 95t49.5 106l74 417q12 71 -7 121t-62 82t-105 46.5t-134 14.5q-58 0 -112 -8.5t-102 -29t-87.5 -54.5t-66.5 -86h-184 q38 91 102.5 155t143 103.5t165 58t168.5 18.5q105 0 196 -23t155.5 -72.5t94.5 -125.5t11 -182l-152 -865h-174l25 143q-36 -27 -83 -56t-104 -52.5t-123.5 -38t-140.5 -14.5q-82 0 -151 17.5t-115.5 61.5t-65 118.5z" />
<glyph unicode="&#xe0a;" horiz-adv-x="1158" d="M-30 0l220 1245h175l-193 -1090l241 -6q78 -3 154.5 16t141.5 60t111 105.5t62 154.5q12 71 -2 129t-49.5 99t-90 64t-123.5 23h-166l28 156h165q55 0 110.5 16t102.5 50t78.5 89.5t38.5 133.5h172q-1 -62 -22.5 -120t-58 -106.5t-84.5 -86t-99 -58.5q41 -18 79 -51.5 t63.5 -82t35 -111t-4.5 -140.5q-23 -129 -84 -222.5t-149 -155t-196.5 -90.5t-227.5 -27z" />
<glyph unicode="&#xe0b;" horiz-adv-x="1185" d="M0 0l134 754q12 65 45.5 103t71.5 66.5t69 54t39 65.5q3 16 0.5 29t-5.5 22q-6 11 -12 20l-146 -102l-152 143l134 99l77 -71l104 71q54 3 90.5 -9t57 -38.5t25.5 -64t-3 -84.5q-12 -73 -45.5 -116.5t-71 -75.5t-69 -63t-41.5 -81l-100 -567h246q78 0 154.5 18.5 t140.5 58t109 101.5t60 152q14 71 -0.5 129t-49.5 99t-90.5 64t-123.5 23h-134l27 156h134q55 0 111 16t102.5 50t78.5 89.5t39 133.5h170q-1 -62 -22.5 -120t-58 -106.5t-84 -86t-99.5 -58.5q43 -18 80 -51.5t63 -82t35.5 -111t-3.5 -140.5q-23 -129 -84 -221.5t-148 -152 t-196.5 -87.5t-228.5 -28h-430z" />
<glyph unicode="&#xe0c;" horiz-adv-x="1910" d="M-30 0l111 641q4 29 23 50.5t40.5 39t39.5 34t21 38.5q3 16 -13.5 35t-37.5 36q-26 18 -58 38q20 82 76 147.5t136 112t177 71.5t197 25q101 0 188.5 -23t149 -72.5t88.5 -125.5t9 -182l-77 -435q-9 -52 6 -104t51.5 -95t92 -70t126.5 -27q47 0 90.5 12t79.5 40t62.5 76 t38.5 121l153 862h175l-156 -877q-20 -114 -65 -189.5t-106.5 -118.5t-133.5 -60.5t-147 -17.5q-105 0 -190 42.5t-127 112.5l-25 -137h-175l149 847q14 70 -1 120t-54 82t-98 47t-135 15q-69 0 -129 -14.5t-108.5 -38.5t-81.5 -54.5t-46 -64.5q13 -10 28.5 -23t28.5 -29 t20.5 -35t4.5 -39q-5 -27 -21.5 -47.5t-35 -40.5t-34.5 -42t-22 -54l-83 -474h193l-29 -155h-366z" />
<glyph unicode="&#xe0d;" horiz-adv-x="1910" d="M-30 0l111 641q4 29 23 50.5t40.5 39t39.5 34t21 38.5q3 16 -13.5 35t-37.5 36q-26 18 -58 38q20 82 76 147.5t136 112t177 71.5t197 25q101 0 188.5 -23t149 -72.5t88.5 -125.5t9 -182l-86 -494q-13 -69 -1.5 -113.5t40.5 -71t71.5 -36.5t94.5 -10q56 0 114.5 17.5 t108.5 52.5t86 87.5t49 122.5l146 825h175l-210 -1180q-16 -101 -68.5 -173.5t-125.5 -118t-159.5 -67t-175.5 -21.5h-442l29 160h442q61 0 116 15t98 43.5t72 68t38 87.5l9 53q-15 -13 -47.5 -34.5t-79 -42t-106.5 -35.5t-132 -15q-71 0 -137 16.5t-114 57.5t-69.5 110.5 t-2.5 172.5l89 505q14 70 -1 120t-54 82t-98 47t-135 15q-69 0 -129 -14.5t-108.5 -38.5t-81.5 -54.5t-46 -64.5q13 -10 28.5 -23t28.5 -29t20.5 -35t4.5 -39q-5 -27 -21.5 -47.5t-35 -40.5t-34.5 -42t-22 -54l-83 -474h193l-29 -155h-366z" />
<glyph unicode="&#xe0e;" horiz-adv-x="1214" d="M-109 0l28 158h108l85 483q5 29 24 50.5t40.5 39t39.5 34t21 38.5q3 16 -13.5 35t-38.5 36q-25 18 -57 38q19 82 75.5 147.5t136.5 112t176.5 71.5t196.5 25t187.5 -23t149 -72.5t89.5 -125.5t10 -182l-234 -1332h-175l-152 181l-240 -181h-375l27 158h306l320 231 l155 -156l190 1081q14 70 -1 120t-54 82t-98.5 47t-135.5 15q-68 0 -129 -14.5t-108.5 -38.5t-81 -54.5t-45.5 -64.5q12 -10 28 -23t28 -29t19.5 -35t4.5 -39q-4 -27 -20 -47.5t-34.5 -40.5t-35 -42t-22.5 -54l-111 -629h-284z" />
<glyph unicode="&#xe0f;" horiz-adv-x="1214" d="M-137 -467l28 158h205l258 225l131 -168l193 168l103 -136l190 1067q14 70 -1 120t-54 82t-98.5 47t-135.5 15q-68 0 -129 -14.5t-108.5 -38.5t-81 -54.5t-45.5 -64.5q12 -10 28 -23t28 -29t19.5 -35t4.5 -39q-4 -27 -20 -47.5t-34.5 -40.5t-35 -42t-22.5 -54l-111 -629 h-284l28 158h108l85 483q5 29 24 50.5t40.5 39t39.5 34t21 38.5q3 16 -13.5 35t-38.5 36q-25 18 -57 38q19 82 75.5 147.5t136.5 112t176.5 71.5t196.5 25t187.5 -23t149 -72.5t89.5 -125.5t10 -182l-234 -1332h-175l-105 152l-190 -181l-133 181l-166 -152h-283z" />
<glyph unicode="&#xe10;" horiz-adv-x="1117" d="M-199 -467l27 158h181l225 169l134 -143l187 143l99 -115l32 193h173l-69 -405h-173l-97 128l-190 -150l-134 150l-161 -128h-234zM15 900q20 74 72.5 141t130 117t174.5 80t208 30q128 0 222 -41q37 16 70.5 46.5t40.5 65.5h190q-6 -35 -24 -65.5t-43 -54t-55 -41.5 t-57 -29q74 -71 102.5 -182t2.5 -263q-32 -186 -109 -323.5t-184 -226.5t-239 -129t-277 -31l-56 688l-47 96h222l45 -620q82 9 158 50t138.5 111t107.5 166.5t66 218.5q17 97 3 172.5t-53.5 127.5t-103 79.5t-147.5 27.5q-132 0 -235.5 -54t-150.5 -157h-172z" />
<glyph unicode="&#xe11;" horiz-adv-x="1244" d="M0 0l131 748q10 65 47.5 104.5t78.5 67.5t75 55t42 68q3 16 0.5 29t-5.5 22q-4 11 -10 20l-148 -102l-152 143l134 99l78 -71l103 71q55 3 91.5 -9t57 -38.5t25.5 -64t-4 -84.5q-9 -49 -28 -84t-44 -61.5t-53 -47.5t-51.5 -42.5t-42 -45t-23.5 -55.5l-47 -264 q20 41 56 100t77.5 123.5t87 129.5t85.5 116q52 70 104 131.5t103 107t102 71.5t101 26q79 0 128 -26.5t73 -71.5t27 -103.5t-7 -122.5l-164 -939h-175l162 912q6 32 7 67t-7.5 64t-26.5 47t-52 18q-22 0 -52 -21t-64 -57.5t-72 -84t-76 -98.5q-52 -69 -106.5 -151.5 t-107 -167t-101 -167.5t-86 -152t-62.5 -121.5t-31 -75.5l-3 -12h-175z" />
<glyph unicode="&#xe12;" horiz-adv-x="2004" d="M-30 0l158 906q12 71 50.5 133.5t96.5 110.5t131.5 78.5t157.5 39.5l152 -128l199 128q79 -9 141.5 -39.5t102 -78.5t55.5 -110.5t4 -133.5l-86 -476q-9 -52 7 -104t52.5 -95t92 -70t127.5 -27q47 0 90 12t79 40t61.5 76t39.5 121l152 862h175l-155 -877 q-20 -114 -65 -189.5t-106.5 -118.5t-133.5 -60.5t-147 -17.5q-106 0 -190.5 42.5t-126.5 112.5l-26 -137h-173l155 891q13 86 -22.5 138t-99.5 73l-236 -155l-186 155q-69 -21 -126 -73t-71 -138l-79 -449q-7 -47 -17.5 -88.5t-20.5 -73.5q-10 -38 -21 -69h8q13 25 30 50 q14 22 32 47t40 46l346 371h-150l25 140h336l-25 -140l-660 -725h-173z" />
<glyph unicode="&#xe13;" horiz-adv-x="1910" d="M-30 0l111 641q4 29 23 50.5t40.5 39t39.5 34t21 38.5q3 16 -13.5 35t-37.5 36q-26 18 -58 38q20 82 76 147.5t136 112t177 71.5t197 25q101 0 188.5 -23t149 -72.5t88.5 -125.5t9 -182l-83 -482q-14 -73 -4 -121t35.5 -76t65 -40t87.5 -12q71 0 135 27t114.5 70t84 95 t42.5 104l146 815h175l-222 -1245h-175l26 137q-71 -70 -170 -112.5t-204 -42.5q-74 0 -140 17.5t-112 60.5t-64 118.5t2 189.5l83 479q14 70 -1 120t-54 82t-98 47t-135 15q-69 0 -129 -14.5t-108.5 -38.5t-81.5 -54.5t-46 -64.5q13 -10 28.5 -23t28.5 -29t20.5 -35 t4.5 -39q-5 -27 -21.5 -47.5t-35 -40.5t-34.5 -42t-22 -54l-83 -474h193l-29 -155h-366z" />
<glyph unicode="&#xe14;" horiz-adv-x="1244" d="M-30 0l152 865q18 106 78 182t143.5 125.5t182.5 72.5t196 23t188.5 -23t157.5 -72.5t98 -125.5t14 -182l-152 -865h-175l149 847q13 71 -6 121t-61.5 82t-104.5 46.5t-135 14.5t-141 -14.5t-121 -46.5t-90 -82t-50 -121l-73 -405q-7 -47 -17.5 -88.5t-20.5 -73.5 q-10 -38 -21 -69h8q12 25 29 50q13 22 30.5 47t39.5 46l332 371h-149l25 140h337l-26 -140l-644 -725h-173z" />
<glyph unicode="&#xe15;" horiz-adv-x="1276" d="M-30 0l158 906q12 71 50.5 133.5t96.5 110.5t131.5 78.5t157.5 39.5l152 -128l199 128q79 -9 141.5 -39.5t102 -78.5t55.5 -110.5t4 -133.5l-160 -906h-173l155 891q13 86 -22.5 138t-99.5 73l-236 -155l-186 155q-69 -21 -126 -73t-71 -138l-79 -449q-7 -47 -17.5 -88.5 t-20.5 -73.5q-10 -38 -21 -69h8q13 25 30 50q14 22 32 47t40 46l346 371h-150l25 140h336l-25 -140l-660 -725h-173z" />
<glyph unicode="&#xe16;" horiz-adv-x="1182" d="M-30 0l111 641q4 29 23 50.5t40.5 39t39.5 34t21 38.5q3 16 -13.5 35t-37.5 36q-26 18 -58 38q20 82 76 147.5t136 112t177 71.5t197 25q101 0 188.5 -23t149 -72.5t88.5 -125.5t9 -182l-152 -865h-175l149 847q14 70 -1 120t-54 82t-98 47t-135 15q-69 0 -129 -14.5 t-108.5 -38.5t-81.5 -54.5t-46 -64.5q13 -10 28.5 -23t28.5 -29t20.5 -35t4.5 -39q-5 -27 -21.5 -47.5t-35 -40.5t-34.5 -42t-22 -54l-83 -474h193l-29 -155h-366z" />
<glyph unicode="&#xe17;" horiz-adv-x="1214" d="M-30 0l220 1245h175l-32 -173q42 36 94 71t112 61.5t126 42.5t138 16q88 0 161 -22t120.5 -68.5t66.5 -120t1 -178.5l-156 -874h-174l152 862q12 67 1 113t-40 76t-74 43.5t-101 13.5q-93 0 -176.5 -37t-149.5 -93.5t-108.5 -120.5t-51.5 -117l-131 -740h-173z" />
<glyph unicode="&#xe18;" horiz-adv-x="1158" d="M-35 0l116 648h174l-86 -493h323q66 0 126.5 9t111.5 38t87 80.5t51 137.5q12 68 -4.5 114.5t-54 75t-89 43t-110.5 22.5q-61 7 -125.5 13.5t-126.5 16t-114 25.5t-88 46t-50.5 74.5t0.5 111.5q17 73 68 130t124 96t163.5 59.5t189.5 20.5q98 0 185 -18.5t150 -58 t97 -103.5t28 -155h-178q-1 55 -30 89t-74.5 54t-99.5 27.5t-106 7.5q-62 0 -121.5 -10t-106.5 -29.5t-78 -47t-37 -62.5q-8 -39 24.5 -62t89 -35t127 -18t139.5 -13q85 -7 163 -30.5t133.5 -71.5t80.5 -122.5t6 -185.5q-23 -131 -78 -213.5t-129 -130t-164 -64t-183 -16.5 h-524z" />
<glyph unicode="&#xe19;" horiz-adv-x="1214" d="M35 192.5q-18 73.5 0 178.5l155 874h175l-154 -862q-12 -67 -0.5 -113.5t41 -76t74.5 -43t101 -13.5q91 0 175.5 38t150 93.5t108 119t51.5 117.5l131 740h175l-222 -1245h-174l31 175q-44 -38 -96 -73t-111 -61.5t-125.5 -42.5t-137.5 -16q-90 0 -162 22t-120 68.5 t-66 120z" />
<glyph unicode="&#xe1a;" horiz-adv-x="1214" d="M35 377l155 868h175l-151 -847q-12 -71 8 -121.5t61.5 -82t100 -46t124.5 -14.5q65 0 129 14.5t116.5 46t89.5 82t51 121.5l149 847h175l-157 -868q-18 -108 -77.5 -183t-141.5 -123t-178 -70t-185 -22q-91 0 -178.5 22t-153 70t-98 123t-14.5 183z" />
<glyph unicode="&#xe1b;" horiz-adv-x="1214" d="M35 377l155 868h175l-151 -847q-12 -71 8 -121.5t61.5 -82t100 -46t124.5 -14.5q65 0 129 14.5t116.5 46t89.5 82t51 121.5l202 1158h175l-210 -1179q-18 -108 -77.5 -183t-141.5 -123t-178 -70t-185 -22q-91 0 -178.5 22t-153 70t-98 123t-14.5 183z" />
<glyph unicode="&#xe1c;" horiz-adv-x="1431" d="M26 182.5q-12 71.5 4 171.5l122 680q20 103 88.5 157t172.5 54h98l-29 -155h-52q-48 0 -75 -24.5t-34 -66.5l-110 -619q-21 -123 14 -184.5t114 -61.5q38 0 74.5 15t68.5 48t56 83.5t38 120.5l149 844h175l-149 -844q-14 -70 -8 -120.5t26.5 -83.5t52.5 -48t72 -15 q79 0 136 61.5t78 184.5l152 865h175l-158 -891q-18 -100 -56 -171.5t-90.5 -116.5t-115.5 -66t-130 -21q-99 0 -172 40t-96 118q-59 -78 -144 -118t-184 -40q-69 0 -124.5 21t-91 66t-47.5 116.5z" />
<glyph unicode="&#xe1d;" horiz-adv-x="1431" d="M26 182.5q-12 71.5 4 171.5l122 680q20 103 88.5 157t172.5 54h98l-29 -155h-52q-48 0 -75 -24.5t-34 -66.5l-110 -619q-21 -123 14 -184.5t114 -61.5q38 0 74.5 15t68.5 48t56 83.5t38 120.5l149 844h175l-149 -844q-14 -70 -8 -120.5t26.5 -83.5t52.5 -48t72 -15 q79 0 136 61.5t78 184.5l205 1176h175l-211 -1202q-18 -100 -56 -171.5t-90.5 -116.5t-115.5 -66t-130 -21q-99 0 -172 40t-96 118q-59 -78 -144 -118t-184 -40q-69 0 -124.5 21t-91 66t-47.5 116.5z" />
<glyph unicode="&#xe1e;" horiz-adv-x="1431" d="M26 182.5q-12 71.5 4 171.5l160 891h175l-154 -865q-21 -123 14 -184.5t114 -61.5q38 0 74.5 15t68.5 48t56 83.5t38 120.5l149 844h175l-149 -844q-14 -70 -8 -120.5t26.5 -83.5t52.5 -48t72 -15q79 0 136 61.5t78 184.5l152 865h175l-158 -891q-18 -100 -56 -171.5 t-90.5 -116.5t-115.5 -66t-130 -21q-99 0 -172 40t-96 118q-59 -78 -144 -118t-184 -40q-69 0 -124.5 21t-91 66t-47.5 116.5z" />
<glyph unicode="&#xe1f;" horiz-adv-x="1431" d="M26 182.5q-12 71.5 4 171.5l160 891h175l-154 -865q-21 -123 14 -184.5t114 -61.5q38 0 74.5 15t68.5 48t56 83.5t38 120.5l149 844h175l-149 -844q-14 -70 -8 -120.5t26.5 -83.5t52.5 -48t72 -15q79 0 136 61.5t78 184.5l205 1176h175l-211 -1202q-18 -100 -56 -171.5 t-90.5 -116.5t-115.5 -66t-130 -21q-99 0 -172 40t-96 118q-59 -78 -144 -118t-184 -40q-69 0 -124.5 21t-91 66t-47.5 116.5z" />
<glyph unicode="&#xe20;" horiz-adv-x="1214" d="M-109 0l28 158h108l85 483q5 29 24 50.5t40.5 39t39.5 34t21 38.5q3 16 -13.5 35t-38.5 36q-25 18 -57 38q19 82 75.5 147.5t136.5 112t176.5 71.5t196.5 25t187.5 -23t149 -72.5t89.5 -125.5t10 -182l-153 -865h-174l149 847q14 70 -1 120t-54 82t-98.5 47t-135.5 15 q-68 0 -129 -14.5t-108.5 -38.5t-81 -54.5t-45.5 -64.5q12 -10 28 -23t28 -29t19.5 -35t4.5 -39q-4 -27 -20 -47.5t-34.5 -40.5t-35 -42t-22.5 -54l-111 -629h-284z" />
<glyph unicode="&#xe21;" horiz-adv-x="1214" d="M-30 0l220 1245h175l-131 -740q-9 -54 10 -117.5t64.5 -119t116.5 -93.5t163 -38q56 0 105.5 13.5t90 43t68 76t39.5 113.5l152 862h175l-157 -874q-18 -105 -63 -178.5t-109 -120t-144.5 -68.5t-168.5 -22q-71 0 -132.5 16t-112.5 42.5t-90 61.5t-66 73l-32 -175h-173z " />
<glyph unicode="&#xe22;" horiz-adv-x="1229" d="M-3 380q12 73 48 129t79 95.5t86.5 62.5t72.5 28q-28 3 -59 19.5t-56 47.5t-38 77.5t-2 110.5q18 100 88.5 173t178.5 107q31 9 69 14t79 7.5t82 1t79 -7.5l-29 -158q-67 10 -131 8.5t-115 -18t-85 -49t-42 -81.5q-9 -49 8 -80t52.5 -48.5t83.5 -24.5t101 -7h145 l-29 -155h-108q-172 0 -267 -68t-113 -178q-14 -73 8 -121t69 -75t115.5 -37t149.5 -7l348 9l193 1090h175l-221 -1245l-558 -9q-127 -3 -221.5 17.5t-153 67t-79.5 121.5t-3 183z" />
<glyph unicode="&#xe23;" horiz-adv-x="1111" d="M-15 442h176q-17 -94 3 -154t62.5 -94t100.5 -47t118 -13q69 0 133.5 11.5t116 39.5t89 77.5t50.5 126.5q11 64 -5.5 103.5t-54 64t-90 38t-111.5 22.5q-61 11 -123 18.5t-118.5 19t-103.5 29.5t-79 49.5t-45 78.5t-1 115q14 78 64 140t124 107t163.5 69.5t183.5 24.5 q92 0 177.5 -21.5t149 -66.5t96.5 -114t20 -166h-175q3 56 -23 95.5t-69 65.5t-98.5 38t-112.5 12q-53 0 -108.5 -11.5t-101 -33.5t-77.5 -54.5t-39 -75.5q-8 -45 19.5 -73.5t77 -45t115.5 -25.5t134 -17q82 -10 160.5 -29t134.5 -60.5t83.5 -111t7.5 -182.5 q-21 -123 -79.5 -203.5t-140.5 -127t-178.5 -64.5t-194.5 -18q-97 0 -184.5 19.5t-149.5 71.5t-91 142t-6 230z" />
<glyph unicode="&#xe24;" horiz-adv-x="1182" d="M-30 0l111 641q4 29 23 50.5t40.5 39t39.5 34t21 38.5q3 16 -13.5 35t-37.5 36q-26 18 -58 38q20 82 76 147.5t136 112t177 71.5t197 25q101 0 188.5 -23t149 -72.5t88.5 -125.5t9 -182l-217 -1239h-175l219 1233l-5 -12q14 70 -1 120t-54 82t-98 47t-135 15 q-69 0 -129 -14.5t-108.5 -38.5t-81.5 -54.5t-46 -64.5q13 -10 28.5 -23t28.5 -29t20.5 -35t4.5 -39q-5 -27 -21.5 -47.5t-35 -40.5t-34.5 -42t-22 -54l-83 -474h193l-29 -155h-366z" />
<glyph unicode="&#xe25;" horiz-adv-x="1208" d="M-17.5 194q-14.5 66 2.5 160q29 173 148 266t306 120q46 6 100.5 10t110 9.5t109.5 14.5t98 28t74 48t37 74q8 46 -11 81t-58 58.5t-95 35.5t-122 12q-63 0 -124.5 -13.5t-114 -40t-91.5 -66t-56 -91.5h-177q31 100 94.5 170t144.5 114t173 64t182 20q88 0 174.5 -17.5 t150.5 -61t96.5 -115t14.5 -177.5l-159 -897h-174l120 686q-45 -25 -98.5 -40t-111 -25t-119 -15.5t-122.5 -11.5t-115.5 -21t-98 -43t-73 -71.5t-40.5 -104.5q-11 -62 3 -103t45 -64.5t76 -34.5t95 -10t101.5 8.5t97.5 18.5l-32 -166q-76 -11 -151 -15.5t-143 3t-124 30 t-92.5 65t-51 108.5z" />
<glyph unicode="&#xe26;" horiz-adv-x="1214" d="M-109 0l28 158h108l85 483q5 29 24 50.5t40.5 39t39.5 34t21 38.5q3 16 -13.5 35t-38.5 36q-25 18 -57 38q19 82 75.5 147.5t136.5 112t176.5 71.5t196.5 25t187.5 -23t149 -72.5t89.5 -125.5t10 -182l-219 -1239h-173l214 1221q14 70 -1 120t-54 82t-98.5 47t-135.5 15 q-68 0 -129 -14.5t-108.5 -38.5t-81 -54.5t-45.5 -64.5q12 -10 28 -23t28 -29t19.5 -35t4.5 -39q-4 -27 -20 -47.5t-34.5 -40.5t-35 -42t-22.5 -54l-111 -629h-284z" />
<glyph unicode="&#xe27;" horiz-adv-x="1155" d="M-6 401h184q3 -68 26.5 -119t62.5 -83.5t90.5 -48.5t109.5 -16q82 0 154 26.5t130 85t101 151t66 226.5q23 132 13 225.5t-48 151.5t-100.5 84.5t-144.5 26.5q-59 0 -115 -16t-106.5 -48.5t-92 -83.5t-69.5 -119h-184q34 92 89.5 170.5t130.5 134.5t169.5 87.5 t205.5 31.5t203.5 -34.5t152.5 -111t81.5 -199t-10.5 -300.5t-96.5 -301t-151.5 -199t-191 -110t-215 -34t-193.5 31t-138 86.5t-84 133t-29.5 171.5z" />
<glyph unicode="&#xe28;" horiz-adv-x="1214" d="M-30 0l152 865q18 108 78 184t142 124.5t178 71.5t187 23q51 0 101.5 -8t94.5 -21q35 13 60 37.5t33 62.5h190q-6 -33 -20.5 -59t-34.5 -46.5t-42.5 -36.5t-45.5 -30q64 -47 94 -121.5t12 -180.5l-153 -865h-174l149 847q14 70 -5 120t-60 82t-100.5 47t-127.5 15 q-67 0 -131.5 -15t-117 -47t-89 -82t-47.5 -120l-22 -128h380l-28 -155h-380l-100 -564h-173z" />
<glyph unicode="&#xe29;" horiz-adv-x="1229" d="M35 377l155 868h175l-151 -847q-12 -71 8 -121.5t61.5 -82t100 -46t124.5 -14.5q65 0 129 14.5t117 46t90.5 82t49.5 121.5l39 243h-386l44 241h175l-15 -86h211l81 449h175l-81 -449h93l-28 -155h-94l-47 -264q-18 -108 -77.5 -183t-141.5 -123t-178 -70t-185 -22 q-91 0 -178.5 22t-153 70t-98 123t-14.5 183z" />
<glyph unicode="&#xe2a;" horiz-adv-x="1208" d="M-17.5 194q-14.5 66 2.5 160q29 173 148 266t306 120q46 6 100.5 10t110 9.5t109.5 14.5t98 28t74 48t37 74q8 46 -11 81t-58 58.5t-95 35.5t-122 12q-63 0 -124.5 -13.5t-114 -40t-91.5 -66t-56 -91.5h-177q31 100 94.5 170t144.5 114t173 64t182 20q52 0 102.5 -6 t99.5 -20q33 14 56 38t31 59h190q-12 -62 -52 -101t-82 -65q53 -42 80.5 -109.5t10.5 -166.5l-159 -897h-174l120 686q-45 -25 -98.5 -40t-111 -25t-119 -15.5t-122.5 -11.5t-115.5 -21t-98 -43t-73 -71.5t-40.5 -104.5q-11 -62 3 -102.5t45 -64.5t75 -34t94.5 -10t102 7.5 t98.5 18.5l-32 -166q-76 -11 -151 -15.5t-143 3t-124 30t-92.5 65t-51 108.5z" />
<glyph unicode="&#xe2b;" horiz-adv-x="1214" d="M-30 0l220 1245h175l-72 -398q43 39 95.5 75t111.5 62.5t125.5 42.5t137.5 16q88 0 160.5 -22t120 -68.5t66.5 -120.5t1 -175l-115 -657h-174l111 641q12 69 1 116t-40 76t-74 42t-101 13q-84 0 -166 -36t-149 -90t-111.5 -118.5t-55.5 -120.5l-94 -523h-173zM535 1090 l29 155h591l-29 -155h-591z" />
<glyph unicode="&#xe2c;" horiz-adv-x="1431" d="M26 182.5q-12 71.5 4 171.5l160 891h175l-154 -865q-21 -123 14 -184.5t114 -61.5q38 0 74.5 15t68.5 48t56 83.5t38 120.5l113 642h173l-111 -642q-14 -70 -8 -120.5t26.5 -83.5t52.5 -48t72 -15q79 0 136 61.5t78 184.5l106 606q14 83 -19.5 132t-127.5 49h-357l27 155 h365q38 0 75 9.5t67.5 33t52.5 63t31 98.5h172q-16 -115 -77 -187.5t-149 -102.5q74 -26 102 -88.5t9 -170.5l-108 -623q-18 -100 -56 -171.5t-90.5 -116.5t-115.5 -66t-130 -21q-99 0 -172 40t-96 118q-59 -78 -144 -118t-184 -40q-69 0 -124.5 21t-91 66t-47.5 116.5z" />
<glyph unicode="&#xe2d;" horiz-adv-x="1282" d="M27.5 332q-25.5 122 2.5 291q8 41 19.5 83.5t34.5 106.5h408l-28 -159h-253q-3 -8 -3 -15t-3 -16q-23 -126 -7.5 -218.5t61 -152.5t118.5 -89t164 -29q93 0 175 29t148 89t112.5 152.5t69.5 218.5t7.5 218t-60.5 152t-116 89t-164 29t-160 -22.5t-114 -55.5t-76.5 -69.5 t-47.5 -63.5h-193q33 68 87.5 134t132.5 118t176.5 84t221.5 32q125 0 227 -37.5t168 -115.5t91 -200.5t-5 -291.5q-29 -169 -97 -291t-162 -200.5t-209.5 -115.5t-238.5 -37t-225 37t-169 115.5t-92.5 200.5z" />
<glyph unicode="&#xe2e;" horiz-adv-x="1282" d="M27.5 332q-25.5 122 2.5 291q8 41 19.5 83.5t34.5 106.5h408l-28 -159h-253q-3 -8 -3 -15t-3 -16q-23 -126 -7.5 -218.5t61 -152.5t118.5 -89t164 -29q93 0 175 29t148 89t112.5 152.5t69.5 218.5t7.5 218t-60.5 152t-116 89t-164 29t-160 -22.5t-114 -55.5t-76.5 -69.5 t-47.5 -63.5h-193q33 68 87.5 134t132.5 118t176.5 84t221.5 32q113 0 207 -32q26 13 54 40.5t36 62.5h190q-6 -30 -21.5 -56.5t-36 -49t-43 -39t-45.5 -27.5q94 -76 134.5 -209t5.5 -335q-29 -169 -97 -291t-162 -200.5t-209.5 -115.5t-238.5 -37t-225 37t-169 115.5 t-92.5 200.5z" />
<glyph unicode="&#xe2f;" horiz-adv-x="1098" d="M96 996q10 59 44.5 105.5t81.5 78t105 50.5t116.5 25.5t114 -0.5t99.5 -25l-31 -172q-45 32 -103.5 42.5t-112.5 2t-94.5 -36.5t-47.5 -73q-7 -32 4.5 -57.5t35 -42.5t55.5 -25.5t67 -8.5q91 0 168.5 29.5t141 81t110.5 122.5t77 153h175l-220 -1245h-172l158 909 q-32 -33 -81.5 -69.5t-111 -66.5t-132 -49.5t-145.5 -19.5q-62 0 -122 17.5t-104 54t-66 91t-10 129.5z" />
<glyph unicode="&#xe30;" horiz-adv-x="466" d="M-30 264q6 38 27 72.5t51 60.5t66 40t76 14q38 0 70 -14t52.5 -40t29 -60.5t0.5 -72.5q-8 -39 -28.5 -72.5t-50.5 -59.5t-66.5 -40t-74.5 -14q-40 0 -71 14t-51.5 40t-29 59.5t-0.5 72.5zM84 264q-5 -27 13.5 -49t45.5 -22q29 0 54 22t31 49q5 29 -13.5 50.5t-45.5 21.5 q-29 0 -55 -21.5t-30 -50.5zM96 980q6 38 26.5 72.5t50 60t66 40t76.5 14.5q38 0 69 -14.5t52.5 -40t30.5 -60t3 -72.5q-8 -38 -28.5 -72t-51 -59t-67 -40.5t-74.5 -15.5q-39 0 -70.5 15.5t-52 40.5t-29.5 59t-1 72zM211 980q-7 -30 9.5 -50.5t47.5 -20.5q30 0 54.5 20.5 t31.5 50.5q6 31 -10.5 51.5t-47.5 20.5q-30 0 -55 -20.5t-30 -51.5z" />
<glyph unicode="&#xe31;" d="M-476 1401l43 242h175l-19 -105h681l-24 -137h-856z" />
<glyph unicode="&#xe32;" horiz-adv-x="638" d="M81 1084l28 158q101 15 195 9.5t163.5 -36.5t105 -92t18.5 -155l-171 -968h-174l164 933q10 55 -12.5 90t-68 52.5t-110 19t-138.5 -10.5z" />
<glyph unicode="&#xe33;" horiz-adv-x="638" d="M-211 1550q6 35 24 65t45.5 51t61.5 33.5t74 12.5q38 0 68.5 -12.5t50 -33.5t28 -51t2.5 -65t-24.5 -65t-45.5 -51.5t-62 -33.5t-73 -12q-78 0 -119.5 45.5t-29.5 116.5zM-109 1550q-5 -28 13 -48t49 -20q30 0 56.5 20t31.5 48t-13.5 48.5t-48.5 20.5q-31 0 -57.5 -20.5 t-30.5 -48.5zM81 1084l28 158q101 15 195 9.5t163.5 -36.5t105 -92t18.5 -155l-171 -968h-174l164 933q10 55 -12.5 90t-68 52.5t-110 19t-138.5 -10.5z" />
<glyph unicode="&#xe34;" d="M-891 1401l26 137h918l-26 -137h-918z" />
<glyph unicode="&#xe35;" d="M-891 1401l26 137h743l29 158h174l-54 -295h-918z" />
<glyph unicode="&#xe36;" d="M-891 1401l26 137h654q0 5 1.5 9.5t1.5 8.5q6 32 24 60.5t45.5 49.5t63 33.5t75.5 12.5q38 0 68.5 -12.5t49.5 -33.5t26.5 -49.5t1.5 -60.5q-6 -31 -23.5 -59.5t-44 -49.5t-61.5 -33.5t-73 -12.5h-835zM-106 1556q-5 -30 11.5 -49t47.5 -19q35 0 61 19t30 49 q5 29 -12.5 47.5t-52.5 18.5q-31 0 -56 -18.5t-29 -47.5z" />
<glyph unicode="&#xe37;" d="M-891 1401l26 137h476l27 158h175l-27 -158h92l29 158h174l-54 -295h-918z" />
<glyph unicode="&#xe38;" d="M-532 -261l24 136h268l-66 -374h-173l40 238h-93z" />
<glyph unicode="&#xe39;" d="M-882 -261l26 136h236l-34 -190q-4 -24 2 -40t19 -25t31 -12t38 -3q40 0 73 16t43 64l35 190h173l-34 -199q-9 -50 -36 -88t-69 -64.5t-95 -39.5t-114 -13q-129 0 -191.5 52.5t-48.5 152.5l9 63h-63z" />
<glyph unicode="&#xe3a;" d="M-476 -252q9 53 52.5 90t96.5 37t84.5 -37t22.5 -90q-5 -28 -20 -50.5t-35.5 -40t-46 -27.5t-52.5 -10q-53 0 -82.5 37t-19.5 91z" />
<glyph unicode="&#xe3f;" horiz-adv-x="1378" d="M30 0l259 1467h468l39 232h137l-39 -232h33q123 0 201.5 -32t120 -82t52.5 -111.5t0 -121.5q-21 -118 -87 -207t-183 -138q59 -21 104 -50.5t72 -73t34.5 -103t-5.5 -138.5q-17 -94 -65 -169t-118 -129t-157 -83t-183 -29h-78l-41 -234h-136l41 234h-469zM252 166h274 l91 506h-275zM371 838h273l84 463h-274zM663 166q67 1 130.5 10t116 37.5t90 81t52.5 141.5q14 70 -4.5 115t-60.5 71t-102 36.5t-131 13.5zM781 838q58 3 110.5 14t95 36.5t71.5 67t41 105.5q14 79 -0.5 126t-49 72t-83 33t-101.5 9z" />
<glyph unicode="&#xe40;" horiz-adv-x="484" d="M30 0l222 1245h175l-222 -1245h-175z" />
<glyph unicode="&#xe41;" horiz-adv-x="846" d="M30 0l222 1245h175l-222 -1245h-175zM392 0l221 1245h174l-220 -1245h-175z" />
<glyph unicode="&#xe42;" horiz-adv-x="547" d="M62 0l262 1476q9 56 -8 87t-39 57t-38.5 55.5t-7.5 83.5q6 33 26.5 65t56.5 55.5t86.5 38t119.5 12.5l413 -6l-27 -156l-383 6q-23 0 -44 -1t-38 -5.5t-29 -12t-14 -21.5q-6 -32 13 -52.5t42 -43t39.5 -57t6.5 -93.5l-262 -1488h-175z" />
<glyph unicode="&#xe43;" horiz-adv-x="547" d="M15 1646q6 67 36.5 125t81.5 99.5t120 66t151 24.5q161 0 232 -64.5t53 -174.5q-10 -50 -38.5 -80.5t-61.5 -58t-61.5 -59t-38.5 -86.5l-252 -1438h-175l256 1450q10 65 40 101t61 59.5t57 45.5t32 59q13 91 -125 91q-91 0 -136 -44t-54 -116h-178z" />
<glyph unicode="&#xe44;" horiz-adv-x="547" d="M-50 1818l150 109l134 -88l125 66h74q43 0 81.5 -7t67 -24.5t42.5 -46.5t8 -71q-4 -32 -21.5 -55.5t-38 -45t-38 -45t-23.5 -57.5l-274 -1553h-175l277 1563q6 36 23.5 59.5t38 41t37 32t20.5 32.5q1 9 -6 13.5t-17.5 6.5t-22 2h-20.5h-38l-146 -81z" />
<glyph unicode="&#xe45;" horiz-adv-x="638" d="M81 1084l28 158q101 15 195 9.5t163.5 -36.5t105 -92t18.5 -155l-237 -1342h-173l229 1307q10 55 -12.5 90t-68 52.5t-110 19t-138.5 -10.5z" />
<glyph unicode="&#xe46;" horiz-adv-x="1105" d="M87 927q10 66 50.5 123.5t103.5 101t146 68.5t177 25l158 -164l211 164h175l-286 -1619h-174l249 1408l-211 -175l-216 228q-73 -8 -133 -48t-73 -112q-7 -42 8 -72t45.5 -46.5t71.5 -21t84 2.5l-31 -164q-91 -6 -163 11t-119.5 55t-67 97t-5.5 138z" />
<glyph unicode="&#xe47;" d="M-896.5 1524.5q-4.5 30.5 2.5 69.5q9 48 37.5 90.5t73 73t105.5 48.5t137 18h600l-21 -137h-602q-77 0 -125 -22t-59 -71q-3 -15 0 -25.5t8 -18.5q6 -9 12 -15h125l282 111l277 -120l-24 -144l-274 124l-264 -105h-216q-17 11 -32 28.5t-26.5 41t-16 54z" />
<glyph unicode="&#xe48;" d="M-78 1791l43 232h175l-44 -232h-174z" />
<glyph unicode="&#xe49;" d="M-318 1915l22 123h97q74 0 111.5 -28.5t25.5 -94.5h333l-22 -124h-460l9 51q7 38 -10.5 55.5t-51.5 17.5h-54z" />
<glyph unicode="&#xe4a;" d="M-407 1791l24 130q17 91 83.5 137t156.5 46h18l110 -75l134 75h18q91 0 141 -47.5t37 -135.5l-3 -6h130l-22 -124h-262l23 117q7 35 -7 55.5t-49 20.5h-22l-144 -82l-120 82h-14q-35 0 -55.5 -21.5t-24.5 -54.5v-6h83l-21 -111h-214z" />
<glyph unicode="&#xe4b;" d="M-175 1908l20 103h134l21 119h143l-21 -119h133l-18 -103h-134l-22 -117h-143l21 117h-134z" />
<glyph unicode="&#xe4c;" d="M-217 1693l9 63q6 47 28.5 82.5t55.5 60t73 37.5t81 13h187l-24 -140h-137q-44 0 -76 -25t-36 -62l-6 -29h-155z" />
<glyph unicode="&#xe4d;" d="M-211 1550q6 35 24 65t45.5 51t61.5 33.5t74 12.5q38 0 68.5 -12.5t50 -33.5t28 -51t2.5 -65t-24.5 -65t-45.5 -51.5t-62 -33.5t-73 -12q-78 0 -119.5 45.5t-29.5 116.5zM-109 1550q-5 -28 13 -48t49 -20q30 0 56.5 20t31.5 48t-13.5 48.5t-48.5 20.5q-31 0 -57.5 -20.5 t-30.5 -48.5z" />
<glyph unicode="&#xe4e;" d="M-613 1569q10 63 58.5 114t112.5 82q13 6 30 12t35 11.5t35.5 9t29.5 5.5q-35 18 -43 48.5t-4 63.5q6 31 26 62.5t51 61.5t71.5 55.5t88.5 44.5q54 19 116 30t122 14.5t112 3.5t87 -1l-29 -154q-75 9 -156 7t-149.5 -16.5t-116.5 -42t-54 -69.5q-5 -25 9.5 -38t40.5 -18 t58.5 -5h66.5l-26 -145q-71 10 -141 5t-126.5 -20.5t-93.5 -42.5t-43 -60q-5 -26 16.5 -34.5t48.5 -8.5q56 0 101.5 15.5t85.5 34.5l53 -124q-27 -14 -61.5 -27.5t-74.5 -25t-84 -16t-91 -0.5q-87 10 -129.5 58.5t-32.5 109.5z" />
<glyph unicode="&#xe4f;" horiz-adv-x="1463" d="M78 623q22 132 93 247.5t172.5 202.5t227 137t257.5 50q133 0 240 -50t178.5 -137t101 -202.5t6.5 -247.5q-22 -132 -93 -248.5t-173 -203t-227 -136.5t-258 -50q-132 0 -239 50t-178.5 136.5t-101 203t-6.5 248.5zM172 623q-20 -112 5 -211.5t86.5 -173.5t153 -117 t203.5 -43q111 0 218 43t194.5 117t147.5 173.5t80 211.5q20 111 -5 210.5t-86 173.5t-153 117t-203 43q-112 0 -219.5 -43t-194.5 -117t-147 -173.5t-80 -210.5zM327 623q13 81 56.5 151.5t106 124t138.5 83.5t156 30q81 0 146.5 -30t108.5 -83.5t61.5 -124t4.5 -151.5 q-14 -80 -57 -151.5t-105.5 -124t-138.5 -83t-156 -30.5q-81 0 -146.5 30.5t-108.5 83t-61.5 124t-4.5 151.5z" />
<glyph unicode="&#xe50;" horiz-adv-x="1176" d="M18 467q18 100 72 188t135 154.5t185 105t222 38.5q119 0 209.5 -38.5t147.5 -105t79 -154.5t4 -188q-19 -101 -71.5 -189t-133 -154t-184.5 -104t-222 -38q-119 0 -209.5 38t-148 104t-79.5 154t-6 189zM184 467q-12 -69 3 -129.5t54 -106.5t100.5 -71.5t143.5 -25.5 t152.5 25.5t124.5 71.5t90 106.5t48 129.5q12 68 -2.5 129t-53 106.5t-100.5 71.5t-144 26t-152 -26t-124.5 -71.5t-91 -106.5t-48.5 -129z" />
<glyph unicode="&#xe51;" horiz-adv-x="1250" d="M24 499q19 103 76.5 187.5t142.5 143.5t191.5 91t222.5 32q130 0 231.5 -33.5t166 -95.5t89.5 -151t5 -200q-23 -123 -96.5 -226t-179 -179.5t-232 -126.5t-252.5 -69l-53 137q112 15 219.5 55.5t195.5 101t147.5 138.5t75.5 169q14 73 -5 133.5t-64.5 103t-115 66.5 t-157.5 24q-82 0 -155.5 -22.5t-131.5 -62.5t-96 -95.5t-50 -120.5q-7 -40 -0.5 -76.5t25 -66t48 -50t67.5 -29.5q-17 21 -23.5 55t2.5 88q7 45 33 86t64 71.5t85 48.5t97 18q51 0 92.5 -18t69.5 -48.5t40.5 -71.5t3.5 -86q-13 -66 -53 -122t-101 -97t-137.5 -65t-160.5 -24 q-88 0 -155.5 30t-110 82.5t-58.5 123t-3 151.5zM461 416q-10 -41 14 -69.5t66 -28.5q43 0 76.5 28.5t42.5 69.5q7 43 -17 72t-67 29q-42 0 -75 -29t-40 -72z" />
<glyph unicode="&#xe52;" horiz-adv-x="1693" d="M-9 1123l102 151q123 -15 187.5 -71.5t46.5 -159.5l-131 -741q-4 -27 -1 -53.5t15 -47t34 -33.5t55 -13h899q33 0 59 13t45.5 33.5t32 47t16.5 53.5l63 346q13 72 -22 112t-112 40q-29 0 -57 -8.5t-51.5 -24.5t-39.5 -37.5t-21 -47.5l-74 -411h-175l74 415q5 28 -7 49.5 t-35 36t-53.5 21.5t-62.5 7q-39 0 -75.5 -8.5t-66.5 -26t-51 -45.5t-27 -66q12 3 22.5 3h22.5q48 0 86 -16t63.5 -43.5t37 -65.5t3.5 -81q-7 -44 -31.5 -81t-60 -64.5t-79 -43.5t-90.5 -16q-46 0 -83 15.5t-62 42.5t-36 65t-3 82l35 197q12 74 52.5 132t98 96.5t128.5 59 t144 20.5q94 0 151.5 -25t100.5 -69q47 44 111 69t147 25q73 0 129.5 -19.5t93 -57.5t51 -93t1.5 -123l-69 -377q-13 -63 -42.5 -114.5t-74.5 -90t-102.5 -60t-122.5 -21.5h-919q-65 0 -115 21.5t-82 60t-44 90t-2 114.5l128 716q9 53 -25 83.5t-130 37.5zM489 451 q-7 -35 12.5 -59t53.5 -24q35 0 63 24t36 59q4 34 -16.5 59t-55.5 25q-33 0 -60.5 -25t-32.5 -59z" />
<glyph unicode="&#xe53;" horiz-adv-x="1453" d="M6 205l75 424q13 82 56.5 143t105 102t134.5 61.5t146 20.5q94 0 160 -31t104 -78q52 47 125 78t152 31q73 0 131.5 -19t97.5 -57.5t54.5 -95.5t3.5 -133l-115 -651h-175l112 635q14 85 -27.5 126.5t-111.5 41.5q-72 0 -126.5 -35t-66.5 -102l-119 -666h-175l119 672 q6 35 -8 60t-39 41t-58.5 23t-64.5 7q-46 0 -87 -12.5t-73 -35t-53.5 -54t-27.5 -69.5l-38 -216q17 7 34.5 9t34.5 2q50 0 92 -17.5t70 -48t40 -70.5t4 -86q-9 -48 -36 -88.5t-65 -69.5t-85.5 -45.5t-97.5 -16.5t-91 16.5t-68.5 45.5t-39 69.5t-3.5 88.5zM152 205 q-9 -44 15.5 -73t66.5 -29q41 0 74.5 29t42.5 73q8 40 -16.5 70.5t-66.5 30.5q-43 0 -75.5 -30.5t-40.5 -70.5z" />
<glyph unicode="&#xe54;" horiz-adv-x="1345" d="M18 461q18 115 76 207t141.5 156t187 97.5t212.5 31.5q67 -1 109 -3.5t77 -5t71.5 -3t93.5 2.5q52 1 98.5 31.5t83.5 78.5t64.5 108t41.5 121h173q-17 -96 -58 -185t-103 -157.5t-142 -111.5t-173 -48q-48 -3 -88.5 -1.5t-80.5 4t-86.5 5.5t-109.5 4q-74 2 -144 -21 t-125.5 -66t-94 -105.5t-49.5 -139.5q-12 -78 7.5 -138t60.5 -101t99 -61.5t122 -20.5q103 0 156.5 14.5t80.5 26.5q-9 1 -38.5 19.5t-59.5 51t-49 80.5t-8 110q8 47 34.5 89t63.5 72.5t82.5 48t93.5 17.5q47 0 85.5 -17t63.5 -46.5t35 -69.5t2 -88q-9 -56 -47.5 -105.5 t-94.5 -78.5q32 -31 76 -41t91 -19t93.5 -26t81.5 -59l-125 -128q-81 44 -141 54.5t-93 10.5q-47 0 -90.5 -11.5t-93 -24t-107 -24t-132.5 -11.5q-95 0 -181 28t-146 86t-88.5 148t-8.5 214zM701 445q-8 -38 16.5 -66t63.5 -28q40 0 71 28t39 66q7 40 -14 69.5t-61 29.5 q-20 0 -39 -7.5t-34.5 -21t-27 -32t-14.5 -38.5z" />
<glyph unicode="&#xe55;" horiz-adv-x="1345" d="M18 461q15 94 57 173t103 139.5t137.5 102t163.5 60.5q-9 16 -16 44t1 63q7 48 33.5 90.5t66 74t90.5 49t109 17.5q56 0 100 -17.5t73 -49t40.5 -74t3.5 -90.5q-4 -34 -22.5 -62t-30.5 -37h59q52 1 98.5 31.5t83.5 78.5t64.5 108t41.5 121h173q-17 -96 -58 -185 t-103 -157.5t-142 -111.5t-173 -48q-48 -3 -88.5 -1.5t-80.5 4t-86.5 5.5t-109.5 4q-74 2 -144 -21t-125.5 -66t-94 -105.5t-49.5 -139.5q-12 -78 7.5 -138t60.5 -101t99 -61.5t122 -20.5q103 0 156.5 14.5t80.5 26.5q-9 1 -38.5 19.5t-59.5 51t-49 80.5t-8 110 q8 47 34.5 89t63.5 72.5t82.5 48t93.5 17.5q47 0 85.5 -17t63.5 -46.5t35 -69.5t2 -88q-9 -56 -47.5 -105.5t-94.5 -78.5q32 -31 76 -41t91 -19t93.5 -26t81.5 -59l-125 -128q-81 44 -141 54.5t-93 10.5q-47 0 -90.5 -11.5t-93 -24t-107 -24t-132.5 -11.5q-95 0 -180.5 28 t-145.5 86t-88 148t-10 214zM613 1049q-8 -43 21 -72.5t73 -29.5q23 0 43.5 8.5t38 22t28.5 32t14 39.5q10 42 -18.5 72.5t-72.5 30.5t-80.5 -30.5t-46.5 -72.5zM701 448q-8 -39 16.5 -68t63.5 -29q40 0 72.5 29t40.5 68q7 40 -15.5 68t-62.5 28q-39 0 -73.5 -28t-41.5 -68z " />
<glyph unicode="&#xe56;" horiz-adv-x="1263" d="M-74 1186l161 97q56 -50 97 -104t69 -110.5t43.5 -112t21.5 -106.5q68 47 169 79.5t220 32.5q117 0 209.5 -35t153.5 -98.5t85.5 -152.5t5.5 -197q-18 -108 -79 -200t-151 -159t-202 -104t-233 -37q-118 0 -205 32.5t-143.5 85.5t-80 120t-11.5 134q8 49 34 89t62 69 t81 45t94 16q47 0 86.5 -16t65.5 -45t37 -68.5t4 -86.5q-9 -61 -48.5 -108t-103.5 -74q18 -12 62 -22t93 -10q82 0 159.5 24t141.5 69t107 107.5t55 138.5q14 71 -5.5 130.5t-63 101t-107.5 65.5t-141 24q-63 0 -120 -13t-104.5 -36t-85.5 -52.5t-66 -63.5h-144 q5 174 -53 306t-170 245zM193 359q-8 -40 16.5 -69t64.5 -29q39 0 71.5 29t40.5 69q8 39 -15 67t-62 28q-20 0 -39 -7.5t-35 -20.5t-27.5 -30.5t-14.5 -36.5z" />
<glyph unicode="&#xe57;" horiz-adv-x="1779" d="M6 205l75 424q13 82 56.5 143t105 102t134.5 61.5t146 20.5q94 0 160 -31t104 -78q52 47 125 78t152 31q73 0 131.5 -19t98 -57.5t55.5 -95.5t2 -133l-83 -470q35 15 72 46t69.5 75.5t59.5 100.5t40 123q14 68 19.5 127.5t10 115t13 109.5t29.5 112q18 51 47.5 95 t64 80.5t71 65.5t69.5 52l122 -103q-35 -19 -67 -44t-59.5 -54.5t-48 -60.5t-30.5 -62q-22 -58 -28.5 -111t-10 -106t-8 -107t-19.5 -112q-27 -110 -78 -198.5t-117 -155.5t-143.5 -109.5t-156.5 -59.5h-128l112 635q14 85 -27.5 126.5t-111.5 41.5q-72 0 -126.5 -35 t-66.5 -102l-119 -666h-175l119 672q6 35 -8 60t-39 41t-58.5 23t-64.5 7q-46 0 -87 -12.5t-73 -35t-53.5 -54t-27.5 -69.5l-38 -216q17 7 34.5 9t34.5 2q50 0 92 -17.5t70 -48t40 -70.5t4 -86q-9 -48 -35.5 -88.5t-65 -69.5t-86 -45.5t-97.5 -16.5t-91 16.5t-68.5 45.5 t-39 69.5t-3.5 88.5zM152 205q-9 -44 15.5 -73t66.5 -29q41 0 74.5 29t42.5 73q8 40 -16.5 70.5t-66.5 30.5q-43 0 -75.5 -30.5t-40.5 -70.5z" />
<glyph unicode="&#xe58;" horiz-adv-x="1369" d="M26 309q-17 89 1 196q19 109 73.5 193.5t136.5 143t187 88t224 29.5q54 0 103.5 -5.5t97.5 -11.5t93.5 -10.5t94.5 -1.5q51 2 92 34t73 82t56.5 111.5t42.5 125.5h175q-24 -90 -60.5 -180.5t-89 -164t-122.5 -121.5t-161 -51q-58 -3 -108 2.5t-100.5 12t-103.5 13 t-114 6.5q-80 0 -149.5 -19t-124 -57t-91 -93t-50.5 -126q-10 -63 -2 -116t28.5 -95.5t51 -73t62.5 -45.5l234 241q41 -74 85 -132q18 -26 39.5 -49.5t43.5 -41.5t45 -29.5t45 -11.5t45.5 13t44.5 34q-30 8 -56.5 24.5t-45 42.5t-26 59.5t-0.5 75.5q8 43 32.5 80t59.5 66 t78 46t89 17q45 0 84 -15.5t66.5 -43t39.5 -67t3 -86.5q-14 -73 -59.5 -146.5t-110 -132t-140.5 -95t-151 -36.5q-38 0 -76 17.5t-71.5 44t-61.5 56t-46 52.5l-155 -176q-94 15 -168 59t-120 111.5t-63 156.5zM933 401q-7 -35 13.5 -59t55.5 -24t63.5 24t36.5 59 q5 35 -14 59.5t-54 24.5t-65.5 -24.5t-35.5 -59.5z" />
<glyph unicode="&#xe59;" horiz-adv-x="1512" d="M23 298q-15 91 1 187q19 105 73.5 194.5t133.5 155t176.5 102.5t202.5 37q241 0 355 -136q43 57 104.5 95t138.5 41q70 3 125 -21t81 -56q35 70 61.5 174t33.5 218h175q-4 -96 -28.5 -188t-62 -174t-83.5 -150.5t-93 -116.5l-116 38q2 19 -2.5 39.5t-17.5 37.5 t-34.5 27.5t-54.5 10.5q-28 0 -50.5 -11.5t-41 -28t-30.5 -38t-15 -40.5q68 -139 90 -316t13 -370l-181 -24q5 94 3.5 193t-13.5 191t-39 173t-71 141t-109.5 95t-156.5 35q-71 0 -136.5 -25t-118.5 -69t-89 -104t-48 -130q-18 -100 10 -182.5t87 -124.5q-12 36 0 77 q8 47 34.5 88.5t65.5 71.5t86 48.5t97 18.5t91 -18.5t68.5 -48.5t39 -71.5t3.5 -88.5q-12 -62 -46 -112t-83.5 -86t-111 -55.5t-127.5 -19.5q-117 0 -198 42.5t-129 112.5t-63 161zM439 255q-7 -42 17 -72.5t67 -30.5q42 0 75 30.5t40 72.5q8 40 -15.5 69.5t-64.5 29.5 q-43 0 -77 -29.5t-42 -69.5z" />
<glyph unicode="&#xe5a;" horiz-adv-x="1395" d="M96 996q10 59 44.5 105.5t81.5 78t105 50.5t116.5 25.5t114 -0.5t99.5 -25l-31 -172q-45 32 -103.5 42.5t-112.5 2t-94.5 -36.5t-47.5 -73q-7 -32 4.5 -57.5t35 -42.5t55.5 -25.5t67 -8.5q91 0 168.5 29.5t141 81t110.5 122.5t77 153h175l-220 -1245h-172l158 909 q-32 -33 -81.5 -69.5t-111 -66.5t-132 -49.5t-145.5 -19.5q-62 0 -122 17.5t-104 54t-66 91t-10 129.5zM1006 0l221 1245h171l-222 -1245h-170z" />
<glyph unicode="&#xe5b;" horiz-adv-x="2117" d="M74.5 420q-13.5 95 6.5 209q19 110 65 205t108 165t138 110t158 40q67 0 121 -29t89 -79.5t48.5 -120t0.5 -151.5q-13 -64 -38 -118t-59 -92t-76.5 -59t-88.5 -21q-38 0 -69 16.5t-51.5 44t-28 64.5t-0.5 78q6 42 28 78t52 65t66.5 46t72.5 17h16t15 -3q-14 56 -45 88.5 t-74 32.5q-49 0 -95 -28t-86.5 -79t-71 -123t-45.5 -159q-15 -85 -6.5 -152t37 -113t75 -71.5t105.5 -25.5q72 0 142 37.5t133 106.5t116 167t91 218q24 75 47 100t63 25q16 0 32 -17.5t31.5 -48.5t27.5 -72t21 -89q14 42 27 77.5t26.5 63t28.5 43.5t32 16q29 0 61 -51 t49 -130q19 48 44 86t47 38q35 0 61.5 -44.5t52.5 -117.5q21 47 47 82.5t56 35.5q23 0 43.5 -28t34.5 -67q16 22 33.5 33.5t43.5 8.5l166 -21q27 -5 50.5 -19.5t20.5 -27.5q-1 -11 -11 -20t-23.5 -17.5t-29.5 -13t-30 -6.5l-158 -15q-14 -29 -38 -57.5t-52 -28.5 q-12 0 -22 9.5t-18 24t-16 33.5t-15 37q-11 -24 -25.5 -49t-29.5 -45t-31 -32.5t-30 -12.5q-13 0 -24 14.5t-20.5 37t-19 50.5t-16.5 57q-14 -35 -30.5 -68.5t-34 -60.5t-35 -44t-33.5 -17q-15 0 -25.5 18.5t-19.5 47t-17.5 65t-17.5 71.5q-17 -44 -38 -86.5t-44 -76.5 t-46 -55.5t-39 -21.5q-31 0 -44 18.5t-16 62.5q-3 29 -3.5 70t-8.5 80q-21 -50 -48.5 -99.5t-58 -94t-62 -82.5t-62.5 -67q-86 -82 -182.5 -126t-191.5 -44q-91 0 -160 37t-112.5 104.5t-57 162.5zM508 682q-8 -39 9.5 -65t46.5 -26q30 0 57.5 26t35.5 65q7 40 -11 66.5 t-49 26.5q-27 0 -54.5 -25.5t-34.5 -67.5z" />
<glyph unicode="&#x2000;" horiz-adv-x="1215" />
<glyph unicode="&#x2001;" horiz-adv-x="2430" />
<glyph unicode="&#x2002;" horiz-adv-x="1215" />
<glyph unicode="&#x2003;" horiz-adv-x="2430" />
<glyph unicode="&#x2004;" horiz-adv-x="810" />
<glyph unicode="&#x2005;" horiz-adv-x="607" />
<glyph unicode="&#x2006;" horiz-adv-x="405" />
<glyph unicode="&#x2007;" horiz-adv-x="405" />
<glyph unicode="&#x2008;" horiz-adv-x="303" />
<glyph unicode="&#x2009;" horiz-adv-x="486" />
<glyph unicode="&#x200a;" horiz-adv-x="135" />
<glyph unicode="&#x200c;" />
<glyph unicode="&#x200d;" />
<glyph unicode="&#x2010;" horiz-adv-x="784" d="M62 489l28 165h585l-27 -165h-586z" />
<glyph unicode="&#x2011;" horiz-adv-x="784" d="M62 489l28 165h585l-27 -165h-586z" />
<glyph unicode="&#x2012;" horiz-adv-x="784" d="M62 489l28 165h585l-27 -165h-586z" />
<glyph unicode="&#x2013;" horiz-adv-x="1136" d="M47 448l24 140h950l-25 -140h-949z" />
<glyph unicode="&#x2014;" horiz-adv-x="2272" d="M47 448l24 140h2083l-24 -140h-2083z" />
<glyph unicode="&#x2018;" horiz-adv-x="588" d="M237 1245q6 35 23.5 76t49.5 83.5t78.5 83.5t110.5 78l68 -57q-68 -36 -115.5 -80t-77.5 -96q8 2 17 3q7 2 16 2.5t20 0.5q52 0 85.5 -37t22.5 -94q-5 -28 -20 -55t-38 -47.5t-51 -32.5t-58 -12q-78 0 -112 52.5t-19 131.5z" />
<glyph unicode="&#x2019;" horiz-adv-x="588" d="M237 1117q69 38 114.5 82t75.5 96q-9 -1 -17 -3q-7 -2 -15.5 -2.5t-17.5 -0.5q-52 0 -87 37t-26 94q7 27 22.5 53.5t38.5 47t52 33t59 12.5q78 0 111.5 -52t19.5 -132q-6 -35 -24.5 -76t-50 -83t-78 -84t-108.5 -78z" />
<glyph unicode="&#x201c;" horiz-adv-x="1001" d="M237 1245q6 35 23.5 76t49.5 83.5t78.5 83.5t110.5 78l68 -57q-68 -36 -115.5 -80t-77.5 -96q8 2 17 3q7 2 16 2.5t20 0.5q52 0 85.5 -37t22.5 -94q-5 -28 -20 -55t-38 -47.5t-51 -32.5t-58 -12q-78 0 -112 52.5t-19 131.5zM651 1245q6 35 23.5 76t49 83.5t78 83.5 t110.5 78l68 -57q-68 -36 -115 -80t-78 -96q8 2 17 3q8 2 17.5 2.5t19.5 0.5q25 0 47 -10t38 -27.5t23 -41.5t1 -52q-5 -28 -20.5 -55t-38.5 -47.5t-51 -32.5t-59 -12q-77 0 -110.5 52.5t-19.5 131.5z" />
<glyph unicode="&#x201d;" horiz-adv-x="1001" d="M237 1117q69 38 114.5 82t75.5 96q-9 -1 -17 -3q-7 -2 -15.5 -2.5t-17.5 -0.5q-52 0 -87 37t-26 94q7 27 22.5 53.5t38.5 47t52 33t59 12.5q78 0 111.5 -52t19.5 -132q-6 -35 -24.5 -76t-50 -83t-78 -84t-108.5 -78zM651 1117q68 38 113.5 82t76.5 96q-8 -1 -16 -3 q-7 -2 -16 -2.5t-19 -0.5q-51 0 -86 37t-26 94q6 27 22.5 53.5t39.5 47t51 33t59 12.5q77 0 110.5 -52t19.5 -132q-6 -35 -23.5 -76t-49 -83t-78 -84t-110.5 -78z" />
<glyph unicode="&#x2022;" horiz-adv-x="1120" d="M78 623q18 97 69.5 182.5t127 148.5t166.5 99.5t188 36.5q98 0 176 -36.5t129.5 -99.5t73 -148.5t4.5 -182.5q-16 -97 -68 -182t-126.5 -149t-165.5 -100.5t-188 -36.5q-98 0 -176 36.5t-130.5 100.5t-74.5 149t-5 182z" />
<glyph unicode="&#x2026;" horiz-adv-x="1503" d="M18 109q9 52 51.5 90t96.5 38q51 0 82.5 -38t22.5 -90q-5 -25 -19.5 -48t-35 -39.5t-45 -26.5t-49.5 -10q-52 0 -82.5 35.5t-21.5 88.5zM520 109q9 52 51.5 90t94.5 38q51 0 83 -38t23 -90q-4 -25 -18.5 -48t-35 -39.5t-45 -26.5t-50.5 -10q-51 0 -81.5 35.5t-21.5 88.5z M1021 109q10 52 52.5 90t93.5 38q52 0 84 -38t23 -90q-11 -51 -55 -87.5t-96 -36.5q-51 0 -81 35.5t-21 88.5z" />
<glyph unicode="&#x202f;" horiz-adv-x="486" />
<glyph unicode="&#x205f;" horiz-adv-x="607" />
<glyph unicode="&#x25fc;" horiz-adv-x="1064" d="M0 0v1064h1064v-1064h-1064z" />
<glyph unicode="&#xf700;" horiz-adv-x="1117" d="M15 900q20 74 72.5 141t130 117t174.5 80t208 30q128 0 222 -41q37 16 70.5 46.5t40.5 65.5h190q-6 -35 -24 -65.5t-43 -54t-55 -41.5t-57 -29q74 -71 102.5 -182t2.5 -263q-32 -186 -109 -323.5t-184 -226.5t-239 -129t-277 -31l-56 688l-47 96h222l45 -620q82 9 158 50 t138.5 111t107.5 166.5t66 218.5q17 97 3 172.5t-53.5 127.5t-103 79.5t-147.5 27.5q-132 0 -235.5 -54t-150.5 -157h-172z" />
<glyph unicode="&#xf701;" d="M-1143 1401l26 137h856l-25 -137h-857z" />
<glyph unicode="&#xf702;" d="M-1143 1401l26 137h681l29 158h173l-52 -295h-857z" />
<glyph unicode="&#xf703;" d="M-1143 1401l26 137h591q0 5 1.5 9.5t1.5 8.5q6 32 24.5 60.5t46.5 49.5t63 33.5t74 12.5q38 0 68.5 -12.5t49.5 -33.5t26.5 -49.5t1.5 -60.5q-6 -31 -23.5 -59.5t-44 -49.5t-61.5 -33.5t-73 -12.5h-772zM-420 1556q-6 -30 11 -49t47 -19q35 0 61 19t30 49 q5 29 -12.5 47.5t-52.5 18.5q-30 0 -54.5 -18.5t-29.5 -47.5z" />
<glyph unicode="&#xf704;" d="M-1143 1401l26 137h413l29 158h173l-27 -158h93l29 158h173l-52 -295h-857z" />
<glyph unicode="&#xf705;" d="M-496 1401l54 295h174l-53 -295h-175z" />
<glyph unicode="&#xf706;" d="M-585 1538l24 140h107q85 0 126 -33.5t26 -106.5h480l-26 -137h-622l12 60q10 39 -10.5 58t-60.5 19h-56z" />
<glyph unicode="&#xf707;" d="M-999 1401l25 143q9 52 34 90t61.5 64t81.5 39t93 13h18l122 -84l151 84h21q100 0 155.5 -52.5t37.5 -153.5v-6h374l-26 -137h-517l26 131q8 40 -7.5 62t-54.5 22h-23l-164 -90l-131 90h-12q-40 0 -65.5 -24.5t-28.5 -59.5l-3 -6h94l-23 -125h-239z" />
<glyph unicode="&#xf708;" d="M-692 1550l23 131h149l28 149h174l-27 -149h149l-21 -131h-151l-27 -149h-175l29 149h-151z" />
<glyph unicode="&#xf709;" d="M-675 1401l12 72q9 52 34.5 91.5t61 66t79 40t90.5 13.5h208l-24 -155h-154q-48 0 -82.5 -27.5t-45.5 -69.5l-6 -31h-173z" />
<glyph unicode="&#xf70a;" d="M-146 1401l53 295h174l-54 -295h-173z" />
<glyph unicode="&#xf70b;" d="M-436 1538l26 140h104q86 0 127 -33.5t27 -106.5h369l-24 -137h-514l12 60q10 39 -10.5 58t-60.5 19h-56z" />
<glyph unicode="&#xf70c;" d="M-865 1401l24 143q10 52 35 90t61.5 64t81 39t93.5 13h20l120 -84l150 84h22q100 0 155.5 -52.5t37.5 -153.5v-6h146l-25 -137h-290l26 131q7 40 -8 62t-55 22h-22l-165 -90l-130 90h-12q-40 0 -66 -24.5t-29 -59.5l-3 -6h95l-23 -125h-239z" />
<glyph unicode="&#xf70d;" d="M-416 1550l21 131h149l29 149h173l-27 -149h149l-22 -131h-149l-29 -149h-174l28 149h-148z" />
<glyph unicode="&#xf70e;" d="M-377 1401l12 72q9 52 35 91.5t61 66t79 40t90 13.5h209l-25 -155h-152q-49 0 -84 -27.5t-44 -69.5l-6 -31h-175z" />
<glyph unicode="&#xf70f;" horiz-adv-x="1942" d="M-30 0l111 641q4 29 23 50.5t40.5 39t39.5 34t21 38.5q3 18 -13.5 37t-37.5 36q-26 18 -58 36q20 82 79 147.5t142 112t181.5 71.5t199.5 25q102 0 191.5 -23t153.5 -72.5t94 -125.5t12 -182l-88 -491q-12 -70 4 -115.5t51 -73t82.5 -38t99.5 -10.5t103 10.5t94 38t75 73 t46 115.5l155 871h175l-158 -897q-19 -108 -74.5 -178t-129 -112.5t-156.5 -59t-157 -16.5q-75 0 -151.5 16.5t-135 59t-88.5 112.5t-11 178l86 499q14 70 -4.5 120t-59.5 82t-103 47t-138 15q-70 0 -133 -14.5t-114 -38.5t-85.5 -54.5t-47.5 -64.5q13 -10 28.5 -23 t28.5 -29t20.5 -35t4.5 -39q-5 -27 -21.5 -47.5t-35 -40.5t-34.5 -42t-22 -54l-83 -474h223l-27 -155h-398z" />
<glyph unicode="&#xf710;" d="M-737 1401l42 242h175l-18 -105h713l-26 -137h-886z" />
<glyph unicode="&#xf711;" d="M-520 1550q12 70 70 116t135 46q78 0 119.5 -46t29.5 -116q-6 -35 -24 -65t-45.5 -51.5t-62.5 -33.5t-73 -12q-76 0 -118.5 45.5t-30.5 116.5zM-416 1550q-7 -28 12 -48t50 -20q30 0 56 20t30 48q5 28 -13 48.5t-49 20.5q-30 0 -56 -20.5t-30 -48.5z" />
<glyph unicode="&#xf712;" d="M-1071 1524.5q-4 30.5 4 69.5q9 48 36.5 90.5t72 73t105.5 48.5t137 18h600l-21 -137h-600q-78 0 -126.5 -22t-57.5 -71q-5 -25 6 -44q5 -9 12 -15h125l282 111l279 -120l-26 -144l-274 124l-264 -105h-215q-16 11 -32 28.5t-27.5 41t-15.5 54z" />
<glyph unicode="&#xf713;" d="M-392 1791l44 232h173l-42 -232h-175z" />
<glyph unicode="&#xf714;" d="M-606 1915l21 123h96q76 0 113 -28.5t25 -94.5h333l-23 -124h-461l10 51q7 38 -10.5 55.5t-52.5 17.5h-51z" />
<glyph unicode="&#xf715;" d="M-669 1791l25 130q16 91 83 137t157 46h18l109 -75l134 75h18q92 0 142 -47.5t36 -135.5l-3 -6h131l-23 -124h-261l22 117q8 35 -6.5 55.5t-49.5 20.5h-21l-144 -82l-122 82h-12q-35 0 -55.5 -21.5t-25.5 -54.5v-6h84l-21 -111h-215z" />
<glyph unicode="&#xf716;" d="M-489 1908l19 103h134l21 119h143l-21 -119h134l-19 -103h-133l-23 -117h-143l23 117h-135z" />
<glyph unicode="&#xf717;" d="M-535 1693l9 63q6 47 29 82.5t55.5 60t73 37.5t82.5 13h186l-25 -140h-136q-45 0 -76.5 -25t-36.5 -62l-6 -29h-155z" />
<glyph unicode="&#xf718;" d="M-603 -666l24 137h267l-65 -374h-173l39 237h-92z" />
<glyph unicode="&#xf719;" d="M-953 -666l26 137h235l-33 -190q-5 -24 1.5 -40t19 -25t31 -12.5t38.5 -3.5q39 0 72.5 16t42.5 65l35 190h173l-33 -199q-9 -50 -36.5 -88t-69 -64.5t-95 -39.5t-114.5 -13q-129 0 -191.5 52.5t-48.5 152.5l9 62h-62z" />
<glyph unicode="&#xf71a;" d="M-588 -657q9 54 52.5 91t96.5 37t84 -37t22 -91q-9 -53 -52.5 -90t-96.5 -37q-55 0 -85 37t-21 90z" />
<glyph unicode="&#xf71b;" />
<glyph unicode="&#xf71c;" />
<glyph unicode="&#xf71d;" />
<glyph unicode="&#xf880;" />
<glyph horiz-adv-x="638" d="M-520 1550q12 70 70 116t135 46q78 0 119.5 -46t29.5 -116q-6 -35 -24 -65t-45.5 -51.5t-62.5 -33.5t-73 -12q-76 0 -118.5 45.5t-30.5 116.5zM-416 1550q-7 -28 12 -48t50 -20q30 0 56 20t30 48q5 28 -13 48.5t-49 20.5q-30 0 -56 -20.5t-30 -48.5zM81 1084l28 158 q101 15 195 9.5t163.5 -36.5t105 -92t18.5 -155l-171 -968h-174l164 933q10 55 -12.5 90t-68 52.5t-110 19t-138.5 -10.5z" />
<glyph d="M-734 1569q9 63 57.5 114t112.5 82q14 6 30.5 12t35 11.5t36 9t29.5 5.5q-35 18 -42.5 48.5t-3.5 63.5q6 31 25 62.5t50.5 61.5t71.5 55.5t89 44.5q53 19 115.5 30t122.5 14.5t112.5 3.5t85.5 -1l-27 -154q-76 9 -157.5 7t-150 -16.5t-116.5 -42t-54 -69.5 q-4 -25 10.5 -38t40 -18t59 -5h65.5l-24 -145q-72 10 -141.5 5t-126.5 -20.5t-94.5 -42.5t-43.5 -60q-5 -26 16.5 -34.5t48.5 -8.5q57 0 102.5 15.5t84.5 34.5l54 -124q-28 -14 -62 -27.5t-74.5 -25t-84.5 -16t-91 -0.5q-87 10 -129.5 58.5t-31.5 109.5z" />
<glyph />
<glyph />
<glyph d="M-1143 1401l26 137h413l29 158h173l-27 -158h93l29 158h173l-52 -295h-857zM-529 1791l44 232h173l-42 -232h-175z" />
<glyph d="M-1114 1462l24 137h888l-26 -137h-886z" />
<glyph d="M-1114 1462l24 137h713l29 160h173l-53 -297h-886z" />
</font>
</defs>
</svg>
