<?xml version="1.0" standalone="no"?>
<!DOCTYPE svg PUBLIC "-//W3C//DTD SVG 1.1//EN" "http://www.w3.org/Graphics/SVG/1.1/DTD/svg11.dtd" >
<svg xmlns="http://www.w3.org/2000/svg" xmlns:xlink="http://www.w3.org/1999/xlink" version="1.1">
<metadata></metadata>
<defs>
<font id="psl_kanda_probold" horiz-adv-x="0" >
<font-face units-per-em="2048" ascent="1638" descent="-410" />
<missing-glyph horiz-adv-x="747" />
<glyph unicode="&#xe37;&#xe48;" d="M-1012 1401v137h477v158h173v-158h94v158h175v-295h-919zM-404 1791v232h173v-232h-173z" />
<glyph unicode="&#xd;" horiz-adv-x="747" />
<glyph unicode=" "  horiz-adv-x="747" />
<glyph unicode="&#x09;" horiz-adv-x="747" />
<glyph unicode="&#xa0;" horiz-adv-x="747" />
<glyph unicode="!" horiz-adv-x="522" d="M149 0v228h225v-228h-225zM166 1009v458h193v-458l-53 -632h-86z" />
<glyph unicode="&#x22;" horiz-adv-x="855" d="M220 936v531h139v-531h-139zM502 936v531h136v-531h-136z" />
<glyph unicode="#" horiz-adv-x="1120" d="M68 424v140h215l44 307h-205v141h223l56 420h140l-59 -420h249l59 420h140l-59 -420h181v-141h-199l-40 -307h180v-140h-203l-59 -424h-137l60 424h-253l-56 -424h-140l56 424h-193zM424 564h248l41 307h-249z" />
<glyph unicode="$" horiz-adv-x="1304" d="M74 482h181q-3 -76 23 -136t71.5 -104t106.5 -71.5t129 -36.5v552q-105 25 -190.5 52t-147.5 71t-95 114t-33 182q0 90 37 160.5t101 120t149 77.5t179 34v202h137v-202q117 -10 198.5 -49.5t134 -101.5t79 -141t33.5 -168h-177q-14 115 -80 196.5t-188 102.5v-502 q96 -24 187 -50t162.5 -71.5t115 -122t43.5 -204.5q0 -97 -41 -171.5t-111 -127t-162 -82t-194 -35.5v-204h-137v204q-103 9 -196.5 44.5t-164 99.5t-112 155t-38.5 213zM312 1105q0 -61 15 -98t47.5 -61.5t85 -40.5t125.5 -34v468q-59 -6 -109 -23.5t-86.5 -47t-57 -70.5 t-20.5 -93zM722 134q70 4 128.5 21.5t100.5 49.5t65.5 77.5t23.5 106.5q0 62 -21.5 104t-62.5 71t-100.5 48.5t-133.5 38.5v-517z" />
<glyph unicode="%" horiz-adv-x="2014" d="M187 1055q0 76 16.5 148t54 128.5t98 90.5t149.5 34q95 0 159 -33.5t101.5 -89t53 -126t15.5 -143.5q0 -78 -16.5 -155.5t-54.5 -139t-99.5 -99.5t-149.5 -38q-91 0 -153.5 33t-101.5 90t-55.5 133.5t-16.5 166.5zM336 1052q0 -52 7 -106t26 -98t53 -72t89 -28 q53 0 87 29t54.5 74.5t27.5 101t6 108.5q-4 49 -11.5 99t-26.5 90t-52.5 66t-87.5 26q-49 0 -82.5 -27.5t-53 -69t-28 -93.5t-8.5 -100zM380 -47l1081 1532h170l-1081 -1532h-170zM1183 401q0 76 16.5 148.5t54.5 128.5t99 90.5t147 34.5q96 0 160 -33.5t101 -89t53 -126.5 t16 -144q0 -77 -16.5 -154.5t-54.5 -139t-99.5 -99.5t-150.5 -38q-91 0 -153 32t-101 89t-55.5 134.5t-16.5 166.5zM1333 398q0 -51 7 -105t25 -99t52.5 -73t88.5 -28t88 29.5t54.5 75t27.5 101t5 108.5q-3 49 -10.5 99t-26 90.5t-52.5 66.5t-89 26q-48 0 -81 -27.5 t-52.5 -69.5t-28 -93.5t-8.5 -100.5z" />
<glyph unicode="&#x26;" horiz-adv-x="1270" d="M68 380q0 82 24.5 145t69.5 115t106.5 95t135.5 87q-33 41 -62.5 82t-51 82.5t-34.5 84.5t-13 90q0 66 23.5 122t67 97t104.5 64t135 23q76 0 139 -22t108 -62.5t70 -96.5t25 -125q0 -67 -23 -121t-60 -98t-86.5 -81t-101.5 -71l265 -317q38 105 47 219h161 q-9 -101 -32 -190t-61 -166l277 -336h-226l-148 181q-79 -96 -179 -152t-219 -56q-90 0 -173.5 22t-147.5 71.5t-102 127t-38 186.5zM249 380q0 -55 23.5 -100.5t63 -79t91.5 -51.5t108 -18q96 0 168 46t125 129l-326 401q-51 -28 -96.5 -56t-80.5 -65t-55.5 -86.5 t-20.5 -119.5zM413 1161q0 -64 27.5 -114t76.5 -103l33 -38q43 26 77 51.5t59 55.5t39 65.5t15 79.5q0 69 -46 112t-115 43q-73 0 -119.5 -43t-46.5 -109z" />
<glyph unicode="'" horiz-adv-x="557" d="M211 936v531h137v-531h-137z" />
<glyph unicode="(" horiz-adv-x="522" d="M93 558q1 146 27 281t69.5 254.5t100.5 222t120 184.5h134q-70 -114 -120 -222t-83.5 -220.5t-49.5 -234.5t-17 -265q-2 -148 14 -274t50 -241.5t85 -226.5t118 -226h-128q-63 100 -121.5 208t-103.5 226.5t-71 250.5t-24 283z" />
<glyph unicode=")" horiz-adv-x="522" d="M-24 1500h133q64 -82 121 -184.5t100.5 -222t69.5 -254.5t27 -281q2 -151 -24 -283t-71 -250.5t-103.5 -226.5t-122.5 -208h-127q67 115 117.5 226t85 226.5t50.5 241.5t14 274q-1 143 -17 265t-49.5 234.5t-83.5 220.5t-120 222z" />
<glyph unicode="*" horiz-adv-x="722" d="M50 1218l37 98l219 -80v231h107v-231l219 80l40 -98l-221 -78l134 -187l-83 -62l-143 196l-131 -196l-94 62l134 187z" />
<glyph unicode="+" horiz-adv-x="1136" d="M93 448v140h406v402h139v-402h405v-140h-405v-407h-139v407h-406z" />
<glyph unicode="," horiz-adv-x="501" d="M112 106q0 25 10 48.5t27.5 41.5t42 29.5t51.5 11.5q70 0 109.5 -46.5t39.5 -119.5q0 -65 -43 -145.5t-144 -145.5l-71 48q56 35 90 75.5t53 87.5l-14 -3q-8 -2 -14.5 -2.5t-14.5 -0.5q-47 0 -84.5 35t-37.5 86z" />
<glyph unicode="-" horiz-adv-x="784" d="M100 489v165h586v-165h-586z" />
<glyph unicode="." horiz-adv-x="501" d="M125 109q0 52 36.5 90t87.5 38q52 0 90 -38t38 -90q0 -51 -38 -87.5t-90 -36.5q-51 0 -87.5 35.5t-36.5 88.5z" />
<glyph unicode="/" horiz-adv-x="671" d="M-38 -35l596 1535h149l-598 -1535h-147z" />
<glyph unicode="0" horiz-adv-x="1136" d="M81 751q0 137 19.5 264t73.5 225t149 157t244 59q103 0 180 -28t130 -77.5t86.5 -115.5t52.5 -142t26 -159t7 -165q0 -169 -14.5 -314.5t-64.5 -253t-148 -168t-264 -60.5q-146 0 -239 57.5t-146 161.5t-72.5 247t-19.5 312zM268 748q0 -114 7.5 -226t37 -199t89 -141 t162.5 -54q102 0 162 51.5t91 139t39.5 203.5t8.5 244q0 90 -9 185.5t-39.5 174.5t-89 130t-157.5 51q-68 0 -117.5 -24t-84 -66t-54 -97.5t-30 -118t-13.5 -127.5t-3 -126z" />
<glyph unicode="1" horiz-adv-x="1136" d="M175 1043v140q74 0 144 11t126.5 42.5t96 84.5t52.5 135h134v-1456h-178v1043h-375z" />
<glyph unicode="2" horiz-adv-x="1136" d="M47 0q3 129 42.5 225t108 171t160.5 137.5t200 126.5q68 42 119 83t84.5 87.5t50 101t16.5 123.5q0 45 -21 89.5t-58.5 79.5t-90 56t-114.5 21q-67 0 -121.5 -29.5t-92 -79.5t-55.5 -115.5t-11 -137.5h-177q-6 125 26.5 221.5t97 162.5t156.5 99.5t203 33.5 q90 0 169.5 -28t139.5 -79.5t95 -124t35 -160.5q0 -129 -40 -219t-104 -155t-144 -114.5t-157 -96.5q-53 -32 -107 -68.5t-99 -77.5t-75.5 -86.5t-36.5 -94.5h753v-152h-952z" />
<glyph unicode="3" horiz-adv-x="1136" d="M59 451h172q0 -80 24.5 -140t67.5 -100.5t101.5 -60t125.5 -19.5q63 0 118.5 20.5t97 57t66 86.5t24.5 109q0 90 -35 149.5t-92 92.5t-131.5 41.5t-152.5 -1.5v148q55 -4 116.5 1.5t114 32t86.5 78t34 141.5q0 47 -18 85.5t-51.5 67.5t-78.5 45t-98 16q-80 0 -135 -26.5 t-88.5 -70.5t-48 -101t-14.5 -117h-174q0 93 25.5 177.5t81 150t141.5 104t206 38.5q97 0 178.5 -26.5t139.5 -76t89.5 -118t31.5 -151.5q0 -111 -53.5 -185.5t-154.5 -123.5q73 -17 124 -51t83.5 -82.5t48 -108.5t15.5 -129q0 -103 -42 -183t-110.5 -134.5t-158 -82.5 t-185.5 -28q-118 0 -209.5 32.5t-154.5 94t-95 149.5t-32 199z" />
<glyph unicode="4" horiz-adv-x="1136" d="M53 342v169l666 945h152v-960h184v-154h-184v-342h-176v342h-642zM208 496h487v690z" />
<glyph unicode="5" horiz-adv-x="1136" d="M68 392h175q0 -58 25 -106.5t67 -82.5t96.5 -53t112.5 -19q73 0 131.5 25t98 70.5t61 111t21.5 147.5q0 67 -22 125.5t-64 101.5t-104.5 68.5t-142.5 25.5q-64 0 -112 -22t-83 -48q-39 -31 -70 -70l-149 9l134 757h719v-152h-585l-81 -424q61 58 124 80.5t150 22.5 q119 0 207.5 -39.5t148 -104t88.5 -148t29 -171.5q0 -119 -37.5 -215t-102.5 -163.5t-155.5 -104.5t-197.5 -37q-109 0 -198 31t-152 85.5t-97.5 131.5t-34.5 168z" />
<glyph unicode="6" horiz-adv-x="1136" d="M74 713q0 138 27 271t88.5 238t159.5 169.5t242 64.5q110 0 189 -29.5t130.5 -79.5t77.5 -118t30 -145h-168q-8 36 -22.5 74t-42.5 70t-72 52.5t-110 20.5q-107 0 -174 -51t-106 -130.5t-55 -177.5t-22 -194q70 97 156 141t215 44q108 0 191.5 -35.5t140.5 -98.5t86 -149 t29 -186q0 -102 -31 -191t-92.5 -155t-154.5 -104t-216 -38q-137 0 -231 50t-153.5 144t-85.5 232t-26 311zM283 464q0 -63 19.5 -123t57 -107t90 -75t117.5 -28q81 0 138.5 26.5t95.5 72t55.5 105t17.5 126.5q0 66 -19 124.5t-56 102t-94 68.5t-135 25q-64 0 -116.5 -25.5 t-90.5 -70t-59 -101.5t-21 -120z" />
<glyph unicode="7" horiz-adv-x="1136" d="M100 1268v164h943v-149q-120 -125 -223 -271t-177.5 -308.5t-116 -339.5t-41.5 -364h-196q0 173 51 356.5t133 353.5t184.5 315t204.5 243h-762z" />
<glyph unicode="8" horiz-adv-x="1136" d="M74 398q0 139 67 238.5t177 150.5q-87 49 -137 128t-50 175q0 76 34 143t92.5 116t137.5 78t169 29q88 0 166.5 -29t136 -78t92 -116t34.5 -143q0 -96 -49 -173.5t-135 -126.5q115 -51 183.5 -146t68.5 -234q0 -88 -38 -167.5t-105 -140.5t-156.5 -96.5t-191.5 -35.5 q-105 0 -196 33t-157.5 92t-104.5 136.5t-38 166.5zM268 413q0 -60 19.5 -111t58.5 -88.5t96 -58.5t131 -21q62 0 117.5 21t97.5 58.5t66.5 88.5t24.5 111t-24.5 111t-66.5 88t-97.5 58.5t-117.5 21.5q-64 0 -119.5 -21.5t-96.5 -58.5t-65 -88t-24 -111zM315 1072 q0 -49 20.5 -91.5t54.5 -74.5t79.5 -50t97.5 -18t97.5 18t79.5 50t54.5 74.5t20.5 91.5q0 47 -20.5 89.5t-54.5 74.5t-79 50t-95 18q-53 0 -99.5 -18t-80.5 -50t-54.5 -74.5t-20.5 -89.5z" />
<glyph unicode="9" horiz-adv-x="1136" d="M62 968q0 102 31.5 191t93 155t155 104t216.5 38q137 0 231 -50t152.5 -144.5t84.5 -232t26 -310.5q0 -138 -26.5 -271t-88 -238t-160.5 -169.5t-242 -64.5q-109 0 -187.5 29.5t-130 79.5t-77.5 118t-31 145h168q9 -36 24 -74t42.5 -70t71 -52.5t108.5 -20.5 q106 0 174 51t106.5 130.5t55.5 178.5t23 195q-35 -49 -74 -85t-83 -58.5t-97 -33t-117 -10.5q-110 0 -193.5 35.5t-140.5 98.5t-86 149t-29 186zM252 971q0 -67 19 -125.5t56.5 -101.5t95 -68t135.5 -25q62 0 114.5 25.5t90.5 69.5t59.5 101t21.5 121t-20 123.5 t-56.5 106.5t-89 75t-117.5 28q-81 0 -139.5 -26.5t-96.5 -72t-55.5 -105.5t-17.5 -126z" />
<glyph unicode=":" horiz-adv-x="501" d="M125 109q0 52 36.5 90t87.5 38q52 0 90 -38t38 -90q0 -51 -38 -87.5t-90 -36.5q-51 0 -87.5 35.5t-36.5 88.5zM125 879q0 51 36.5 89t87.5 38q52 0 90 -38t38 -89q0 -28 -10.5 -50.5t-28 -39.5t-40.5 -26t-49 -9q-51 0 -87.5 35t-36.5 90z" />
<glyph unicode=";" horiz-adv-x="501" d="M112 106q0 25 10 48.5t27.5 41.5t42 29.5t51.5 11.5q70 0 109.5 -46.5t39.5 -119.5q0 -65 -43 -145.5t-144 -145.5l-71 48q56 35 90 75.5t53 87.5l-14 -3q-8 -2 -14.5 -2.5t-14.5 -0.5q-47 0 -84.5 35t-37.5 86zM125 879q0 51 36.5 89t87.5 38q52 0 90 -38t38 -89 q0 -28 -10.5 -50.5t-28 -39.5t-40.5 -26t-49 -9q-51 0 -87.5 35t-36.5 90z" />
<glyph unicode="&#x3c;" horiz-adv-x="1208" d="M90 458v124l1027 473v-140l-859 -395l859 -395v-140z" />
<glyph unicode="=" horiz-adv-x="1136" d="M93 249v140h950v-140h-950zM93 648v139h950v-139h-950z" />
<glyph unicode="&#x3e;" horiz-adv-x="1208" d="M90 -15v140l860 395l-860 395v140l1027 -473v-124z" />
<glyph unicode="?" horiz-adv-x="1136" d="M106 1009q-1 105 30 195t89.5 156t143 103t189.5 37q93 0 171 -27t134.5 -79.5t88 -129.5t31.5 -174q0 -64 -14 -114t-38 -92t-55 -77t-63 -67q-35 -32 -67 -64t-57 -67.5t-39.5 -77.5t-14.5 -92v-68h-171v83q0 64 17.5 113.5t44 90t59 74t63.5 64.5q28 29 58 60.5 t52.5 68t35.5 81t9 102.5q-8 114 -72 177t-173 63q-72 0 -124 -26.5t-87 -72t-52.5 -108t-17.5 -132.5h-171zM420 119q0 56 37 93t93 37q58 0 95 -37t37 -93q0 -58 -37 -96t-95 -38q-56 0 -93 38t-37 96z" />
<glyph unicode="@" horiz-adv-x="1643" d="M87 754q0 173 62 311.5t167 235t243.5 148t290.5 51.5q159 0 287.5 -51t220 -139.5t140.5 -210.5t49 -261q0 -89 -36.5 -187.5t-102.5 -182t-158 -139t-201 -55.5q-50 0 -78.5 41.5t-37.5 94.5q-64 -68 -130.5 -105t-148.5 -37q-76 0 -138 42.5t-97.5 115.5t-40 168.5 t34.5 201.5q32 86 76.5 155.5t102 120t130.5 77.5t163 27q57 0 96.5 -26.5t65.5 -56.5q28 -40 46 -84l47 131h131l-187 -644q-11 -37 -4 -61.5t23 -35.5t38.5 -9.5t44.5 14.5q33 23 72 66.5t72 102t55.5 127t22.5 141.5q0 114 -41.5 213.5t-116 173t-177.5 115.5t-226 42 q-119 0 -233 -41t-203.5 -122.5t-144.5 -200t-55 -273.5q0 -152 47.5 -276t131 -211.5t199 -135t252.5 -47.5q88 0 160 13.5t134.5 44t119.5 77.5t118 114h121q-39 -78 -106 -144.5t-153.5 -114.5t-188.5 -75.5t-212 -27.5q-159 0 -296 52.5t-237 153t-157 247t-57 336.5z M540.5 652.5q-6.5 -64.5 7 -119t50.5 -90.5t103 -36q45 0 87 20t79 54t68.5 81.5t54.5 103.5q33 77 36 145t-16 118t-57 79t-88 29q-58 0 -104.5 -23t-83 -60t-63 -84.5t-44.5 -94.5q-23 -58 -29.5 -122.5z" />
<glyph unicode="A" horiz-adv-x="1304" d="M-15 0l562 1467h210l562 -1467h-211l-155 442h-608l-161 -442h-199zM407 606h484l-240 686z" />
<glyph unicode="B" horiz-adv-x="1378" d="M155 0v1467h638q124 0 207.5 -32t134.5 -82t73 -111.5t22 -121.5q0 -118 -51 -207t-161 -138q63 -21 113 -50.5t85 -73t54 -103t19 -138.5q0 -94 -35 -169t-95 -129t-143 -83t-178 -29h-683zM348 166h395q69 0 132.5 8t113 35.5t80 81.5t30.5 145q0 76 -31 122.5 t-84.5 71.5t-125 33.5t-151.5 8.5h-359v-506zM348 838h359q67 0 127 8t104.5 31.5t71.5 68t27 115.5q0 88 -29 136.5t-75.5 71.5t-104 27.5t-115.5 4.5h-365v-463z" />
<glyph unicode="C" horiz-adv-x="1453" d="M84 757q0 150 46 285.5t133 236.5t211.5 161t279.5 60q125 0 231 -34t185 -96.5t128 -150.5t59 -195h-190q-13 67 -45 125t-83 99.5t-122.5 66t-162.5 24.5q-120 0 -210 -51t-149 -133.5t-88.5 -188.5t-29.5 -215q0 -117 25.5 -228t82 -197.5t144.5 -139t211 -52.5 q91 0 166.5 23.5t132.5 73.5t92.5 130t48.5 194h190q-16 -137 -64.5 -246.5t-127.5 -187t-188.5 -118.5t-246.5 -41q-158 0 -281 56t-207.5 159.5t-127.5 251t-43 328.5z" />
<glyph unicode="D" horiz-adv-x="1419" d="M155 0v1467h514q178 0 305.5 -54t209 -146t120 -214.5t38.5 -259.5q0 -206 -44 -356t-130.5 -247t-213.5 -143.5t-291 -46.5h-508zM348 166h293q165 0 263.5 54t152.5 142t71.5 200.5t17.5 230.5q0 148 -38 246t-106.5 156.5t-165.5 82t-216 23.5h-272v-1135z" />
<glyph unicode="E" horiz-adv-x="1229" d="M155 0v1467h994v-166h-801v-463h748v-166h-748v-506h807v-166h-1000z" />
<glyph unicode="F" horiz-adv-x="1155" d="M155 0v1467h947v-166h-754v-463h661v-166h-661v-672h-193z" />
<glyph unicode="G" horiz-adv-x="1529" d="M84 751q0 147 46 283t134.5 239.5t215 165t289.5 61.5q148 0 255.5 -35t181.5 -98.5t118 -152.5t64 -196h-186q-26 73 -56 132.5t-78 101.5t-118.5 64.5t-177.5 22.5q-123 0 -215.5 -51t-156 -135t-95 -191.5t-31.5 -221.5q0 -127 34 -237.5t98 -192.5t155 -129t205 -47 q103 0 189 32t147.5 92.5t96 148t34.5 199.5h-461v166h632v-772h-121l-47 184q-53 -59 -106.5 -100t-112 -68t-125.5 -39t-144 -12q-149 0 -271.5 60t-210 165.5t-135 249.5t-47.5 311z" />
<glyph unicode="H" horiz-adv-x="1453" d="M155 0v1467h193v-629h757v629h190v-1467h-190v672h-757v-672h-193z" />
<glyph unicode="I" horiz-adv-x="522" d="M166 0v1467h193v-1467h-193z" />
<glyph unicode="J" horiz-adv-x="1045" d="M47 482h187q-2 -30 -2 -58q0 -140 51 -211q61 -85 184 -85q63 0 105 19.5t67 50t37.5 69.5t15.5 76q4 32 4 62v9q-1 33 -1 53v1000h193v-1075q0 -118 -32 -199.5t-88.5 -131.5t-134 -73t-166.5 -23q-230 0 -329 125q-92 116 -92 349q0 21 1 43z" />
<glyph unicode="K" horiz-adv-x="1342" d="M155 0v1467h193v-733l733 733h241l-603 -593l629 -874h-240l-520 740l-240 -226v-514h-193z" />
<glyph unicode="L" horiz-adv-x="1120" d="M155 0v1467h193v-1301h763v-166h-956z" />
<glyph unicode="M" horiz-adv-x="1752" d="M161 0v1467h263l450 -1233l454 1233h266v-1467h-180v1233l-455 -1233h-163l-454 1245v-1245h-181z" />
<glyph unicode="N" horiz-adv-x="1453" d="M155 0v1467h199l766 -1190v1190h178v-1467h-202l-760 1183v-1183h-181z" />
<glyph unicode="O" horiz-adv-x="1532" d="M74 737q0 160 49.5 300.5t140 244.5t219 164t286.5 60q152 0 278 -60t217.5 -164t141.5 -244.5t50 -300.5q0 -159 -49.5 -300t-139 -245.5t-216.5 -165.5t-282 -61q-161 0 -289.5 61t-219 165.5t-138.5 245.5t-48 300zM268 734q0 -126 34 -236t99.5 -192.5t158 -130 t209.5 -47.5t210 47.5t158 130t99.5 192.5t34.5 236t-36 237t-101 193t-158 130t-207 48q-118 0 -211 -48t-157.5 -130t-98.5 -193t-34 -237z" />
<glyph unicode="P" horiz-adv-x="1304" d="M155 0v1467h573q243 0 372.5 -103.5t129.5 -317.5q0 -132 -41 -219t-106 -137t-143 -70t-153 -20h-439v-600h-193zM348 766h347q65 0 126.5 8.5t109.5 36.5t77 82t29 144q0 133 -88.5 200t-235.5 67h-365v-538z" />
<glyph unicode="Q" horiz-adv-x="1532" d="M74 737q0 160 49.5 300.5t140 244.5t219 164t286.5 60q152 0 278 -60t217.5 -164t141.5 -244.5t50 -300.5q0 -175 -57.5 -324t-162.5 -258l193 -155l-101 -128l-223 184q-73 -44 -156.5 -67.5t-179.5 -23.5q-161 0 -289.5 61t-219 165.5t-138.5 245.5t-48 300zM268 734 q0 -126 34 -236t99.5 -192.5t158 -130t209.5 -47.5q53 0 102.5 10.5t93.5 30.5l-159 130l100 121l193 -156q82 87 127 207t45 263q0 126 -36 237t-101 193t-158 130t-207 48q-118 0 -211 -48t-157.5 -130t-98.5 -193t-34 -237z" />
<glyph unicode="R" horiz-adv-x="1378" d="M155 0v1467h676q83 0 161 -20.5t140.5 -64.5t100.5 -113.5t38 -166.5q0 -73 -12.5 -134.5t-42 -111.5t-77.5 -87.5t-121 -61.5q64 -14 103.5 -40t63 -61.5t33.5 -79.5t15 -93q6 -67 9.5 -130.5t12 -120.5t24.5 -103.5t46 -78.5h-214q-20 20 -28 54t-12 81t-6.5 104 t-9.5 123q-8 73 -27 124t-51.5 82t-79 44.5t-110.5 13.5h-439v-626h-193zM348 790h389q78 0 141 12.5t108.5 43t70 80.5t24.5 126t-22 124.5t-64.5 76t-105 38t-141.5 10.5h-400v-511z" />
<glyph unicode="S" horiz-adv-x="1304" d="M74 482h181v-14q1 -78 31 -138q34 -66 90 -110t129.5 -66.5t151.5 -22.5q83 0 153 15t121 46t80 80t29 117q0 73 -30 118.5t-85.5 75.5t-135 50.5t-179.5 44.5q-110 27 -200.5 53.5t-155 71.5t-100 116t-35.5 186q0 96 42.5 169.5t114.5 124t165.5 76t196.5 25.5 q142 0 239 -35.5t159.5 -98t93 -147.5t37.5 -182h-177q-8 67 -32.5 123t-67 96.5t-103 63t-139.5 22.5q-72 0 -133.5 -15t-106.5 -45t-70.5 -74t-25.5 -103q0 -68 19 -107t61.5 -63.5t109 -41.5t161.5 -43q68 -19 136.5 -34.5t131.5 -37t118 -51t95 -75.5t63 -110.5 t23 -155.5q0 -103 -47.5 -182t-126.5 -132.5t-182 -80t-214 -26.5q-114 0 -220.5 32t-188.5 96t-131 161q-46 91 -46 213v15z" />
<glyph unicode="T" horiz-adv-x="1155" d="M3 1301v166h1149v-166h-477v-1301h-193v1301h-479z" />
<glyph unicode="U" horiz-adv-x="1453" d="M149 508v959h193v-950q0 -82 23.5 -152t70.5 -122.5t116.5 -82t160.5 -29.5q83 0 156 20.5t128 66.5t86 120t31 182v947h190v-941q0 -143 -41.5 -248.5t-117.5 -175.5t-185.5 -105t-243.5 -35q-125 0 -229 35t-179 103.5t-117 170t-42 237.5z" />
<glyph unicode="V" horiz-adv-x="1229" d="M-3 1467h208l412 -1271l417 1271h202l-511 -1467h-217z" />
<glyph unicode="W" horiz-adv-x="1865" d="M24 1467h196l285 -1227l323 1227h206l323 -1233l292 1233h190l-383 -1467h-199l-333 1233l-333 -1233h-199z" />
<glyph unicode="X" horiz-adv-x="1229" d="M0 0l502 754l-475 713h228l358 -573l380 573h212l-480 -713l508 -754h-234l-382 606l-400 -606h-217z" />
<glyph unicode="Y" horiz-adv-x="1304" d="M3 1467h228l432 -698l424 698h214l-550 -870v-597h-193v597z" />
<glyph unicode="Z" horiz-adv-x="1229" d="M47 0v166l897 1135h-832v166h1049v-166l-893 -1135h918v-166h-1139z" />
<glyph unicode="[" horiz-adv-x="522" d="M146 -407v1907h377v-137h-217v-1631h217v-139h-377z" />
<glyph unicode="\" horiz-adv-x="671" d="M-38 1500h147l598 -1535h-149z" />
<glyph unicode="]" horiz-adv-x="522" d="M0 -268h217v1631h-217v137h377v-1907h-377v139z" />
<glyph unicode="^" horiz-adv-x="1208" d="M100 541l438 891h131l439 -891h-140l-368 742l-357 -742h-143z" />
<glyph unicode="_" horiz-adv-x="1136" d="M0 -152h1137v-141h-1137v141z" />
<glyph unicode="`" horiz-adv-x="448" d="M-47 1500h222l173 -292h-131z" />
<glyph unicode="a" horiz-adv-x="1080" d="M78 277q0 94 33 152.5t88 94t125 53t143 29.5q73 14 130 22.5t96.5 23t60.5 41t21 76.5q0 78 -55.5 121t-178.5 43q-73 0 -121 -14.5t-76.5 -41t-41.5 -63.5t-16 -83h-174q2 75 28.5 139.5t80 111.5t133 74.5t187.5 27.5q88 0 163.5 -14t130 -46.5t85 -85.5t30.5 -132 v-598q0 -58 20 -72q9 -6 26 -6q21 0 56 10v-140q-35 -18 -83 -24q-17 -2 -33 -2q-30 0 -58 8q-42 12 -70 49q-23 30 -22 84q0 12 1 25q-47 -46 -88 -77t-84 -51t-91 -28t-108 -8q-88 0 -151.5 22t-105.5 62t-61.5 95t-19.5 122zM252 286q8 -82 60.5 -118.5t166.5 -36.5 q53 0 105.5 18t94 51t67.5 78.5t26 101.5v164q-39 -20 -75 -30.5t-72.5 -16.5t-73.5 -10.5t-78 -10.5q-44 -8 -85 -23t-72.5 -38t-49.5 -55q-15 -27 -14 -62v-12z" />
<glyph unicode="b" horiz-adv-x="1191" d="M134 0v1467h172v-558q30 55 68 90t82 54t92 26.5t96 7.5q111 0 199.5 -42.5t150.5 -115t95.5 -169t33.5 -202.5q0 -123 -23.5 -214.5t-61.5 -156.5t-87.5 -106t-102 -65.5t-104 -33.5t-93.5 -9q-92 0 -155.5 26.5t-106.5 59.5q-49 38 -83 87v-146h-172zM299 532 q0 -76 17.5 -148t57 -128.5t103.5 -90.5t158 -34q84 0 142.5 37t94 97t51.5 137t16 156q0 71 -20.5 138t-59 119.5t-95 83.5t-129.5 31q-91 0 -155 -31t-104 -86t-58.5 -127t-18.5 -154z" />
<glyph unicode="c" horiz-adv-x="1080" d="M74 535q0 117 32 218t93.5 175t153.5 116.5t211 42.5q109 0 191.5 -29t137 -79t83.5 -116.5t33 -140.5h-171q-19 96 -85.5 153.5t-185.5 57.5q-84 0 -143 -32.5t-97 -87.5t-56.5 -126t-18.5 -149q0 -74 16 -147t52 -131t94.5 -93.5t143.5 -35.5q128 0 200 72t86 186h174 q-28 -196 -144 -304.5t-310 -108.5q-122 0 -213 39.5t-152.5 112.5t-93 176t-31.5 231z" />
<glyph unicode="d" horiz-adv-x="1191" d="M68 558q0 106 33.5 202.5t96 169t150.5 115t199 42.5q50 0 99 -10t93.5 -32t82.5 -55.5t66 -80.5v558h170v-1467h-170v146q-28 -49 -75 -87q-39 -33 -105.5 -59.5t-166.5 -26.5q-42 0 -94 10.5t-104.5 36.5t-101.5 69t-87 107.5t-62 153.5t-24 208zM252 558 q0 -79 15.5 -156t51 -137t94 -97t145.5 -37q93 0 156.5 34t104 90.5t58 128.5t17.5 148q0 82 -18.5 154t-58.5 127t-103 86t-153 31q-73 0 -130 -31t-96.5 -83.5t-61 -119.5t-21.5 -138z" />
<glyph unicode="e" horiz-adv-x="1080" d="M71 514q0 115 30.5 219.5t92 182.5t155 124.5t221.5 46.5q120 0 210.5 -53.5t147.5 -139.5q58 -84 85 -194q22 -90 22 -181q0 -20 -1 -40h-782q-1 -11 -1 -23q1 -50 15 -100q18 -62 57.5 -111.5t101 -81.5t145.5 -32q50 0 95 10.5t81.5 35t62 63t38.5 96.5h168 q-18 -82 -53 -149t-89.5 -114t-130.5 -72t-178 -25q-114 0 -205 41t-155 113t-98.5 171t-34.5 213zM255 632h595q0 64 -23 119.5t-63 96.5t-95 64.5t-119 23.5q-62 0 -115 -24t-93.5 -66t-63.5 -97.5t-23 -116.5z" />
<glyph unicode="f" horiz-adv-x="594" d="M21 1061h178v160q0 77 25 127t64.5 80.5t87 43.5t91.5 16h24q30 0 55 -4q36 -7 51 -14v-154q-33 11 -73 15q-11 1 -22 1q-27 0 -52 -6q-34 -10 -56.5 -34t-22.5 -71v-160h199v-152h-199v-909h-172v909h-175z" />
<glyph unicode="g" horiz-adv-x="1155" d="M74 541q0 105 30 203t88.5 174t143.5 122.5t196 46.5q68 0 121.5 -15.5t94.5 -40.5t70 -57t47 -65v152h163v-990q0 -89 -22.5 -179t-75.5 -162t-142.5 -117.5t-223.5 -45.5q-97 0 -180 20.5t-143 60.5t-94.5 98.5t-34.5 134.5h171q1 -42 24 -74.5t61 -55t88 -33.5 t108 -11q82 0 138 31t91 86.5t52 131.5t20 166l3 68q-26 -53 -62.5 -91t-78 -63t-88 -36.5t-92.5 -11.5q-131 0 -220.5 46.5t-145.5 124t-81.5 177t-25.5 205.5zM252 544q0 -73 15.5 -145t51 -129t92.5 -92t139 -35q79 0 137 35.5t96 92.5t55.5 130t17.5 146 q0 84 -17.5 155.5t-55.5 122.5t-98 79.5t-144 28.5q-70 0 -124 -32t-90.5 -85.5t-55.5 -124.5t-19 -147z" />
<glyph unicode="h" horiz-adv-x="1120" d="M128 0v1467h171v-570q20 42 49.5 78t73 60t101.5 38t134 14q68 0 129 -22t106.5 -65.5t71.5 -108t26 -151.5v-740h-168v731q0 27 -10.5 63t-35 66.5t-65.5 51.5t-101 21q-67 0 -124 -21t-98 -62t-65 -102.5t-24 -141.5v-606h-171z" />
<glyph unicode="i" horiz-adv-x="448" d="M140 0v1061h172v-1061h-172zM140 1254v213h172v-213h-172z" />
<glyph unicode="j" horiz-adv-x="448" d="M-27 -243q36 -8 66.5 -10t52.5 10t35 41.5t13 85.5v1177h172v-1204q0 -70 -19 -118.5t-49 -79.5t-67 -46.5t-75 -20.5q-20 -3 -39 -3q-17 0 -33 3q-35 4 -57 13v152zM140 1254v213h172v-213h-172z" />
<glyph unicode="k" horiz-adv-x="1045" d="M140 0v1467h172v-870l472 464h231l-415 -386l446 -675h-218l-358 555l-158 -154v-401h-172z" />
<glyph unicode="l" horiz-adv-x="448" d="M140 0v1467h172v-1467h-172z" />
<glyph unicode="m" horiz-adv-x="1717" d="M128 0v1061h161v-155q59 87 145 134t201 47q98 0 175.5 -43.5t104.5 -137.5q58 91 147.5 136t205.5 45q156 0 239.5 -83.5t83.5 -222.5v-781h-171v672q0 138 -42.5 199.5t-147.5 61.5q-64 0 -116 -19t-89 -51.5t-57.5 -79t-20.5 -101.5v-682h-175v686q0 44 -6 88 t-25 79.5t-55.5 57.5t-97.5 22q-82 0 -137.5 -32.5t-89 -78t-48 -93t-14.5 -75.5v-654h-171z" />
<glyph unicode="n" horiz-adv-x="1120" d="M128 0v1061h161v-170q58 109 154.5 152.5t219.5 43.5q79 0 139.5 -27.5t102.5 -74.5t63.5 -111t21.5 -137v-737h-168v689q0 47 -9.5 91.5t-33.5 78t-62.5 54t-96.5 20.5q-67 0 -125.5 -19t-101.5 -58.5t-68.5 -99.5t-25.5 -143v-613h-171z" />
<glyph unicode="o" horiz-adv-x="1155" d="M74 532q0 116 33 217t97 176t158 118.5t217 43.5q122 0 216 -43.5t158 -118.5t97.5 -176t33.5 -217q0 -117 -33.5 -218t-97.5 -176.5t-158 -118.5t-216 -43q-126 0 -220.5 43t-157.5 118.5t-95 176.5t-32 218zM252 532q0 -84 21.5 -157t62.5 -127.5t102.5 -85.5 t143.5 -31q73 0 132.5 31t101 85.5t64.5 127.5t23 157t-22 157.5t-64.5 127.5t-102.5 85t-138 31q-73 0 -133 -31t-102.5 -85t-65.5 -127.5t-23 -157.5z" />
<glyph unicode="p" horiz-adv-x="1191" d="M134 -404v1465h172v-146q25 49 69 87q40 33 106 60.5t170 27.5q38 0 88 -9t102.5 -33.5t102.5 -66.5t89 -106.5t63 -155.5t24 -214q0 -108 -30.5 -204t-90.5 -168t-148.5 -114.5t-206.5 -42.5q-98 0 -186.5 38.5t-151.5 137.5v-556h-172zM299 529q0 -82 18.5 -154.5 t58 -126t103.5 -85.5t153 -32q73 0 130 32t96.5 84t60 119t20.5 139q0 77 -16 154t-51.5 137.5t-94 98.5t-142.5 38q-94 0 -158 -35t-103.5 -92t-57 -130t-17.5 -147z" />
<glyph unicode="q" horiz-adv-x="1191" d="M74 523q0 118 24 205.5t62.5 150.5t88 104t101 65t102 33t89.5 9q96 0 161.5 -27.5t106.5 -60.5q24 -20 43.5 -41.5t35.5 -45.5v146h170v-1465h-170v556q-28 -55 -66 -89t-82.5 -54t-94 -26.5t-98.5 -6.5q-117 0 -205 45.5t-147.5 120.5t-90 174t-30.5 207zM252 505 q0 -72 20.5 -139t60 -119t96 -84t129.5 -32q91 0 155 32t104 85.5t58.5 126t18.5 154.5q0 74 -17.5 147t-58 130t-104 92t-156.5 35q-85 0 -143.5 -38t-94.5 -98.5t-52 -137.5t-16 -154z" />
<glyph unicode="r" horiz-adv-x="671" d="M122 0v1061h161v-230q18 48 52 95.5t83 85.5q48 38 112 58q47 15 103 15q19 0 39 -1v-184q-17 1 -34 1q-57 1 -109 -15q-68 -20 -120.5 -67.5t-84 -122t-31.5 -176.5v-520h-171z" />
<glyph unicode="s" horiz-adv-x="1006" d="M62 336h172q0 -58 23.5 -97.5t62.5 -64t88.5 -34t99.5 -9.5q56 0 103 8t81.5 26.5t54 49t19.5 74.5q0 42 -21 72t-60 49.5t-92 34t-117 28.5q-72 15 -142 34.5t-126 54t-90 87t-34 132.5q0 79 35 137t90 95t126 55.5t144 18.5q109 0 188 -24.5t130 -68.5t75.5 -105.5 t24.5 -134.5h-169q0 52 -24.5 87t-61 55.5t-79.5 28.5t-81 8q-93 0 -153.5 -32.5t-60.5 -110.5q0 -36 22.5 -61t58.5 -42.5t79 -29t86 -22.5q86 -22 164.5 -41t138 -53.5t95 -93t35.5 -158.5q0 -81 -39 -139.5t-100.5 -97t-139 -57.5t-154.5 -19q-114 0 -199 27t-141.5 76 t-84 114t-27.5 143z" />
<glyph unicode="t" horiz-adv-x="635" d="M18 909v152h178v321h172v-321h205v-152h-205v-654q0 -60 18 -81.5t75 -21.5h112v-152h-128q-68 0 -116 9t-77.5 35t-42.5 72.5t-13 120.5v672h-178z" />
<glyph unicode="u" horiz-adv-x="1120" d="M128 354v707h171v-719q0 -44 13 -82t39.5 -67t65.5 -45.5t91 -16.5q143 0 228.5 83.5t85.5 249.5v597h168v-1061h-159v172q-60 -105 -149 -150.5t-209 -45.5q-73 0 -135.5 20.5t-109.5 65t-73.5 117t-26.5 175.5z" />
<glyph unicode="v" horiz-adv-x="1006" d="M27 1061h193l297 -886l283 886h180l-383 -1061h-181z" />
<glyph unicode="w" horiz-adv-x="1526" d="M35 1061h188l235 -877l214 877h187l222 -868l232 868h178l-330 -1061h-181l-214 850l-211 -850h-184z" />
<glyph unicode="x" horiz-adv-x="1042" d="M18 0l389 561l-360 500h217l253 -366l261 366h202l-357 -488l405 -573h-219l-292 439l-289 -439h-210z" />
<glyph unicode="y" horiz-adv-x="1006" d="M15 1061h196l306 -874l292 874h181l-455 -1207q-17 -42 -33.5 -82.5t-39.5 -74.5t-53.5 -62.5t-72.5 -44.5q-35 -17 -73 -18h-13q-30 0 -58 4q-20 3 -39 7t-37 10v164q13 -8 27 -13t27 -8q25 -7 53 -7.5t57 13.5q24 9 46 34t42 69l65 161z" />
<glyph unicode="z" horiz-adv-x="968" d="M47 0v134l625 775h-588v152h810v-114l-642 -795h669v-152h-874z" />
<glyph unicode="{" horiz-adv-x="671" d="M96 476v141q45 2 82 32q15 12 30 31t26.5 46.5t19 64.5t7.5 88v345q0 60 17.5 111t49.5 87.5t76 57t98 20.5h121v-121h-88q-64 0 -87.5 -49t-23.5 -135v-361q0 -92 -28 -147.5t-62 -86.5q-38 -36 -88 -50q53 -12 90 -48q35 -32 63 -93.5t28 -168.5v-346q-3 -52 6 -89 q8 -33 28.5 -60.5t61.5 -27.5h100v-124h-127q-64 0 -109 25.5t-73 66.5t-40.5 93.5t-12.5 105.5v371q0 78 -26.5 123t-56.5 66q-37 24 -82 32z" />
<glyph unicode="|" horiz-adv-x="448" d="M155 -35v1535h138v-1535h-138z" />
<glyph unicode="}" horiz-adv-x="671" d="M50 -283h99q41 0 61.5 27.5t28.5 60.5q9 41 7 89v346q0 107 27.5 168.5t62.5 93.5q36 36 91 48q-52 14 -90 50q-33 31 -60.5 86.5t-27.5 147.5v361q0 86 -24 135t-88 49h-87v121h122q53 0 97 -20.5t75 -57t48.5 -87.5t17.5 -111v-345q0 -99 26 -152.5t56 -77.5 q37 -30 84 -32v-141q-47 -6 -84 -32q-30 -21 -56 -66t-26 -123v-371q0 -53 -12 -105.5t-39.5 -93.5t-71.5 -66.5t-106 -25.5h-131v124z" />
<glyph unicode="~" horiz-adv-x="1208" d="M140 470q17 33 39 65t52 57t69 40.5t89 15.5q52 0 109 -20t115 -46q28 -14 56.5 -28t55.5 -26.5t51.5 -20.5t45.5 -8q29 0 54 14t45.5 37t39 51t35.5 56l71 -102q-21 -34 -44.5 -65.5t-53.5 -57t-66.5 -40.5t-83.5 -15q-57 0 -107.5 19.5t-98.5 48.5q-49 26 -106 52 t-127 26q-33 0 -59 -14.5t-46.5 -36.5t-36 -49.5t-27.5 -54.5z" />
<glyph unicode="&#xa4;" horiz-adv-x="1276" d="M12 249l225 221q-94 126 -94 293q0 173 94 286l-225 228l116 108l220 -221q122 90 293 90q84 0 161 -24.5t125 -65.5l228 221l108 -108l-220 -228q89 -122 89 -286q0 -172 -89 -293l220 -221l-108 -115l-228 225q-23 -20 -54.5 -36t-71.5 -31q-81 -28 -160 -28 q-167 0 -293 95l-220 -225zM299 763q0 -143 96 -249q99 -104 246 -104q140 0 241 104q95 96 95 249q0 70 -25 132.5t-69 109.5t-106.5 75t-135.5 28q-145 0 -243 -102q-99 -112 -99 -243z" />
<glyph unicode="&#xa9;" horiz-adv-x="1725" d="M93 734q0 160 60 299t165 243t244.5 164t299.5 60q159 0 300 -60t245 -164t164 -243t60 -299q0 -159 -60 -299t-164 -245t-245 -165t-300 -60q-160 0 -299.5 60t-244.5 165t-165 245t-60 299zM193 734q0 -141 51.5 -264t142 -215t213 -145.5t265.5 -53.5t264.5 53.5 t211 146t140.5 215.5t51 263q0 143 -51 267t-140.5 216t-211 144.5t-264.5 52.5q-145 0 -268 -52.5t-212.5 -144t-140.5 -216t-51 -267.5zM389 734q0 107 35 195.5t97.5 152.5t150.5 100t196 36q82 0 155.5 -22.5t132 -66.5t97.5 -111.5t51 -158.5h-137q-25 117 -106.5 177 t-189.5 60q-82 0 -146 -27.5t-107 -75.5t-66 -113t-23 -143q0 -76 24.5 -143t70 -117t111 -79.5t147.5 -29.5q56 0 105.5 18t86.5 51t61.5 77.5t31.5 98.5h137q-7 -86 -42 -153.5t-91.5 -115.5t-129.5 -73t-156 -25q-114 0 -205.5 37.5t-156 102.5t-99.5 155t-35 193z" />
<glyph unicode="&#xab;" horiz-adv-x="968" d="M87 555l448 553l113 -62l-330 -491l330 -490l-113 -62zM492 555l239 435l116 -54l-143 -381l143 -380l-116 -56z" />
<glyph unicode="&#xac;" horiz-adv-x="1136" d="M93 451v137h936v-407h-125v270h-811z" />
<glyph unicode="&#xad;" horiz-adv-x="1136" d="M93 448v140h950v-140h-950z" />
<glyph unicode="&#xae;" horiz-adv-x="1725" d="M93 734q0 160 60 299t165 243t244.5 164t299.5 60q159 0 300 -60t245 -164t164 -243t60 -299q0 -159 -60 -299t-164 -245t-245 -165t-300 -60q-160 0 -299.5 60t-244.5 165t-165 245t-60 299zM193 734q0 -141 51.5 -264t142 -215t213 -145.5t265.5 -53.5t264.5 53.5 t211 146t140.5 215.5t51 263q0 143 -51 267t-140.5 216t-211 144.5t-264.5 52.5q-145 0 -268 -52.5t-212.5 -144t-140.5 -216t-51 -267.5zM535 280v906h374q173 0 250 -66.5t77 -195.5q0 -53 -17 -93.5t-45 -70t-67.5 -50t-85.5 -32.5l277 -398h-158l-275 389h-190v-389 h-140zM675 766h163q45 0 91.5 2.5t83 17.5t60 48.5t23.5 95.5q0 52 -18.5 83t-46.5 48t-63.5 23t-70.5 6h-222v-324z" />
<glyph unicode="&#xb0;" horiz-adv-x="822" d="M100 1084q0 61 23.5 117t65 98t96.5 67t119 25q66 0 123 -24.5t98.5 -65.5t66 -97t24.5 -120t-24.5 -120.5t-66 -98t-98.5 -66t-123 -24.5q-62 0 -116.5 23.5t-96.5 65.5t-66.5 98t-24.5 122zM184 1084q0 -46 17.5 -87t47 -71.5t70 -48.5t85.5 -18q95 0 160 65 q68 70 68 160q0 45 -18 85.5t-49 70t-72.5 47t-88.5 17.5t-87 -16.5t-70 -46.5t-46.5 -70t-16.5 -87z" />
<glyph unicode="&#xb6;" horiz-adv-x="1105" d="M0 1304q0 233 143 348q137 101 377 101h591v-63h-155v-2061h-94v2061h-221v-2061h-83v1224q-256 0 -400 94q-158 112 -158 357z" />
<glyph unicode="&#xb7;" horiz-adv-x="513" d="M146 682q0 46 31 77t81 31q48 0 79 -32.5t31 -75.5q0 -47 -33 -79.5t-77 -32.5q-50 0 -81 31t-31 81z" />
<glyph unicode="&#xbb;" horiz-adv-x="968" d="M125 175l143 380l-143 381l115 54l239 -435l-239 -436zM324 65l330 490l-330 491l112 62l449 -553l-449 -552z" />
<glyph unicode="&#xd7;" horiz-adv-x="1136" d="M93 143l374 377l-371 371l97 99l374 -370l372 373l101 -99l-374 -374l377 -377l-99 -99l-377 376l-374 -373z" />
<glyph unicode="&#xf7;" horiz-adv-x="1136" d="M93 448v140h950v-140h-950zM442 137q0 24 11 47t27.5 39.5t39.5 27t47 10.5t47 -10.5t39.5 -27t27.5 -39.5t11 -47q0 -23 -11 -46t-27.5 -40.5t-39.5 -28t-47 -10.5q-23 0 -45.5 10.5t-40 28t-28.5 40.5t-11 46zM442 900q0 24 11 47t27.5 39.5t39.5 27t47 10.5t47 -10.5 t39.5 -27t27.5 -39.5t11 -47q0 -23 -11 -46t-27.5 -40.5t-39.5 -28t-47 -10.5q-23 0 -45.5 10.5t-40 28t-28.5 40.5t-11 46z" />
<glyph unicode="&#xe00;" horiz-adv-x="311" />
<glyph unicode="&#xe01;" horiz-adv-x="1182" d="M59 912q6 82 51 147.5t116.5 112t163.5 71.5t192 25t192 -23t162 -72.5t112 -125.5t42 -182v-865h-175v847q0 70 -24.5 120t-68.5 82t-106 47t-137 15q-67 0 -125.5 -14.5t-102.5 -38.5t-71.5 -54.5t-33.5 -64.5q14 -10 31.5 -23t33.5 -29t26.5 -35t10.5 -39 q0 -27 -13 -47.5t-27.5 -40.5t-27 -42t-12.5 -54v-629h-175v641q0 29 15 50.5t33.5 39t33.5 34t15 38.5q0 16 -20.5 35t-44.5 36z" />
<glyph unicode="&#xe02;" horiz-adv-x="1057" d="M74 1096v149h160q138 0 201.5 -45t63.5 -145q0 -46 -17.5 -77t-43 -52.5t-55.5 -38t-55.5 -33t-42.5 -38t-17 -53.5v-392q0 -69 21 -114.5t57 -72.5t83 -38.5t100 -11.5q52 0 99.5 11.5t83.5 38.5t57 72.5t21 114.5v874h175v-897q0 -108 -39.5 -178.5t-102.5 -113 t-140.5 -60t-153.5 -17.5q-75 0 -152.5 17.5t-140.5 60t-103 113t-40 178.5v439q0 43 17.5 72.5t42.5 51.5t55.5 38t55.5 30t42.5 28t17.5 33q0 56 -96 56h-154z" />
<glyph unicode="&#xe03;" horiz-adv-x="1074" d="M12 1155l116 99l89 -71l92 71q106 6 155.5 -48t49.5 -148q0 -49 -17.5 -84.5t-42.5 -62t-55.5 -48t-55.5 -42.5t-42.5 -45t-17.5 -54v-351q0 -69 21 -114.5t57 -72.5t83 -38.5t100 -11.5q52 0 100 11.5t83.5 38.5t57 72.5t21.5 114.5v874h174v-897q0 -108 -39.5 -178.5 t-102.5 -113t-140.5 -60t-153.5 -17.5q-74 0 -151.5 17.5t-140 60t-103 113t-40.5 178.5v406q0 44 17.5 75t43.5 54.5t57 41t57 35t43.5 36.5t17.5 47q0 16 -4.5 29t-9.5 22l-13 20l-128 -102z" />
<glyph unicode="&#xe04;" horiz-adv-x="1214" d="M93 0v865q0 106 46 183t120 125.5t165 71.5t182 23q93 0 185 -23t165 -71.5t118.5 -125.5t45.5 -183v-865h-173v847q0 70 -28 120t-74.5 82t-108 47t-130.5 15q-66 0 -128 -15t-109 -47t-74 -82t-27 -120v-128h380v-155h-380v-564h-175z" />
<glyph unicode="&#xe05;" horiz-adv-x="1214" d="M93 0v906q0 71 25 133.5t71.5 110.5t111.5 78.5t147 39.5l158 -128l163 128q79 -9 144.5 -39.5t111 -78.5t70.5 -110.5t25 -133.5v-906h-173v891q0 79 -35 136t-99 75l-203 -169l-209 169q-64 -18 -98.5 -75t-34.5 -136v-172h383v-158h-383v-561h-175z" />
<glyph unicode="&#xe06;" horiz-adv-x="1229" d="M12 1155l116 99l89 -71l92 71q106 6 155.5 -48t49.5 -148q0 -49 -17.5 -84.5t-42.5 -62t-55.5 -48t-55.5 -42.5t-42.5 -45t-17.5 -54v-217q0 -54 31 -117.5t86.5 -119t133 -93.5t170.5 -38q56 0 103 13.5t81.5 43t54 76t19.5 113.5v862h175v-874q0 -105 -32 -178.5 t-88 -120t-133 -68.5t-165 -22q-71 0 -134.5 16t-118 42.5t-101 61.5t-82.5 73v-175h-174v754q0 44 17.5 75t43.5 54.5t57 41t57 35t43.5 36.5t17.5 47q0 16 -4.5 29t-9.5 22l-13 20l-128 -102z" />
<glyph unicode="&#xe07;" horiz-adv-x="1083" d="M0 1012l146 117l305 -974h38q98 0 169.5 51.5t115.5 136t61.5 191.5t8.5 220q-17 201 -135 291t-335 57v155q146 21 260.5 -4t196 -86.5t128.5 -155.5t59 -211q8 -86 4 -178t-24.5 -180.5t-60.5 -168.5t-104.5 -141t-156 -96.5t-215.5 -35.5h-143z" />
<glyph unicode="&#xe08;" horiz-adv-x="1117" d="M-18 900q6 74 46 141t108.5 117t161.5 80t204 30q120 0 221 -36.5t173 -108t112.5 -176.5t40.5 -243q0 -186 -52 -323.5t-143 -226.5t-216.5 -129t-272.5 -31l-178 688l-62 96h220l157 -620q80 9 148.5 50t118 111t77.5 166.5t28 218.5q0 97 -26.5 172.5t-76 127.5 t-118 79.5t-151.5 27.5q-134 0 -227.5 -53t-122.5 -158h-170z" />
<glyph unicode="&#xe09;" horiz-adv-x="1197" d="M56 933q23 91 75.5 155t123 103.5t154 58t167.5 18.5q103 0 199 -23t169 -72.5t117 -125.5t44 -182v-865h-175v143q-32 -27 -73.5 -56t-94 -52t-116.5 -38t-138 -15q-82 0 -154.5 17.5t-127 61.5t-86 118.5t-31.5 188.5v292l-38 94h212v-368q0 -73 16.5 -121.5 t48.5 -77.5t76 -41t99 -12q90 0 165 26.5t129 68.5t83.5 95t29.5 106v417q0 71 -28 121t-76.5 82t-112.5 46.5t-137 14.5q-58 0 -111 -8.5t-97 -29t-77.5 -54.5t-50.5 -86h-184z" />
<glyph unicode="&#xe0a;" horiz-adv-x="1158" d="M93 0v1245h175v-1090l246 -6q77 -3 149.5 16t129.5 60t91 105.5t34 154.5q0 70 -23.5 128.5t-66 99.5t-101 64t-127.5 23h-164v156h164q57 0 109.5 16t92.5 50t61.5 89.5t15.5 133.5h170q10 -62 -1 -120t-38.5 -106.5t-69.5 -86t-90 -58.5q45 -18 88.5 -51.5t77.5 -82 t55.5 -111t21.5 -140.5q0 -129 -44 -223t-121.5 -155t-182 -90t-222.5 -27z" />
<glyph unicode="&#xe0b;" horiz-adv-x="1185" d="M-35 1155l116 99l91 -71l89 71q107 6 156.5 -48t49.5 -148q0 -73 -26 -116.5t-58 -75.5t-58 -63t-26 -81v-567h245q79 0 152 18.5t129.5 58t90.5 101.5t34 152q0 70 -23.5 128.5t-66 99.5t-101 64t-127.5 23h-133v156h133q55 0 107.5 16t92.5 50t61.5 89.5t15.5 133.5 h172q10 -62 -1 -120t-39.5 -106.5t-69.5 -86t-89 -58.5q45 -18 88.5 -51.5t77.5 -82t54.5 -111t20.5 -140.5q0 -129 -44 -221.5t-121.5 -152t-181 -87.5t-221.5 -28h-430v754q0 65 27 103t60 66.5t60 54t27 65.5q0 16 -4.5 29t-10.5 22l-13 20l-128 -102z" />
<glyph unicode="&#xe0c;" horiz-adv-x="1910" d="M59 912q6 82 51 147.5t116.5 112t163.5 71.5t192 25t192 -23t162 -72.5t112 -125.5t42 -182v-435q0 -52 24 -104t67.5 -95t103.5 -70t132 -27q47 0 88 12t71.5 40t48.5 76t18 121v862h175v-877q0 -114 -32 -189.5t-85 -118.5t-122.5 -60.5t-143.5 -17.5q-105 0 -197 42.5 t-148 112.5v-137h-175v847q0 70 -24.5 120t-68.5 82t-106 47t-137 15q-67 0 -125.5 -14.5t-102.5 -38.5t-71.5 -54.5t-33.5 -64.5q14 -10 31.5 -23t33.5 -29t26.5 -35t10.5 -39q0 -27 -13 -47.5t-27.5 -40.5t-27 -42t-12.5 -54v-474h193v-155h-368v641q0 29 15 50.5t33.5 39 t33.5 34t15 38.5q0 16 -20.5 35t-44.5 36z" />
<glyph unicode="&#xe0d;" horiz-adv-x="1910" d="M59 912q6 82 51 147.5t116.5 112t163.5 71.5t192 25t192 -23t162 -72.5t112 -125.5t42 -182v-494q0 -69 19 -113.5t52.5 -71t78 -36.5t96.5 -10q56 0 111.5 17.5t99 52.5t70 87.5t26.5 122.5v825h175v-1180q0 -101 -39 -173.5t-103.5 -118t-147 -67t-171.5 -21.5h-442 v160h442q61 0 113 15t90.5 43.5t60.5 68t22 87.5v53q-12 -13 -40 -34.5t-71.5 -42t-101 -35.5t-129.5 -15q-71 0 -140.5 16.5t-124 57.5t-88 110.5t-33.5 172.5v505q0 70 -24.5 120t-68.5 82t-106 47t-137 15q-67 0 -125.5 -14.5t-102.5 -38.5t-71.5 -54.5t-33.5 -64.5 q14 -10 31.5 -23t33.5 -29t26.5 -35t10.5 -39q0 -27 -13 -47.5t-27.5 -40.5t-27 -42t-12.5 -54v-474h193v-155h-368v641q0 29 15 50.5t33.5 39t33.5 34t15 38.5q0 16 -20.5 35t-44.5 36z" />
<glyph unicode="&#xe0e;" horiz-adv-x="1214" d="M15 0v158h110v483q0 29 15 50.5t32.5 39t32.5 34t15 38.5q0 16 -20.5 35t-44.5 36l-65 38q6 82 50.5 147.5t116 112t163.5 71.5t193 25q100 0 192 -23t162 -72.5t111.5 -125.5t41.5 -182v-1332h-173l-184 181l-208 -181h-377v158h304l281 231l184 -156v1081 q0 70 -24.5 120t-68.5 82t-106 47t-138 15q-67 0 -125 -14.5t-102 -38.5t-71.5 -54.5t-34.5 -64.5q13 -10 31.5 -23t34.5 -29t26.5 -34.5t10.5 -39.5q0 -27 -13 -47.5t-27.5 -40.5t-27.5 -42t-13 -54v-629h-284z" />
<glyph unicode="&#xe0f;" horiz-adv-x="1214" d="M15 0v158h110v483q0 29 15 50.5t32.5 39t32.5 34t15 38.5q0 16 -20.5 35t-44.5 36l-65 38q6 82 50.5 147.5t116 112t163.5 71.5t193 25q100 0 192 -23t162 -72.5t111.5 -125.5t41.5 -182v-1332h-173l-131 152l-159 -181l-165 181l-141 -152h-283v158h206l222 225 l158 -168l165 168l128 -136v1067q0 70 -24.5 120t-68.5 82t-106 47t-138 15q-67 0 -125 -14.5t-102 -38.5t-71.5 -54.5t-34.5 -64.5q13 -10 31.5 -23t34.5 -29t26.5 -34.5t10.5 -39.5q0 -27 -13 -47.5t-27.5 -40.5t-27.5 -42t-13 -54v-629h-284z" />
<glyph unicode="&#xe10;" horiz-adv-x="1117" d="M-18 900q6 74 46 141t108.5 117t161.5 80t204 30q126 0 229 -41q34 16 62.5 46.5t28.5 65.5h190q0 -35 -13.5 -65.5t-35 -54.5t-47 -41.5t-51.5 -28.5q87 -73 135.5 -183t48.5 -262q0 -186 -52 -323.5t-143 -226.5t-216.5 -129t-272.5 -31l-178 688l-62 96h220l157 -620 q80 9 148.5 50t118 111t77.5 166.5t28 218.5q0 97 -26.5 172.5t-76 127.5t-118 79.5t-151.5 27.5q-134 0 -227.5 -53t-122.5 -158h-170zM6 -309h181l196 169l158 -143l163 143l118 -115v193h174v-405h-174l-118 128l-163 -150l-161 150l-140 -128h-234v158z" />
<glyph unicode="&#xe11;" horiz-adv-x="1244" d="M-18 1155l114 99l91 -71l90 71q106 6 155.5 -48t49.5 -148q0 -49 -14 -84t-33.5 -61.5t-44 -47.5t-44 -42.5t-33.5 -45t-14 -55.5v-264q13 41 37 100t55.5 123.5t64.5 129.5t64 116q41 70 82 131.5t84.5 107t89 71.5t95.5 26q79 0 133 -26.5t87.5 -71.5t47 -103.5 t13.5 -122.5v-939h-175v912q0 32 -5 67t-18 64t-34.5 47t-54.5 18q-23 0 -49.5 -21t-54 -57.5t-56.5 -84t-57 -98.5q-38 -69 -79.5 -151t-80 -167t-72.5 -167t-60 -151.5t-41.5 -122t-15.5 -76.5v-12h-174v748q0 65 29.5 104.5t65 67.5t65.5 55t30 68q0 16 -4.5 29t-11.5 22 l-13 20l-128 -102z" />
<glyph unicode="&#xe12;" horiz-adv-x="2004" d="M93 0v906q0 71 27 133.5t76.5 110.5t117.5 78.5t150 39.5l174 -128l178 128q79 -9 147 -39.5t116.5 -78.5t76 -110.5t27.5 -133.5v-476q0 -52 24 -104t67.5 -95t103.5 -70t131 -27q47 0 88.5 12t72.5 40t49 76t18 121v862h174v-877q0 -114 -32 -189.5t-84.5 -118.5 t-121.5 -60.5t-144 -17.5q-106 0 -198 42.5t-148 112.5v-137h-174v891q0 86 -47 138t-112 73l-212 -155l-211 155q-68 -21 -113.5 -73t-45.5 -138v-449q0 -47 -3.5 -88.5t-6.5 -73.5l-9 -69h6l23 50q11 22 24.5 47t30.5 46l280 371h-149v140h336v-140l-532 -725h-175z" />
<glyph unicode="&#xe13;" horiz-adv-x="1910" d="M59 912q6 82 51 147.5t116.5 112t163.5 71.5t192 25t192 -23t162 -72.5t112 -125.5t42 -182v-482q0 -73 17.5 -121t48.5 -76t72 -40t88 -12q72 0 132 27t103 70t67.5 95t24.5 104v815h175v-1245h-175v137q-56 -70 -148 -112.5t-197 -42.5q-74 0 -143.5 17.5t-122.5 60.5 t-85 118.5t-32 189.5v479q0 70 -24.5 120t-68.5 82t-106 47t-137 15q-67 0 -125.5 -14.5t-102.5 -38.5t-71.5 -54.5t-33.5 -64.5q14 -10 31.5 -23t33.5 -29t26.5 -35t10.5 -39q0 -27 -13 -47.5t-27.5 -40.5t-27 -42t-12.5 -54v-474h193v-155h-368v641q0 29 15 50.5t33.5 39 t33.5 34t15 38.5q0 16 -20.5 35t-44.5 36z" />
<glyph unicode="&#xe14;" horiz-adv-x="1244" d="M93 0v865q0 106 46 182t121.5 125.5t170.5 72.5t192 23t192 -23t170.5 -72.5t121 -125.5t45.5 -182v-865h-175v847q0 71 -28 121t-76 82t-112.5 46.5t-137.5 14.5t-138 -14.5t-113 -46.5t-76 -82t-28 -121v-405q0 -47 -3.5 -88.5t-6.5 -73.5l-9 -69h6q5 12 10.5 25 t11.5 25q10 22 23 47t30 46l267 371h-149v140h336v-140l-516 -725h-175z" />
<glyph unicode="&#xe15;" horiz-adv-x="1276" d="M93 0v906q0 71 27 133.5t76.5 110.5t117.5 78.5t150 39.5l174 -128l178 128q79 -9 147 -39.5t116.5 -78.5t76 -110.5t27.5 -133.5v-906h-174v891q0 86 -47 138t-112 73l-212 -155l-211 155q-68 -21 -113.5 -73t-45.5 -138v-449q0 -47 -3.5 -88.5t-6.5 -73.5l-9 -69h6 l23 50q11 22 24.5 47t30.5 46l280 371h-149v140h336v-140l-532 -725h-175z" />
<glyph unicode="&#xe16;" horiz-adv-x="1182" d="M59 912q6 82 51 147.5t116.5 112t163.5 71.5t192 25t192 -23t162 -72.5t112 -125.5t42 -182v-865h-175v847q0 70 -24.5 120t-68.5 82t-106 47t-137 15q-67 0 -125.5 -14.5t-102.5 -38.5t-71.5 -54.5t-33.5 -64.5q14 -10 31.5 -23t33.5 -29t26.5 -35t10.5 -39 q0 -27 -13 -47.5t-27.5 -40.5t-27 -42t-12.5 -54v-474h193v-155h-368v641q0 29 15 50.5t33.5 39t33.5 34t15 38.5q0 16 -20.5 35t-44.5 36z" />
<glyph unicode="&#xe17;" horiz-adv-x="1214" d="M93 0v1245h175v-173q36 36 82.5 71t101 61.5t117.5 42.5t135 16q88 0 164 -22t132 -68.5t88 -120t32 -178.5v-874h-173v862q0 65 -20 112t-54 77t-81 43.5t-103 13.5q-93 0 -170.5 -37t-133 -93.5t-86.5 -120.5t-31 -117v-740h-175z" />
<glyph unicode="&#xe18;" horiz-adv-x="1158" d="M62 962q5 73 46 130t107 96t153.5 59.5t186.5 20.5t188.5 -18.5t159.5 -58t115.5 -103.5t56.5 -155h-178q-11 55 -46 89t-84.5 54t-105 27.5t-106.5 7.5q-63 0 -120 -10t-101 -29.5t-70.5 -47t-26.5 -62.5q0 -39 36.5 -62t94.5 -35t130 -18t143 -13q87 -7 168.5 -30.5 t145 -71.5t102.5 -123t39 -185q0 -131 -40.5 -213.5t-106.5 -130t-152.5 -64t-179.5 -16.5h-524v648h175v-493h323q66 0 126 9t105.5 38t72 80.5t26.5 137.5q0 69 -25 115t-66 74.5t-96 43t-114 22.5q-62 7 -128 13.5t-130 15.5t-120.5 25.5t-98 46.5t-63.5 74.5t-18 111.5z " />
<glyph unicode="&#xe19;" horiz-adv-x="1214" d="M93 371v874h175v-862q0 -67 19.5 -113.5t53.5 -76t81.5 -43t103.5 -13.5q93 0 169.5 38t133 93.5t87.5 119t31 117.5v740h173v-1245h-173v175q-37 -38 -83 -73t-101 -61.5t-118 -42.5t-134 -16q-90 0 -166 22t-132 68.5t-88 120t-32 178.5z" />
<glyph unicode="&#xe1a;" horiz-adv-x="1214" d="M93 377v868h175v-847q0 -71 28.5 -121.5t76 -82t108 -46t125.5 -14.5q66 0 127.5 14.5t108.5 46t76 82t29 121.5v847h173v-868q0 -108 -46 -183t-120 -123t-166 -70t-182 -22q-91 0 -182 22t-165 70t-120 123t-46 183z" />
<glyph unicode="&#xe1b;" horiz-adv-x="1214" d="M93 377v868h175v-847q0 -71 28.5 -121.5t76 -82t108 -46t125.5 -14.5q66 0 127.5 14.5t108.5 46t76 82t29 121.5v1158h173v-1179q0 -108 -46 -183t-120 -123t-166 -70t-182 -22q-91 0 -182 22t-165 70t-120 123t-46 183z" />
<glyph unicode="&#xe1c;" horiz-adv-x="1431" d="M93 354v680q0 104 60 157.5t165 53.5h95v-155h-51q-49 0 -71.5 -24.5t-22.5 -66.5v-619q0 -123 44.5 -184.5t126.5 -61.5q37 0 72 15t60.5 48t41.5 83t16 121v844h174v-844q0 -71 15 -121t41.5 -83t61 -48t72.5 -15q82 0 126.5 61.5t44.5 184.5v865h175v-891 q0 -100 -26 -171.5t-70.5 -116.5t-104 -66t-126.5 -21q-100 0 -179 40t-117 118q-44 -78 -121.5 -118t-178.5 -40q-68 0 -127 21t-102.5 66t-68.5 116.5t-25 171.5z" />
<glyph unicode="&#xe1d;" horiz-adv-x="1431" d="M93 354v680q0 104 60 157.5t165 53.5h95v-155h-51q-49 0 -71.5 -24.5t-22.5 -66.5v-619q0 -123 44.5 -184.5t126.5 -61.5q37 0 72 15t60.5 48t41.5 83t16 121v844h174v-844q0 -71 15 -121t41.5 -83t61 -48t72.5 -15q82 0 126.5 61.5t44.5 184.5v1176h175v-1202 q0 -100 -26 -171.5t-70.5 -116.5t-104 -66t-126.5 -21q-100 0 -179 40t-117 118q-44 -78 -121.5 -118t-178.5 -40q-68 0 -127 21t-102.5 66t-68.5 116.5t-25 171.5z" />
<glyph unicode="&#xe1e;" horiz-adv-x="1431" d="M93 354v891h175v-865q0 -123 44.5 -184.5t126.5 -61.5q37 0 72 15t60.5 48t41.5 83t16 121v844h174v-844q0 -71 15 -121t41.5 -83t61 -48t72.5 -15q82 0 126.5 61.5t44.5 184.5v865h175v-891q0 -100 -26 -171.5t-70.5 -116.5t-104 -66t-126.5 -21q-100 0 -179 40 t-117 118q-44 -78 -121.5 -118t-178.5 -40q-68 0 -127 21t-102.5 66t-68.5 116.5t-25 171.5z" />
<glyph unicode="&#xe1f;" horiz-adv-x="1431" d="M93 354v891h175v-865q0 -123 44.5 -184.5t126.5 -61.5q37 0 72 15t60.5 48t41.5 83t16 121v844h174v-844q0 -71 15 -121t41.5 -83t61 -48t72.5 -15q82 0 126.5 61.5t44.5 184.5v1176h175v-1202q0 -100 -26 -171.5t-70.5 -116.5t-104 -66t-126.5 -21q-100 0 -179 40 t-117 118q-44 -78 -121.5 -118t-178.5 -40q-68 0 -127 21t-102.5 66t-68.5 116.5t-25 171.5z" />
<glyph unicode="&#xe20;" horiz-adv-x="1214" d="M15 0v158h110v483q0 29 15 50.5t32.5 39t32.5 34t15 38.5q0 16 -20.5 35t-44.5 36l-65 38q6 82 50.5 147.5t116 112t163.5 71.5t193 25q100 0 192 -23t162 -72.5t111.5 -125.5t41.5 -182v-865h-173v847q0 70 -24.5 120t-68.5 82t-106 47t-138 15q-67 0 -125 -14.5 t-102 -38.5t-71.5 -54.5t-34.5 -64.5q13 -10 31.5 -23t34.5 -29t26.5 -34.5t10.5 -39.5q0 -27 -13 -47.5t-27.5 -40.5t-27.5 -42t-13 -54v-629h-284z" />
<glyph unicode="&#xe21;" horiz-adv-x="1214" d="M93 0v1245h175v-740q0 -54 31 -117.5t86.5 -119t133 -93.5t170.5 -38q56 0 103 13.5t81 43t54 76t20 113.5v862h173v-874q0 -105 -32 -178.5t-88 -120t-132 -68.5t-164 -22q-72 0 -135.5 16t-120 42.5t-102 61.5t-78.5 73v-175h-175z" />
<glyph unicode="&#xe22;" horiz-adv-x="1229" d="M53 380q0 73 25 129t61.5 95.5t76 62.5t70.5 28q-28 3 -63.5 19.5t-66 47.5t-51.5 77.5t-21 110.5q0 100 59 173t159 107q29 9 66.5 15t78.5 8.5t82 0t77 -8.5v-158q-68 10 -131 8.5t-111 -18t-77 -48.5t-29 -82q0 -49 23 -80t62 -48.5t87.5 -24.5t101.5 -7h143v-155 h-108q-172 0 -254 -68t-82 -178q0 -73 29.5 -121t82 -75t123.5 -37t151 -7l345 9v1090h175v-1245l-555 -9q-128 -3 -226 17.5t-165.5 67t-102.5 121.5t-35 183z" />
<glyph unicode="&#xe23;" horiz-adv-x="1111" d="M30 442h178q0 -94 30 -154t77.5 -94t107.5 -47t121 -13q69 0 132 11.5t110.5 39.5t76 77.5t28.5 126.5q0 62 -24.5 102.5t-66.5 65.5t-96.5 38t-115.5 22q-94 15 -188 27.5t-169.5 40.5t-122 83.5t-46.5 158.5q0 78 39.5 140t105 107t151.5 69.5t180 24.5q91 0 181 -21.5 t161.5 -66.5t117 -114t48.5 -166h-175q-6 56 -38.5 95.5t-80.5 65.5t-106 38t-114 12q-53 0 -106.5 -11.5t-95 -33.5t-67.5 -54.5t-26 -75.5q0 -45 32 -73.5t84.5 -45t119.5 -25.5t137 -17q85 -10 167 -29t145.5 -60.5t102.5 -111t39 -182.5q0 -123 -45 -203.5t-118 -127 t-166.5 -64.5t-190.5 -18t-188.5 19.5t-162.5 71.5t-115.5 142t-47.5 230z" />
<glyph unicode="&#xe24;" horiz-adv-x="1182" d="M59 912q6 82 51 147.5t116.5 112t163.5 71.5t192 25t192 -23t162 -72.5t112 -125.5t42 -182v-1239h-175v1233v-12q0 70 -24.5 120t-68.5 82t-106 47t-137 15q-67 0 -125.5 -14.5t-102.5 -38.5t-71.5 -54.5t-33.5 -64.5q14 -10 31.5 -23t33.5 -29t26.5 -35t10.5 -39 q0 -27 -13 -47.5t-27.5 -40.5t-27 -42t-12.5 -54v-474h193v-155h-368v641q0 29 15 50.5t33.5 39t33.5 34t15 38.5q0 16 -20.5 35t-44.5 36z" />
<glyph unicode="&#xe25;" horiz-adv-x="1208" d="M47 354q0 173 102 266t284 120q44 6 98 10t109.5 9.5t107.5 15t93 28t65 47.5t24 74q0 46 -25 81t-68.5 58.5t-102 35.5t-124.5 12q-63 0 -122 -13.5t-107 -40t-80 -66t-40 -91.5h-177q15 100 66 170t124 114t161 64t178 20q88 0 177.5 -17.5t161.5 -61t117 -115 t45 -177.5v-897h-175v686q-41 -25 -92 -40t-107 -24t-116 -15.5t-119 -12.5q-60 -6 -112.5 -21t-90.5 -43t-60 -71.5t-22 -104.5q0 -93 46 -140t113.5 -62t145.5 -7.5t144 24.5v-166q-75 -11 -150 -15.5t-144 3t-128.5 30t-104.5 65t-70 108.5t-25 160z" />
<glyph unicode="&#xe26;" horiz-adv-x="1214" d="M15 0v158h110v483q0 29 15 50.5t32.5 39t32.5 34t15 38.5q0 16 -20.5 35t-44.5 36l-65 38q6 82 50.5 147.5t116 112t163.5 71.5t193 25q100 0 192 -23t162 -72.5t111.5 -125.5t41.5 -182v-1239h-173v1221q0 70 -24.5 120t-68.5 82t-106 47t-138 15q-67 0 -125 -14.5 t-102 -38.5t-71.5 -54.5t-34.5 -64.5q13 -10 31.5 -23t34.5 -29t26.5 -34.5t10.5 -39.5q0 -27 -13 -47.5t-27.5 -40.5t-27.5 -42t-13 -54v-629h-284z" />
<glyph unicode="&#xe27;" horiz-adv-x="1155" d="M47 401h184q15 -68 48 -119t77.5 -83.5t98.5 -48.5t112 -16q82 0 149 26.5t115.5 85t75 151t26.5 226.5q0 132 -26.5 225.5t-75 151.5t-115.5 84.5t-149 26.5q-58 0 -112 -16t-98.5 -48.5t-77.5 -83.5t-48 -119h-184q17 92 58.5 170.5t107 134.5t154.5 87.5t200 31.5 t209 -34.5t171.5 -111t117 -199t43.5 -300.5t-43.5 -301t-117 -199t-171.5 -110t-209 -34t-200 31t-154.5 86.5t-107 133t-58.5 171.5z" />
<glyph unicode="&#xe28;" horiz-adv-x="1214" d="M93 0v865q0 106 46 183t120 125.5t165 71.5t182 23q52 0 104.5 -8t98.5 -21q33 13 54.5 37.5t21.5 62.5h190q0 -33 -10 -59t-26 -46.5t-36.5 -36.5t-40.5 -30q70 -47 114 -121.5t44 -180.5v-865h-173v847q0 70 -28 120t-74.5 82t-108 47t-130.5 15q-66 0 -128 -15 t-109 -47t-74 -82t-27 -120v-128h380v-155h-380v-564h-175z" />
<glyph unicode="&#xe29;" horiz-adv-x="1229" d="M93 377v868h175v-847q0 -71 28.5 -121.5t76 -82t108 -46t125.5 -14.5q66 0 127.5 14.5t108.5 46t76 82t29 121.5v243h-386v241h173v-86h213v449h173v-449h94v-155h-94v-264q0 -108 -46 -183t-120 -123t-166 -70t-182 -22q-91 0 -182 22t-165 70t-120 123t-46 183z" />
<glyph unicode="&#xe2a;" horiz-adv-x="1208" d="M47 354q0 173 102 266t284 120q44 6 98 10t109.5 9.5t107.5 15t93 28t65 47.5t24 74q0 46 -25 81t-68.5 58.5t-102 35.5t-124.5 12q-63 0 -122 -13.5t-107 -40t-80 -66t-40 -91.5h-177q15 100 66 170t124 114t161 64t178 20q53 0 105.5 -6t103.5 -20q31 14 50 38t19 59 h190q0 -62 -33 -99.5t-71 -66.5q61 -42 99 -109t38 -167v-897h-175v686q-41 -25 -92 -40t-107 -24t-116 -15.5t-119 -12.5q-60 -6 -112.5 -21t-90.5 -43t-60 -71.5t-22 -104.5q0 -62 21.5 -102.5t56.5 -64.5t80.5 -34t95.5 -10t100.5 7.5t94.5 18.5v-166q-75 -11 -150 -15.5 t-144 3t-128.5 30t-104.5 65t-70 108.5t-25 160z" />
<glyph unicode="&#xe2b;" horiz-adv-x="1214" d="M93 0v1245h175v-398q36 39 82.5 75t101 62.5t117.5 42.5t135 16q88 0 164 -22t132 -68.5t88 -120.5t32 -175v-657h-173v641q0 69 -20 116t-54 76t-81 42t-103 13q-86 0 -162 -36t-133.5 -90t-91.5 -118.5t-34 -120.5v-523h-175zM467 1090v155h591v-155h-591z" />
<glyph unicode="&#xe2c;" horiz-adv-x="1431" d="M93 354v891h175v-865q0 -123 44.5 -184.5t126.5 -61.5q37 0 72 15t60.5 48t41.5 83t16 121v642h174v-642q0 -71 15 -121t41.5 -83t61 -48t72.5 -15q82 0 126.5 61.5t44.5 184.5v606q0 83 -41 132t-137 49h-357v155h364q38 0 73.5 9.5t63 33t42.5 63t14 98.5h171 q3 -115 -44 -187.5t-133 -102.5q82 -26 120.5 -87.5t38.5 -171.5v-623q0 -100 -26 -171.5t-70.5 -116.5t-104 -66t-126.5 -21q-100 0 -179 40t-117 118q-44 -78 -121.5 -118t-178.5 -40q-68 0 -127 21t-102.5 66t-68.5 116.5t-25 171.5z" />
<glyph unicode="&#xe2d;" horiz-adv-x="1282" d="M47 623q0 41 3 83.5t15 106.5h408v-159h-253v-31q0 -126 31.5 -218.5t87 -152.5t133 -89t169.5 -29q93 0 170 29t132.5 89t86.5 152.5t31 218.5t-31 218t-86.5 152t-132.5 89t-170 29q-92 0 -155 -22.5t-104.5 -55.5t-65 -69.5t-36.5 -63.5h-193q22 68 65.5 134t111 118 t161 84t216.5 32q124 0 232.5 -37.5t189 -115.5t127 -200.5t46.5 -291.5t-46.5 -291t-127 -200.5t-189 -115.5t-232.5 -37q-123 0 -231 37t-188.5 115.5t-127.5 200.5t-47 291z" />
<glyph unicode="&#xe2e;" horiz-adv-x="1282" d="M47 623q0 41 3 83.5t15 106.5h408v-159h-253v-31q0 -126 31.5 -218.5t87 -152.5t133 -89t169.5 -29q93 0 170 29t132.5 89t86.5 152.5t31 218.5t-31 218t-86.5 152t-132.5 89t-170 29q-92 0 -155 -22.5t-104.5 -55.5t-65 -69.5t-36.5 -63.5h-193q22 68 65.5 134t111 118 t161 84t216.5 32q113 0 212 -32q24 13 47.5 40.5t23.5 62.5h190q0 -30 -10.5 -56.5t-27.5 -49t-37.5 -39t-39.5 -27.5q109 -76 173 -209t64 -335q0 -169 -46.5 -291t-127 -200.5t-189 -115.5t-232.5 -37q-123 0 -231 37t-188.5 115.5t-127.5 200.5t-47 291z" />
<glyph unicode="&#xe2f;" horiz-adv-x="1098" d="M47 996q0 91 54 148.5t134 86t168.5 27.5t160.5 -28v-172q-52 32 -112 42.5t-112.5 2t-87.5 -36.5t-35 -73q0 -32 16 -57.5t42 -42.5t58.5 -25.5t67.5 -8.5q91 0 164 30.5t127 82.5t89 124.5t50 154.5h175v-1251h-172v909q-27 -33 -70.5 -69.5t-99.5 -66.5t-123.5 -49.5 t-142.5 -19.5q-62 0 -125 17.5t-113.5 54t-81.5 91t-31 129.5z" />
<glyph unicode="&#xe30;" horiz-adv-x="466" d="M47 264q0 38 14.5 72.5t40.5 60.5t59.5 40t72.5 14q38 0 72 -14t59.5 -40t40 -60.5t14.5 -72.5q0 -39 -14.5 -72.5t-40 -59.5t-59.5 -40t-72 -14q-39 0 -72.5 14t-59.5 40t-40.5 59.5t-14.5 72.5zM47 980q0 38 14.5 72.5t40.5 60t59.5 40t72.5 14.5q38 0 72 -14.5 t59.5 -40t40 -60t14.5 -72.5t-14.5 -72t-40 -59t-59.5 -40.5t-72 -15.5q-39 0 -72.5 15.5t-59.5 40.5t-40.5 59t-14.5 72zM161 264q0 -27 22 -49t51 -22q27 0 49.5 22t22.5 49q0 29 -22.5 50.5t-49.5 21.5q-29 0 -51 -21.5t-22 -50.5zM161 980q0 -30 21.5 -50.5t51.5 -20.5 t51 20.5t21 50.5q0 31 -21 51.5t-51 20.5t-51.5 -20.5t-21.5 -51.5z" />
<glyph unicode="&#xe31;" d="M-597 1401v242h173v-105h682v-137h-855z" />
<glyph unicode="&#xe32;" horiz-adv-x="638" d="M15 1084v158q97 15 191.5 9.5t169.5 -36.5t121.5 -91t46.5 -156v-968h-173v933q0 55 -28 90t-77 52.5t-113.5 19t-137.5 -10.5z" />
<glyph unicode="&#xe33;" horiz-adv-x="638" d="M-362 1550q0 35 14 65t37.5 51t56 33.5t70.5 12.5q78 0 128 -46t50 -116q0 -73 -50 -117.5t-128 -44.5q-77 0 -127.5 44.5t-50.5 117.5zM-258 1550q0 -28 22 -48t52 -20t52.5 20t22.5 48t-22.5 48.5t-52.5 20.5t-52 -20.5t-22 -48.5zM15 1084v158q97 15 191.5 9.5 t169.5 -36.5t121.5 -91t46.5 -156v-968h-173v933q0 55 -28 90t-77 52.5t-113.5 19t-137.5 -10.5z" />
<glyph unicode="&#xe34;" d="M-1012 1401v137h919v-137h-919z" />
<glyph unicode="&#xe35;" d="M-1012 1401v137h744v158h175v-295h-919z" />
<glyph unicode="&#xe36;" d="M-1012 1401v137h653v18q0 32 14 60.5t37.5 49.5t57 33.5t72.5 12.5q78 0 126.5 -46t48.5 -110q0 -63 -48.5 -109t-126.5 -46h-834zM-255 1556q0 -30 20.5 -49t50.5 -19q35 0 56.5 19t21.5 49q0 29 -21.5 47.5t-56.5 18.5q-30 0 -50.5 -18.5t-20.5 -47.5z" />
<glyph unicode="&#xe37;" d="M-1012 1401v137h477v158h173v-158h94v158h175v-295h-919z" />
<glyph unicode="&#xe38;" d="M-362 -125h269v-374h-175v238h-94v136z" />
<glyph unicode="&#xe39;" d="M-710 -125h237v-190q0 -48 31.5 -64t70.5 -16q40 0 71.5 16t31.5 64v190h175v-199q0 -50 -20.5 -88t-57.5 -64.5t-88 -39.5t-112 -13q-129 0 -203 52.5t-74 152.5v63h-62v136z" />
<glyph unicode="&#xe3a;" d="M-309 -252q0 53 37.5 90t90.5 37t90.5 -37t37.5 -90q0 -54 -37.5 -91t-90.5 -37t-90.5 37t-37.5 91z" />
<glyph unicode="&#xe3f;" horiz-adv-x="1378" d="M155 0v1467h468v232h137v-232h33q124 0 207.5 -32t134.5 -82t73 -111.5t22 -121.5q0 -118 -51 -207t-161 -138q63 -21 113 -50.5t85 -73t54 -103t19 -138.5q0 -94 -35 -169t-95 -129t-143 -83t-178 -29h-78v-234h-137v234h-468zM348 166h275v506h-275v-506zM348 838h275 v463h-275v-463zM760 166q65 1 126 10t108 37.5t76 81t29 141.5q0 70 -26.5 115t-72 71t-108 36.5t-132.5 13.5v-506zM760 838q56 3 107 14t88.5 36.5t59.5 67t22 105.5q0 79 -23.5 126t-62.5 72t-89 33t-102 9v-463z" />
<glyph unicode="&#xe40;" horiz-adv-x="484" d="M155 0v1245h175v-1245h-175z" />
<glyph unicode="&#xe41;" horiz-adv-x="846" d="M155 0v1245h175v-1245h-175zM517 0v1245h175v-1245h-175z" />
<glyph unicode="&#xe42;" horiz-adv-x="547" d="M44 1759q0 33 15 65t47 56.5t81.5 38t118.5 11.5l413 -6v-156l-383 6q-46 0 -82.5 -6t-36.5 -34q0 -32 23 -52.5t49.5 -43t49.5 -57t23 -93.5v-1488h-175v1476q0 55 -22 86.5t-49.5 57.5t-49.5 55.5t-22 83.5z" />
<glyph unicode="&#xe43;" horiz-adv-x="547" d="M-149 1646q-6 67 13.5 125t63 99.5t108 66t148.5 24.5q161 0 242.5 -64.5t81.5 -174.5q0 -50 -23 -80.5t-50.5 -58t-50 -59t-22.5 -86.5v-1438h-175v1450q0 65 22 101t49.5 59.5t49.5 45.5t22 59q0 91 -140 91q-91 0 -129 -43.5t-34 -116.5h-176z" />
<glyph unicode="&#xe44;" horiz-adv-x="547" d="M-246 1818l130 109l151 -88l111 66h74q44 0 84.5 -7t71.5 -24.5t51 -46.5t21 -71q2 -32 -11 -55.5t-29.5 -45t-31 -45t-14.5 -57.5v-1553h-175v1563q0 36 13.5 59.5t31 41t31.5 32t14 32.5q0 9 -7 13.5t-17.5 6.5t-23 2h-21.5h-36l-134 -81z" />
<glyph unicode="&#xe45;" horiz-adv-x="638" d="M15 1084v158q97 15 191.5 9.5t169.5 -36.5t121.5 -91t46.5 -156v-1342h-173v1307q0 55 -28 90t-77 52.5t-113.5 19t-137.5 -10.5z" />
<glyph unicode="&#xe46;" horiz-adv-x="1105" d="M47 927q0 66 30.5 123.5t85 101t132 68.5t172.5 25l190 -164l181 164h174v-1619h-174v1408l-181 -175l-256 228q-35 -3 -67 -15.5t-57 -33t-39.5 -48.5t-14.5 -63q0 -42 20.5 -72t54 -46.5t75.5 -21t85 2.5v-164q-92 -6 -167 11t-130 55t-84.5 97t-29.5 138z" />
<glyph unicode="&#xe47;" d="M-1049 1594q0 48 20.5 90.5t60 73t97.5 48.5t134 18h600v-137h-600q-78 0 -122 -22t-44 -71q0 -15 4 -25.5t10 -18.5q6 -9 15 -15h123l266 111l298 -120v-144l-295 124l-246 -105h-216q-36 23 -70.5 69.5t-34.5 123.5z" />
<glyph unicode="&#xe48;" d="M-268 1791v232h175v-232h-175z" />
<glyph unicode="&#xe49;" d="M-529 1915v123h96q77 0 118 -28.5t41 -94.5h333v-124h-460v51q0 73 -75 73h-53z" />
<glyph unicode="&#xe4a;" d="M-597 1791v130q0 90 59 136.5t149 46.5h18l122 -75l121 75h19q91 0 150 -47.5t59 -135.5v-6h131v-124h-261v117q0 35 -17.5 55.5t-52.5 20.5h-22l-130 -82l-134 82h-12q-35 0 -52 -21.5t-17 -54.5v-6h84v-111h-214z" />
<glyph unicode="&#xe4b;" d="M-386 1908v103h134v119h143v-119h133v-103h-133v-117h-143v117h-134z" />
<glyph unicode="&#xe4c;" d="M-392 1693v63q0 47 16 82.5t44 60t65 37.5t80 13h187v-140h-137q-44 0 -72 -25t-28 -62v-29h-155z" />
<glyph unicode="&#xe4d;" d="M-362 1550q0 35 14 65t37.5 51t56 33.5t70.5 12.5q78 0 128 -46t50 -116q0 -73 -50 -117.5t-128 -44.5q-77 0 -127.5 44.5t-50.5 117.5zM-258 1550q0 -28 22 -48t52 -20t52.5 20t22.5 48t-22.5 48.5t-52.5 20.5t-52 -20.5t-22 -48.5z" />
<glyph unicode="&#xe4e;" d="M-766 1569q-2 32 8 61.5t29 54.5t45 45.5t55 34.5q24 15 61.5 25t62.5 13q-38 18 -51.5 48.5t-13.5 63.5q0 63 53 125t143 99q50 19 110 30t119.5 15.5t111 3.5t86.5 -2v-154q-76 9 -156.5 7t-146.5 -16.5t-108.5 -42t-42.5 -69.5q0 -26 16 -38.5t42.5 -17.5t59 -5h66.5 v-145q-73 10 -141.5 5t-122.5 -20.5t-86.5 -42.5t-32.5 -60q0 -26 22.5 -34.5t51.5 -8.5q56 0 98 15.5t80 34.5l74 -124q-24 -14 -56.5 -28.5t-70.5 -24t-81.5 -15t-90.5 -1.5q-91 10 -140.5 58.5t-52.5 109.5z" />
<glyph unicode="&#xe4f;" horiz-adv-x="1463" d="M93 623q0 132 50 247.5t136.5 202.5t203 137t248.5 50t248.5 -50t203 -137t137 -202.5t50.5 -247.5t-50.5 -248.5t-137 -203t-203 -136.5t-248.5 -50t-248.5 50t-203 136.5t-136.5 203t-50 248.5zM187 623q0 -112 43.5 -211.5t117 -173.5t172.5 -117t211 -43 q113 0 212.5 43t173 117t117 173.5t43.5 211.5q0 111 -43.5 210.5t-117 173.5t-173 117t-212.5 43q-112 0 -211 -43t-172.5 -117t-117 -173.5t-43.5 -210.5zM342 623q0 81 30.5 151.5t83.5 124t124 83.5t151 30q81 0 152.5 -30t123.5 -83.5t82.5 -124t30.5 -151.5 q0 -80 -30.5 -151.5t-82.5 -124t-123.5 -83t-152.5 -30.5q-80 0 -151 30.5t-124 83t-83.5 124t-30.5 151.5z" />
<glyph unicode="&#xe50;" horiz-adv-x="1176" d="M62 467q0 100 37.5 188t106.5 154.5t166.5 105t215.5 38.5q119 0 216 -38.5t166.5 -105t106.5 -154.5t37 -188q0 -101 -37 -189t-106.5 -154t-166.5 -104t-216 -38q-118 0 -215.5 38t-166.5 104t-106.5 154t-37.5 189zM228 467q0 -69 25 -129.5t72 -106.5t112.5 -71.5 t147.5 -25.5t148.5 25.5t112.5 71.5t72 106.5t26 129.5q0 68 -26 129t-72 106.5t-112.5 71.5t-148.5 26t-147.5 -26t-112.5 -71.5t-72 -106.5t-25 -129z" />
<glyph unicode="&#xe51;" horiz-adv-x="1250" d="M62 499q0 103 42.5 187.5t117 143.5t175 91t216.5 32q130 0 236.5 -33.5t182 -95.5t116.5 -151t41 -200q0 -123 -56.5 -226t-148.5 -179.5t-209 -126.5t-240 -69l-77 137q109 15 210 55.5t178.5 101t123 138.5t45.5 169q0 73 -28.5 133.5t-81 103t-126.5 66.5t-162 24 q-82 0 -152 -22.5t-120 -62.5t-79 -95.5t-29 -120.5q0 -81 48.5 -142.5t127.5 -79.5q-18 21 -31.5 55t-13.5 88q0 45 19 86t51.5 71.5t76.5 48.5t95 18q50 0 94 -18t77.5 -48.5t52.5 -71.5t19 -86q0 -66 -30.5 -122t-84.5 -97t-126 -65t-154 -24q-90 0 -162.5 30 t-124.5 82.5t-80.5 123t-28.5 151.5zM511 416q0 -41 28.5 -69.5t70.5 -28.5t71 28.5t29 69.5q0 43 -29 72t-71 29t-70.5 -29t-28.5 -72z" />
<glyph unicode="&#xe52;" horiz-adv-x="1693" d="M-84 1123l78 151q123 -15 198.5 -70.5t75.5 -160.5v-741q0 -27 7.5 -53.5t23.5 -47t40 -33.5t56 -13h900q32 0 56.5 13t40.5 33.5t23.5 47t7.5 53.5v346q0 72 -41 112t-119 40q-59 0 -104 -33t-45 -85v-411h-175v415q0 28 -16 49.5t-41 36t-56 21.5t-63 7q-39 0 -74 -8.5 t-62.5 -26t-43.5 -45.5t-16 -66q12 3 22.5 3h23.5q47 0 88 -16t71.5 -43.5t48 -65.5t17.5 -81q0 -44 -17.5 -81t-48 -64.5t-71.5 -43.5t-88 -16q-46 0 -85.5 15.5t-70 42.5t-48 65t-17.5 82v197q0 74 30.5 132t81.5 96.5t118.5 59t140.5 20.5q94 0 156.5 -25t111.5 -69 q39 44 97.5 69t145.5 25q73 0 132 -19.5t101.5 -57.5t66.5 -93t24 -123v-377q0 -63 -21.5 -114.5t-60.5 -90t-92.5 -60t-119.5 -21.5h-918q-65 0 -119 21.5t-93 60t-60 90t-21 114.5v716q0 53 -39 83.5t-138 37.5zM532 451q0 -35 24.5 -59t56.5 -24q35 0 60 24t25 59 q0 34 -25 59t-60 25q-32 0 -56.5 -25t-24.5 -59z" />
<glyph unicode="&#xe53;" horiz-adv-x="1453" d="M93 205v424q0 82 32.5 143t86.5 102t124 61.5t143 20.5q96 0 168 -31t116 -78q44 47 110 78t148 31q73 0 135 -19t107.5 -57.5t71 -95.5t25.5 -133v-651h-174v635q0 85 -49 126.5t-119 41.5q-71 0 -121 -35t-50 -102v-666h-175v672q0 35 -17.5 60t-45.5 41t-62.5 23 t-67.5 7q-46 0 -84 -12.5t-67 -35t-44.5 -54t-15.5 -69.5v-216q31 11 68 11q50 0 94 -17.5t77.5 -48t52.5 -70.5t19 -86q0 -48 -19 -88.5t-52.5 -69.5t-77.5 -45.5t-94 -16.5t-94 16.5t-77.5 45.5t-52.5 69.5t-19 88.5zM240 205q0 -44 28 -73t71 -29t71.5 29t28.5 73 q0 40 -28.5 70.5t-71.5 30.5t-71 -30.5t-28 -70.5z" />
<glyph unicode="&#xe54;" horiz-adv-x="1345" d="M62 461q-3 115 39 207t114 156t169.5 97.5t206.5 31.5q67 -1 109.5 -4.5t77.5 -5t73 -2t96 2.5q50 1 91 31.5t70 78.5t45 108t17 121h175q2 -96 -24 -185t-76 -157.5t-122.5 -111.5t-163.5 -48q-49 -3 -89 -2t-81 4t-88 6t-110 4q-74 2 -139.5 -21t-114 -66t-76 -105.5 t-24.5 -139.5q2 -78 32 -138t78 -101t109.5 -61.5t125.5 -20.5q102 0 153.5 14.5t77.5 26.5q-10 1 -43.5 19.5t-68.5 51t-63 80.5t-28 110q0 47 19 89t50.5 72.5t74 48t90.5 17.5q47 0 88.5 -17t73 -46.5t49 -69.5t17.5 -88q0 -56 -30.5 -105.5t-82.5 -78.5q37 -31 83 -42 t95.5 -19t98 -25t89.5 -59l-98 -128q-92 44 -152.5 54.5t-94.5 10.5q-47 0 -88.5 -11.5t-88 -24t-103 -24t-130.5 -11.5q-96 0 -186.5 28t-161 86t-114.5 148t-46 214zM748 445q0 -38 28 -66t68 -28q39 0 65.5 28t26.5 66q0 40 -26.5 69.5t-65.5 29.5q-40 0 -68 -29.5 t-28 -69.5z" />
<glyph unicode="&#xe55;" horiz-adv-x="1345" d="M62 461q-3 94 24.5 173t78.5 139.5t121.5 102t152.5 60.5q-12 16 -23.5 44t-11.5 63q0 48 19 90.5t53.5 74t81.5 49t105 17.5q56 0 104 -17.5t82 -49t53 -74t19 -90.5q0 -34 -12 -62t-21 -37h59q50 1 91 31.5t70 78.5t45 108t17 121h175q2 -96 -24 -185t-76 -157.5 t-122.5 -111.5t-163.5 -48q-49 -3 -89 -2t-81 4t-88 6t-110 4q-74 2 -139.5 -21t-114 -66t-76 -105.5t-24.5 -139.5q2 -78 32 -138t78 -101t109.5 -61.5t125.5 -20.5q102 0 153.5 14.5t77.5 26.5q-10 1 -43.5 19.5t-68.5 51t-63 80.5t-28 110q0 47 19 89t50.5 72.5t74 48 t90.5 17.5q47 0 88.5 -17t73 -46.5t49 -69.5t17.5 -88q0 -56 -30.5 -105.5t-82.5 -78.5q37 -31 83 -42t95.5 -19t98 -25t89.5 -59l-98 -128q-92 44 -152.5 54.5t-94.5 10.5q-47 0 -88.5 -11.5t-88 -24t-103 -24t-130.5 -11.5q-96 0 -186.5 28t-161 86t-114.5 148t-46 214z M555 1049q0 -43 32 -72.5t76 -29.5t76.5 29.5t32.5 72.5q0 42 -32.5 72.5t-76.5 30.5t-76 -30.5t-32 -72.5zM748 448q0 -39 28 -68t68 -29q39 0 67 29t28 68q0 40 -28 68t-67 28q-40 0 -68 -28t-28 -68z" />
<glyph unicode="&#xe56;" horiz-adv-x="1263" d="M-158 1186l143 97q131 -100 204.5 -214t103.5 -219q58 47 154.5 79.5t215.5 32.5q117 0 215.5 -35t171 -98.5t112.5 -152.5t40 -197t-44.5 -200t-123 -159t-184 -104t-227.5 -37q-117 0 -210.5 32.5t-159 85.5t-100 120t-34.5 134q0 49 18 89t50 69t73.5 45t90.5 16 q47 0 89.5 -16t74 -45t49.5 -68.5t18 -86.5q0 -61 -32 -108t-89 -74q21 -12 67.5 -22t94.5 -10q82 0 155 24t128.5 69t88.5 107.5t33 138.5q0 71 -30 130.5t-81 101t-118.5 65.5t-144.5 24q-130 0 -218 -48t-130 -117h-145q-26 174 -107 306t-212 245zM255 359 q0 -40 28.5 -69t67.5 -29q40 0 68.5 29t28.5 69q0 39 -28.5 67t-68.5 28q-39 0 -67.5 -28t-28.5 -67z" />
<glyph unicode="&#xe57;" horiz-adv-x="1779" d="M93 205v424q0 82 32.5 143t86.5 102t124 61.5t143 20.5q96 0 168 -31t116 -78q44 47 110 78t148 31q73 0 135 -19t107.5 -57.5t71 -95.5t25.5 -133v-470q32 15 63.5 46t56.5 75.5t41.5 100.5t19.5 123q2 68 -3.5 127.5t-10 115t-5 109.5t9.5 112q9 51 30.5 95t49 80.5 t58.5 65.5t61 52l140 -103q-32 -19 -59.5 -44t-48.5 -54.5t-36 -60.5t-22 -62q-12 -58 -10.5 -111t7.5 -106t11.5 -107t1.5 -112q-10 -110 -44.5 -198.5t-88.5 -155.5t-122.5 -109.5t-146.5 -59.5h-127v635q0 85 -49 126.5t-119 41.5q-71 0 -121 -35t-50 -102v-666h-175v672 q0 35 -17.5 60t-45.5 41t-62.5 23t-67.5 7q-46 0 -84 -12.5t-67 -35t-44.5 -54t-15.5 -69.5v-216q31 11 68 11q50 0 94 -17.5t77.5 -48t52.5 -70.5t19 -86q0 -48 -19 -88.5t-52.5 -69.5t-77.5 -45.5t-94 -16.5t-94 16.5t-77.5 45.5t-52.5 69.5t-19 88.5zM240 205 q0 -44 28 -73t71 -29t71.5 29t28.5 73q0 40 -28.5 70.5t-71.5 30.5t-71 -30.5t-28 -70.5z" />
<glyph unicode="&#xe58;" horiz-adv-x="1369" d="M62 505q0 109 39.5 193.5t112 143t172 88t217.5 29.5q55 0 106 -5.5t99 -11.5t94 -10.5t94 -1.5q51 2 87 34t59.5 82t36.5 112.5t19 124.5h175q-8 -90 -28.5 -180.5t-59.5 -164t-100.5 -121.5t-150.5 -51q-58 -3 -109 2.5t-102.5 12t-105.5 13t-117 6.5q-79 0 -145.5 -19 t-114.5 -57t-75.5 -93t-27.5 -126q0 -63 17.5 -116t46.5 -95.5t64.5 -73t70.5 -45.5l190 241q28 -38 55 -70.5t53 -61.5q23 -26 48 -49.5t51 -41.5t51 -29.5t46 -11.5q22 0 44 13t41 34q-33 8 -62.5 24.5t-52.5 42.5t-36.5 60t-13.5 75q0 43 17.5 80t47.5 66t70.5 46 t86.5 17q45 0 86 -15.5t73 -43t51 -67t19 -86.5q0 -73 -32.5 -146.5t-86 -132t-123 -95t-144.5 -36.5q-38 0 -79 17.5t-79 44t-71.5 56t-56.5 52.5l-124 -176q-98 15 -179 59t-139.5 111.5t-91.5 156.5t-33 196zM986 401q0 -35 25.5 -59t60.5 -24t59 24t24 59t-24 59.5 t-59 24.5t-60.5 -24.5t-25.5 -59.5z" />
<glyph unicode="&#xe59;" horiz-adv-x="1512" d="M62 485q0 105 39 194.5t106.5 155t159.5 102.5t197 37q123 0 215 -34t165 -102q30 57 85 95t132 41q70 3 128.5 -21t89.5 -56q24 70 33 174t-4 218h173q12 -96 3.5 -188t-31 -174t-56 -150.5t-71.5 -116.5l-122 38q-3 19 -11.5 39.5t-24.5 37.5t-39.5 27.5t-55.5 10.5 q-27 0 -48 -11.5t-35.5 -28t-23 -38t-8.5 -40.5q91 -139 144.5 -315t77.5 -371l-175 -24q-12 94 -31 193t-48 191t-69 173t-95 141t-126.5 95t-162.5 35q-71 0 -133 -25t-106.5 -69t-70.5 -104t-26 -130q0 -100 43.5 -182.5t108.5 -124.5q-7 18 -9.5 37t-2.5 40 q0 47 19 88.5t51.5 71.5t77.5 48.5t95 18.5t94 -18.5t77 -48.5t52 -71.5t19 -88.5q0 -62 -26 -112t-69 -86t-102 -55.5t-124 -19.5q-117 0 -206.5 42.5t-150.5 112.5t-91.5 161t-30.5 187zM520 255q0 -42 29 -72.5t71 -30.5q41 0 70 30.5t29 72.5q0 40 -29 69.5t-70 29.5 q-42 0 -71 -29.5t-29 -69.5z" />
<glyph unicode="&#xe5a;" horiz-adv-x="1395" d="M47 996q0 91 54 148.5t134 86t168.5 27.5t160.5 -28v-172q-52 32 -112 42.5t-112.5 2t-87.5 -36.5t-35 -73q0 -32 16 -57.5t42 -42.5t58.5 -25.5t67.5 -8.5q91 0 164 29.5t127 81t89 122.5t50 153h175v-1245h-172v909q-27 -33 -70.5 -69.5t-99.5 -66.5t-123.5 -49.5 t-142.5 -19.5q-62 0 -125 17.5t-113.5 54t-81.5 91t-31 129.5zM1129 0v1245h172v-1245h-172z" />
<glyph unicode="&#xe5b;" horiz-adv-x="2117" d="M93 629q0 110 28.5 205t79.5 165t120.5 110t151.5 40q65 0 124.5 -29t103.5 -79.5t69.5 -120t25.5 -151.5q0 -64 -15 -118t-43 -92t-66 -59t-84 -21q-39 0 -72.5 16.5t-59.5 44t-40.5 64.5t-14.5 78q0 42 15.5 78t41 65t58.5 46t69 17h17t15 -3q-24 56 -61.5 88.5 t-79.5 32.5q-49 0 -90.5 -28t-72 -79t-49 -123t-18.5 -159q0 -85 21.5 -152t58 -113t87.5 -71.5t110 -25.5q71 0 134 37.5t115 106.5t87.5 166.5t52.5 218.5q12 76 29.5 100.5t57.5 24.5q16 0 35 -18.5t39.5 -48.5t39.5 -71t36 -89q6 42 13 77.5t16 63t21 43.5t31 16 q29 0 69 -51t71 -130q12 48 29.5 86t38.5 38q35 0 70.5 -44.5t72.5 -117.5q15 47 35 82.5t50 35.5q23 0 47 -28t46 -67q22 47 71 42l169 -21q27 -5 53.5 -19.5t26.5 -27.5q0 -11 -8 -20t-21 -16.5t-27.5 -13t-26.5 -7.5l-157 -15q-9 -29 -27 -57.5t-47 -28.5q-23 0 -46 34 t-44 70q-8 -24 -17.5 -49t-21 -45t-24.5 -32.5t-28 -12.5q-12 0 -26 14.5t-28.5 37t-28 50.5t-25.5 57q-9 -35 -20.5 -68.5t-23.5 -60.5t-26.5 -44t-29.5 -17q-16 0 -29.5 18.5t-28 47t-29 65t-29.5 71.5q-9 -44 -23.5 -86.5t-32 -76.5t-35.5 -55.5t-37 -21.5 q-30 0 -45 18.5t-26 62.5q-8 29 -17 70t-23 80q-25 -102 -71 -193.5t-97 -149.5q-73 -82 -161.5 -126t-183.5 -44q-92 0 -168 37t-131 104.5t-85.5 162.5t-30.5 209zM511 682q0 -39 22.5 -65t51.5 -26q31 0 53 26t22 65q0 40 -22 66.5t-53 26.5q-29 0 -51.5 -25.5 t-22.5 -67.5z" />
<glyph unicode="&#x2000;" horiz-adv-x="1215" />
<glyph unicode="&#x2001;" horiz-adv-x="2430" />
<glyph unicode="&#x2002;" horiz-adv-x="1215" />
<glyph unicode="&#x2003;" horiz-adv-x="2430" />
<glyph unicode="&#x2004;" horiz-adv-x="810" />
<glyph unicode="&#x2005;" horiz-adv-x="607" />
<glyph unicode="&#x2006;" horiz-adv-x="405" />
<glyph unicode="&#x2007;" horiz-adv-x="405" />
<glyph unicode="&#x2008;" horiz-adv-x="303" />
<glyph unicode="&#x2009;" horiz-adv-x="486" />
<glyph unicode="&#x200a;" horiz-adv-x="135" />
<glyph unicode="&#x200c;" />
<glyph unicode="&#x200d;" />
<glyph unicode="&#x2010;" horiz-adv-x="784" d="M100 489v165h586v-165h-586z" />
<glyph unicode="&#x2011;" horiz-adv-x="784" d="M100 489v165h586v-165h-586z" />
<glyph unicode="&#x2012;" horiz-adv-x="784" d="M100 489v165h586v-165h-586z" />
<glyph unicode="&#x2013;" horiz-adv-x="1136" d="M93 448v140h950v-140h-950z" />
<glyph unicode="&#x2014;" horiz-adv-x="2272" d="M93 448v140h2084v-140h-2084z" />
<glyph unicode="&#x2018;" horiz-adv-x="588" d="M140 1245q0 35 11.5 76t35.5 83.5t63 83.5t95 78l79 -57q-64 -36 -101 -80t-59 -96l16 3q7 2 15.5 2.5t19.5 0.5q25 0 49.5 -10t43 -27.5t29.5 -41.5t11 -52t-10.5 -55t-30 -47.5t-45.5 -32.5t-56 -12q-78 0 -122 52.5t-44 131.5z" />
<glyph unicode="&#x2019;" horiz-adv-x="588" d="M140 1420q0 27 10.5 53.5t30.5 47t45.5 33t56.5 12.5q77 0 121 -51t44 -133q0 -35 -11 -76t-35.5 -83t-63.5 -84t-95 -78l-77 56q60 38 98 82t60 96l-15 -3q-8 -2 -17 -2.5t-18 -0.5q-26 0 -50.5 10t-42.5 27.5t-29.5 41.5t-11.5 52z" />
<glyph unicode="&#x201c;" horiz-adv-x="1001" d="M140 1245q0 35 11.5 76t35.5 83.5t63 83.5t95 78l79 -57q-64 -36 -101 -80t-59 -96l16 3q7 2 15.5 2.5t19.5 0.5q25 0 49.5 -10t43 -27.5t29.5 -41.5t11 -52t-10.5 -55t-30 -47.5t-45.5 -32.5t-56 -12q-78 0 -122 52.5t-44 131.5zM555 1245q0 36 10.5 76.5t35 83t64 83.5 t95.5 78l78 -57q-61 -36 -100 -80t-60 -96l15 3q8 2 17 2.5t18 0.5q26 0 50.5 -10t42.5 -27.5t29.5 -41.5t11.5 -52t-10.5 -55t-30.5 -47.5t-46 -32.5t-56 -12q-78 0 -121 52.5t-43 131.5z" />
<glyph unicode="&#x201d;" horiz-adv-x="1001" d="M140 1420q0 27 10.5 53.5t30.5 47t45.5 33t56.5 12.5q77 0 121 -51t44 -133q0 -35 -11 -76t-35.5 -83t-63.5 -84t-95 -78l-77 56q60 38 98 82t60 96l-15 -3q-8 -2 -17 -2.5t-18 -0.5q-26 0 -50.5 10t-42.5 27.5t-29.5 41.5t-11.5 52zM555 1420q0 27 10.5 53.5t30.5 47 t45.5 33t56.5 12.5q77 0 120.5 -51t43.5 -133q0 -35 -11.5 -76t-36 -83t-63 -84t-94.5 -78l-78 56q61 38 99 82t59 96l-15 -3q-8 -2 -16 -2.5t-17 -0.5q-26 0 -50.5 10t-42.5 27.5t-29.5 41.5t-11.5 52z" />
<glyph unicode="&#x2022;" horiz-adv-x="1120" d="M93 623q0 97 36.5 182.5t100 148.5t149 99.5t182.5 36.5t182 -36.5t148.5 -99.5t100 -148.5t36.5 -182.5t-36.5 -182t-100 -149t-148.5 -100.5t-182 -36.5t-182.5 36.5t-149 100.5t-100 149t-36.5 182z" />
<glyph unicode="&#x2026;" horiz-adv-x="1503" d="M125 109q0 52 36.5 90t87.5 38q52 0 90 -38t38 -90q0 -51 -38 -87.5t-90 -36.5q-51 0 -87.5 35.5t-36.5 88.5zM626 109q0 52 36.5 90t88.5 38t90 -38t38 -90q0 -51 -38 -87.5t-90 -36.5t-88.5 35.5t-36.5 88.5zM1126 109q0 52 36.5 90t88.5 38t90 -38t38 -90 q0 -51 -38 -87.5t-90 -36.5t-88.5 35.5t-36.5 88.5z" />
<glyph unicode="&#x202f;" horiz-adv-x="486" />
<glyph unicode="&#x205f;" horiz-adv-x="607" />
<glyph unicode="&#x25fc;" horiz-adv-x="1064" d="M0 0v1064h1064v-1064h-1064z" />
<glyph unicode="&#xf700;" horiz-adv-x="1117" d="M-18 900q6 74 46 141t108.5 117t161.5 80t204 30q126 0 229 -41q34 16 62.5 46.5t28.5 65.5h190q0 -35 -13.5 -65.5t-35 -54.5t-47 -41.5t-51.5 -28.5q87 -73 135.5 -183t48.5 -262q0 -186 -52 -323.5t-143 -226.5t-216.5 -129t-272.5 -31l-178 688l-62 96h220l157 -620 q80 9 148.5 50t118 111t77.5 166.5t28 218.5q0 97 -26.5 172.5t-76 127.5t-118 79.5t-151.5 27.5q-134 0 -227.5 -53t-122.5 -158h-170z" />
<glyph unicode="&#xf701;" d="M-1263 1401v137h856v-137h-856z" />
<glyph unicode="&#xf702;" d="M-1263 1401v137h681v158h175v-295h-856z" />
<glyph unicode="&#xf703;" d="M-1263 1401v137h591v18q0 32 13 60.5t37.5 49.5t57 33.5t72.5 12.5q77 0 125.5 -46t48.5 -110q0 -63 -48.5 -109t-125.5 -46h-771zM-570 1556q0 -30 20.5 -49t50.5 -19q35 0 57 19t22 49q0 29 -22 47.5t-57 18.5q-30 0 -50.5 -18.5t-20.5 -47.5z" />
<glyph unicode="&#xf704;" d="M-1263 1401v137h413v158h175v-158h93v158h175v-295h-856z" />
<glyph unicode="&#xf705;" d="M-617 1401v295h175v-295h-175z" />
<glyph unicode="&#xf706;" d="M-731 1538v140h105q86 0 132 -33.5t46 -106.5h478v-137h-621v60q0 77 -84 77h-56z" />
<glyph unicode="&#xf707;" d="M-1120 1401v143q0 52 18 90t49.5 64t74 39t90.5 13h20l137 -84l134 84h21q100 0 165.5 -52.5t65.5 -153.5v-6h372v-137h-516v131q0 84 -78 84h-21l-146 -90l-151 90h-12q-39 0 -58 -24.5t-19 -59.5v-6h92v-125h-238z" />
<glyph unicode="&#xf708;" d="M-841 1550v131h149v149h175v-149h149v-131h-149v-149h-175v149h-149z" />
<glyph unicode="&#xf709;" d="M-796 1401v72q0 52 17 91.5t48.5 66t72.5 40t88 13.5h208v-155h-152q-48 0 -78.5 -27.5t-30.5 -69.5v-31h-173z" />
<glyph unicode="&#xf70a;" d="M-268 1401v295h175v-295h-175z" />
<glyph unicode="&#xf70b;" d="M-582 1538v140h106q84 0 130.5 -33.5t46.5 -106.5h370v-137h-513v60q0 77 -84 77h-56z" />
<glyph unicode="&#xf70c;" d="M-986 1401v143q0 52 18 90t49 64t73.5 39t91.5 13h20l137 -84l133 84h22q100 0 165.5 -52.5t65.5 -153.5v-6h146v-137h-289v131q0 84 -79 84h-21l-146 -90l-151 90h-12q-40 0 -59 -24.5t-19 -59.5v-6h93v-125h-238z" />
<glyph unicode="&#xf70d;" d="M-567 1550v131h151v149h173v-149h150v-131h-150v-149h-173v149h-151z" />
<glyph unicode="&#xf70e;" d="M-499 1401v72q0 52 18.5 91.5t49.5 66t72 40t88 13.5h209v-155h-152q-49 0 -79.5 -27.5t-30.5 -69.5v-31h-175z" />
<glyph unicode="&#xf70f;" horiz-adv-x="1942" d="M59 912q6 82 53.5 147.5t122 112t168.5 71.5t194 25q102 0 196.5 -23t167.5 -72.5t116 -125.5t43 -182v-491q0 -70 24.5 -115.5t63 -73t89 -38t101.5 -10.5q52 0 101.5 10.5t88 38t63 73t24.5 115.5v871h175v-897q0 -108 -42.5 -178t-109 -112.5t-146 -59t-154.5 -16.5 q-76 0 -155.5 16.5t-145 59t-108 112.5t-42.5 178v499q0 70 -26.5 120t-73.5 82t-112 47t-141 15q-70 0 -130.5 -14.5t-107 -38.5t-75.5 -54.5t-35 -64.5q14 -10 31.5 -23t33.5 -29t26.5 -35t10.5 -39q0 -27 -13 -47.5t-27.5 -40.5t-27 -42t-12.5 -54v-474h224v-155h-399 v641q0 29 15 50.5t33.5 39t33.5 34t15 38.5q0 18 -20.5 37t-44.5 36q-16 9 -31.5 18t-34.5 18z" />
<glyph unicode="&#xf710;" d="M-859 1401v242h173v-105h713v-137h-886z" />
<glyph unicode="&#xf711;" d="M-669 1550q0 70 49.5 116t127.5 46q77 0 127 -46t50 -116q0 -73 -50 -117.5t-127 -44.5q-78 0 -127.5 44.5t-49.5 117.5zM-567 1550q0 -28 22 -48t53 -20q30 0 53 20t23 48t-23 48.5t-53 20.5q-31 0 -53 -20.5t-22 -48.5z" />
<glyph unicode="&#xf712;" d="M-1224 1594q0 48 20.5 90.5t60 73t97.5 48.5t134 18h600v-137h-600q-78 0 -122 -22t-44 -71q0 -15 4 -25.5t10 -18.5q6 -9 15 -15h125l264 111l298 -120v-144l-295 124l-246 -105h-214q-38 23 -72.5 69.5t-34.5 123.5z" />
<glyph unicode="&#xf713;" d="M-582 1791v232h175v-232h-175z" />
<glyph unicode="&#xf714;" d="M-819 1915v123h97q74 0 116 -28.5t42 -94.5h333v-124h-461v51q0 73 -74 73h-53z" />
<glyph unicode="&#xf715;" d="M-859 1791v130q0 90 59.5 136.5t148.5 46.5h19l121 -75l122 75h18q91 0 150.5 -47.5t59.5 -135.5v-6h131v-124h-263v117q0 35 -17 55.5t-52 20.5h-21l-131 -82l-134 82h-12q-35 0 -51.5 -21.5t-16.5 -54.5v-6h84v-111h-215z" />
<glyph unicode="&#xf716;" d="M-701 1908v103h134v119h143v-119h135v-103h-135v-117h-143v117h-134z" />
<glyph unicode="&#xf717;" d="M-710 1693v63q0 47 16 82.5t44 60t65.5 37.5t79.5 13h187v-140h-136q-45 0 -73 -25t-28 -62v-29h-155z" />
<glyph unicode="&#xf718;" d="M-362 -529h269v-374h-175v237h-94v137z" />
<glyph unicode="&#xf719;" d="M-710 -529h237v-190q0 -49 31.5 -65t70.5 -16q40 0 71.5 16t31.5 65v190h175v-199q0 -50 -20.5 -88t-57.5 -64.5t-88 -39.5t-112 -13q-129 0 -203 52.5t-74 152.5v62h-62v137z" />
<glyph unicode="&#xf71a;" d="M-348 -657q0 54 36.5 91t91.5 37q53 0 90 -37t37 -91q0 -53 -37 -90t-90 -37q-55 0 -91.5 37t-36.5 90z" />
<glyph unicode="&#xf71b;" />
<glyph unicode="&#xf71c;" />
<glyph unicode="&#xf71d;" />
<glyph unicode="&#xf880;" />
<glyph horiz-adv-x="638" d="M-669 1550q0 70 49.5 116t127.5 46q77 0 127 -46t50 -116q0 -73 -50 -117.5t-127 -44.5q-78 0 -127.5 44.5t-49.5 117.5zM-567 1550q0 -28 22 -48t53 -20q30 0 53 20t23 48t-23 48.5t-53 20.5q-31 0 -53 -20.5t-22 -48.5zM15 1084v158q97 15 191.5 9.5t169.5 -36.5 t121.5 -91t46.5 -156v-968h-173v933q0 55 -28 90t-77 52.5t-113.5 19t-137.5 -10.5z" />
<glyph d="M-888 1569q-1 32 9 61.5t29 54.5t44.5 45.5t54.5 34.5q24 15 61.5 25t63.5 13q-37 18 -51.5 48.5t-14.5 63.5q0 31 14.5 62.5t40.5 61.5t61.5 55.5t79.5 44.5q51 19 111 30t119 15.5t111.5 3.5t86.5 -2v-154q-76 9 -157 7t-147 -16.5t-108.5 -42t-42.5 -69.5 q0 -26 16 -38.5t42.5 -17.5t59.5 -5h66v-145q-73 10 -141.5 5t-122.5 -20.5t-86.5 -42.5t-32.5 -60q0 -26 23 -34.5t51 -8.5q57 0 98.5 15.5t79.5 34.5l75 -124q-25 -14 -57.5 -28.5t-70.5 -24t-81.5 -15t-90.5 -1.5q-91 10 -140.5 58.5t-52.5 109.5z" />
<glyph />
<glyph />
<glyph d="M-1263 1401v137h413v158h175v-158h93v158h175v-295h-856zM-719 1791v232h175v-232h-175z" />
<glyph d="M-1245 1462v137h886v-137h-886z" />
<glyph d="M-1245 1462v137h713v160h173v-297h-886z" />
</font>
</defs>
</svg>
