<svg id="Layer_1" data-name="Layer 1" xmlns="http://www.w3.org/2000/svg" viewBox="0 0 20.06 32.66"><defs><style>.cls-1{fill:#020000;}</style></defs><title>ic_acc</title><path class="cls-1" d="M747.36,466.61v5.65a1.57,1.57,0,0,0,1.17,1.78h0a1.57,1.57,0,0,0,1.17-1.78v-5.65a2.89,2.89,0,0,1-1.17.25A2.54,2.54,0,0,1,747.36,466.61Z" transform="translate(-743.37 -456.8)"/><path class="cls-1" d="M748.09,475v13.88a0.46,0.46,0,1,0,.86,0V475A1.21,1.21,0,0,1,748.09,475Z" transform="translate(-743.37 -456.8)"/><path class="cls-1" d="M748.52,456.8a5.15,5.15,0,1,0,5.15,5.15A5.16,5.16,0,0,0,748.52,456.8Zm0,9.43a4.28,4.28,0,1,1,4.28-4.28A4.29,4.29,0,0,1,748.52,466.24Z" transform="translate(-743.37 -456.8)"/><rect class="cls-1" x="4.28" y="16.28" width="1.72" height="2.86"/><path class="cls-1" d="M755.15,465.6v6c0,1,.56,1.9,1.24,1.9h0c0.69,0,1.24-.85,1.24-1.9v-6a3.08,3.08,0,0,1-1.24.26A2.72,2.72,0,0,1,755.15,465.6Z" transform="translate(-743.37 -456.8)"/><path class="cls-1" d="M755.93,474.51V488.8a0.49,0.49,0,1,0,.92,0V474.51A1.29,1.29,0,0,1,755.93,474.51Z" transform="translate(-743.37 -456.8)"/><rect class="cls-1" x="12.09" y="15.71" width="1.84" height="3.06"/><path class="cls-1" d="M758,465.34c-0.43-1.22-.33,1.78-0.33,1.78v3.4h-2.48v-8.79" transform="translate(-743.37 -456.8)"/><path class="cls-1" d="M755.15,462c0,2.8,2.67,5.06,6,5.06V456.9C757.81,456.9,755.15,459.16,755.15,462Z" transform="translate(-743.37 -456.8)"/><rect class="cls-1" x="18.17" y="0.11" width="1.9" height="10.21" rx="0.85" ry="0.85"/></svg>