<svg id="Layer_1" data-name="Layer 1" xmlns="http://www.w3.org/2000/svg" xmlns:xlink="http://www.w3.org/1999/xlink" viewBox="0 0 140.21 50.09"><defs><style>.cls-1{fill:url(#linear-gradient);}.cls-2{fill:url(#linear-gradient-2);}.cls-3{fill:#614e47;}.cls-4{fill:none;}</style><linearGradient id="linear-gradient" x1="371.65" y1="39.66" x2="344.44" y2="7.23" gradientTransform="translate(-193.66 152.09)" gradientUnits="userSpaceOnUse"><stop offset="0.15" stop-color="#c9da2f"/><stop offset="0.31" stop-color="#bfd42f"/><stop offset="0.57" stop-color="#a5c331"/><stop offset="0.9" stop-color="#7ba833"/><stop offset="0.96" stop-color="#73a333"/></linearGradient><linearGradient id="linear-gradient-2" x1="3677.36" y1="-19.97" x2="3712.33" y2="40.6" gradientTransform="matrix(-1, 0, 0, 1, 3865.33, 152.09)" gradientUnits="userSpaceOnUse"><stop offset="0.2" stop-color="#73a333"/><stop offset="0.26" stop-color="#80ac32"/><stop offset="0.48" stop-color="#a8c531"/><stop offset="0.65" stop-color="#c0d42f"/><stop offset="0.75" stop-color="#c9da2f"/></linearGradient></defs><title>ic_ais</title><path class="cls-1" d="M136.5,171.29a109,109,0,0,0,8.28,10.25c27.58,27,46.62-2.79,46.89-3C176.09,186.9,158.35,188.52,136.5,171.29Z" transform="translate(-123.19 -154.01)"/><path class="cls-2" d="M123.19,158.37c10.39,8.72,42.85,41.36,79.66,10.31,7.36-6.2,13.72-11,21.87-14.24C201.59,149.61,171,187.86,123.19,158.37Z" transform="translate(-123.19 -154.01)"/><path class="cls-3" d="M200.33,200l9.23-20.86a3.61,3.61,0,0,1,3.4-2.31h0.35a3.51,3.51,0,0,1,3.36,2.3L225.92,200a2.76,2.76,0,0,1-2.48,4,3,3,0,0,1-2.79-2l-1.78-4.17H207.21l-1.85,4.35a2.86,2.86,0,0,1-2.69,1.82,2.68,2.68,0,0,1-2.69-2.73,3.05,3.05,0,0,1,.34-1.24m16.38-7.35L213,183.89l-3.67,8.73h7.34Z" transform="translate(-123.19 -154.01)"/><path class="cls-3" d="M243.73,200.92a2.71,2.71,0,0,1,1.62-4.89,2.86,2.86,0,0,1,1.67.54A11.21,11.21,0,0,0,253.8,199c2.38,0,3.82-.94,3.82-2.5v-0.08c0-1.48-.9-2.23-5.34-3.37-5.34-1.36-8.78-2.83-8.78-8.1v-0.07c0-4.8,3.86-8,9.28-8a15.42,15.42,0,0,1,8.41,2.34,2.7,2.7,0,0,1-1.45,5,2.77,2.77,0,0,1-1.47-.42,11.07,11.07,0,0,0-5.58-1.78c-2.23,0-3.39,1-3.39,2.31v0.07c0,1.76,1.13,2.32,5.71,3.49,5.37,1.39,8.4,3.33,8.4,8v0.08c0,5.25-4,8.21-9.72,8.21a17,17,0,0,1-10-3.18" transform="translate(-123.19 -154.01)"/><path class="cls-3" d="M231.42,179.91a2.92,2.92,0,0,1,5.84,0V201a2.92,2.92,0,0,1-5.84,0V179.91Z" transform="translate(-123.19 -154.01)"/><rect class="cls-4" width="140.21" height="50.09"/></svg>