<svg id="Layer_1" data-name="Layer 1" xmlns="http://www.w3.org/2000/svg" viewBox="0 0 19.93 25.13"><defs><style>.cls-1{fill:#050000;}</style></defs><title>ic_aunjai</title><path class="cls-1" d="M1306.65,453.89c-2.5-1.17-5.35-3-4.87-5.23,0,0-1.1,3.6.78,5.84A10,10,0,1,0,1306.65,453.89Zm-7.28,4.47a0.46,0.46,0,0,1,.46-0.46H1301a0.46,0.46,0,0,1,0,.92h-1.17A0.46,0.46,0,0,1,1299.37,458.36Zm2.63,3.46h-2a0.46,0.46,0,0,1,0-.92h2A0.46,0.46,0,0,1,1302,461.82Zm6.51,4.24a2.51,2.51,0,1,1-4.94,0v-2.24h4.94v2.24Zm3.22-4.66a0.42,0.42,0,0,1-.42.42h-1.54a0.42,0.42,0,0,1-.42-0.42v-0.08a0.42,0.42,0,0,1,.42-0.42h1.54a0.42,0.42,0,0,1,.42.42v0.08Zm0.19-2.58h-1.78a0.46,0.46,0,0,1,0-.92h1.78A0.46,0.46,0,0,1,1311.92,458.82Z" transform="translate(-1296.07 -448.65)"/></svg>