<svg id="Layer_1" data-name="Layer 1" xmlns="http://www.w3.org/2000/svg" viewBox="0 0 13.8 18.09"><defs><style>.cls-1{fill:#fff;}.cls-2{fill:#d69405;}.cls-3{fill:#754f04;}</style></defs><title>ic_book</title><path class="cls-1" d="M1098.76,326.3h12v-2.15h-12a1.08,1.08,0,0,0-1.08,1.07h0A1.08,1.08,0,0,0,1098.76,326.3Z" transform="translate(-1096.95 -322.44)"/><path class="cls-2" d="M1098.76,326.3a1.08,1.08,0,0,1-1.08-1.08h0a1.08,1.08,0,0,0,1.08,1.08h0Z" transform="translate(-1096.95 -322.44)"/><path class="cls-2" d="M1098.76,324.15h12v-0.74h-12a1.81,1.81,0,0,0-1.81,1.81v13.46a1.84,1.84,0,0,0,1.84,1.84h12V326.3h-12a1.08,1.08,0,0,1-1.08-1.08h0A1.08,1.08,0,0,1,1098.76,324.15Z" transform="translate(-1096.95 -322.44)"/><rect class="cls-1" x="2.51" y="4.77" width="11.29" height="13.32"/><rect class="cls-2" x="0.58" y="2.09" width="13.21" height="0.35"/><rect class="cls-2" x="0.58" y="2.98" width="13.21" height="0.35"/><polygon class="cls-3" points="4.95 2.67 1.69 2.67 1.69 0 3.32 0.94 4.95 0 4.95 2.67"/></svg>