<svg id="Layer_1" data-name="Layer 1" xmlns="http://www.w3.org/2000/svg" viewBox="0 0 21.93 29"><defs><style>.cls-1{fill:#f21414;}</style></defs><title>ic_check</title><path class="cls-1" d="M505,611.26H483v-29H497l8,9.07v19.93Zm-20.43-1.5h18.93V591.89l-7.18-8.13H484.52v26Z" transform="translate(-483.02 -582.26)"/><path class="cls-1" d="M491.7,607a15.83,15.83,0,0,1-3.49-4.28,411682.94,411682.94,0,0,1-.23-0.27,13.72,13.72,0,0,1-1.85-5.22,6.11,6.11,0,0,1,1.25-3.22c1.38-.83,2-0.22,2-0.22l1.32,2.42a0.69,0.69,0,0,1-.26.92l-1.24.66s-1.18.6,0.58,3.87,3,2.49,3,2.49l1.24-.66a0.69,0.69,0,0,1,.92.26l1.39,2.36s0.18,0.89-1.18,1.47A6,6,0,0,1,491.7,607Z" transform="translate(-483.02 -582.26)"/><polygon class="cls-1" points="21.18 10.63 12.84 10.63 12.84 0.75 14.34 0.75 14.34 9.13 21.18 9.13 21.18 10.63"/></svg>