<svg id="Layer_1" data-name="Layer 1" xmlns="http://www.w3.org/2000/svg" viewBox="0 0 131.01 37.73"><defs><style>.cls-1{fill:#000;}</style></defs><title>ic_eservice</title><path class="cls-1" d="M376,649h-9.51v-2.13h9.27c1.72,0,2.19-.85,2.39-1.5l0.08-.61a2,2,0,0,0-1.26-1.85l-0.66-.15h-5.62a4.34,4.34,0,0,1-2.41-.75l0,0,0,0a4.43,4.43,0,0,1-1.69-3.5A4.7,4.7,0,0,1,368.1,635l0,0,0,0a5.29,5.29,0,0,1,3.28-.91h9v2.18h-9.23a2.12,2.12,0,0,0-2.32,1.43,2.91,2.91,0,0,0-.15.81,2.18,2.18,0,0,0,.79,1.64,2.26,2.26,0,0,0,1.07.48h6.09a4.25,4.25,0,0,1,2.32,1,4.15,4.15,0,0,1,1.29,2.07l0.09,0.6v1.08a4.63,4.63,0,0,1-1.14,2.4l0,0,0,0a4.63,4.63,0,0,1-2.09,1.1H377Z" transform="translate(-325.14 -625.62)"/><path class="cls-1" d="M401.43,649h-2.18V634h2.14v1.13a5.18,5.18,0,0,1,3.2-1.09h0.68v2.14h-0.63a3.05,3.05,0,0,0-2.74,1.43,3.84,3.84,0,0,0-.47,2.25v9Z" transform="translate(-325.14 -625.62)"/><path class="cls-1" d="M414,649h-1.3l-0.17-.22c-0.1-.12-0.24-0.3-1.49-3.79l-3.84-10.11-0.3-.8h1.9c0.47,0,.47,0,1.51,2.78l2.94,8,3.81-10.36,0.14-.38h2.35l-0.29.84-5.11,13.7Z" transform="translate(-325.14 -625.62)"/><path class="cls-1" d="M423.38,632.45h-2.14V629h2.14v3.44Zm0,16.5h-2.15V634h2.15V649Z" transform="translate(-325.14 -625.62)"/><path class="cls-1" d="M439.27,649h-6.78a7.07,7.07,0,0,1-5.74-2.84,8.1,8.1,0,0,1-1.15-2.61l-0.27-1.62v-0.1a10,10,0,0,1,.78-3.71l0,0,0,0,0.57-.91a6.54,6.54,0,0,1,3.66-2.6,10.72,10.72,0,0,1,3.61-.39h5.3v2.23h-5.6c-2.24,0-3.22.4-3.65,0.74l-0.05,0-0.05,0a4.7,4.7,0,0,0-2.11,2.85,10.77,10.77,0,0,0-.22,1.55,8.07,8.07,0,0,0,.4,2.12,5,5,0,0,0,2.49,2.67,8.14,8.14,0,0,0,3.24.47h5.56V649Z" transform="translate(-325.14 -625.62)"/><path class="cls-1" d="M444.58,638.1a6.59,6.59,0,0,1,1.85-1.36,9,9,0,0,1,2.27-.44,6.76,6.76,0,0,1,2.12.44,4.67,4.67,0,0,1,2.27,1.77,4.23,4.23,0,0,1,.68,1.58H443.61a5.39,5.39,0,0,1,1-2m8.82,5.9a5.11,5.11,0,0,1-4.86,2.78,6,6,0,0,1-1.73-.33,5.65,5.65,0,0,1-2.24-1.48,5.3,5.3,0,0,1-1.1-2.69h12.68v-0.89a7.52,7.52,0,0,0-1.27-4.21l-0.7-.87,0,0,0,0a8,8,0,0,0-5.59-2.16h-0.06a14.22,14.22,0,0,0-2.59.51,7.3,7.3,0,0,0-3.77,3.13,8.94,8.94,0,0,0-.93,3.78A8.48,8.48,0,0,0,442,645a7.57,7.57,0,0,0,2.08,2.5l0,0,0,0a7.79,7.79,0,0,0,4.24,1.36h0.7a9.25,9.25,0,0,0,2.38-.41h0.07A7.92,7.92,0,0,0,454.9,646l0,0,0,0a10.48,10.48,0,0,0,.89-1.91h-2.43Z" transform="translate(-325.14 -625.62)"/><path class="cls-1" d="M385.76,638.1a6.57,6.57,0,0,1,1.86-1.36,9,9,0,0,1,2.26-.44,6.76,6.76,0,0,1,2.12.44,4.62,4.62,0,0,1,2.27,1.77,4.05,4.05,0,0,1,.68,1.58H384.79a5.3,5.3,0,0,1,1-2m8.83,5.9a5.12,5.12,0,0,1-4.87,2.78,6.11,6.11,0,0,1-1.73-.33,5.7,5.7,0,0,1-2.24-1.48,5.32,5.32,0,0,1-1.1-2.69h12.68v-0.89a7.56,7.56,0,0,0-1.26-4.21l-0.7-.87,0,0,0,0a8,8,0,0,0-5.59-2.16h-0.06a14.22,14.22,0,0,0-2.6.51,7.27,7.27,0,0,0-3.77,3.13,9,9,0,0,0-.93,3.78,8.45,8.45,0,0,0,.78,3.52,7.49,7.49,0,0,0,2.08,2.5l0,0,0,0a7.8,7.8,0,0,0,4.25,1.36h0.7a9.25,9.25,0,0,0,2.38-.41h0.06a8,8,0,0,0,3.39-2.55l0,0,0,0A10.85,10.85,0,0,0,397,644h-2.42Z" transform="translate(-325.14 -625.62)"/><path class="cls-1" d="M354.52,646.78a10.76,10.76,0,1,1-9.57-13c0.33,0,.66.07,1,0.13l7.09-6a18.87,18.87,0,1,0,9.71,18.87h-8.2Zm-10.33,2.68,10-8.41v0l6.46-5.42a19,19,0,0,0-5.42-6.32l-16.36,13.81Z" transform="translate(-325.14 -625.62)"/></svg>