<svg id="Layer_1" data-name="Layer 1" xmlns="http://www.w3.org/2000/svg" viewBox="0 0 12.36 26.46"><defs><style>.cls-1{fill:#020000;fill-rule:evenodd;}</style></defs><title>ic_fb</title><path class="cls-1" d="M134.31,470.07c0-2.07,0-4.14,0-6.21,0-.35-0.1-0.46-0.45-0.44-0.65,0-1.29,0-1.94,0a0.28,0.28,0,0,1-.36-0.34q0-1.94,0-3.88a0.26,0.26,0,0,1,.32-0.32c0.66,0,1.32,0,2,0,0.38,0,.46-0.12.45-0.47q0-1.48,0-3a5.66,5.66,0,0,1,1.06-3.3,4.59,4.59,0,0,1,3.68-1.87c1.53-.07,3.05,0,4.58,0a0.23,0.23,0,0,1,.28.28q0,2,0,3.92a0.24,0.24,0,0,1-.3.3c-0.73,0-1.47,0-2.2,0a1.45,1.45,0,0,0-1.62,1.47c0,0.78,0,1.56,0,2.33,0,0.28.16,0.26,0.34,0.26,1.12,0,2.23,0,3.35,0,0.33,0,.44.07,0.4,0.41-0.14,1.3-.26,2.6-0.37,3.9a0.33,0.33,0,0,1-.42.35c-0.88,0-1.76,0-2.64,0-0.63,0-.57-0.09-0.57.55,0,4.05,0,8.11,0,12.16,0,0.43-.11.53-0.53,0.53q-2.27,0-4.54,0c-0.43,0-.5-0.14-0.49-0.52C134.32,474.15,134.31,472.11,134.31,470.07Z" transform="translate(-131.58 -450.25)"/></svg>