<svg id="Layer_1" data-name="Layer 1" xmlns="http://www.w3.org/2000/svg" viewBox="0 0 25.54 19.42"><defs><style>.cls-1{fill:#020000;}</style></defs><title>ic_game</title><path class="cls-1" d="M988.57,459.76l-0.09,0h-6.76V458a0.66,0.66,0,0,1,.11-0.43,0.8,0.8,0,0,1,.58-0.18h3.66a1.53,1.53,0,0,0,1.2-.3,1.62,1.62,0,0,0,.53-1.32v-4.63h-1.08v4.63a0.67,0.67,0,0,1-.14.49,0.57,0.57,0,0,1-.42.06h-3.76a1.74,1.74,0,0,0-1.39.55,1.65,1.65,0,0,0-.37,1.21v1.69h-6.76l-0.09,0a5.38,5.38,0,1,0,3.66,9.33l0,0c0.18-.16.29-0.27,3.66-0.28s3.52,0.12,3.68.24l0,0,0.06,0a5.35,5.35,0,0,0,3.66,1.44h0A5.38,5.38,0,0,0,988.57,459.76ZM976.36,466h-2v2h-1v-2h-2v-1h2v-2h1v2h2v1Zm10.12,0.5a1,1,0,1,1,1-1A1,1,0,0,1,986.48,466.51Zm2.68-3.8a1,1,0,1,1-1,1A1,1,0,0,1,989.16,462.71Zm0,5.46a1,1,0,1,1,1-1A1,1,0,0,1,989.18,468.16Zm2.7-1.65a1,1,0,1,1,1-1A1,1,0,0,1,991.87,466.51Z" transform="translate(-968.42 -451.11)"/></svg>