<svg id="Layer_1" data-name="Layer 1" xmlns="http://www.w3.org/2000/svg" viewBox="0 0 21.47 23.29"><defs><style>.cls-1{fill:#020101;}</style></defs><title>ic_google</title><path class="cls-1" d="M350.95,466.45l-0.1-.15c-0.19-.32-0.41-0.62-0.57-1a2.12,2.12,0,0,1-.1-1.65l0.19-.55-0.42,0a5.41,5.41,0,0,1-2.86-.45,4.71,4.71,0,0,1-2.7-3.74,5.18,5.18,0,0,1,1.64-4.45,6,6,0,0,1,3.32-1.7,15.55,15.55,0,0,1,2.74-.21h5.45v0l-0.16.1-1.49.87a0.68,0.68,0,0,1-.31.09H353.9v0l0.1,0.08a4.86,4.86,0,0,1,1.91,3.37,6,6,0,0,1-.16,2.17,4.65,4.65,0,0,1-1.29,2c-0.2.21-.42,0.4-0.64,0.59a4.07,4.07,0,0,0-.77.92,1.42,1.42,0,0,0,.09,1.64,7.82,7.82,0,0,0,1.07,1,14,14,0,0,1,1.78,1.68,4,4,0,0,1,1,2,4.76,4.76,0,0,1-.74,3.57,6.46,6.46,0,0,1-3.08,2.43,9.24,9.24,0,0,1-2.79.61,17.94,17.94,0,0,1-1.94,0,7.41,7.41,0,0,1-3-.72,5,5,0,0,1-1.9-1.62,3.46,3.46,0,0,1-.32-3.39,4.74,4.74,0,0,1,2.45-2.53,9.54,9.54,0,0,1,3.53-1l1.78-.16Zm-0.55,8.22c0.23,0,.46,0,0.69,0a5.77,5.77,0,0,0,2-.44A3.07,3.07,0,0,0,354,469c-0.7-.57-1.42-1.12-2.14-1.68a0.36,0.36,0,0,0-.18-0.06l-0.49,0a9.48,9.48,0,0,0-2.55.31,5.71,5.71,0,0,0-1.93.81,3.1,3.1,0,0,0-.67,4.46,4.59,4.59,0,0,0,2.3,1.51A7.24,7.24,0,0,0,350.4,474.66Zm3-15.38h0a7.78,7.78,0,0,0-.66-3.11,5.43,5.43,0,0,0-1-1.66,2.69,2.69,0,0,0-4,0,3.18,3.18,0,0,0-.75,1.93,6.6,6.6,0,0,0,.59,3.17,5.71,5.71,0,0,0,1.2,1.85,2.76,2.76,0,0,0,2.58.88,2.25,2.25,0,0,0,2-1.69A13,13,0,0,0,353.41,459.29Z" transform="translate(-342.81 -452.62)"/><path class="cls-1" d="M359.14,462.15V458.9H361v0.18c0,1,0,1.94,0,2.9a0.14,0.14,0,0,0,.18.18h2.89c0.21,0,.22,0,0.22.22,0,0.49,0,1,0,1.47a0.15,0.15,0,0,1-.18.18h-2.87c-0.23,0-.23,0-0.23.24,0,0.93,0,1.85,0,2.78a0.15,0.15,0,0,1-.18.18h-1.5c-0.14,0-.18,0-0.18-0.18,0-.95,0-1.9,0-2.84A0.15,0.15,0,0,0,359,464h-2.86c-0.19,0-.2,0-0.2-0.2,0-.5,0-1,0-1.51a0.13,0.13,0,0,1,.16-0.16h3.08Z" transform="translate(-342.81 -452.62)"/></svg>