<svg id="Layer_1" data-name="Layer 1" xmlns="http://www.w3.org/2000/svg" viewBox="0 0 19.17 19.18"><defs><style>.cls-1{fill:#070202;}</style></defs><title>ic_ig</title><path class="cls-1" d="M425,463.84q0,3.68,0,7.35a2.1,2.1,0,0,1-.16.85,2.2,2.2,0,0,1-1.72,1.36l-0.28,0H408.12a2.51,2.51,0,0,1-.65-0.07,2.23,2.23,0,0,1-1.62-1.81,3,3,0,0,1,0-.43q0-7.13,0-14.25c0-.13,0-0.26,0-0.39a2.22,2.22,0,0,1,2.21-2.21h14.67a2.24,2.24,0,0,1,.93.18,2.18,2.18,0,0,1,1.32,1.65,2,2,0,0,1,0,.36c0,0.41,0,.83,0,1.24Q425,460.76,425,463.84ZM408,462.37c0,0.08,0,.14,0,0.2q0,3.9,0,7.8s0,0.09,0,.13a0.72,0.72,0,0,0,.7.7h13.34a0.72,0.72,0,0,0,.67-0.53,1,1,0,0,0,0-.27q0-3.93,0-7.86s0-.07,0-0.1a0.42,0.42,0,0,0,0-.06h-1.59l0,0a5.91,5.91,0,0,1-5.27,7.34,5,5,0,0,1-.55,0l-0.57,0-0.55-.09-0.55-.14-0.52-.19c-0.17-.07-0.34-0.15-0.5-0.24s-0.33-.19-0.49-0.29-0.3-.21-0.45-0.33-0.29-.25-0.42-0.38-0.26-.27-0.38-0.41-0.23-.29-0.34-0.44-0.21-.32-0.3-0.48-0.17-.33-0.25-0.5-0.14-.35-0.2-0.53-0.11-.35-0.15-0.53-0.07-.36-0.1-0.54,0-.38,0-0.57a5.25,5.25,0,0,1,0-.55c0-.19,0-0.38.06-0.56s0.08-.36.1-0.55H408Zm7.36-2.21a3.68,3.68,0,1,0,3.69,3.67A3.67,3.67,0,0,0,415.41,460.16Zm7.37-1.85h0c0-.37,0-0.75,0-1.12a0.71,0.71,0,0,0-.51-0.68,1,1,0,0,0-.28,0h-2.26a0.72,0.72,0,0,0-.61.61,1.4,1.4,0,0,0,0,.21q0,1,0,2s0,0.08,0,.12a0.73,0.73,0,0,0,.55.68l0.19,0h2.22a0.73,0.73,0,0,0,.67-0.47,0.77,0.77,0,0,0,0-.29C422.78,459,422.78,458.67,422.78,458.31Z" transform="translate(-405.82 -454.25)"/></svg>