<svg id="Layer_1" data-name="Layer 1" xmlns="http://www.w3.org/2000/svg" viewBox="0 0 23.64 22.53"><defs><style>.cls-1{fill:#070303;}</style></defs><title>ic_line</title><path class="cls-1" d="M225.81,462.52c0-5.29-5.3-9.59-11.82-9.59s-11.82,4.3-11.82,9.59c0,4.74,4.21,8.71,9.89,9.47a1.46,1.46,0,0,1,1,.58,2.42,2.42,0,0,1,0,1.07l-0.17,1c-0.05.3-.24,1.17,1,0.64a38.15,38.15,0,0,0,9.29-6.86h0A8.53,8.53,0,0,0,225.81,462.52Zm-16.45,3.15H207a0.62,0.62,0,0,1-.62-0.62v-4.7a0.62,0.62,0,1,1,1.24,0v4.08h1.73A0.62,0.62,0,0,1,209.36,465.66Zm2.43-.62a0.62,0.62,0,1,1-1.24,0v-4.7a0.62,0.62,0,1,1,1.24,0V465Zm5.65,0a0.62,0.62,0,0,1-1.12.37l-2.41-3.28V465a0.62,0.62,0,1,1-1.24,0v-4.7a0.62,0.62,0,0,1,1.12-.37l2.41,3.28v-2.91a0.62,0.62,0,1,1,1.24,0V465Zm3.8-3a0.62,0.62,0,1,1,0,1.24h-1.73v1.11h1.73a0.62,0.62,0,0,1,0,1.24H218.9a0.62,0.62,0,0,1-.62-0.62V462.7h0v-2.35a0.62,0.62,0,0,1,.62-0.62h2.35a0.62,0.62,0,0,1,0,1.24h-1.73v1.11h1.73Z" transform="translate(-202.17 -452.93)"/></svg>