<svg id="Layer_1" data-name="Layer 1" xmlns="http://www.w3.org/2000/svg" viewBox="0 0 15.72 19.38"><defs><style>.cls-1{fill:#020101;}</style></defs><title>ic_music</title><path class="cls-1" d="M839.56,458.77a0.81,0.81,0,0,0-.65-0.18L829,460.25a0.81,0.81,0,0,0-.67.8v7a2.42,2.42,0,0,0-.49-0.05,3.73,3.73,0,0,0-2.56,1.18c-1.31,1.31-1.56,3.1-.59,4.08a2.09,2.09,0,0,0,1.52.59,3.73,3.73,0,0,0,2.56-1.18A3.68,3.68,0,0,0,830,470s0-5.31,0-5.31l8.27-1.39v3.1a2.42,2.42,0,0,0-.49-0.05,3.73,3.73,0,0,0-2.56,1.18c-1.31,1.31-1.56,3.1-.59,4.08a2.09,2.09,0,0,0,1.52.59,3.74,3.74,0,0,0,2.56-1.18,3.68,3.68,0,0,0,1.18-2.68s0-6,0-6v-3A0.81,0.81,0,0,0,839.56,458.77Z" transform="translate(-824.12 -454.5)"/><rect class="cls-1" x="15.38" width="0.35" height="6.19"/><rect class="cls-1" x="15.03" y="2.44" width="0.35" height="6.19"/><rect class="cls-1" x="14.68" y="1.22" width="0.35" height="6.19"/><rect class="cls-1" x="14.33" y="1.83" width="0.35" height="6.19"/><rect class="cls-1" x="13.98" y="1.22" width="0.35" height="6.19"/><rect class="cls-1" x="13.63" y="3.04" width="0.35" height="6.19"/><rect class="cls-1" x="13.29" y="1.22" width="0.35" height="6.19"/><rect class="cls-1" x="12.94" width="0.35" height="6.19"/><rect class="cls-1" x="12.59" y="1.22" width="0.35" height="6.19"/><rect class="cls-1" x="12.24" y="2.44" width="0.35" height="6.19"/><rect class="cls-1" x="11.89" y="0.61" width="0.35" height="6.19"/><rect class="cls-1" x="11.55" y="3.04" width="0.35" height="6.19"/><rect class="cls-1" x="11.2" y="1.22" width="0.35" height="6.19"/><rect class="cls-1" x="10.85" y="1.83" width="0.35" height="6.19"/><rect class="cls-1" x="10.5" y="0.61" width="0.35" height="6.19"/><rect class="cls-1" x="10.15" y="1.83" width="0.35" height="6.19"/><rect class="cls-1" x="9.8" y="2.44" width="0.35" height="6.19"/><rect class="cls-1" x="9.46" y="1.22" width="0.35" height="6.19"/><rect class="cls-1" x="9.11" y="3.04" width="0.35" height="6.19"/><rect class="cls-1" x="8.76" y="1.83" width="0.35" height="6.19"/><rect class="cls-1" x="8.41" y="1.22" width="0.35" height="6.19"/><rect class="cls-1" x="8.06" y="2.44" width="0.35" height="6.19"/><rect class="cls-1" x="7.71" width="0.35" height="6.19"/><rect class="cls-1" x="7.37" y="3.04" width="0.35" height="6.19"/><rect class="cls-1" x="7.02" y="1.22" width="0.35" height="6.19"/><rect class="cls-1" x="6.67" y="2.44" width="0.35" height="6.19"/><rect class="cls-1" x="6.32" y="3.65" width="0.35" height="6.19"/><rect class="cls-1" x="5.97" y="1.83" width="0.35" height="6.19"/><rect class="cls-1" x="5.63" y="2.44" width="0.35" height="6.19"/><rect class="cls-1" x="5.28" y="3.22" width="0.35" height="6.19"/><rect class="cls-1" x="4.93" y="1.22" width="0.35" height="6.19"/><rect class="cls-1" x="4.58" y="1.93" width="0.35" height="6.19"/><rect class="cls-1" x="4.23" y="1.22" width="0.35" height="6.19"/></svg>