<svg id="Layer_1" data-name="Layer 1" xmlns="http://www.w3.org/2000/svg" viewBox="0 0 17.7 17.32"><defs><style>.cls-1{fill:#050303;}</style></defs><title>ic_movie</title><path class="cls-1" d="M895.26,472.5h15a1.66,1.66,0,0,0,1.34-1.85V457a1.66,1.66,0,0,0-1.34-1.85h-15a1.66,1.66,0,0,0-1.34,1.85v13.61a1.66,1.66,0,0,0,1.34,1.85h0Zm8.54-1.3h-2.06v-1.77h2.06v1.77Zm4.91-14.67h2.06v1.76h-2.06v-1.76Zm-0.06,12.9h2.06v1.77h-2.06v-1.77Zm-3.39-12.9h2.06v1.76h-2.06v-1.76Zm-0.06,12.9h2.06v1.77H905.2v-1.77Zm-3.4-12.9h2.06v1.76h-2.06v-1.76Zm-0.58,4.26,3.1,2.15a1,1,0,0,1,0,1.8l-3.1,2.15c-0.72.5-1.3,0-1.3-1.12v-3.86c0-1.11.58-1.61,1.3-1.12h0Zm-2.88-4.26h2.06v1.76h-2.06v-1.76Zm-0.06,12.9h2.06v1.77h-2.06v-1.77Zm-3.39-12.9H897v1.76h-2.06v-1.76Zm-0.06,12.9h2.06v1.77h-2.06v-1.77Zm0,0" transform="translate(-893.92 -455.18)"/></svg>