<svg id="Layer_1" data-name="Layer 1" xmlns="http://www.w3.org/2000/svg" viewBox="0 0 31.34 26.37"><defs><style>.cls-1{fill:#f91010;}</style></defs><title>ic_mobilecare</title><path class="cls-1" d="M603.11,615.67s1.41,1.82,5.17,1.85,14.32-5.77,14.93-14.82c0.4-6.05-2.92-10.7-7.23-11.2-5.85-.68-8.12,4.87-8.12,4.87s-1.15-5.09-7.54-5.22-8,3-8.37,7.81c-0.36,4.1,1,11.64,9.05,12.43s6.21-1.92,6.21-1.92l-3.42-2.5-0.68-.25-2.27.07s-5.08.48-5.77-7.41c-0.44-6.24,8.56-9.49,12.72-.82,0,0,3.65-5.09,7.55-4.74s6.57,4.51,5.45,9.92c-0.78,3.73-2.5,6.48-8,10.32C607.83,617.51,605.59,616.25,603.11,615.67Z" transform="translate(-591.89 -591.15)"/><path class="cls-1" d="M613.48,601.74l-1.48.84a0.62,0.62,0,1,0,.62,1.09l1.48-.84a0.63,0.63,0,0,0,.23-0.85A0.64,0.64,0,0,0,613.48,601.74Z" transform="translate(-591.89 -591.15)"/><path class="cls-1" d="M614.41,603.36l-1.48.84a0.62,0.62,0,0,0,.62,1.09l1.48-.84a0.63,0.63,0,0,0,.23-0.85A0.64,0.64,0,0,0,614.41,603.36Z" transform="translate(-591.89 -591.15)"/><path class="cls-1" d="M613.62,605.81l-1.48.76a0.61,0.61,0,1,0,.54,1.1l0.24-.12a0.13,0.13,0,0,1,.17.05v0a0.4,0.4,0,0,1-.17.53L607.42,611a0.4,0.4,0,0,1-.53-0.17l-2.65-5.14a0.34,0.34,0,0,1,0-.3l1.13-2.67a0.65,0.65,0,0,0-1.13-.61l-0.9,1.38a0.13,0.13,0,0,1-.21,0l-0.38-.74a0.4,0.4,0,0,1,.17-0.53l5.49-2.83a0.4,0.4,0,0,1,.53.17l0.91,1.76a0.1,0.1,0,0,1,0,.14l-0.22.11a0.61,0.61,0,1,0,.54,1.1l1.48-.76a0.61,0.61,0,1,0-.54-1.1l-0.24.12a0.1,0.1,0,0,1-.14,0l-1.72-3.33a0.54,0.54,0,0,0-.73-0.23l-6.9,3.56a0.54,0.54,0,0,0-.23.73l1.42,2.76a0.34,0.34,0,0,1,0,.36l-1.15,1.76h0a3.24,3.24,0,0,0-.14,3.23h0a3.26,3.26,0,0,0,4.4,1.41l0.17-.09a0.14,0.14,0,0,1,.2.06l1.39,2.7a0.54,0.54,0,0,0,.73.23l6.9-3.56a0.54,0.54,0,0,0,.23-0.73l-1.32-2.55a0.13,0.13,0,0,1,.05-0.17l0.2-.1a0.62,0.62,0,0,0,.31-0.81A0.6,0.6,0,0,0,613.62,605.81Zm-10-5.44,2.87-1.48a0.24,0.24,0,0,1,.34.11,0.25,0.25,0,0,1-.11.34l-2.87,1.48A0.25,0.25,0,1,1,603.6,600.37Zm7.66,11.36a0.89,0.89,0,1,1,.38-1.21A0.9,0.9,0,0,1,611.27,611.73Z" transform="translate(-591.89 -591.15)"/></svg>