<svg id="Layer_1" data-name="Layer 1" xmlns="http://www.w3.org/2000/svg" xmlns:xlink="http://www.w3.org/1999/xlink" viewBox="0 0 95.59 48.61"><defs><style>.cls-1{fill:url(#linear-gradient);}.cls-2{fill:url(#linear-gradient-2);}.cls-3{fill:#614e47;}.cls-4{fill:none;}.cls-5{fill:#acc337;}</style><linearGradient id="linear-gradient" x1="527.6" y1="56.24" x2="509.35" y2="34.48" gradientTransform="translate(-193.66 152.09)" gradientUnits="userSpaceOnUse"><stop offset="0.15" stop-color="#c9da2f"/><stop offset="0.31" stop-color="#bfd42f"/><stop offset="0.57" stop-color="#a5c331"/><stop offset="0.9" stop-color="#7ba833"/><stop offset="0.96" stop-color="#73a333"/></linearGradient><linearGradient id="linear-gradient-2" x1="3524.7" y1="16.24" x2="3548.15" y2="56.87" gradientTransform="matrix(-1, 0, 0, 1, 3865.33, 152.09)" gradientUnits="userSpaceOnUse"><stop offset="0.2" stop-color="#73a333"/><stop offset="0.26" stop-color="#80ac32"/><stop offset="0.48" stop-color="#a8c531"/><stop offset="0.65" stop-color="#c0d42f"/><stop offset="0.75" stop-color="#c9da2f"/></linearGradient></defs><title>ic_onlinestore</title><path class="cls-1" d="M306.11,194.6a73.13,73.13,0,0,0,5.55,6.87c18.5,18.13,31.27-1.87,31.45-2C332.66,205.07,320.77,206.16,306.11,194.6Z" transform="translate(-297.18 -183.01)"/><path class="cls-2" d="M297.18,185.93c7,5.85,28.74,27.74,53.43,6.92,4.94-4.16,9.2-7.36,14.67-9.55C349.77,180.06,329.24,205.72,297.18,185.93Z" transform="translate(-297.18 -183.01)"/><path class="cls-3" d="M348.92,213.84l6.19-14a2.42,2.42,0,0,1,2.28-1.55h0.23a2.35,2.35,0,0,1,2.25,1.54l6.21,14a1.85,1.85,0,0,1-1.66,2.67,2,2,0,0,1-1.87-1.35l-1.19-2.8h-7.83l-1.24,2.92a1.92,1.92,0,0,1-1.8,1.22,1.8,1.8,0,0,1-1.8-1.83,2,2,0,0,1,.23-0.83m11-4.93-2.46-5.86L355,208.91h4.92Z" transform="translate(-297.18 -183.01)"/><path class="cls-3" d="M378,214.47a1.82,1.82,0,0,1,1.09-3.28,1.92,1.92,0,0,1,1.12.36,7.52,7.52,0,0,0,4.55,1.6c1.6,0,2.56-.63,2.56-1.68v-0.05c0-1-.6-1.49-3.58-2.26-3.58-.91-5.89-1.9-5.89-5.43v0c0-3.22,2.59-5.35,6.22-5.35a10.35,10.35,0,0,1,5.64,1.57,1.81,1.81,0,0,1-1,3.35,1.86,1.86,0,0,1-1-.28,7.43,7.43,0,0,0-3.74-1.19c-1.49,0-2.28.68-2.28,1.55v0c0,1.18.76,1.55,3.83,2.34,3.6,0.94,5.64,2.24,5.64,5.33v0.05c0,3.52-2.69,5.51-6.52,5.51a11.43,11.43,0,0,1-6.68-2.13" transform="translate(-297.18 -183.01)"/><path class="cls-3" d="M369.78,200.39a2,2,0,0,1,3.92,0v14.16a2,2,0,0,1-3.92,0V200.39Z" transform="translate(-297.18 -183.01)"/><rect class="cls-4" width="94.05" height="33.6"/><path class="cls-3" d="M315,227.54a4.91,4.91,0,0,1,.11-1,4.31,4.31,0,0,1,.33-1,3.76,3.76,0,0,1,.54-0.83,3.4,3.4,0,0,1,.77-0.66,3.71,3.71,0,0,1,1-.43,4.46,4.46,0,0,1,1.21-.15,4.55,4.55,0,0,1,1.22.15,3.74,3.74,0,0,1,1,.43,3.46,3.46,0,0,1,.77.66,3.77,3.77,0,0,1,.55.83,4.2,4.2,0,0,1,.33,1,5,5,0,0,1,0,2.07,4.14,4.14,0,0,1-.33,1,3.69,3.69,0,0,1-.55.82,3.46,3.46,0,0,1-.77.65,3.78,3.78,0,0,1-1,.42,4.61,4.61,0,0,1-1.22.15,4.52,4.52,0,0,1-1.21-.15,3.74,3.74,0,0,1-1-.42,3.4,3.4,0,0,1-.77-0.65,3.67,3.67,0,0,1-.54-0.82,4.25,4.25,0,0,1-.33-1A4.88,4.88,0,0,1,315,227.54Zm1.73,0a3.71,3.71,0,0,0,.05.63,2.9,2.9,0,0,0,.17.6,2.52,2.52,0,0,0,.29.53,1.86,1.86,0,0,0,.42.43,2,2,0,0,0,.56.28,2.3,2.3,0,0,0,.71.1,2.38,2.38,0,0,0,.73-0.1,2.05,2.05,0,0,0,.57-0.28,1.88,1.88,0,0,0,.43-0.43,2.48,2.48,0,0,0,.29-0.53,2.9,2.9,0,0,0,.17-0.6,3.76,3.76,0,0,0,0-1.27,3,3,0,0,0-.17-0.61,2.45,2.45,0,0,0-.29-0.54,2,2,0,0,0-.43-0.43,2,2,0,0,0-.57-0.29,2.38,2.38,0,0,0-.73-0.1,2.3,2.3,0,0,0-.71.1,2,2,0,0,0-.56.29,1.93,1.93,0,0,0-.42.43,2.49,2.49,0,0,0-.29.54,3,3,0,0,0-.17.61A3.74,3.74,0,0,0,316.76,227.54Z" transform="translate(-297.18 -183.01)"/><path class="cls-3" d="M324,224.62a1.2,1.2,0,0,1,.07-0.43,0.9,0.9,0,0,1,.21-0.33,1,1,0,0,1,.34-0.21,1.32,1.32,0,0,1,.46-0.07,1.11,1.11,0,0,1,.5.12,0.91,0.91,0,0,1,.38.36l3.08,4.77h0v-4.39a0.86,0.86,0,0,1,.22-0.64,0.82,0.82,0,0,1,.61-0.21,0.84,0.84,0,0,1,.61.21,0.85,0.85,0,0,1,.22.64v6a1.16,1.16,0,0,1-.25.8,1,1,0,0,1-.77.28,1.31,1.31,0,0,1-.56-0.11,1,1,0,0,1-.39-0.36l-3.08-4.77h0v4.4a0.83,0.83,0,0,1-.22.63,0.84,0.84,0,0,1-.61.21,0.86,0.86,0,0,1-.61-0.21,0.82,0.82,0,0,1-.22-0.63v-6Z" transform="translate(-297.18 -183.01)"/><path class="cls-3" d="M332.19,224.44a1,1,0,0,1,.06-0.35,0.75,0.75,0,0,1,.17-0.27,0.78,0.78,0,0,1,.27-0.18,1.09,1.09,0,0,1,.72,0,0.75,0.75,0,0,1,.44.45,1,1,0,0,1,.06.35V230h2.85a1.28,1.28,0,0,1,.36,0,0.89,0.89,0,0,1,.29.14,0.65,0.65,0,0,1,.27.54,0.65,0.65,0,0,1-.27.54,0.89,0.89,0,0,1-.29.14,1.28,1.28,0,0,1-.36,0h-3.55a1.66,1.66,0,0,1-.42,0,0.8,0.8,0,0,1-.32-0.17,0.75,0.75,0,0,1-.21-0.31,1.35,1.35,0,0,1-.07-0.48v-6Z" transform="translate(-297.18 -183.01)"/><path class="cls-3" d="M340.31,230.71a0.75,0.75,0,0,1-.07.32,0.81,0.81,0,0,1-.18.25,0.84,0.84,0,0,1-.27.17,1,1,0,0,1-.67,0,0.84,0.84,0,0,1-.27-0.17,0.8,0.8,0,0,1-.18-0.25,0.75,0.75,0,0,1-.07-0.32v-6.33a0.76,0.76,0,0,1,.07-0.32,0.8,0.8,0,0,1,.18-0.25,0.84,0.84,0,0,1,.27-0.17,1,1,0,0,1,.67,0,0.84,0.84,0,0,1,.27.17,0.81,0.81,0,0,1,.18.25,0.76,0.76,0,0,1,.07.32v6.33Z" transform="translate(-297.18 -183.01)"/><path class="cls-3" d="M341.88,224.62a1.2,1.2,0,0,1,.07-0.43,0.9,0.9,0,0,1,.21-0.33,1,1,0,0,1,.34-0.21,1.32,1.32,0,0,1,.46-0.07,1.11,1.11,0,0,1,.5.12,0.91,0.91,0,0,1,.38.36l3.08,4.77h0v-4.39a0.86,0.86,0,0,1,.22-0.64,0.82,0.82,0,0,1,.61-0.21,0.84,0.84,0,0,1,.61.21,0.85,0.85,0,0,1,.22.64v6a1.16,1.16,0,0,1-.25.8,1,1,0,0,1-.77.28,1.31,1.31,0,0,1-.56-0.11,1,1,0,0,1-.39-0.36l-3.08-4.77h0v4.4a0.83,0.83,0,0,1-.22.63,0.84,0.84,0,0,1-.61.21,0.86,0.86,0,0,1-.61-0.21,0.82,0.82,0,0,1-.22-0.63v-6Z" transform="translate(-297.18 -183.01)"/><path class="cls-3" d="M351.78,228.07v2h3.52a0.71,0.71,0,0,1,.28.05,0.68,0.68,0,0,1,.22.15,0.73,0.73,0,0,1,.15.22,0.67,0.67,0,0,1,0,.54,0.73,0.73,0,0,1-.15.22,0.68,0.68,0,0,1-.22.15,0.71,0.71,0,0,1-.28.05h-4.21a1,1,0,0,1-.4-0.08,1.06,1.06,0,0,1-.32-0.21,1,1,0,0,1-.22-0.32,1,1,0,0,1-.08-0.39v-5.74a1,1,0,0,1,.08-0.4,1.05,1.05,0,0,1,.56-0.55,1,1,0,0,1,.41-0.08h4.14a0.7,0.7,0,0,1,.28.06,0.76,0.76,0,0,1,.23.15,0.7,0.7,0,0,1,.15.22,0.7,0.7,0,0,1,0,.55,0.69,0.69,0,0,1-.15.22,0.74,0.74,0,0,1-.51.2h-3.49v1.65H355a0.69,0.69,0,0,1,.27.05,0.72,0.72,0,0,1,.22.15,0.71,0.71,0,0,1,.15.22,0.65,0.65,0,0,1,.06.27,0.64,0.64,0,0,1-.06.26,0.7,0.7,0,0,1-.37.37,0.69,0.69,0,0,1-.27.05h-3.22Z" transform="translate(-297.18 -183.01)"/><path class="cls-5" d="M358.32,229.17a1.74,1.74,0,0,0,1.65,1h0.33l0.35,0L361,230a1,1,0,0,0,.28-0.16,0.72,0.72,0,0,0,.27-0.59,0.67,0.67,0,0,0-.09-0.36,0.85,0.85,0,0,0-.25-0.26,1.59,1.59,0,0,0-.38-0.19l-0.48-.14-0.54-.12-0.57-.14a7.68,7.68,0,0,1-.86-0.28,2.74,2.74,0,0,1-.73-0.42,1.93,1.93,0,0,1-.5-0.63,2,2,0,0,1-.19-0.92,2.12,2.12,0,0,1,.12-0.73,2,2,0,0,1,.33-0.59,2.35,2.35,0,0,1,.5-0.46,3,3,0,0,1,.61-0.33,3.62,3.62,0,0,1,.69-0.19,4.11,4.11,0,0,1,.72-0.06,4.78,4.78,0,0,1,.93.09,3.29,3.29,0,0,1,.83.28,2.59,2.59,0,0,1,.67.48,2.09,2.09,0,0,1,.46.68,1.13,1.13,0,0,1,.05.16,0.76,0.76,0,0,1,0,.17,0.9,0.9,0,0,1-.06.32,0.75,0.75,0,0,1-.16.25,0.7,0.7,0,0,1-.24.17,0.82,0.82,0,0,1-.32.06,0.85,0.85,0,0,1-.27,0,1,1,0,0,1-.23-0.11,0.88,0.88,0,0,1-.19-0.17,1.16,1.16,0,0,1-.14-0.22,1.08,1.08,0,0,0-.54-0.52,2.08,2.08,0,0,0-.87-0.17,2.21,2.21,0,0,0-.43,0,1.35,1.35,0,0,0-.39.14,0.89,0.89,0,0,0-.29.25,0.6,0.6,0,0,0-.11.37,0.89,0.89,0,0,0,0,.26,0.47,0.47,0,0,0,.13.2,1,1,0,0,0,.25.17,3.26,3.26,0,0,0,.42.17l0.62,0.19,0.86,0.23,0.37,0.09a3.76,3.76,0,0,1,.48.16,3.32,3.32,0,0,1,.51.25,1.94,1.94,0,0,1,.46.39,1.87,1.87,0,0,1,.33.56,2.11,2.11,0,0,1,.13.77,2.33,2.33,0,0,1-.21,1,2.2,2.2,0,0,1-.63.79,3.11,3.11,0,0,1-1,.52,4.92,4.92,0,0,1-1.43.19,4.41,4.41,0,0,1-1-.12,3.52,3.52,0,0,1-.91-0.35,2.93,2.93,0,0,1-.74-0.58,2.49,2.49,0,0,1-.49-0.81,1.13,1.13,0,0,1-.05-0.16,0.76,0.76,0,0,1,0-.17,0.82,0.82,0,0,1,.06-0.32,0.76,0.76,0,0,1,.17-0.25,0.78,0.78,0,0,1,.26-0.17,0.86,0.86,0,0,1,.32-0.06,0.83,0.83,0,0,1,.5.16A1.07,1.07,0,0,1,358.32,229.17Z" transform="translate(-297.18 -183.01)"/><path class="cls-5" d="M365.87,225.14h-1.52a0.71,0.71,0,0,1-.29-0.06,0.7,0.7,0,0,1-.23-0.16,0.74,0.74,0,0,1-.15-0.24,0.77,0.77,0,0,1-.05-0.29,0.78,0.78,0,0,1,.05-0.29,0.74,0.74,0,0,1,.15-0.24,0.69,0.69,0,0,1,.23-0.16,0.71,0.71,0,0,1,.29-0.06h4.81a0.71,0.71,0,0,1,.29.06,0.68,0.68,0,0,1,.23.16,0.74,0.74,0,0,1,.15.24,0.78,0.78,0,0,1,.05.29,0.77,0.77,0,0,1-.05.29,0.74,0.74,0,0,1-.15.24,0.69,0.69,0,0,1-.23.16,0.71,0.71,0,0,1-.29.06h-1.56v5.56a0.76,0.76,0,0,1-.07.32,0.79,0.79,0,0,1-.18.25,0.88,0.88,0,0,1-.27.17,0.95,0.95,0,0,1-.67,0,0.89,0.89,0,0,1-.27-0.17,0.79,0.79,0,0,1-.18-0.25,0.77,0.77,0,0,1-.07-0.32v-5.56Z" transform="translate(-297.18 -183.01)"/><path class="cls-5" d="M370.13,227.54a4.91,4.91,0,0,1,.11-1,4.31,4.31,0,0,1,.33-1,3.76,3.76,0,0,1,.54-0.83,3.4,3.4,0,0,1,.77-0.66,3.71,3.71,0,0,1,1-.43,4.46,4.46,0,0,1,1.21-.15,4.55,4.55,0,0,1,1.22.15,3.74,3.74,0,0,1,1,.43,3.46,3.46,0,0,1,.77.66,3.77,3.77,0,0,1,.55.83,4.2,4.2,0,0,1,.33,1,5,5,0,0,1,0,2.07,4.14,4.14,0,0,1-.33,1,3.69,3.69,0,0,1-.55.82,3.46,3.46,0,0,1-.77.65,3.78,3.78,0,0,1-1,.42,4.61,4.61,0,0,1-1.22.15,4.52,4.52,0,0,1-1.21-.15,3.74,3.74,0,0,1-1-.42,3.4,3.4,0,0,1-.77-0.65,3.67,3.67,0,0,1-.54-0.82,4.25,4.25,0,0,1-.33-1A4.88,4.88,0,0,1,370.13,227.54Zm1.73,0a3.71,3.71,0,0,0,.05.63,2.9,2.9,0,0,0,.17.6,2.52,2.52,0,0,0,.29.53,1.86,1.86,0,0,0,.42.43,2,2,0,0,0,.56.28,2.3,2.3,0,0,0,.71.1,2.38,2.38,0,0,0,.73-0.1,2.05,2.05,0,0,0,.57-0.28,1.88,1.88,0,0,0,.43-0.43,2.48,2.48,0,0,0,.29-0.53,2.9,2.9,0,0,0,.17-0.6,3.76,3.76,0,0,0,0-1.27,3,3,0,0,0-.17-0.61,2.45,2.45,0,0,0-.29-0.54,2,2,0,0,0-.43-0.43,2,2,0,0,0-.57-0.29,2.38,2.38,0,0,0-.73-0.1,2.3,2.3,0,0,0-.71.1,2,2,0,0,0-.56.29,1.93,1.93,0,0,0-.42.43,2.49,2.49,0,0,0-.29.54,3,3,0,0,0-.17.61A3.74,3.74,0,0,0,371.86,227.54Z" transform="translate(-297.18 -183.01)"/><path class="cls-5" d="M385.64,230.41a0.76,0.76,0,0,1,0,.13,1,1,0,0,1,0,.13,0.8,0.8,0,0,1-.07.32,0.86,0.86,0,0,1-.18.26,0.84,0.84,0,0,1-.27.18,0.81,0.81,0,0,1-.32.07,0.78,0.78,0,0,1-.25,0,0.87,0.87,0,0,1-.22-0.11,0.81,0.81,0,0,1-.18-0.17,0.87,0.87,0,0,1-.12-0.21c0-.08-0.07-0.17-0.1-0.26l-0.1-.31-0.3-1.12a1.65,1.65,0,0,0-.15-0.37,1.1,1.1,0,0,0-.25-0.31,1.12,1.12,0,0,0-.37-0.21,1.51,1.51,0,0,0-.5-0.08h-1.48v2.3a1,1,0,0,1-.06.36,0.78,0.78,0,0,1-.17.28,0.76,0.76,0,0,1-.27.18,1,1,0,0,1-.36.06,1,1,0,0,1-.36-0.06,0.78,0.78,0,0,1-.28-0.18,0.79,0.79,0,0,1-.17-0.28,1,1,0,0,1-.06-0.36v-5.94a1,1,0,0,1,.08-0.4,1.05,1.05,0,0,1,.56-0.55,1,1,0,0,1,.41-0.08H383a3.67,3.67,0,0,1,1.12.16,2.36,2.36,0,0,1,.83.45,1.94,1.94,0,0,1,.52.71,2.34,2.34,0,0,1,.18.93,2.28,2.28,0,0,1-.08.6,1.73,1.73,0,0,1-.73,1,1.84,1.84,0,0,1-.7.27,1.66,1.66,0,0,1,.4.21,1.86,1.86,0,0,1,.33.3,2.09,2.09,0,0,1,.26.39,2.28,2.28,0,0,1,.18.46ZM382.51,227a2.58,2.58,0,0,0,.52-0.05,1.42,1.42,0,0,0,.45-0.17,0.86,0.86,0,0,0,.43-0.79,1,1,0,0,0-.06-0.36,0.8,0.8,0,0,0-.19-0.29,0.9,0.9,0,0,0-.32-0.2,1.24,1.24,0,0,0-.44-0.07h-2.06V227h1.67Z" transform="translate(-297.18 -183.01)"/><path class="cls-5" d="M388.55,228.07v2h3.52a0.71,0.71,0,0,1,.28.05,0.68,0.68,0,0,1,.22.15,0.73,0.73,0,0,1,.15.22,0.67,0.67,0,0,1,0,.54,0.73,0.73,0,0,1-.15.22,0.68,0.68,0,0,1-.22.15,0.71,0.71,0,0,1-.28.05h-4.21a1,1,0,0,1-.4-0.08,1.06,1.06,0,0,1-.32-0.21,1,1,0,0,1-.22-0.32,1,1,0,0,1-.08-0.39v-5.74a1,1,0,0,1,.08-0.4,1.05,1.05,0,0,1,.56-0.55,1,1,0,0,1,.41-0.08H392a0.7,0.7,0,0,1,.28.06,0.76,0.76,0,0,1,.23.15,0.7,0.7,0,0,1,.15.22,0.7,0.7,0,0,1,0,.55,0.69,0.69,0,0,1-.15.22,0.74,0.74,0,0,1-.51.2h-3.49v1.65h3.22a0.69,0.69,0,0,1,.27.05,0.72,0.72,0,0,1,.22.15,0.71,0.71,0,0,1,.15.22,0.65,0.65,0,0,1,.06.27,0.64,0.64,0,0,1-.06.26,0.7,0.7,0,0,1-.37.37,0.69,0.69,0,0,1-.27.05h-3.22Z" transform="translate(-297.18 -183.01)"/></svg>