<svg xmlns="http://www.w3.org/2000/svg" xmlns:xlink="http://www.w3.org/1999/xlink" viewBox="0 0 112.79 98.94"><defs><style>.cls-1,.cls-2,.cls-9{fill:none;}.cls-2{clip-rule:evenodd;}.cls-3{isolation:isolate;}.cls-4{clip-path:url(#clip-path);}.cls-5{fill:url(#linear-gradient);}.cls-6{clip-path:url(#clip-path-2);}.cls-7{fill:url(#linear-gradient-2);}.cls-8{fill:#614e47;}.cls-9{stroke:#fff;stroke-width:4.2px;}.cls-10{fill:#0071bb;}.cls-10,.cls-13{fill-rule:evenodd;}.cls-11{clip-path:url(#clip-path-3);}.cls-12{fill:url(#linear-gradient-3);}.cls-13{fill:#ec1c24;}.cls-14{mix-blend-mode:multiply;}.cls-15{clip-path:url(#clip-path-4);}.cls-16{clip-path:url(#clip-path-5);}.cls-17{mask:url(#mask);}.cls-18{fill:url(#linear-gradient-4);}.cls-19{clip-path:url(#clip-path-6);}.cls-20{mask:url(#mask-2);}.cls-21{fill:url(#linear-gradient-5);}.cls-22{clip-path:url(#clip-path-7);}.cls-23{clip-path:url(#clip-path-8);}.cls-24{mask:url(#mask-3);}.cls-25{fill:url(#linear-gradient-6);}.cls-26{clip-path:url(#clip-path-9);}.cls-27{fill:#e6e7e8;}.cls-28{fill:#fff;}</style><clipPath id="clip-path" transform="translate(-439.67 -141.11)"><path class="cls-1" d="M468.3,190.57c19.08,18.7,32.25-1.93,32.44-2.08-10.77,5.79-23,6.91-38.16-5a74.77,74.77,0,0,0,5.72,7.09"/></clipPath><linearGradient id="linear-gradient" x1="1671.92" y1="693.87" x2="1672.48" y2="693.87" gradientTransform="matrix(0, -52.56, -52.56, 0, 36949.24, 88074.23)" gradientUnits="userSpaceOnUse"><stop offset="0" stop-color="#c9da2f"/><stop offset="0.15" stop-color="#c9da2f"/><stop offset="0.31" stop-color="#bfd42f"/><stop offset="0.57" stop-color="#a5c331"/><stop offset="0.9" stop-color="#7ba833"/><stop offset="0.96" stop-color="#73a333"/><stop offset="1" stop-color="#73a333"/></linearGradient><clipPath id="clip-path-2" transform="translate(-439.67 -141.11)"><path class="cls-1" d="M502.21,176.94c-12.86,5-28.63,10.08-48.84-2.39,7.19,6,29.64,28.61,55.11,7.13,5.09-4.29,9.49-7.6,15.13-9.85a14.49,14.49,0,0,0-3-.3c-5.46,0-11.52,2.7-18.42,5.41"/></clipPath><linearGradient id="linear-gradient-2" x1="1665.24" y1="686.07" x2="1665.79" y2="686.07" gradientTransform="matrix(-43.41, 75.19, -75.19, -43.41, 123934.58, -95403.27)" gradientUnits="userSpaceOnUse"><stop offset="0" stop-color="#73a333"/><stop offset="0.2" stop-color="#73a333"/><stop offset="0.26" stop-color="#80ac32"/><stop offset="0.48" stop-color="#a8c531"/><stop offset="0.65" stop-color="#c0d42f"/><stop offset="0.75" stop-color="#c9da2f"/><stop offset="1" stop-color="#c9da2f"/></linearGradient><clipPath id="clip-path-3" transform="translate(-439.67 -141.11)"><path class="cls-1" d="M512.54,212.73a12.61,12.61,0,1,0,12.61,12.61,12.61,12.61,0,0,0-12.61-12.61h0"/></clipPath><linearGradient id="linear-gradient-3" x1="1657.67" y1="642.98" x2="1658.23" y2="642.98" gradientTransform="matrix(0, 45.27, 45.27, 0, -29032.46, -74964.63)" gradientUnits="userSpaceOnUse"><stop offset="0" stop-color="#fbae17"/><stop offset="1" stop-color="#fbae17"/></linearGradient><clipPath id="clip-path-4" transform="translate(-439.67 -141.11)"><rect class="cls-1" x="525.14" y="212.73" width="25.23" height="25.23"/></clipPath><clipPath id="clip-path-5" transform="translate(-439.67 -141.11)"><path class="cls-2" d="M525.14,225.34A12.62,12.62,0,1,1,537.76,238a12.62,12.62,0,0,1-12.62-12.62"/></clipPath><mask id="mask" x="85.47" y="71.61" width="25.23" height="25.23" maskUnits="userSpaceOnUse"/><linearGradient id="linear-gradient-4" x1="1657.67" y1="642.54" x2="1658.23" y2="642.54" gradientTransform="matrix(0, 45.27, 45.27, 0, -28987.53, -74965.43)" gradientUnits="userSpaceOnUse"><stop offset="0" stop-color="#0071bb"/><stop offset="0.14" stop-color="#0071bb"/><stop offset="0.24" stop-color="#0469b5"/><stop offset="0.73" stop-color="#174697"/><stop offset="1" stop-color="#1e398c"/></linearGradient><clipPath id="clip-path-6" transform="translate(-439.67 -141.11)"><path class="cls-1" d="M474.7,225.34a12.61,12.61,0,1,0,12.62-12.61,12.62,12.62,0,0,0-12.62,12.61"/></clipPath><mask id="mask-2" x="35.03" y="71.61" width="25.23" height="25.23" maskUnits="userSpaceOnUse"/><linearGradient id="linear-gradient-5" x1="1657.67" y1="643.43" x2="1658.23" y2="643.43" gradientTransform="matrix(0, 45.27, 45.27, 0, -29078.04, -74965.43)" gradientUnits="userSpaceOnUse"><stop offset="0" stop-color="#ec1c24"/><stop offset="0.11" stop-color="#ec1c24"/><stop offset="0.56" stop-color="#c51a20"/><stop offset="1" stop-color="#a4181c"/></linearGradient><clipPath id="clip-path-7" transform="translate(-439.67 -141.11)"><rect class="cls-1" x="499.92" y="212.73" width="25.23" height="25.23"/></clipPath><clipPath id="clip-path-8" transform="translate(-439.67 -141.11)"><path class="cls-2" d="M499.92,225.34A12.61,12.61,0,1,1,512.54,238a12.61,12.61,0,0,1-12.62-12.62"/></clipPath><mask id="mask-3" x="60.25" y="71.61" width="25.23" height="25.23" maskUnits="userSpaceOnUse"/><linearGradient id="linear-gradient-6" x1="1657.67" y1="642.98" x2="1658.23" y2="642.98" gradientTransform="matrix(0, 45.27, 45.27, 0, -29032.79, -74965.43)" gradientUnits="userSpaceOnUse"><stop offset="0" stop-color="#fbae17"/><stop offset="0.15" stop-color="#fbae17"/><stop offset="0.3" stop-color="#f0a516"/><stop offset="0.74" stop-color="#d79115"/><stop offset="1" stop-color="#cd8914"/></linearGradient><clipPath id="clip-path-9" transform="translate(-439.67 -141.11)"><rect class="cls-1" x="486.32" y="217.74" width="57.88" height="15.2"/></clipPath></defs><title>ic_otc</title><g class="cls-3"><g id="Layer_1" data-name="Layer 1"><g class="cls-4"><rect class="cls-5" x="458.76" y="174.24" width="45.81" height="44.28" transform="translate(-453.22 214.43) rotate(-40)"/></g><g class="cls-6"><polyline class="cls-7" points="31.26 0 0 54.14 66.37 92.46 97.63 38.32 31.26 0"/></g><path class="cls-8" d="M506.73,203.33l6.39-14.43a2.5,2.5,0,0,1,2.36-1.6h0.24a2.43,2.43,0,0,1,2.32,1.6l6.4,14.43a1.87,1.87,0,0,1,.19.8,1.9,1.9,0,0,1-1.9,1.95,2,2,0,0,1-1.93-1.39l-1.23-2.88H511.5l-1.28,3a2,2,0,0,1-1.86,1.26,1.85,1.85,0,0,1-1.86-1.89,2.13,2.13,0,0,1,.24-0.86m11.34-5.09-2.54-6-2.54,6h5.08Z" transform="translate(-439.67 -141.11)"/><path class="cls-8" d="M536.76,204a1.88,1.88,0,0,1,1.12-3.38A2,2,0,0,1,539,201a7.76,7.76,0,0,0,4.69,1.65c1.65,0,2.64-.65,2.64-1.73v-0.05c0-1-.62-1.54-3.69-2.33-3.69-.94-6.08-2-6.08-5.61v0c0-3.32,2.67-5.52,6.42-5.52a10.69,10.69,0,0,1,5.82,1.62,1.87,1.87,0,0,1-1,3.46,1.93,1.93,0,0,1-1-.29,7.66,7.66,0,0,0-3.86-1.23c-1.54,0-2.35.7-2.35,1.6v0c0,1.21.78,1.6,4,2.41,3.72,1,5.81,2.31,5.81,5.5v0.05c0,3.63-2.78,5.68-6.72,5.68a11.79,11.79,0,0,1-6.89-2.2" transform="translate(-439.67 -141.11)"/><path class="cls-8" d="M528.25,189.45a2,2,0,0,1,4,0v14.61a2,2,0,1,1-4,0V189.45Z" transform="translate(-439.67 -141.11)"/><path class="cls-9" d="M525.14,225.34A12.61,12.61,0,1,1,537.76,238,12.61,12.61,0,0,1,525.14,225.34Z" transform="translate(-439.67 -141.11)"/><path class="cls-9" d="M499.92,225.34A12.61,12.61,0,1,1,512.54,238,12.61,12.61,0,0,1,499.92,225.34Z" transform="translate(-439.67 -141.11)"/><path class="cls-9" d="M474.7,225.34A12.61,12.61,0,1,1,487.32,238,12.61,12.61,0,0,1,474.7,225.34Z" transform="translate(-439.67 -141.11)"/><path class="cls-10" d="M525.14,225.34A12.61,12.61,0,1,1,537.76,238a12.61,12.61,0,0,1-12.62-12.62" transform="translate(-439.67 -141.11)"/><g class="cls-11"><rect class="cls-12" x="60.25" y="71.61" width="25.23" height="25.23"/></g><path class="cls-13" d="M474.7,225.34A12.61,12.61,0,1,1,487.32,238a12.61,12.61,0,0,1-12.62-12.62" transform="translate(-439.67 -141.11)"/><g class="cls-14"><g class="cls-15"><g class="cls-16"><g class="cls-17"><rect class="cls-18" x="85.47" y="71.61" width="25.23" height="25.23"/></g></g></g></g><g class="cls-19"><g class="cls-20"><rect class="cls-21" x="35.03" y="71.61" width="25.23" height="25.23"/></g></g><g class="cls-14"><g class="cls-22"><g class="cls-23"><g class="cls-24"><rect class="cls-25" x="60.25" y="71.61" width="25.23" height="25.23"/></g></g></g></g><g class="cls-14"><g class="cls-26"><path class="cls-27" d="M543.85,228.55a1.51,1.51,0,0,0-1.5-.58,1.84,1.84,0,0,0-.78.37,4.36,4.36,0,1,1,0-5.94,1.59,1.59,0,0,0,1.86.15,1.57,1.57,0,0,0,.76-1.3,1.52,1.52,0,0,0-.35-1,7.51,7.51,0,1,0,0,10.29,1.59,1.59,0,0,0,0-2" transform="translate(-439.67 -141.11)"/><path class="cls-27" d="M489.6,231.43a1.65,1.65,0,0,1-3.28,0V219.35a1.65,1.65,0,0,1,3.28,0v12.08Z" transform="translate(-439.67 -141.11)"/><path class="cls-27" d="M517.15,230h-4.92l2.45-2.31c2.12-2.1,3.15-3.4,3.15-5.73,0-2.86-1.59-4.25-4.86-4.25a18.74,18.74,0,0,0-3.11.31h0s-2,.25-1.73,1.82c0,0,.14,1.3,1.88,1l0.36,0a17.26,17.26,0,0,1,2-.14c1.77,0,2.45.47,2.45,1.66,0,1.46-1.18,2.64-3,4.42l-2.9,2.88a2.25,2.25,0,0,0-.74,2,1.8,1.8,0,0,0,2.09,1.23h6.8a1.29,1.29,0,0,0,1.3-1.37v-0.1a1.25,1.25,0,0,0-1.26-1.38" transform="translate(-439.67 -141.11)"/></g></g><path class="cls-28" d="M543.46,228.27a1.51,1.51,0,0,0-1.5-.58,1.84,1.84,0,0,0-.78.37,4.36,4.36,0,1,1,0-5.93,1.58,1.58,0,0,0,2.62-1.15,1.5,1.5,0,0,0-.35-1,7.51,7.51,0,1,0,0,10.29,1.59,1.59,0,0,0,0-2" transform="translate(-439.67 -141.11)"/><path class="cls-28" d="M489.21,231.15a1.65,1.65,0,0,1-3.28,0V219.06a1.65,1.65,0,0,1,3.28,0v12.08Z" transform="translate(-439.67 -141.11)"/><path class="cls-28" d="M516.77,229.75h-4.92l2.45-2.31c2.12-2.1,3.15-3.4,3.15-5.73,0-2.86-1.59-4.25-4.86-4.25a18.77,18.77,0,0,0-3.11.31h0s-2,.25-1.73,1.82c0,0,.14,1.3,1.88,1l0.36,0a17.25,17.25,0,0,1,2-.14c1.77,0,2.46.47,2.46,1.66,0,1.47-1.18,2.64-3,4.43l-2.9,2.88a2.26,2.26,0,0,0-.74,2,1.8,1.8,0,0,0,2.09,1.23h6.8a1.29,1.29,0,0,0,1.31-1.37v-0.1a1.25,1.25,0,0,0-1.26-1.38" transform="translate(-439.67 -141.11)"/></g></g></svg>