<svg id="Layer_1" data-name="Layer 1" xmlns="http://www.w3.org/2000/svg" viewBox="0 0 21 19.91"><defs><style>.cls-1{fill:#010101;}</style></defs><title>ic_pack</title><path class="cls-1" d="M1243.51,453.57c-1,0-1.83,1.1-1.83,2.46a3.19,3.19,0,0,0,.09.7h3.5a3.19,3.19,0,0,0,.09-0.7C1245.34,454.67,1244.52,453.57,1243.51,453.57Z" transform="translate(-1230.67 -452.57)"/><path class="cls-1" d="M1240.67,456c0-1.36-.82-2.46-1.83-2.46s-1.83,1.1-1.83,2.46a3.19,3.19,0,0,0,.09.7h3.5A3.19,3.19,0,0,0,1240.67,456Z" transform="translate(-1230.67 -452.57)"/><path class="cls-1" d="M1239.78,461.81a0.9,0.9,0,0,0,.26.7,2.37,2.37,0,0,0,.79.43V460.7a2,2,0,0,0-.77.39A0.91,0.91,0,0,0,1239.78,461.81Z" transform="translate(-1230.67 -452.57)"/><path class="cls-1" d="M1241.57,464.68v2.57a1.61,1.61,0,0,0,.91-0.47,1.2,1.2,0,0,0,.32-0.83,1,1,0,0,0-.31-0.79A2.55,2.55,0,0,0,1241.57,464.68Z" transform="translate(-1230.67 -452.57)"/><path class="cls-1" d="M1246.28,456.73a4.19,4.19,0,0,0,.06-0.7c0-1.91-1.27-3.46-2.83-3.46a2.56,2.56,0,0,1-4.67,0c-1.56,0-2.83,1.55-2.83,3.46a4.19,4.19,0,0,0,.06.7h-5.39v5h2v10.75h16.92V461.73h2v-5h-5.39ZM1237,456c0-1.36.82-2.46,1.83-2.46s1.83,1.1,1.83,2.46a3.19,3.19,0,0,1-.09.7h-3.5A3.19,3.19,0,0,1,1237,456Zm6.93,11a2.48,2.48,0,0,1-.92,1,3.28,3.28,0,0,1-1.45.44v1.46a1.38,1.38,0,0,1-.07.5,0.29,0.29,0,0,1-.3.16,0.33,0.33,0,0,1-.3-0.13,0.74,0.74,0,0,1-.08-0.4V468.4a3.7,3.7,0,0,1-1.2-.32,2.84,2.84,0,0,1-.86-0.61,2.55,2.55,0,0,1-.51-0.76,2,2,0,0,1-.16-0.78,0.71,0.71,0,0,1,.22-0.51,0.73,0.73,0,0,1,.55-0.23,0.78,0.78,0,0,1,.45.12,0.63,0.63,0,0,1,.25.35,7.42,7.42,0,0,0,.28.74,1.42,1.42,0,0,0,.35.47,1.58,1.58,0,0,0,.63.32v-2.72a7.17,7.17,0,0,1-1.31-.48,2.21,2.21,0,0,1-.86-0.76,2.51,2.51,0,0,1,.31-2.92,2.87,2.87,0,0,1,1.85-.75v-0.62q0-.49.37-0.49a0.39,0.39,0,0,1,.38.48v0.63a3.67,3.67,0,0,1,1.08.26,2.12,2.12,0,0,1,.78.59,2.49,2.49,0,0,1,.41.62,1.42,1.42,0,0,1,.14.58,0.69,0.69,0,0,1-.21.51,0.71,0.71,0,0,1-.52.21,0.73,0.73,0,0,1-.74-0.62,1.33,1.33,0,0,0-.93-1v2.44q0.73,0.2,1.16.36a2.4,2.4,0,0,1,.77.47,2.19,2.19,0,0,1,.56.77,2.42,2.42,0,0,1,.2,1A2.6,2.6,0,0,1,1243.94,467Zm1.32-10.27h-3.5a3.19,3.19,0,0,1-.09-0.7c0-1.36.82-2.46,1.83-2.46s1.83,1.1,1.83,2.46A3.19,3.19,0,0,1,1245.25,456.73Z" transform="translate(-1230.67 -452.57)"/></svg>