<svg id="Layer_1" data-name="Layer 1" xmlns="http://www.w3.org/2000/svg" viewBox="0 0 41.7 34.88"><defs><style>.cls-1{fill:#59453e;}</style></defs><title>ic_store</title><path class="cls-1" d="M878.37,318.94a1.41,1.41,0,0,0-1.19-.64H857.54a1.47,1.47,0,0,0-1.52,1.12l-2,7.41a1.47,1.47,0,0,0,1.08,1.77,1.45,1.45,0,0,0,.57,0l0.15,0h15.92l-2,4.61H853.89l-5.81-21a1.42,1.42,0,0,0-1.38-1l-8.37-2.74a1.42,1.42,0,1,0,0,2.85l7.31,2.74,5.81,21a1.42,1.42,0,0,0,1.38,1h17.86a1.43,1.43,0,0,0,1.3-.85l6.5-14.94A1.44,1.44,0,0,0,878.37,318.94ZM873,325.75H857.34l1.25-4.61H875Z" transform="translate(-836.91 -308.45)"/><circle class="cls-1" cx="17.63" cy="31.65" r="3.23"/><circle class="cls-1" cx="30.64" cy="31.65" r="3.23"/></svg>