<svg id="Layer_1" data-name="Layer 1" xmlns="http://www.w3.org/2000/svg" viewBox="0 0 45.08 37.96"><defs><style>.cls-1{fill:#59453e;}.cls-2{fill:none;}</style></defs><title>ic_share1</title><path class="cls-1" d="M942,318l-14.87-11.19v7.07C909.84,314.57,909,332,909,332c8.52-11.15,15.88-10.67,18.13-10.2v7.36Z" transform="translate(-896.93 -306.79)"/><path class="cls-2" d="M909,320.16l1.22-1.58h-8.47a0.85,0.85,0,0,0-.83.83v20.5a0.85,0.85,0,0,0,.83.83h28.66a0.85,0.85,0,0,0,.83-0.83V329.53c-2,1.43-3.62,2.53-3.62,2.47S909,320.16,909,320.16Z" transform="translate(-896.93 -306.79)"/><path class="cls-1" d="M931.27,329.53v10.38a0.85,0.85,0,0,1-.83.83H901.77a0.85,0.85,0,0,1-.83-0.83v-20.5a0.85,0.85,0,0,1,.83-0.83h8.47l3.08-4H901.77a4.84,4.84,0,0,0-4.83,4.83v20.5a4.84,4.84,0,0,0,4.83,4.83h28.66a4.84,4.84,0,0,0,4.83-4.83V326.7Z" transform="translate(-896.93 -306.79)"/></svg>