<svg id="Layer_1" data-name="Layer 1" xmlns="http://www.w3.org/2000/svg" viewBox="0 0 12.98 20.83"><defs><style>.cls-1{fill:#050101;}</style></defs><title>ic_smartphone</title><path class="cls-1" d="M622.39,454.26a1.1,1.1,0,0,0-1.1-1.1H610.5a1.1,1.1,0,0,0-1.1,1.1v2.68h13v-2.68ZM617.2,456h-2.62a0.29,0.29,0,0,1,0-.58h2.62A0.29,0.29,0,0,1,617.2,456Z" transform="translate(-609.41 -453.16)"/><path class="cls-1" d="M609.41,472.89a1.1,1.1,0,0,0,1.1,1.1h10.78a1.1,1.1,0,0,0,1.1-1.1v-2h-13v2Zm6.49-1.37a0.72,0.72,0,1,1-.72.72A0.72,0.72,0,0,1,615.9,471.51Z" transform="translate(-609.41 -453.16)"/><rect class="cls-1" y="4.71" width="12.98" height="11.92"/></svg>