<svg id="Layer_1" data-name="Layer 1" xmlns="http://www.w3.org/2000/svg" viewBox="0 0 22.15 22.96"><defs><style>.cls-1{fill:#050101;}</style></defs><title>ic_sim</title><path class="cls-1" d="M1117.9,454.18l-2-.54-4.61-1.45-8.36,4.06,9.17,18.9,13-6.29Zm-1.19,11.76a10.65,10.65,0,0,1-3.5-1.26,149343.91,149343.91,0,0,1-.23-0.08,9.24,9.24,0,0,1-2.88-2.37,4.12,4.12,0,0,1-.4-2.3,1.12,1.12,0,0,1,1.09-.83l1.6,0.94a0.46,0.46,0,0,1,.17.62l-0.49.81s-0.47.75,1.68,2,2.6,0.39,2.6.39l0.49-.81a0.46,0.46,0,0,1,.62-0.17l1.62,0.88a1,1,0,0,1-.17,1.26A4,4,0,0,1,1116.71,465.94Z" transform="translate(-1102.89 -452.2)"/></svg>