<svg id="Layer_1" data-name="Layer 1" xmlns="http://www.w3.org/2000/svg" viewBox="0 0 22.96 18.66"><defs><style>.cls-1{fill:#020101;}</style></defs><title>ic_tw</title><path class="cls-1" d="M288.07,456.58a9.42,9.42,0,0,1-2.71.74,4.72,4.72,0,0,0,2.07-2.61,9.43,9.43,0,0,1-3,1.14,4.71,4.71,0,0,0-8,4.3,13.37,13.37,0,0,1-9.71-4.92,4.72,4.72,0,0,0,1.46,6.29,4.69,4.69,0,0,1-2.13-.59V461a4.71,4.71,0,0,0,3.78,4.62,4.71,4.71,0,0,1-2.13.08,4.72,4.72,0,0,0,4.4,3.27,9.51,9.51,0,0,1-7,2,13.4,13.4,0,0,0,20.62-11.29q0-.31,0-0.61a9.57,9.57,0,0,0,2.35-2.44h0Zm0,0" transform="translate(-265.11 -454.38)"/></svg>