<svg id="Layer_1" data-name="Layer 1" xmlns="http://www.w3.org/2000/svg" viewBox="0 0 19.53 18.41"><defs><style>.cls-1{fill:#050101;}</style></defs><title>ic_trendsvg</title><path class="cls-1" d="M1239.25,324.88h-14.65a1.9,1.9,0,0,0-1.9,1.9v0.35a1.4,1.4,0,0,0-1.09,1.36v10a1.4,1.4,0,0,0,1.4,1.4h8.35l3.38,3.38v-3.38h2.91a1.4,1.4,0,0,0,1.38-1.21h0.22a1.9,1.9,0,0,0,1.9-1.9v-10A1.9,1.9,0,0,0,1239.25,324.88Zm-10.18,12.05c-2.33.42-4.08-2.08-4.08-2.08,4.83,0.5,3.75-3.17,3.75-3.17a2.84,2.84,0,0,1,2.64-2.75,2.11,2.11,0,0,1,2.19,1.42l1.17,0.5-0.92.83v0.94C1234.49,336.06,1229.07,336.94,1229.07,336.94Zm11.08-.13a0.9,0.9,0,0,1-.9.9h-0.2v-9.22a1.4,1.4,0,0,0-1.4-1.4h-13.95v-0.31a0.9,0.9,0,0,1,.9-0.9h14.65a0.9,0.9,0,0,1,.9.9v10Z" transform="translate(-1221.62 -324.88)"/></svg>