<svg id="Layer_1" data-name="Layer 1" xmlns="http://www.w3.org/2000/svg" viewBox="0 0 17.14 20.57"><defs><style>.cls-1{fill:#050101;}</style></defs><title>ic_youtube</title><path class="cls-1" d="M1374.62,468.15h-1.13v-0.66A0.53,0.53,0,0,1,1374,467h0.07a0.53,0.53,0,0,1,.53.53v0.66Zm-4.24-1.41a0.48,0.48,0,0,0-.52.43v3.19a0.53,0.53,0,0,0,1,0v-3.19a0.48,0.48,0,0,0-.52-0.43h0Zm6.88-1.78V471a2.74,2.74,0,0,1-2.8,2.65h-11.53a2.74,2.74,0,0,1-2.8-2.65V465a2.74,2.74,0,0,1,2.8-2.65h11.53a2.74,2.74,0,0,1,2.8,2.65h0Zm-13.57,6.72v-6.39h1.43v-0.95h-3.81v0.93h1.19v6.41h1.19Zm4.29-5.44h-1.19v3.41a6.23,6.23,0,0,1,0,.83c-0.1.26-.53,0.55-0.7,0a6.91,6.91,0,0,1,0-.83v-3.44h-1.19v3.38c0,0.52,0,.91,0,1.08a1.09,1.09,0,0,0,.31.88A1.44,1.44,0,0,0,1367,471v0.71h1v-5.44h0Zm3.81,3.91v-2.84c0-1.08-.81-1.73-1.91-0.85v-2.11h-1.19v7.29h1l0.09-.45c1.25,1.15,2,.36,2-1h0Zm3.73-.38h-0.89s0,0.08,0,.12v0.5a0.49,0.49,0,0,1-.49.48H1374a0.49,0.49,0,0,1-.49-0.48v-1.31h2v-0.77a12.39,12.39,0,0,0-.06-1.45c-0.15-1-1.58-1.18-2.3-.66a1.34,1.34,0,0,0-.5.67,3.79,3.79,0,0,0-.15,1.2v1.69c0,2.82,3.42,2.42,3,0h0Zm-4.58-9.19a0.81,0.81,0,0,0,.29.36,0.82,0.82,0,0,0,.49.14,0.76,0.76,0,0,0,.46-0.14,1.1,1.1,0,0,0,.33-0.43l0,0.47h1.33v-5.65h-1v4.4a0.44,0.44,0,0,1-.87,0v-4.4h-1.09v3.81c0,0.49,0,.81,0,1a1.64,1.64,0,0,0,.11.47h0Zm-4-3.19a4.73,4.73,0,0,1,.14-1.27,1.36,1.36,0,0,1,1.39-1,1.65,1.65,0,0,1,.79.18,1.3,1.3,0,0,1,.51.46,1.85,1.85,0,0,1,.25.59,4.77,4.77,0,0,1,.07.93v1.43a7.83,7.83,0,0,1-.06,1.15,1.82,1.82,0,0,1-.26.69,1.23,1.23,0,0,1-.51.47,1.62,1.62,0,0,1-.72.15,2,2,0,0,1-.77-0.13,1,1,0,0,1-.49-0.39A1.75,1.75,0,0,1,1367,460a6.1,6.1,0,0,1-.07-1.11v-1.5Zm1,2.24a0.53,0.53,0,1,0,1.06,0v-3a0.53,0.53,0,1,0-1.06,0v3Zm-3.68,1.52h1.25v-4.33l1.48-3.71h-1.37l-0.79,2.76-0.8-2.76h-1.36l1.58,3.72v4.33Zm0,0" transform="translate(-1360.12 -453.1)"/></svg>